<svg id="Layer_7" data-name="Layer 7" xmlns="http://www.w3.org/2000/svg" viewBox="0 0 288 218.43"><defs><style>.cls-1{fill:#c22c38;}.cls-2{fill:#105aa5;}.cls-3{fill:#115ba5;}.cls-4{fill:#c22d39;}.cls-5{fill:#6cceed;}.cls-6{fill:#6dcdec;}.cls-7{fill:#6dceed;}.cls-8{fill:#34b34c;}.cls-9{fill:#36b34e;}.cls-10{fill:#35b34e;}.cls-11{fill:#6ecdec;}.cls-12{fill:#36b34f;}.cls-13{fill:#34b34e;}.cls-14{fill:#36b34d;}.cls-15{fill:#37b350;}.cls-16{fill:#35b34f;}.cls-17{fill:#35b34d;}.cls-18{fill:#36b350;}.cls-19{fill:#71cae5;}.cls-20{fill:#7fcaac;}.cls-21{fill:#37b455;}.cls-22{fill:#4eb765;}.cls-23{fill:#8fcea2;}.cls-24{fill:#4dba6e;}.cls-25{fill:#8dcfb4;}.cls-26{fill:#55bf9b;}.cls-27{fill:#64c18c;}.cls-28{fill:#5ec2a7;}.cls-29{fill:#33b34c;}.cls-30{fill:#34b34d;}.cls-31{fill:#37b352;}.cls-32{fill:#39b454;}.cls-33{fill:#38b452;}.cls-34{fill:#3cb55b;}.cls-35{fill:#37b452;}.cls-36{fill:#36b353;}.cls-37{fill:#39b455;}.cls-38{fill:#38b454;}.cls-39{fill:#36b352;}.cls-40{fill:#38b353;}.cls-41{fill:#3ab457;}.cls-42{fill:#3db560;}.cls-43{fill:#39b456;}.cls-44{fill:#5fc5be;}.cls-45{fill:#50bd95;}.cls-46{fill:#35b350;}.cls-47{fill:#75bfc8;}.cls-48{fill:#38b356;}.cls-49{fill:#61c6c1;}.cls-50{fill:#43b76d;}.cls-51{fill:#67c9d5;}.cls-52{fill:#46b773;}.cls-53{fill:#3ab456;}.cls-54{fill:#38b352;}.cls-55{fill:#38b251;}.cls-56{fill:#5dc3b1;}.cls-57{fill:#3fb663;}.cls-58{fill:#39b457;}.cls-59{fill:#3bb45b;}.cls-60{fill:#4cbc8c;}.cls-61{fill:#3cb45a;}.cls-62{fill:#64c7cc;}.cls-63{fill:#34b24e;}.cls-64{fill:#6ccce7;}.cls-65{fill:#3cb55f;}.cls-66{fill:#6acdeb;}.cls-67{fill:#46b776;}.cls-68{fill:#6ac9dc;}.cls-69{fill:#3fb660;}.cls-70{fill:#38b355;}.cls-71{fill:#5dc2b4;}.cls-72{fill:#42b873;}.cls-73{fill:#42b97a;}.cls-74{fill:#46b879;}.cls-75{fill:#61c6c3;}.cls-76{fill:#46b97d;}.cls-77{fill:#64c6c1;}.cls-78{fill:#46b87b;}.cls-79{fill:#3bb45d;}.cls-80{fill:#4bbb8a;}.cls-81{fill:#6acbe1;}.cls-82{fill:#6bcad3;}.cls-83{fill:#3cb45d;}.cls-84{fill:#53bd95;}.cls-85{fill:#60c4b2;}.cls-86{fill:#62c6c0;}.cls-87{fill:#60c4bb;}.cls-88{fill:#4ebd90;}.cls-89{fill:#61c5c0;}.cls-90{fill:#3bb662;}.cls-91{fill:#49ba86;}.cls-92{fill:#5fc4b7;}.cls-93{fill:#35b553;}.cls-94{fill:#42b875;}.cls-95{fill:#5fc5bd;}.cls-96{fill:#41b669;}.cls-97{fill:#35b24f;}.cls-98{fill:#33b04f;}.cls-99{fill:#38b24d;}.cls-100{fill:#36b24c;}.cls-101{fill:#3ab14d;}.cls-102{fill:#3db14f;}.cls-103{fill:#46b15d;}.cls-104{fill:#41b155;}.cls-105{fill:#3db256;}.cls-106{fill:#46ae4e;}.cls-107{fill:#5fbb9f;}.cls-108{fill:#5fb898;}.cls-109{fill:#6bc3c8;}.cls-110{fill:#84b5b9;}.cls-111{fill:#36b351;}.cls-112{fill:#41b770;}.cls-113{fill:#3eb76c;}.cls-114{fill:#33b34b;}.cls-115{fill:#3ab459;}.cls-116{fill:#39b55f;}.cls-117{fill:#43b97e;}.cls-118{fill:#52bf99;}.cls-119{fill:#40b76e;}.cls-120{fill:#3db665;}.cls-121{fill:#3eb66c;}.cls-122{fill:#43b875;}.cls-123{fill:#3db76c;}.cls-124{fill:#45ba81;}.cls-125{fill:#3cb664;}.cls-126{fill:#3ab666;}.cls-127{fill:#3db768;}.cls-128{fill:#45b879;}.cls-129{fill:#48bb84;}.cls-130{fill:#41b876;}.cls-131{fill:#46b981;}.cls-132{fill:#39b55e;}.cls-133{fill:#44b97e;}.cls-134{fill:#3fb870;}.cls-135{fill:#40b66d;}.cls-136{fill:#4bbb8c;}.cls-137{fill:#41b875;}.cls-138{fill:#3fb76c;}.cls-139{fill:#54c0a0;}.cls-140{fill:#51be95;}.cls-141{fill:#3bb666;}.cls-142{fill:#3cb668;}.cls-143{fill:#63c6c5;}.cls-144{fill:#62c6c3;}.cls-145{fill:#64c7c8;}.cls-146{fill:#61c7c9;}.cls-147{fill:#6ccbdd;}.cls-148{fill:#69cbde;}.cls-149{fill:#65c8d3;}.cls-150{fill:#66c9d5;}.cls-151{fill:#55bfa0;}.cls-152{fill:#60c5bc;}.cls-153{fill:#53be99;}.cls-154{fill:#5dc3b2;}.cls-155{fill:#58c1a6;}.cls-156{fill:#61c3be;}.cls-157{fill:#56c0a4;}.cls-158{fill:#59c0a5;}.cls-159{fill:#6ccdec;}.cls-160{fill:#67c9d7;}.cls-161{fill:#66c8cf;}.cls-162{fill:#3fb667;}.cls-163{fill:#50bd90;}.cls-164{fill:#6dcdf1;}.cls-165{fill:#5ac3b2;}.cls-166{fill:#5ac1aa;}.cls-167{fill:#61c6c2;}.cls-168{fill:#57c1a8;}.cls-169{fill:#62c6be;}.cls-170{fill:#4fbe97;}.cls-171{fill:#5fc5bc;}.cls-172{fill:#54bf9d;}.cls-173{fill:#5ec3ae;}.cls-174{fill:#6acce3;}.cls-175{fill:#6acbdf;}.cls-176{fill:#4aba86;}.cls-177{fill:#61c4bb;}.cls-178{fill:#5cc3b1;}.cls-179{fill:#39b458;}.cls-180{fill:#4ebd94;}.cls-181{fill:#43b97b;}.cls-182{fill:#47ba80;}.cls-183{fill:#6ccdea;}.cls-184{fill:#4abb88;}.cls-185{fill:#48ba83;}.cls-186{fill:#56c09f;}.cls-187{fill:#34b34f;}.cls-188{fill:#38b354;}.cls-189{fill:#65c8cc;}.cls-190{fill:#66c8d0;}.cls-191{fill:#60c3b7;}.cls-192{fill:#5fc4b8;}.cls-193{fill:#60c5c1;}.cls-194{fill:#58c09e;}.cls-195{fill:#62c6c7;}.cls-196{fill:#56c0a0;}.cls-197{fill:#44b97b;}.cls-198{fill:#59c1a6;}.cls-199{fill:#51be9a;}.cls-200{fill:#61c5bf;}.cls-201{fill:#62c5c1;}.cls-202{fill:#3fb774;}.cls-203{fill:#5bc1ad;}.cls-204{fill:#51bd96;}.cls-205{fill:#49bb8a;}.cls-206{fill:#3fb76b;}.cls-207{fill:#59c1a4;}.cls-208{fill:#47b97e;}.cls-209{fill:#45ba83;}.cls-210{fill:#3db769;}.cls-211{fill:#50bd98;}.cls-212{fill:#4cbb8e;}.cls-213{fill:#51bd95;}.cls-214{fill:#3cb769;}.cls-215{fill:#5bc2b0;}.cls-216{fill:#67c9d8;}.cls-217{fill:#38b453;}.cls-218{fill:#5bc2a8;}.cls-219{fill:#62c6c5;}.cls-220{fill:#47b983;}.cls-221{fill:#3db45e;}.cls-222{fill:#3eb564;}.cls-223{fill:#5bc1a3;}.cls-224{fill:#4abc8d;}.cls-225{fill:#35b351;}.cls-226{fill:#5fc3b2;}.cls-227{fill:#65c8d1;}.cls-228{fill:#62c6cc;}.cls-229{fill:#5dc1b4;}.cls-230{fill:#54bf9e;}.cls-231{fill:#52bf9c;}.cls-232{fill:#45b97d;}</style></defs><path class="cls-1" d="M48.3,180.48a11.54,11.54,0,0,1-6.06-1.34,7.08,7.08,0,0,1-3-3.86,18.94,18.94,0,0,1-.87-6.13v-23.5h6.92v24.48a16,16,0,0,0,.19,2.5,3.9,3.9,0,0,0,.85,2,2.51,2.51,0,0,0,2,.77,2.57,2.57,0,0,0,2.06-.77,3.8,3.8,0,0,0,.83-2,18.86,18.86,0,0,0,.17-2.5V145.65h6.91v23.5a18.94,18.94,0,0,1-.87,6.13,7.11,7.11,0,0,1-3,3.86A11.58,11.58,0,0,1,48.3,180.48Z"/><path class="cls-1" d="M63,180l.59-34.36H71l4.24,21.68,4.54-21.68H87l.6,34.36H82.49l-.55-23.29L77.57,180H73.2l-4.58-23.46L68.15,180Z"/><path class="cls-1" d="M95.72,180V150.87h-5.3v-5.22H108v5.22h-5.22V180Z"/><path class="cls-2" d="M130.46,180.52a9.28,9.28,0,0,1-5.51-1.46A8,8,0,0,1,122,174.9a20.4,20.4,0,0,1-.87-6.26V157.15a20.29,20.29,0,0,1,.89-6.36,7.53,7.53,0,0,1,3.12-4.12,11,11,0,0,1,6-1.44,11.7,11.7,0,0,1,5.83,1.23,7,7,0,0,1,3.08,3.48,13.94,13.94,0,0,1,.93,5.34v2h-6.83v-2.42a14.23,14.23,0,0,0-.17-2.4,2.79,2.79,0,0,0-.78-1.63,2.75,2.75,0,0,0-2-.6,2.56,2.56,0,0,0-2,.73,3.58,3.58,0,0,0-.81,1.84,16.58,16.58,0,0,0-.16,2.4v15.22a11.92,11.92,0,0,0,.25,2.59,3.33,3.33,0,0,0,.95,1.78,3.45,3.45,0,0,0,4.06,0,3.56,3.56,0,0,0,1-1.85,11.17,11.17,0,0,0,.28-2.65v-3.64h-3.35v-4.24h9.67V180h-4.58l-.43-3.1a6.31,6.31,0,0,1-2,2.59A5.94,5.94,0,0,1,130.46,180.52Z"/><path class="cls-2" d="M145.94,180V145.65h7v29.61H161V180Z"/><path class="cls-2" d="M173.38,180.48a11.41,11.41,0,0,1-6-1.36,7.6,7.6,0,0,1-3.16-3.88,17.27,17.27,0,0,1-1-6.05V156.38a17.09,17.09,0,0,1,1-6,7.38,7.38,0,0,1,3.16-3.82,14.32,14.32,0,0,1,12,0,7.46,7.46,0,0,1,3.18,3.81,16.94,16.94,0,0,1,.95,6v12.81a17.27,17.27,0,0,1-.95,6.05,7.59,7.59,0,0,1-3.18,3.88A11.64,11.64,0,0,1,173.38,180.48Zm0-5a2.8,2.8,0,0,0,2-.62,3.1,3.1,0,0,0,.84-1.65,10.54,10.54,0,0,0,.22-2.23V154.69a10.29,10.29,0,0,0-.22-2.21,3.07,3.07,0,0,0-.84-1.63,2.8,2.8,0,0,0-2-.62,2.68,2.68,0,0,0-1.91.62,3.07,3.07,0,0,0-.84,1.63,10.29,10.29,0,0,0-.22,2.21v16.24a13.05,13.05,0,0,0,.19,2.23,3,3,0,0,0,.83,1.65A2.73,2.73,0,0,0,173.38,175.43Z"/><path class="cls-2" d="M188.23,180V145.65h8.69a20.78,20.78,0,0,1,4.16.39,9.25,9.25,0,0,1,3.37,1.35,6.31,6.31,0,0,1,2.25,2.7,10.86,10.86,0,0,1,.78,4.47,9.3,9.3,0,0,1-.59,3.54,5.34,5.34,0,0,1-1.7,2.31,6.18,6.18,0,0,1-2.71,1.15,7,7,0,0,1,3.35,1.36,6.42,6.42,0,0,1,2,2.8,11.62,11.62,0,0,1,.67,4.19,14.06,14.06,0,0,1-.65,4.5,7.56,7.56,0,0,1-5.07,5,13.87,13.87,0,0,1-4.33.62Zm7-20.49H197a5.61,5.61,0,0,0,2.75-.53,2.84,2.84,0,0,0,1.3-1.61,8.44,8.44,0,0,0,.36-2.65,5.18,5.18,0,0,0-.53-2.52,3,3,0,0,0-1.62-1.38,7.59,7.59,0,0,0-2.73-.43h-1.27Zm0,15.57h2c1.75,0,3-.44,3.62-1.32a6.43,6.43,0,0,0,1-3.94,9.18,9.18,0,0,0-.47-3.24,3.34,3.34,0,0,0-1.5-1.79,5.78,5.78,0,0,0-2.78-.57h-1.82Z"/><path class="cls-2" d="M210.79,180l6.66-34.36h7.76L231.83,180h-6.49l-1.23-7.55h-5.43L217.37,180Zm8.53-11.83h4.11l-2.08-13.87Z"/><path class="cls-2" d="M235.05,180V145.65h7v29.61h8.06V180Z"/><path class="cls-3" d="M156.76,208.74V187.51h2v19.74h6v1.49Z"/><path class="cls-3" d="M171.73,209a5.78,5.78,0,0,1-3.32-.82,4.36,4.36,0,0,1-1.67-2.31,10.66,10.66,0,0,1-.49-3.39v-8.81a10,10,0,0,1,.51-3.36,4.29,4.29,0,0,1,1.71-2.22,7.08,7.08,0,0,1,6.5,0,4.31,4.31,0,0,1,1.69,2.22,10.26,10.26,0,0,1,.49,3.36v8.84a10.72,10.72,0,0,1-.48,3.36,4.49,4.49,0,0,1-1.66,2.3A5.59,5.59,0,0,1,171.73,209Zm0-1.59a3.39,3.39,0,0,0,2.12-.57,2.82,2.82,0,0,0,1-1.57,9.07,9.07,0,0,0,.28-2.35v-9.61a9,9,0,0,0-.28-2.34,2.72,2.72,0,0,0-1-1.53,3.53,3.53,0,0,0-2.12-.54,3.64,3.64,0,0,0-2.16.54,2.68,2.68,0,0,0-1,1.53,8.58,8.58,0,0,0-.28,2.34v9.61a8.65,8.65,0,0,0,.28,2.35,2.78,2.78,0,0,0,1,1.57A3.5,3.5,0,0,0,171.73,207.41Z"/><path class="cls-3" d="M185.25,209a5.27,5.27,0,0,1-3.16-.84,4.51,4.51,0,0,1-1.61-2.37,12.21,12.21,0,0,1-.47-3.55V194a12,12,0,0,1,.46-3.54,4.32,4.32,0,0,1,1.62-2.32,6.88,6.88,0,0,1,6.32-.12,4,4,0,0,1,1.61,2.07,9.81,9.81,0,0,1,.5,3.33v.73h-1.89v-.73a9.76,9.76,0,0,0-.27-2.51,2.64,2.64,0,0,0-1-1.5,3.36,3.36,0,0,0-2-.5,3.3,3.3,0,0,0-2.2.63,3,3,0,0,0-1,1.73,12.71,12.71,0,0,0-.22,2.52v8.73a11.08,11.08,0,0,0,.27,2.63,3.08,3.08,0,0,0,1,1.68,3.33,3.33,0,0,0,2.11.59,3.12,3.12,0,0,0,2-.59,3.28,3.28,0,0,0,1-1.69,10.87,10.87,0,0,0,.29-2.68V200h-3.15v-1.49h5v10.27h-1.28l-.24-2.41a4,4,0,0,1-1.3,1.95A3.84,3.84,0,0,1,185.25,209Z"/><path class="cls-3" d="M194.11,208.74V187.51h2v21.23Z"/><path class="cls-3" d="M204.38,209a5.29,5.29,0,0,1-2.87-.72,4.43,4.43,0,0,1-1.71-2,9.11,9.11,0,0,1-.71-3l1.76-.52a10.93,10.93,0,0,0,.47,2.37,3.48,3.48,0,0,0,1.07,1.67,3,3,0,0,0,2,.62,2.68,2.68,0,0,0,3-3.07,4.24,4.24,0,0,0-.7-2.43,12.31,12.31,0,0,0-1.9-2.15l-3.75-3.59a6.75,6.75,0,0,1-1.46-2,5.3,5.3,0,0,1-.47-2.27,4.31,4.31,0,0,1,1.31-3.38,5,5,0,0,1,3.48-1.18,6.72,6.72,0,0,1,2,.29,3.81,3.81,0,0,1,1.55.93,4.52,4.52,0,0,1,1,1.67,10.41,10.41,0,0,1,.5,2.49l-1.71.44a9.34,9.34,0,0,0-.43-2.29,2.93,2.93,0,0,0-1-1.46,3.88,3.88,0,0,0-4.08.19,2.56,2.56,0,0,0-.84,2.12,3.65,3.65,0,0,0,.33,1.57,5.26,5.26,0,0,0,1.17,1.52l3.75,3.54a13.94,13.94,0,0,1,2.17,2.62,6,6,0,0,1,.92,3.25,5.34,5.34,0,0,1-.62,2.68,4,4,0,0,1-1.71,1.61A5.76,5.76,0,0,1,204.38,209Z"/><path class="cls-3" d="M214.55,208.74V189.06h-4v-1.55h9.91v1.55h-3.91v19.68Z"/><path class="cls-3" d="M222.83,208.74V187.51h2v21.23Z"/><path class="cls-3" d="M233.53,209a5.33,5.33,0,0,1-3.32-.89,4.57,4.57,0,0,1-1.61-2.4,11.59,11.59,0,0,1-.44-3.34v-8.43a12,12,0,0,1,.45-3.46,4.39,4.39,0,0,1,1.64-2.34,5.59,5.59,0,0,1,3.28-.84,5.32,5.32,0,0,1,3,.74,4.08,4.08,0,0,1,1.56,2.08,9.88,9.88,0,0,1,.47,3.21v1.29h-1.89v-1.24a11,11,0,0,0-.22-2.38,2.72,2.72,0,0,0-.9-1.55,3.18,3.18,0,0,0-2-.55,3.37,3.37,0,0,0-2.16.59,3,3,0,0,0-1,1.67,11.38,11.38,0,0,0-.25,2.49v9a9.68,9.68,0,0,0,.3,2.62,2.79,2.79,0,0,0,1,1.57,3.46,3.46,0,0,0,2,.53,3,3,0,0,0,2-.58,2.86,2.86,0,0,0,.89-1.61,11.58,11.58,0,0,0,.22-2.43V201.4h1.89v1.26a11.66,11.66,0,0,1-.43,3.29,4.28,4.28,0,0,1-1.52,2.24A5.11,5.11,0,0,1,233.53,209Z"/><path class="cls-3" d="M246.18,209a5.29,5.29,0,0,1-2.87-.72,4.43,4.43,0,0,1-1.71-2,9.11,9.11,0,0,1-.71-3l1.76-.52a10.93,10.93,0,0,0,.47,2.37,3.56,3.56,0,0,0,1.07,1.67,3,3,0,0,0,2,.62,3.09,3.09,0,0,0,2.2-.73,3,3,0,0,0,.79-2.34,4.16,4.16,0,0,0-.7-2.43,12.31,12.31,0,0,0-1.9-2.15l-3.75-3.59a6.75,6.75,0,0,1-1.46-2,5.3,5.3,0,0,1-.47-2.27,4.31,4.31,0,0,1,1.31-3.38,5,5,0,0,1,3.48-1.18,6.72,6.72,0,0,1,2,.29,3.81,3.81,0,0,1,1.55.93,4.52,4.52,0,0,1,1,1.67,10.41,10.41,0,0,1,.5,2.49l-1.71.44a9.34,9.34,0,0,0-.43-2.29,2.93,2.93,0,0,0-1-1.46,3.88,3.88,0,0,0-4.08.19,2.56,2.56,0,0,0-.84,2.12,3.65,3.65,0,0,0,.33,1.57,5.26,5.26,0,0,0,1.17,1.52l3.75,3.54a13.56,13.56,0,0,1,2.17,2.62,6,6,0,0,1,.92,3.25,5.34,5.34,0,0,1-.62,2.68,4,4,0,0,1-1.71,1.61A5.76,5.76,0,0,1,246.18,209Z"/><path class="cls-2" d="M81.06,87.66c-.14.41,0,.51.42.42A211.89,211.89,0,0,1,99.94,71.36a1.54,1.54,0,0,0,.74-1c.33-2.32.69-4.64,1-7C97.87,65.57,85,80.79,81.06,87.66Z"/><path class="cls-2" d="M191.53,109.66l-.12.09"/><path class="cls-2" d="M195.86,95.24c-.86,1-1.85,2-2.94,3.12a218.94,218.94,0,0,1-38.51,29.28c-3.21,1.93-6.47,3.75-9.8,5.68.26.08.4.17.48.14.83-.28,1.65-.57,2.47-.87a206.72,206.72,0,0,0,44-23v0l.92-.64,1.37-.92v0c1.62-1.14,3.76-2.68,5.48-4V104l-.21-12.67S197.84,93,195.86,95.24Z"/><path class="cls-2" d="M245.59,46.29c-2.79,10.32-8.29,19.22-14.79,27.54C221.75,85.4,211,95.19,199.3,104l-.2-12.58,0-.17c7-7.66,13.4-15.83,17.89-25.31,2.51-5.29,4.36-10.81,4.21-16.77a16.67,16.67,0,0,0-9.23-15,26.2,26.2,0,0,0-6.63-2.51c-.53-.12-1.42-.31-2.63-.5a40.17,40.17,0,0,0-4.81-.44,3.37,3.37,0,0,1-1.76-.26,64.17,64.17,0,0,0-12.49.55l-.83.12-1.1.19A129.53,129.53,0,0,0,163.61,36a4.49,4.49,0,0,1-3.69-.17,41.62,41.62,0,0,0-14.82-4,193.67,193.67,0,0,1,19.84-9.61h0s1.25-.53,3.41-1.37l1.33-.51.64-.24,2.47-.9,2.07-.73h0a166.88,166.88,0,0,1,21.56-6A5,5,0,0,1,198,12q2.86-.45,5.74-.75a60.78,60.78,0,0,1,9-.47h0c1.07,0,2.13,0,3.2.11,8.47.52,16.67,2.08,23.42,7.81,3.89,3.3,6.6,7.29,7.07,12.54C246.47,31.24,247.07,40.84,245.59,46.29Z"/><path class="cls-4" d="M80.35,89.42l1.13-1.34-.42-.42A1.85,1.85,0,0,0,80.35,89.42Z"/><path class="cls-4" d="M203.27,59.22c-1.32,1-2.47,2.21-3.66,3.35s-2.52,2.4-3.78,3.59l-2,2c-3.76,3.1-7.27,6.51-11.28,9.31-.8-.1-1.15.57-1.66,1A12.67,12.67,0,0,1,179,80a8.77,8.77,0,0,1-2.07,1.32,2.51,2.51,0,0,0-.81.56,5.3,5.3,0,0,1-.66.68c-.64.5-1.39.82-2.06,1.27-.94,1.29-2.71,1.31-3.73,2.47a16.78,16.78,0,0,1-3.79,2.86c-.14.09-.29.17-.42.27A58.05,58.05,0,0,1,159.61,93l-.65.39c-.63.42-1.48.46-2,1.13.12.6-.38.72-.73.92-1.56.91-3.12,1.83-4.72,2.68a165.08,165.08,0,0,1-20.06,9.54c-1.53,0-2.77.94-4.16,1.39l-.88.45a7.49,7.49,0,0,1-1.11.43,2.85,2.85,0,0,0-1.25.66,107.37,107.37,0,0,1-19,5.52c-8.46,1.64-16.93,2.66-25.3,1a29.6,29.6,0,0,1-9.7-4.23c-1-1-2.27-1.68-3.21-2.76h0c-.28-.33-.54-.65-.79-1h0c-3.34-4.42-3.83-9.53-3.13-14.9.75-5.73,3-11,5.77-16l4.29-7h0c4.31-5.93,9.87-13.6,14.29-18.09a217.63,217.63,0,0,1,48.87-36.81c.55-.31,1.25-.45,1.58-1.12-.83-.39-1.43.09-2,.33a206.44,206.44,0,0,0-42.46,22.1c-4.79,3.22-9.4,6.69-13.91,10.29h0A82.18,82.18,0,0,0,64.4,60.62a1.09,1.09,0,0,0-.1.11,128.32,128.32,0,0,0-17.24,21,64.59,64.59,0,0,0-5,8.66h0v0c-.27.63-.53,1.28-.76,1.93-.76,2-1.95,5.25-2.87,8.51a15,15,0,0,0-.57,2.19.29.29,0,0,0,0,.09c-.1.41-.18.87-.25,1.34a.5.5,0,0,1,0,.12c-.93,5.51-1.18,11,1.3,16.23a28.94,28.94,0,0,0,2,4v0a8.14,8.14,0,0,0,2.23,3.2c.19.18.39.35.59.52a11,11,0,0,0,2.21,1.8h0a31.16,31.16,0,0,0,3.26,2,38.78,38.78,0,0,0,12.66,4l0,0a33.11,33.11,0,0,0,6.94.59h.06a6.58,6.58,0,0,0,.89,0,73.72,73.72,0,0,0,7.95-.64h0q3.07-.22,6.14-.68c14.3-2.12,27.88-6.63,41.05-12.51,5.82-2.59,11.4-5.65,17.07-8.52a8.68,8.68,0,0,0,2.74-1.15A202.67,202.67,0,0,0,165,100.05c.33-.28.63-.59,1-.88,1.75-1.34,3.48-2.71,5.21-4.09,1.51-1.22,3-2.47,4.48-3.75a11.78,11.78,0,0,1,2.3-1.93,6.13,6.13,0,0,0,2.43-2.59c4.18-4.11,8.28-8.31,12.19-12.68v0c.44-.48.82-.92,1.18-1.33l.09-.11v0a28.06,28.06,0,0,0,2.75-3.62v0A64.66,64.66,0,0,0,203.27,59.22Z"/><path class="cls-5" d="M128.19,35.68l3.74-1c.53-.37,1.21.07,1.74-.31l1.85-.43c.62-.38,1.37.05,2-.32l1.08-.06c.83,0,1.65-.2,2.49-.16,1.22.11,2.48-.28,3.66.33.62,0,1.24.3,1.87.07a2.21,2.21,0,0,1,1.48.49l.69-.29a9.57,9.57,0,0,0,2.45.77c1,.4,2,.72,2.15,2,0,0-.07.08-.07.15l.13-.12c1-.17,1.56.45,2.2,1a4.09,4.09,0,0,0,1,.75c1,.52,2.32,1.07,2.61,2,.45,1.5,1.76,2,2.52,3.14.45,1.65-.42,3.31,0,5a1,1,0,0,1-.14.75,1.13,1.13,0,0,1-1,0,4.61,4.61,0,0,0-2.84.26c-.64.19-1.37.12-1.88.65a1.57,1.57,0,0,0-.28.65,7.74,7.74,0,0,0-.27,3.21,1.8,1.8,0,0,1,0,.52,7,7,0,0,1-.55,1c-1,1.68-.75,2.14,1.18,2.53a1.31,1.31,0,0,1,.77.46,1.4,1.4,0,0,1,.15.49c-.16.76.31,1.52,0,2.28a8.32,8.32,0,0,0-1.66,2.77,4.63,4.63,0,0,1-.52.88c-1.28.72-1.62,1.64-.65,2.87a2.2,2.2,0,0,1-.12,1.34c-.62,1-1.93.71-2.75,1.35a1.15,1.15,0,0,0-.4.81c0,.48,0,1-.09,1.43-.34.71.26.35.49.41.58.27.9.87,1.48,1.14,1.26,1.17-.29,2.12-.25,3.19a4.3,4.3,0,0,1-.44,1.44.94.94,0,0,1-.44.23,29.09,29.09,0,0,0-3.42,3.33c-1.2,1.28-1,1.63.79,2.53a.63.63,0,0,1-.13.48c-1.73.68-2.12,1.51-1.84,3.92a7.67,7.67,0,0,0,.49,1.76c.2.52.73.56,1.13.78a8.45,8.45,0,0,1,1.68,1.75c.29.33.63.73,1.1.59s.37-.72.39-1.14-.13-1.12-.15-1.68c.27-1-.32-2.21,1-2.79.7.72.41,1.69.62,2.54a2.6,2.6,0,0,1,0,.56,10.64,10.64,0,0,0-.09,2.89c1.34.12,2.61-.75,4-.36.51,1-.42,1.32-1,1.67-4.73,2.8-9.56,5.41-14.53,7.73-2.43,1.14-4.85,2.28-7.32,3.35a3.9,3.9,0,0,1-2.66.63.91.91,0,0,1-.36-.44,2.2,2.2,0,0,1,0-1.11c.3-1.29.64-2.51,2-3.15,1-.45.8-1.15,0-1.72a20.64,20.64,0,0,1-1.84-1.26,2.72,2.72,0,0,0-1.38-.62c-2-.21-3.56-1.41-5.33-2.13a7,7,0,0,1-1.79-3,2.54,2.54,0,0,0-1.35-1.22c-1.93-.47-2.87-2-3.84-3.48a3.75,3.75,0,0,0-.75-.62c-.89-1.14-2.33-1.56-3.36-2.51a8.54,8.54,0,0,0-2.56-1.9c-1.24-1-2.23-2.42-3.87-2.94a2.25,2.25,0,0,1-.16-.76c0-.43.13-1-.09-1.28-1-1.58-1.59-3.2-.85-5.07,0-.11-.2-.3-.33-.42-.35-.28-.8-.39-1.15-.67-1.23-1.4-.64-2.88-.2-4.35a8,8,0,0,1,.54-.95c1-1.61,1.11-1.62,2.47-.24a4,4,0,0,1,2.07,3.89c.6-.3.63-.36.77-1.49a1.1,1.1,0,0,1,.19-.46,4.14,4.14,0,0,1,1.59-.81,3.83,3.83,0,0,0,2.73-1.64,2.91,2.91,0,0,1,2.07-1.33c1,.4,1.6-.61,2.42-.85a.79.79,0,0,1,.37,0c1.87.31,2,.31,2-1.6s1-1.43,2.08-1.14c.85.33,1.82.48,1.37,1.88-.27.83.33,1.34,1.58,1.5-1.09-1.88.16-3.77-.74-5.51a8.14,8.14,0,0,1-.41-1.52c-.07-.53,0-1.13-.69-1.36-1.23-.42-1.16-1.22-.62-2.16a1.62,1.62,0,0,1,.58-.52,3,3,0,0,0,2.2-1.39c2.35-.52.89-2.11.93-3.28-.17-.77.18-1.56-.13-2.32,0-1.62,1.07-1.84,2.31-1.91a2.19,2.19,0,0,1,1.11.31,1.92,1.92,0,0,1,.46,1c.08.79.9,1,1.27,1.54a8.57,8.57,0,0,1,0,4.12c-.31.83-1.13,1.41-1.18,2.37,0,.42.3.71.37,1.1s-.07,1,.23,1.42c.57.82,1.24,1,1.9.12.42-.58.58-1.37,1.35-1.67a5.3,5.3,0,0,0,1.65-.77,5.83,5.83,0,0,1,2.83-.9A1.73,1.73,0,0,0,141.79,53a10.28,10.28,0,0,0,.56-2.91c-.2-1.08.38-2.45-1.09-3.08l-.48-.08-1.18-.31c-1.17-.26-2.34.22-3.51,0a3.5,3.5,0,0,0-1.73.09,5.55,5.55,0,0,1-1.35,0,1.48,1.48,0,0,1-.76-.29.62.62,0,0,1-.14-.49c.24-.46.77-.52,1.16-.83-.24-.58-.88-.49-1.3-.76-.95-.51-1.74-.74-2.49.46s-1.61.86-2.31-.16a1.4,1.4,0,0,0-.14-.16,1.28,1.28,0,0,1,.16.26,2.28,2.28,0,0,1-.9,2.13,1.57,1.57,0,0,1-1.61.26.73.73,0,0,1,.07-1c1.15-.78.2-1.27-.27-1.82a2.27,2.27,0,0,1-.22-1.06,1.4,1.4,0,0,1,.54-1.22.75.75,0,0,1,.71.1c.2.13.4.36.65.06a2.39,2.39,0,0,0,.3-.7.28.28,0,0,0-.29-.2l-.42-.05a2.43,2.43,0,0,0-.89.08,2.11,2.11,0,0,1-1,0,1.13,1.13,0,0,1-.43-.32,1.28,1.28,0,0,1-.06-1.05,8.51,8.51,0,0,1,3.47-3C127.31,36.73,128.45,36.84,128.19,35.68Z"/><path class="cls-6" d="M116.53,105.46c-3-1.8-5.17-4.48-7.19-7.23a40.25,40.25,0,0,1-7.88-26.89,26,26,0,0,1,1.79-8.9c.75.86.5,1.94.64,2.93-.06,1.84-1,3.54-.85,5.42a8,8,0,0,0,.18.82c.22,1.94,1.21,3.63,1.81,5.45.3,1.32,1.36,2.34,1.51,3.72a4,4,0,0,0,1,3c2,1.66,1.43,3.69.84,5.73-.45,2.69,1.22,4.57,2.52,6.59.18.29.33.59.49.9a8.51,8.51,0,0,0,2.91,3.36,9.74,9.74,0,0,1,1.37,2.27C116,103.62,117,104.31,116.53,105.46Z"/><path class="cls-7" d="M142,114.68c7.84-4.67,15.51-9.6,22.88-15,.54-.14.61.26.71.63,0,1.56-1.75,2.58-1.36,4.28-.21,1-.47,2,.43,2.91-2.32,2.3-5.33,3.39-8.25,4.56A36.4,36.4,0,0,1,142,114.68Z"/><path class="cls-8" d="M163.84,39.86a38.66,38.66,0,0,1,13,13.38,33.45,33.45,0,0,1,4.26,10.26c-.81.87-.33,2-.5,2.94-.28.57.07,1.34-.57,1.8-.88.24-1.46.05-1.35-1a3.84,3.84,0,0,0-.08-1.62,8.2,8.2,0,0,0-1.06-2.45,3.21,3.21,0,0,1-.37-.65,1.4,1.4,0,0,1-.06-.5,9.56,9.56,0,0,1,.33-1.48c.18-.18-.08,0,.07-.16.33-.43,1.56-.7.31-1.47-.8-1.31-1.91-2.4-2.66-3.75-.22-.64-.75-1.12-1-1.76.15.2-.27-.1,0-.18s.15-.12,0-.19c.07-.15,0-.21,0-.18-.07.83.55,1.65,0,2.49a1,1,0,0,1-1.42.4,1.87,1.87,0,0,1-1.07-1,5.22,5.22,0,0,0-2.81-3,1.72,1.72,0,0,1-.11-.5,3,3,0,0,1,.07-.51,17.77,17.77,0,0,0,.43-3.17,1.6,1.6,0,0,1,0-.49c-.13.15,0,.33-.05.5,0,.36,0,.7-.43.83-.82.07-1.24-.56-1.76-1a5.75,5.75,0,0,0-1.85-1.19c-.48-.34-1.14-.27-1.58-.71a2.73,2.73,0,0,1-.32-1c-.06-.8-.6-1.53-.36-2.37a1.54,1.54,0,0,0,.53-1.47A.84.84,0,0,1,163.84,39.86Z"/><path class="cls-9" d="M128.19,35.68c.24,0,.6,0,.7.17.34.5-.22.59-.47.71a22.73,22.73,0,0,0-4.86,3.38,6.67,6.67,0,0,0-.91.58,2.59,2.59,0,0,0-.68,1.12,4.56,4.56,0,0,1-.49.82c-.57.61-.42,1.36-.39,2.09a1.16,1.16,0,0,1-.43.65c-1.73.89-3.17,2.28-5,3-.92-.1-1-.69-.87-1.44a6.37,6.37,0,0,0,.34-1.78,1.15,1.15,0,0,1,.14-.51A32,32,0,0,0,118.91,41,25.24,25.24,0,0,1,128.19,35.68Z"/><path class="cls-10" d="M176.67,94.5c-2.52,3.82-4.93,7.75-8.75,10.49-.93-.09-.67-.76-.64-1.31a14.19,14.19,0,0,0,2.18-3.89A2.74,2.74,0,0,0,169.9,98c0-.57.13-1,.79-1.09,1.64-.1,2.45-1.68,3.87-2.17a7.64,7.64,0,0,1,1.28-.8,1.1,1.1,0,0,1,.51,0C176.6,94,176.77,94.19,176.67,94.5Z"/><path class="cls-11" d="M180.52,66.59c-.87-1-.33-2.2-.18-3.26.09-.65.44.24.74.17,1.52,4.56,1.65,9.26,1.47,14l-1.43,1.13c-.46-.7-.68-1.57-1.4-2.11-.15-1.55.44-3,.67-4.49a3.86,3.86,0,0,0,.21-3A6.62,6.62,0,0,1,180.52,66.59Z"/><path class="cls-8" d="M155.52,38.07c-.69-.51-1.27-1.26-2.27-1.14l0,0a4.49,4.49,0,0,0-2.23-2c0-.71.44-.43.79-.33a33.65,33.65,0,0,1,11.2,4.67c.41.48.86,1,.41,1.63s-1.12.19-1.7.05-.73-.74-1.15-1.05a5.41,5.41,0,0,1-.53-.54,1.86,1.86,0,0,0-1.7-.7c-.43-.05-.86-.12-1.29-.16A3.77,3.77,0,0,1,155.52,38.07Z"/><path class="cls-12" d="M103.61,65.43c-.47-1-.22-2-.36-3a19.85,19.85,0,0,1,2.26-5.25.39.39,0,0,1,.45,0,1.57,1.57,0,0,1,.35.66,1.81,1.81,0,0,1,.07,1c-.12.57-.34,1.16.18,1.67a1.07,1.07,0,0,1,.66.62,2,2,0,0,1-.33,1.45c-.53.73-.94,1.54-1.44,2.29a6.63,6.63,0,0,0-.81,1.8,2,2,0,0,1-.28.46c-.39.37-.79.55-.88-.2A2.33,2.33,0,0,1,103.61,65.43Z"/><path class="cls-13" d="M157.42,38.06l1.12.38a4,4,0,0,1,1.89.77l.36.36a2.32,2.32,0,0,0,.77,1.13h1.77c.21-.52-.29-.91-.28-1.39l.79.55c-.34.75,1,2-.75,2.34-.47.86.91,1.61.14,2.49a1.15,1.15,0,0,1-1.67-1,2.2,2.2,0,0,0-.24-.28c-.7-.61-1.75-.59-1.93-2.06-.16-1.31-2-1.79-3.06-2.65C156.29,37.85,157.22,38.55,157.42,38.06Z"/><path class="cls-14" d="M126.57,109.77l-1.13.39a17,17,0,0,1-2.67-.27,2.94,2.94,0,0,1-1.44-.77c0-1.06-1-1.76-1-2.83.06-.67.46-.89,1.09-.8.3.37.7.1,1,.15a4.9,4.9,0,0,0,1.79.76,2.89,2.89,0,0,1,1.89,1.39C126.52,108.4,127.22,108.94,126.57,109.77Z"/><path class="cls-15" d="M105.88,57.24l-.37-.05c1.19-3.08,2.32-6.21,5.25-8.18.88,1-.68,2.16.27,3.12.14.86-.14,1.44-1.07,1.56-.25.15-.28-.44-.44-.18s0,.46,0,.71c-.78,1.07-1.67,2.05-2.47,3.1C106.62,57.55,106.26,57.34,105.88,57.24Z"/><path class="cls-16" d="M110.78,52c-.85-.11-.8-.6-.52-1.2a2.89,2.89,0,0,0,.5-1.76c1.38-1.63,2.57-3.46,4.49-4.56,0,.12,0,.25,0,.37.42,1.12-.78,2-.5,3.08a1.21,1.21,0,0,1-.27,1,2,2,0,0,1-.37.35,3.47,3.47,0,0,0-1.22,1.19C112.32,51.09,111.86,52,110.78,52Z"/><path class="cls-17" d="M120.53,106.48c.41.59.81,1.2,1.22,1.79s.14.77-.42.85a15.11,15.11,0,0,1-4.8-3.66c0-1-1.08-1.68-1.15-2.71,1.63-.26,2.51,1.48,4,1.51a1.54,1.54,0,0,1,.82.57C120.55,105.34,120.16,106,120.53,106.48Z"/><path class="cls-18" d="M167.56,103.48c.05.52-.16,1.1.36,1.51a18.79,18.79,0,0,1-3.25,2.51c-2.1-.5-.95-1.81-.71-2.89a.74.74,0,0,1,.43-.14,2,2,0,0,0,1.44-.52C166.4,103.77,166.91,103.34,167.56,103.48Z"/><path class="cls-19" d="M176.67,94.5l-.41-.43c-.18-1.83.87-3.3,1.43-4.91l2.68-2.35a8.91,8.91,0,0,1-1.47,3.92c-.53.39-.58,1-.76,1.56C177.66,93,177.54,94,176.67,94.5Z"/><path class="cls-20" d="M145,33.85l-4.15-.35v-.25c1.38.08,2.8-.46,4.13.29.12.06.16.13.12.2S145.05,33.85,145,33.85Z"/><path class="cls-21" d="M122.77,109.89a2.74,2.74,0,0,1,2.67.27,1.78,1.78,0,0,1-1.36.42Z"/><path class="cls-22" d="M151.85,34.64l-.79.33c-.76-.34-1.8,0-2.28-1A9.82,9.82,0,0,1,151.85,34.64Z"/><path class="cls-23" d="M140.87,33.25c0,.09,0,.17,0,.25-.76,0-1.51.61-2.27,0A2.93,2.93,0,0,1,140.87,33.25Z"/><path class="cls-24" d="M148.09,34.26,146.55,34c-.38.14-.46,0-.39-.37C146.86,33.66,147.75,33.13,148.09,34.26Z"/><path class="cls-25" d="M137.51,33.59c-.59.57-1.32.27-2,.32C136.11,33.34,136.83,33.62,137.51,33.59Z"/><path class="cls-26" d="M146.16,33.62l.39.37c-.57.59-1-.08-1.54-.14,0-.1,0-.21,0-.31Z"/><path class="cls-27" d="M133.67,34.34c-.49.58-1.16.24-1.74.31C132.43,34.08,133.07,34.33,133.67,34.34Z"/><path class="cls-28" d="M178.14,92.29c-.11-.69,0-1.3.76-1.56A2.52,2.52,0,0,1,178.14,92.29Z"/><path class="cls-8" d="M151.72,79c.21-.49-.24-1.12.36-1.52a3.46,3.46,0,0,1,3-1.25c.8.08,1.58-.41,2.39-.12.95.53.88,1.54,1.13,2.39a9.9,9.9,0,0,0,.26,2,5.55,5.55,0,0,1,.09,2,2.06,2.06,0,0,1-.2.54,2,2,0,0,1-.88.65,19.22,19.22,0,0,0-2.23.7,2.34,2.34,0,0,1-.53.08,19.44,19.44,0,0,1-2.17.15,1.31,1.31,0,0,1-1.22-1.15,12.85,12.85,0,0,1-.09-2.15C151.76,80.62,151.27,79.81,151.72,79Z"/><path class="cls-8" d="M155.19,84.31h.36a5.6,5.6,0,0,1,2.34-.6c1.22-.25,1.41.59,1.58,1.47a5.12,5.12,0,0,1,.18,2.43c-.32.83-.13,1.75-.48,2.57a1.28,1.28,0,0,1-.61.54,8.23,8.23,0,0,1-4.22.86c-.48-.06-1,0-1.44-.07-.75-.8-.21-1.78-.38-2.66a.93.93,0,0,1-.56-.92c.16-.92-.06-1.9.39-2.78a1.6,1.6,0,0,1,.93-.59C153.93,84.53,154.55,84.37,155.19,84.31Z"/><path class="cls-8" d="M152.14,88.12l.38.72c-.87.84.09,2.14-.75,3a.91.91,0,0,1-.48.18,9.56,9.56,0,0,0-1.84.24,21.72,21.72,0,0,1-2.56-.44,35.29,35.29,0,0,1-.44-4.16c0-1.86.62-2.42,2.29-2.27a5,5,0,0,1,2-.64,1.35,1.35,0,0,1,1.17.32A5.51,5.51,0,0,1,152.14,88.12Z"/><path class="cls-8" d="M113.72,86.3c1.1.91,2.81,1,3.4,2.59a12.1,12.1,0,0,1-.14,5.55c-.6,1.11-1.27,1.23-2.1.21-.46-.56-.86-1.22-1.69-1.34-.59-.59-1.52-.87-1.71-1.84a33.17,33.17,0,0,1-.07-4.11c0-.67-.14-1.56.57-1.85S113.25,85.78,113.72,86.3Z"/><path class="cls-8" d="M124.7,97.07c2,.27,3.49,2,5.57,1.94.71,1.49,1.38,3,.44,4.63a1.67,1.67,0,0,1-2.24.23c-.39-.12.44-.51-.08-.5a5.23,5.23,0,0,1-1,0c-.53-.15-1.06-.24-1.59-.38s-1.35-.28-1.75-1a4.87,4.87,0,0,1-.53-1.75,8.4,8.4,0,0,1,.17-2.87C123.88,97,124.2,96.77,124.7,97.07Z"/><path class="cls-8" d="M154.84,64a3.82,3.82,0,0,1,1.73-2.63c.4-.15.21-.66.54-.86a1.35,1.35,0,0,1,1.52.26,13.6,13.6,0,0,1,2.42,5.61,1.12,1.12,0,0,1-.38.93,7.47,7.47,0,0,1-1.33.73,7.17,7.17,0,0,1-.7.23c-.49.12-.84.52-1.34.62a1.48,1.48,0,0,1-1-.17,2.11,2.11,0,0,1-.62-.88c-.2-.78-.55-1.5-.82-2.25C154.64,65,155,64.48,154.84,64Z"/><path class="cls-29" d="M123.61,62.72c-.58.34-1-.51-1.7,0,.65.9-.15,1.93.12,3,.22.88-.62.55-1,.49-.65-.11-1.17-.7-1.9-.62a.69.69,0,0,1-1-.25,1.94,1.94,0,0,1-.17-1.16c1-2.18,1.91-4.41,3.67-6.13,1.19-.13,1.93.79,2.86,1.26a1.72,1.72,0,0,1,.53.93C124.74,61.16,125.07,62.43,123.61,62.72Z"/><path class="cls-8" d="M116.83,66.36c-1.53.24-1.8,2-3,2.58-.58.28-1,1-1.77.39-.41.16-.7-.06-1-.29-.45-.67-1.15-1.19-1.16-2.1,2.42-.4,2.31-3,3.7-4.29a1.73,1.73,0,0,1,1-.36,10.49,10.49,0,0,1,2.74,1.94,1.72,1.72,0,0,1,.25.46A1.13,1.13,0,0,1,116.83,66.36Z"/><path class="cls-8" d="M154.38,91.08a5.63,5.63,0,0,0,3.78-.76c1.84.58,2.08,1.39,1,3.34a2.72,2.72,0,0,1-2.17.85c-.54.11-1.08.2-1.61.34-.91.24-2.22,1-2.67.21a3.37,3.37,0,0,1,.16-3.31C153.31,91.38,154,91.5,154.38,91.08Z"/><path class="cls-17" d="M150.67,70.39c.78-1,2.06-.55,3-1.1a1.55,1.55,0,0,1,1.27-.45,3.66,3.66,0,0,1,.57,0,1.63,1.63,0,0,1,.53.21,1.79,1.79,0,0,1,.55.67c.54,2.57-.41,4.18-3,5.11a2.31,2.31,0,0,1-1.12-.32c-1,.4-1-1-1.75-1A22.5,22.5,0,0,1,150.67,70.39Z"/><path class="cls-29" d="M128.46,103.55c.65.61,1.28.19,1.91-.06,1.1.17,1.13,1,1.09,1.83,0,.27,0,.53,0,.79l0,1.09c-.62,1-1.54,1-2.51.68-.84-.57-1.93.05-2.77-.57a2,2,0,0,1-1.36-1.53c-.15-.52-.25-1-.4-1.58,0-.65-.38-1.55.88-1.45.56.56,1.44-.12,2,.51C127.59,103.62,128.17,103,128.46,103.55Z"/><path class="cls-30" d="M117.88,89.25c1.06,1.39,1.77,3.11,3.85,3.46.55.09,1,.89,1.48,1.37.06.85.73,1.81-.41,2.48a7.71,7.71,0,0,1-1.73-.19c-1.22-.48-2.52-.65-3.77-1a1.63,1.63,0,0,1-.06-1.19,33.89,33.89,0,0,1,0-3.49C117.24,90.15,117,89.39,117.88,89.25Z"/><path class="cls-10" d="M152.1,81.19l.05,2.35c-.39.33,0,.93-.4,1.25-.44.15-.92,0-1.35.18a6,6,0,0,1-1.64.06c-.7-.17-1.71.45-2.07-.28s.39-1.61.88-2.31c1-1.41,2.73-2.12,3.37-3.91.2-.55.36.27.51.5C151.8,79.71,151.56,80.56,152.1,81.19Z"/><path class="cls-8" d="M140.11,54.87a7.05,7.05,0,0,0-3.05,1,1.29,1.29,0,0,1-.9-.58c-.32-.76.06-1.45.24-2.16.2-.53.27-1.08.43-1.62a3.57,3.57,0,0,1,1.14-2,2,2,0,0,1,2.3.32,7.16,7.16,0,0,1,.51,1.69,2.93,2.93,0,0,1,0,1.35c-.14.54-.6,1-.52,1.6A.66.66,0,0,1,140.11,54.87Z"/><path class="cls-10" d="M155.19,54.62a.36.36,0,0,1-.07-.33,1.85,1.85,0,0,1,2.33-1.72c1.13.67.54,2,1.15,2.91a3.49,3.49,0,0,1,1,3.76,1.12,1.12,0,0,1-1.63.68,1.72,1.72,0,0,1-.4-.36c-.34-.5-.54-1.08-.92-1.55C156.14,56.9,154.86,56.11,155.19,54.62Z"/><path class="cls-31" d="M123.61,62.72c.73-.65.74-1.62,1.08-2.45a1.1,1.1,0,0,1,1.53-.05,2.23,2.23,0,0,1,.4,2.43,2.06,2.06,0,0,0,.08,2,1.53,1.53,0,0,1,0,1.77c-.39.42-1,0-1.36-.26-.61-.38-1.51-1.18-1.09-1.7C125.14,63.28,123.91,63.23,123.61,62.72Z"/><path class="cls-8" d="M105.14,64.77c.49-.76.59-1.79,1.51-2.27,1.21.28,1.1,1.44,1.49,2.26a3.52,3.52,0,0,1,0,1.48c-.25.73-.23,1.61-1.12,2-.6-.87-1.18-1.57-1.66.1a4.34,4.34,0,0,1-.55,1c-.83.07-.77-.61-.93-1.1a8.34,8.34,0,0,1,.54-1.52h0C104.73,66.06,104.82,65.37,105.14,64.77Z"/><path class="cls-16" d="M107,68.22c.49-.56.19-1.45.81-2,.19-.28.38-.56.78-.51A2.59,2.59,0,0,1,110,67c.26.69,1.16,1,1.13,1.87.07.59-.45.84-.72,1.24a.61.61,0,0,1,0,.27c-.55.75-.28,2-1.56,2.3C109.24,70.78,108.83,69.2,107,68.22Z"/><path class="cls-16" d="M135.53,56.45a3.1,3.1,0,0,0-.61.88c-.3,1.28-1,2.09-2.32,1.54s-1.36-1.6-.75-2.76a1.73,1.73,0,0,1,.06-.68.85.85,0,0,1,.85-.68,2,2,0,0,1,.48.07c.56.16,1.15.09,1.71.22a1.69,1.69,0,0,1,.48.25C135.71,55.65,136.05,56,135.53,56.45Z"/><path class="cls-32" d="M152.45,74.56h1.29a2.34,2.34,0,0,0,1.79-.65,2.16,2.16,0,0,1,2.05-.35,1.35,1.35,0,0,1,.52,1.55,1.85,1.85,0,0,1-.57,1,7.41,7.41,0,0,0-2.31.68c-1.17-.25-2.09.53-3.14.75a.9.9,0,0,1,.27-1.26C152.85,75.84,153.34,75.17,152.45,74.56Z"/><path class="cls-33" d="M131.45,106.11l-.33-.46c.45-1.56-.46-3-.33-4.56.05-.59-.26-1.29.68-1.43.69.42,1.4.81,2.05,1.27,1.37,1,1.3,2.14-.32,2.63C131.76,104,132.12,105.33,131.45,106.11Z"/><path class="cls-34" d="M130,46.14c-.91.26-2.09.21-1.88,1.7-.43.36-.84.17-1.25,0a1.28,1.28,0,0,1-.65-1.11,4,4,0,0,0,.78-2.26l0,0c1.09.59,2,1.44,2.63-.71.24-.83,1.85-.53,2.66.39,0,1.16-1.1,1.3-1.8,1.81Z"/><path class="cls-12" d="M120.56,44.84l.38-.37a2.13,2.13,0,0,1,.38-2.32l.38-.73A3.43,3.43,0,0,1,123,40.2c.44.12.4.48.42.82.15.66-.7,1.19-.21,1.88.45.3,1.1-.07,1.48.44l-.05,1.32a.6.6,0,0,1-.22.43,7.87,7.87,0,0,1-1.56.85c-.64.08-1.12.79-1.87.52a1.76,1.76,0,0,1-.55-1.14A.65.65,0,0,1,120.56,44.84Z"/><path class="cls-18" d="M106.34,80.92c-.44-1.25-1.47-2.24-1.62-3.62a3.86,3.86,0,0,1-.12-1.91c.17-.79-.08-1.93,1.36-1.69.84.55,1.33,1.18.42,2.07a1.28,1.28,0,0,0,.08,2.09,3.13,3.13,0,0,1,.89,3.06C107,81.49,106.68,81.58,106.34,80.92Z"/><path class="cls-18" d="M124.35,59.5a7.39,7.39,0,0,1-2.66-1.5l-.09-.24c.89-.92.53-2.87,2.42-3,.27.1.46.25.36.58-.15.77-1.17,1.85.91,1.6,1.09-.13.22,1.19.53,1.77C125.53,59.37,125.29,60.12,124.35,59.5Z"/><path class="cls-35" d="M105.12,75.6c-.13.57-.27,1.13-.4,1.7-.79-1.87-1.86-3.64-1.89-5.76.09-.52,0-1.06.15-1.58s.19-1.49,1-1.82l.76,1.13c-.21,1.38-1,2.76,0,4.15C105.25,74.08,104.66,74.93,105.12,75.6Z"/><path class="cls-36" d="M132.56,53.09V48.65c-.11-.85.46-1.11,1.11-1.29.7.44,1.49.77,1.82,1.62a5.86,5.86,0,0,1-2.4,4.29A.65.65,0,0,1,132.56,53.09Z"/><path class="cls-37" d="M155.9,69.05l-.76.21a1.52,1.52,0,0,1-1.49-1.49c-1.42-1.44-1.42-1.44.75-3,.73-.24.42.57.75.74a2.89,2.89,0,0,1,.77,2.31C156.22,68.23,156,68.64,155.9,69.05Z"/><path class="cls-31" d="M140.11,54.87v-.15c-.27-.64.12-1.12.38-1.64l0-1.55a1.41,1.41,0,0,1,.48-1.65,1.53,1.53,0,0,1,1.77.22,8.24,8.24,0,0,1-.86,4.06A1.4,1.4,0,0,1,140.11,54.87Z"/><path class="cls-38" d="M155.19,54.62l1.87,3.45c.2.42.23.73-.39.64-.75-.67-1.95.71-2.62-.67C153.25,56.42,154,55.48,155.19,54.62Z"/><path class="cls-39" d="M161.56,43.71a1.78,1.78,0,0,0,1.79.75c.17-.21.32-.21.46,0v1.1c.75.55.51.93-.2,1.24-1-.09-.16.89-.63,1.12a1.45,1.45,0,0,1-.68.82.76.76,0,0,1-.77-.16c-.15-.1-.43-.2-.42-.29C161.24,46.78,161.4,45.24,161.56,43.71Z"/><path class="cls-12" d="M151.47,91.83a1.5,1.5,0,0,1,.3,0c.78.91.32,2,.33,3,0,.72-.57.42-1,.26a6,6,0,0,1-2.73-2.85c.42-.34.92-.13,1.38-.19A8.65,8.65,0,0,1,151.47,91.83Z"/><path class="cls-38" d="M136,46.28c1.25.22,2.51-.69,3.75,0a25.31,25.31,0,0,1-1.39,3,2.54,2.54,0,0,1-.72.24c-.71-.12-1.55.23-2.08-.55a1,1,0,0,1,.14-.93,1.38,1.38,0,0,0,.28-1.22A.6.6,0,0,1,136,46.28Z"/><path class="cls-18" d="M155.56,50.1c.4-1.24,1.43-.64,2.21-.77a1.87,1.87,0,0,1,2.06,1.74c-.23.83-1,1.2-1.54,1.73a.72.72,0,0,1-.5,0c-.37-.46-1.08-.48-1.37-1S155.67,50.75,155.56,50.1Z"/><path class="cls-18" d="M152.44,61.77a6.56,6.56,0,0,1,.73.54c.46.43,1.43.66,1.11,1.48a3.59,3.59,0,0,1-2.1,1.67c-.61.26-.79-.44-.63-1a5.12,5.12,0,0,0-.1-2.37A.76.76,0,0,1,152.44,61.77Z"/><path class="cls-29" d="M138.24,49.27c.17-1.15.38-2.28,1.5-2.94.41.06.91-.2,1.2.31a4.4,4.4,0,0,1,0,1.77,1.37,1.37,0,0,1-.55,1.08C139.68,49.46,138.92,49.76,138.24,49.27Z"/><path class="cls-18" d="M127,47.46l1.12.38c.82.75-.1,1.5,0,2.25a2.38,2.38,0,0,0-.05.26c-.55.77-1.11,1.49-2,.35a2.38,2.38,0,0,1-.37-1.4,2.62,2.62,0,0,1,.59-1.26A1.72,1.72,0,0,1,127,47.46Z"/><path class="cls-21" d="M142.72,50.1h-1.81c-.52-.52-.11-1.16-.22-1.73a4.66,4.66,0,0,1,.52-1.71C143,47.38,143,47.38,142.72,50.1Z"/><path class="cls-40" d="M156.67,51.65l1.12,1c0,.2-.13.24-.29.13-1.15,0-1.7.86-2.38,1.54-.93-1.28.18-2.52.07-3.79C156.1,50.36,156.24,51.19,156.67,51.65Z"/><path class="cls-6" d="M107.36,81.59c1.32-.14,2,.92,2.8,1.6.36.3.44.88.93,1.1a.29.29,0,0,1,.17.28c0,.11,0,.17-.06.17a1,1,0,0,1-1.26-.18c-.31-.35-.57-1.17-1.07-.14a1.24,1.24,0,0,1-1-.37C107.46,83.28,106.08,82.72,107.36,81.59Z"/><path class="cls-10" d="M136,46.28l.37.43c.14.54-.22,1-.35,1.43l-.41.83a.21.21,0,0,1-.36,0c-.36-.65-1.49-.52-1.52-1.5a1,1,0,0,1,.75-1C135,46.16,135.43,45.72,136,46.28Z"/><path class="cls-41" d="M128.08,50.09c.74.77.61,1.86.72,2.73.18,1.48-1.09.72-1.82.73a1.12,1.12,0,0,1-.45-.62,2.11,2.11,0,0,1-.16-1c.44-.73,1.39-1,1.71-1.82Z"/><path class="cls-38" d="M130,45.93l2.23-1.79c.93-.2,1.43.59,2.46,1l-2.41.8A2.51,2.51,0,0,1,130,45.93Z"/><path class="cls-42" d="M134.47,46.42l-.75,1-1.16,1.17c-.81,0-1.41-.26-1.48-1.19.19-1.15,1.21-.85,1.91-1.09Z"/><path class="cls-43" d="M159.65,51.24c-.28-1-1.12-1.4-1.88-1.91,1-.42,2-1,3.08-.37.55.91-.21,1.65-.33,2.48C160.13,51.8,159.77,52,159.65,51.24Z"/><path class="cls-44" d="M111.16,84.61a.87.87,0,0,1-.07-.31,3.9,3.9,0,0,1,2.63,2l-1.83-.76v6.25c-1.19.39-.78-.57-.91-1.07C111.13,88.68,110.72,86.63,111.16,84.61Z"/><path class="cls-45" d="M117.88,89.25c-.69,1.7-.15,3.48-.33,5.21-.16.16-.23.4-.45.49a.72.72,0,0,1-.69-.48,1.51,1.51,0,0,0,.44-1.43,9.71,9.71,0,0,1,.27-4.15C117.47,88.81,117.77,88.83,117.88,89.25Z"/><path class="cls-46" d="M126.93,52.68l0,.87c.08,1.82-1.15,1.54-2.28,1.41-.4-.43-.16-.86,0-1.28a2.51,2.51,0,0,1,1.15-1.17A1.25,1.25,0,0,1,126.93,52.68Z"/><path class="cls-47" d="M128.85,107.68c.9,0,1.83.27,2.58-.48,0,.15,0,.3,0,.45a18.77,18.77,0,0,1-4.24,1.78C126.6,107.77,127.63,107.64,128.85,107.68Z"/><path class="cls-48" d="M110,78.69l-1.31-2.81c1.46.68,2.66,1.2,2.65,2.57,0,.77-.89.2-1.38.21Z"/><path class="cls-49" d="M131.47,99.66c-.85,1.19-.38,2.48-.19,3.71.12.8.37,1.55-.16,2.28a2.14,2.14,0,0,0-.75-2.16c.93-1.52-.27-3-.1-4.48Z"/><path class="cls-46" d="M127,47.46l-.38.76c-.53.23-.83.87-1.5.87a1.66,1.66,0,0,1-.94-.9.92.92,0,0,1,.1-.79.62.62,0,0,1,.49-.16c.49-.18.87-.61,1.45-.55Z"/><path class="cls-50" d="M124.65,43.34c-.59-.31-1.3.74-1.84-.15.27-.76.39-1.61,1.16-2.1l1.09-.05a.79.79,0,0,1,0,1.15C124.64,42.47,124.66,42.91,124.65,43.34Z"/><path class="cls-51" d="M124.72,47.24l-.41.25c-.53-.11-1-.23-1.57-.39s-.84-.26-.82-.8.64-.44.92-.71c.56-.18.88-.82,1.55-.78.17.53.74.87.72,1.5A.94.94,0,0,0,124.72,47.24Z"/><path class="cls-52" d="M107.36,81.59c-.54,1.06.39,1.61.81,2.33a.62.62,0,0,1-.85,0,2.44,2.44,0,0,1-1-3,.79.79,0,0,0,1,0Z"/><path class="cls-53" d="M152.44,61.77l-1,.36c-.26-.34-.45-.83-.79-1-.62-.27-.82-.6-.37-1.1s.86-.32,1.25.15A2.75,2.75,0,0,1,152.44,61.77Z"/><path class="cls-54" d="M151.85,46.57c-.17.48.1,1.27-.76,1.24-.57,0-1.22-.33-1.24-.93,0-.87,1.06-.5,1.46-1C151.36,45.83,152,46,151.85,46.57Z"/><path class="cls-55" d="M125.11,46.31c-.57-.34-1.57-.48-.72-1.5a.3.3,0,0,0,.21-.15c.66-.25,1.06-.26,1.32.63S125.57,46.13,125.11,46.31Z"/><path class="cls-56" d="M122.43,96.4c1.49-.37.51-1.55.78-2.32.5,1,1,2,1.49,3-.32.06-.67.05-.85.41a.43.43,0,0,1-.44,0,10.11,10.11,0,0,1-1-.65A.39.39,0,0,1,122.43,96.4Z"/><path class="cls-57" d="M116.83,66.36a1.62,1.62,0,0,0,.35-1.6c.56-.43.84,0,1.13.38a1,1,0,0,0,.82.41C118.4,65.92,118,67.32,116.83,66.36Z"/><path class="cls-58" d="M158.12,43,160,45.19c-1.1.34-1.55-.73-2.17-1.48C157.54,43.31,157.5,43,158.12,43Z"/><path class="cls-59" d="M132.56,53.09H133a.87.87,0,0,1,0,1.19c-.28.32-.75.39-1,.76a.72.72,0,0,1-.86.3C131.36,54.44,131.42,53.43,132.56,53.09Z"/><path class="cls-60" d="M108.88,72.69c.9-.51.48-1.91,1.56-2.3C110.44,71.51,110.63,72.77,108.88,72.69Z"/><path class="cls-61" d="M114.16,81.66a1.78,1.78,0,0,1-1.94-.71c.13-.49.2-1,1-.85a1.87,1.87,0,0,1,1,1.59Z"/><path class="cls-62" d="M124,41.09c-.49.64-.25,1.69-1.16,2.1-.94-.9.19-1.4.41-2.07.07-.2.16-.23.3-.06Z"/><path class="cls-63" d="M145.88,56.18c-.69.61-.86,1.49-1.76,1.32-.35-.07-.34-.67-.2-1C144.31,55.71,145,56.12,145.88,56.18Z"/><path class="cls-64" d="M160.39,51.18c-.84-1,1.05-1.33.46-2.22l.7.38a1,1,0,0,1,.29.44c.12.9-.25,1.4-1.18,1.43Z"/><path class="cls-65" d="M113.17,80.1l-1,.85c-.56-.45-1-1.1-.4-1.62S112.67,79.9,113.17,80.1Z"/><path class="cls-66" d="M150.67,70.39a3.62,3.62,0,0,1,0,3.18c-.23.09-.39.54-.67.24-.09-.1.15-.5.23-.76a2,2,0,0,0,0-1.8A.8.8,0,0,1,150.67,70.39Z"/><path class="cls-67" d="M157.05,60.58c0,.34-.06.67-.48.75.5-.73-1-1.53.09-2.23a1.27,1.27,0,0,1,1.15.4l0,0C158.37,60.39,157.46,60.32,157.05,60.58Z"/><path class="cls-68" d="M135.53,56.45c.2-.45-.23-.73-.32-1.1a.77.77,0,0,1,.69-.25.93.93,0,0,1,.43.27c.27.13.64.11.73.5C136.72,56.52,136.14,56.52,135.53,56.45Z"/><path class="cls-69" d="M149.48,64c.18-.48-.36-1.13.32-1.48a.45.45,0,0,1,.6.29,1.18,1.18,0,0,1-.5,1.57C149.74,64.26,149.52,64.22,149.48,64Z"/><path class="cls-70" d="M143.07,57.53c-.37-.15-.71-.32-.72-.77s.28-.54.6-.58c.56-.06.55.36.55.74S143.54,57.56,143.07,57.53Z"/><path class="cls-71" d="M124.35,59.5c.7.15,1.1-.28,1.47-.76.14.5.27,1,.4,1.48l-1.53.05C124.57,60,124.46,59.76,124.35,59.5Z"/><path class="cls-72" d="M161.61,49.73l-.06-.39,0-.74.79,0c.71.27,1.23.68,1.18,1.54C162.75,50.6,162.2,50,161.61,49.73Z"/><path class="cls-73" d="M125.07,42.19V41c.29-.43.52-.3.74.05a1.49,1.49,0,0,1,.41,1.56.58.58,0,0,1-.77-.08Z"/><path class="cls-74" d="M114.15,81.69c1.1,0,1.78.25.72,1.63-.3-.7-.5-1.18-.71-1.66Z"/><path class="cls-75" d="M152.1,81.19c-1.15-.44-.53-1.42-.65-2.16a1.22,1.22,0,0,0,.27,0Z"/><path class="cls-76" d="M153.25,36.93c.2.38.77.77,0,1.14a.57.57,0,0,1-.77-.3c-.2-.64.21-.83.78-.82Z"/><path class="cls-77" d="M148.76,85c.45-.48,1-.23,1.55-.26a.63.63,0,0,1,.39.34,2.84,2.84,0,0,1-2,.27C148.75,85.26,148.75,85.15,148.76,85Z"/><path class="cls-78" d="M158.12,43c-.31.15-.3.45-.34.73-.11-.14-.29-.27-.32-.42-.11-.46-1.16-.83-.36-1.29C157.59,41.72,157.92,42.48,158.12,43Z"/><path class="cls-79" d="M144.22,47.8a2.69,2.69,0,0,1-.74.48c-.47.16-.41-.27-.43-.54,0-.43.13-.69.62-.63C143.92,47.14,144.13,47.22,144.22,47.8Z"/><path class="cls-80" d="M105.12,75.6c-.67-.64-.2-1.46-.37-2.18.4.14.89-.15,1.21.28C104.82,74,105.22,74.89,105.12,75.6Z"/><path class="cls-81" d="M149.86,92.13l-1.45.08c-.53,0-1.13.18-1.52-.4l3,0c.13.07.18.13.13.19A.22.22,0,0,1,149.86,92.13Z"/><path class="cls-82" d="M157.81,59.5c-.4-.09-.89.09-1.15-.4v-.39l.39-.64A2.5,2.5,0,0,1,157.81,59.5Z"/><path class="cls-83" d="M110.44,70.12a2.15,2.15,0,0,1,.72-1.24l.85.45A2.17,2.17,0,0,1,110.44,70.12Z"/><path class="cls-84" d="M149.48,64l.42.38c-.36.14-.74.67-1.08,0a.6.6,0,0,1,.12-.81C149,63.55,149.29,63.85,149.48,64Z"/><path class="cls-85" d="M126.22,42.56a2.14,2.14,0,0,1-.42-1.47l.4,0c.22.23.68,0,.79.46l-.45,1.08C126.41,42.74,126.3,42.73,126.22,42.56Z"/><path class="cls-86" d="M133,46.36c-.64.35-1.51.32-1.91,1.09V46.34a1,1,0,0,1,1.19,0Z"/><path class="cls-87" d="M154.38,91.08c-.26.78-.92.65-1.51.67a1.07,1.07,0,0,1,0-.25C153.28,91,153.86,91.15,154.38,91.08Z"/><path class="cls-88" d="M156.67,51.65l-1.48-1.15.37-.4A1.78,1.78,0,0,1,156.67,51.65Z"/><path class="cls-89" d="M153.65,67.77c.27.73.92,1.07,1.49,1.49l-1.48,0Z"/><path class="cls-83" d="M110,78.66c.12.32.44.67-.17.85-.28.08-.51,0-.53-.29,0-.54.31-.6.74-.53Z"/><path class="cls-90" d="M157.42,38.06l-1.09.66a1,1,0,0,1-.81-.65Z"/><path class="cls-50" d="M123.52,41.06a.65.65,0,0,0-.3.06l-.38-.79c-.16.18-.3.17-.43,0a.71.71,0,0,1,1.15-.36Z"/><path class="cls-42" d="M132.28,46.34h-1.19l-1.14-.2,0-.21,2.28,0Z"/><path class="cls-91" d="M141.21,46.66a2.22,2.22,0,0,1-.37,1.58c-.1.15-.2.14-.31,0a2.2,2.2,0,0,1,.41-1.61Z"/><path class="cls-92" d="M125,53.92l-.34,1-.32.41-.74-.25A1.57,1.57,0,0,1,124,54a1,1,0,0,1,.39-.3C124.68,53.63,124.91,53.64,125,53.92Z"/><path class="cls-93" d="M131.15,55.35l.59-.36c.43.07.18.57.47.72l-.36.4C131.38,56.07,131,56,131.15,55.35Z"/><path class="cls-94" d="M150.3,71.25c.43.61.62,1.21,0,1.8Z"/><path class="cls-95" d="M155.15,65.5l-.75-.74c.15-.27.3-.54.44-.81A1.76,1.76,0,0,1,155.15,65.5Z"/><path class="cls-96" d="M127,44.43c-.25,0-.6.34-.72-.12-.08-.3.07-.64.46-.57s.26.44.23.72Z"/><path class="cls-97" d="M126.22,42.56a1.19,1.19,0,0,0,.32,0c-.12.43-.38.77-.85.68s-.26-.44-.25-.72Z"/><path class="cls-98" d="M127,41.53c-.36,0-.67-.06-.79-.46.31-.18.64-.5,1-.14S127.19,41.37,127,41.53Z"/><path class="cls-30" d="M173.64,84c-.72,1.64-2.72,1.45-3.76,2.62a9.45,9.45,0,0,1-3.13,1.34c-1.18,0-1.31-.93-1.51-1.79a8.83,8.83,0,0,1-.14-1.35,5,5,0,0,0-.19-1.8,2.57,2.57,0,0,1,.88-2.45c1-.68,2.26-.74,3.17-1.55a1.84,1.84,0,0,1,2,.67,1.79,1.79,0,0,1,.31,1.45,4.48,4.48,0,0,0,.07,1.71,4.53,4.53,0,0,1-.12,1c0,.28.17,0,.27,0C172.22,83.92,173,82.89,173.64,84Z"/><path class="cls-8" d="M171,81.3c-.06-.52.18-1.11-.37-1.5a1.31,1.31,0,0,1,.07-1.56,28.28,28.28,0,0,1,3.2-2.35,2.26,2.26,0,0,1,1,.25c.44.22.86.57,1.36.16a1,1,0,0,1,1.57.22c.61,1-.56,1-.87,1.44s-.75.35-1.19.23c-.12,0-.31-.19-.31-.14a8.44,8.44,0,0,0,.26,1.57,3,3,0,0,1,.13.49,17.24,17.24,0,0,1,.07,2.59A4.72,4.72,0,0,1,173.64,84c-.46.16-1.21-.82-1.42.38,0,.21-.18.18-.82-.41-.41-.26-.2-.68-.26-1C171.31,82.34,170.77,81.86,171,81.3Z"/><path class="cls-29" d="M175.47,77.92c.85.3,1.26-.54,1.93-.71s.27-.47.1-.62-.63-.6-.87,0c-.81,1.85-1.32.15-1.95-.14-.45-.71.12-1.12.47-1.59s.85-.83,1.26-1.25.82-1,1.48-1.06a.89.89,0,0,1,.48.27,3.39,3.39,0,0,1,.59,1.9,31,31,0,0,0,.37,3.46,4.41,4.41,0,0,1-.11,1.14A5.43,5.43,0,0,1,177,81.62l-.7.46c-.52.13-.56-.22-.61-.59-.08-.57.19-1.18-.21-1.71l0,0A2.15,2.15,0,0,1,175.47,77.92Z"/><path class="cls-99" d="M165.76,89.55a23.91,23.91,0,0,1-6,3.75c-.62-.88-.06-1.91-.35-2.83.08-.58.57-.63,1-.77s1-.21,1.43-.38a4.26,4.26,0,0,1,.47-.15,4.9,4.9,0,0,0,1.8-.82,1.59,1.59,0,0,1,.79-.24C165.79,88.22,166.18,88.65,165.76,89.55Z"/><path class="cls-100" d="M174.71,94.83c-1.23.8-2,2.37-3.76,2.26-.73-.75-.13-1.51,0-2.27l4.5-3.77c.81-.07.77.53.57,1a4.45,4.45,0,0,0-.31,1.63A3.86,3.86,0,0,1,174.71,94.83Z"/><path class="cls-101" d="M170.91,94.82c.7.74-.26,1.52,0,2.27-.69,0-.77.47-.75,1a1.74,1.74,0,0,1-.63.79c-1.13.58-2,1.57-3.4,1.73-.86-.38-.71-1-.45-1.71Z"/><path class="cls-102" d="M175.46,93.71c-.2-.69-.72-1.39.29-2,.2-.12-.07-.53-.34-.7a7.17,7.17,0,0,1,2.28-1.89,10.91,10.91,0,0,1-1.43,4.91h-.43C175.49,94.18,175.36,94.06,175.46,93.71Z"/><path class="cls-103" d="M178.84,79.44V78.29a4.47,4.47,0,0,0,.73-.94,1.15,1.15,0,0,1,.34-.32c.51-.35,1.15-1.2,1.16.31,0,.43,0,.86,0,1.29a3.88,3.88,0,0,1-1.9,1.56C178.91,80,179.08,79.63,178.84,79.44Z"/><path class="cls-104" d="M166.83,87.62c.85-.84,2-.7,3-1-.91,1.44-2.41,2.1-3.81,2.89a1.77,1.77,0,0,1-.16-1.33C166.12,87.79,166.63,88,166.83,87.62Z"/><path class="cls-105" d="M128.85,107.68c-.76.38-2,.35-1.61,1.75l-.67.34c.17-.79-.49-1.23-.76-1.83-.5-.88.43-.76.74-1.06C127,108.08,128.45,106.37,128.85,107.68Z"/><path class="cls-106" d="M178.84,79.44a.74.74,0,0,1,.38.75A3.23,3.23,0,0,1,177,81.62Z"/><path class="cls-107" d="M159.72,89.93c0,1.13,0,2.25,0,3.37l-.6.36c.05-1.23.57-2.59-1-3.34l.64,0c.27-.1.38-.46.72-.44Z"/><path class="cls-108" d="M175.45,79.78c.84.56-.07,1.75.82,2.3-.06.25-.08.53-.39.62C175.11,81.82,175.6,80.75,175.45,79.78Z"/><path class="cls-109" d="M166.11,88.08c0,.46,0,.93,0,1.39a.5.5,0,0,1-.31.08c0-.67-.22-1.2-1-1.16-.18-.47-.18-.47.54-.83A.84.84,0,0,1,166.11,88.08Z"/><path class="cls-110" d="M165.72,98.91c.3.47-.33,1.08.23,1.51-.22.22-.43.31-.63,0a.83.83,0,0,0-.43-.73Z"/><path class="cls-12" d="M111.52,91.07c0,.28-.44.84.37.72.43.59,1.62.43,1.53,1.53-.19.36-.56.46-.89.61-.42.57,0,1,.2,1.51a1.38,1.38,0,0,1,.1,1.29c-.9,1-1.47.23-2.07-.38-1.65-2-3.35-3.91-2.66-6.79C109.72,89,110.35,90.64,111.52,91.07Z"/><path class="cls-30" d="M111.52,91.07c-1.58.49-2-1.59-3.42-1.51-.07-.17-.27-.41-.21-.49,1.23-1.87.85-3.55-.57-5.12l.85,0,.75.31c.37,0,.75-.16,1.11.07l1.13.31C112,86.73,111.35,88.92,111.52,91.07Z"/><path class="cls-30" d="M119.43,104.61c-1.66,0-2.64-1.37-4.05-1.86a8.19,8.19,0,0,1-1.23-2.27A3.4,3.4,0,0,1,113.1,98c.37-1,.83-.62,1.31-.1A1.8,1.8,0,0,0,116.18,99a3.35,3.35,0,0,1,1.51,0,1.1,1.1,0,0,1,.38.33,1.87,1.87,0,0,0,.65,1.55C119.19,102.12,120.15,103.2,119.43,104.61Z"/><path class="cls-111" d="M104,68.14c-.48.54-.15,1.41-.76,1.89-.48.2.24,1.14-.66,1.08-.33-2,.67-3.79,1-5.68,0,1.64,0,1.64.77,1.22A2.3,2.3,0,0,1,104,68.14Z"/><path class="cls-13" d="M113.41,98.21c-.13.88,1,1.34.74,2.27-1.42-.74-2.79-1.54-2.93-3.38a3.07,3.07,0,0,1,1.78.53C113.17,97.79,113.24,98,113.41,98.21Z"/><path class="cls-112" d="M113,97.84a4.43,4.43,0,0,1-1.81-.74c-.42-.09-.39-.45-.46-.75.62.17,1.15.87,1.9.35C113.49,96.85,113.33,97.32,113,97.84Z"/><path class="cls-113" d="M102.59,71.11l.66-1.08c0,.53.2,1.14-.42,1.51Z"/><path class="cls-17" d="M165.32,100.41H166l3.54-1.83c.83.14.49.65.34,1.11-.6,1.35-.56,3.09-2.27,3.78l-1.5.77c-.65.13-1.2.78-1.95.36H164C163.26,102.83,165,101.84,165.32,100.41Z"/><path class="cls-29" d="M169.07,51.6c1.15.46,2.55.56,2.63,2.35a1.82,1.82,0,0,0,1.12,1.41c.23.49.74.65,1.13,1a.79.79,0,0,1,.17.47,2.33,2.33,0,0,1-.23.72,4.82,4.82,0,0,1-1.31,1.81c-.42.26-.73.74-1.32.64-.68-.51-1.31-1.07-2-1.58-1-.73-.78-1.28.44-1.4,0-.36-.33-.49-.51-.7a2.79,2.79,0,0,1-3.57-.1c-.42-1.17.75-1.39,1.21-2a4.72,4.72,0,0,0,.9-1.14C168.25,52.6,168,51.46,169.07,51.6Z"/><path class="cls-29" d="M172.46,59.1l1.13-1.88c.63-.2,1,.26,1.36.59a10.55,10.55,0,0,1,2,2.91,9.3,9.3,0,0,0,.39,1.37v.41a3.43,3.43,0,0,1-1.41,2.77,1,1,0,0,1-.77,0,1.09,1.09,0,0,1-.36-.38A5.48,5.48,0,0,0,173.68,63a7.94,7.94,0,0,1-1.52-2.94A1,1,0,0,1,172.46,59.1Z"/><path class="cls-29" d="M175.82,65.17c.51-.89,1-1.78,1.52-2.67l.38.38c.35.89.74,1.76,1.13,2.63a1.2,1.2,0,0,1,.28,1.54c-.58,1.12.49.79.84,1.09s.18.83,0,1.25a5.51,5.51,0,0,1-1.35,2,1.06,1.06,0,0,1-1,.27c-.51-1.69-1.59-3.14-2.15-4.81C175.4,66.22,175,65.58,175.82,65.17Z"/><path class="cls-29" d="M169.07,51.6c-.86.16-.29,1.43-1.2,1.54-.23.47-.54.53-.92.17a4.61,4.61,0,0,0-.9-.74,18,18,0,0,0-1.59-1.11c-.51-.32-1-.64-1-1.35-.38-.52-.75-1-1.13-1.55.12-.26.25-.52.37-.77a.91.91,0,0,1,1.08-.52c.49.19.89.52,1.36.74a6.56,6.56,0,0,0,1.63.82,2.68,2.68,0,0,1,2.31,2.39Z"/><path class="cls-114" d="M176.61,61.05c-.25-1.26-1.39-1.95-1.9-3a8.94,8.94,0,0,1-.75-1.17v-.35c-.3-.46.1-.82.18-1.23a2.78,2.78,0,0,1,.12-1c.74-.27.85.43,1.2.77a27.06,27.06,0,0,1,2.64,3.76c.58.87-.65,1.19-.57,1.91,0,.28.06.64-.34.74S176.77,61.22,176.61,61.05Z"/><path class="cls-29" d="M169.07,51.22c-.72-1.9-3-1.71-4.14-3-.48-.25-.78-.74-1.28-1-.23-.12-.36-.27-.17-.53.56-.25.62-.64.33-1.14a1.06,1.06,0,0,1,1.49.36c.56.5,1.31.69,1.9,1.15l1.53,1.13c.91.78.52,1.72.34,2.63Z"/><path class="cls-115" d="M179.6,69.27c.12-.38.24-.75.37-1.13s0-1.17.55-1.55c.16,1.81,1.58,3.56.28,5.44C180.05,71.26,180,70.2,179.6,69.27Z"/><path class="cls-116" d="M177.35,60.63l.75-1.88a4.25,4.25,0,0,1,1.05,1.89c-.51.36-1-1.34-1.44,0C177.59,60.79,177.48,60.8,177.35,60.63Z"/><path class="cls-117" d="M169.07,50.85a5.36,5.36,0,0,0-.34-2.63.79.79,0,0,0,.36-.74c.11-.18.22-.19.33,0C169.49,48.62,169.81,49.79,169.07,50.85Z"/><path class="cls-118" d="M174.36,54.25l-.05,1.08c-.11.15-.22.16-.35,0V52.29h.28l.17,1.18A.69.69,0,0,1,174.36,54.25Z"/><path class="cls-119" d="M172.54,48.83A2.7,2.7,0,0,1,174,51.61Z"/><path class="cls-120" d="M178.85,65.51a3.71,3.71,0,0,1-1.13-2.63A3.83,3.83,0,0,1,178.85,65.51Z"/><path class="cls-121" d="M174,55.36a2,2,0,0,0,.35,0c-.12.39-.23.77-.35,1.15a1.05,1.05,0,0,1-1.14-1.12A1,1,0,0,0,174,55.36Z"/><path class="cls-122" d="M163.81,44.48l-.46,0c-.21-.73-.43-1.46-.64-2.19,0,0,0-.13.08-.13l.3.06Z"/><path class="cls-123" d="M167.2,47.09a2.33,2.33,0,0,1-1.9-1.15A2.46,2.46,0,0,1,167.2,47.09Z"/><path class="cls-124" d="M177.35,60.63a2.16,2.16,0,0,1,.36,0,2,2,0,0,1-.37,1.46,1.07,1.07,0,0,1-.73-1.05C177.05,61.25,177.37,61.25,177.35,60.63Z"/><path class="cls-125" d="M169.42,47.48h-.33c0-.46-.09-.92-.13-1.43C170.05,46.3,169.38,47,169.42,47.48Z"/><path class="cls-126" d="M174.36,54.25c0-.26,0-.52,0-.79.52.4,1.05.78,1.05,1.53Z"/><path class="cls-127" d="M172.71,51.3l-.08.42a3.72,3.72,0,0,1-.57-.37c-.13-.12-.18-.38.07-.37S172.54,51.2,172.71,51.3Z"/><path class="cls-30" d="M120.56,44.84v.39a6.9,6.9,0,0,1,.3,1.68c-1.27,1.93-3.37,2.82-5.17,4.09a1.38,1.38,0,0,1-1-.59,2.46,2.46,0,0,1,0-2c.17-.46.72-.23,1-.54A35.67,35.67,0,0,1,120.56,44.84Z"/><path class="cls-128" d="M115.73,47.83l-.74.39q-.22.31-.45,0c-.16-1.23.6-2.24.75-3.4.84.72,0,1.38-.13,2S115,47.82,115.73,47.83Z"/><path class="cls-129" d="M121.32,42.15c-.07.78-.56,1.5-.38,2.32A1.44,1.44,0,0,1,121.32,42.15Z"/><path class="cls-130" d="M122.41,40.3l.43,0a2.46,2.46,0,0,1-1.14,1.09A1.17,1.17,0,0,1,122.41,40.3Z"/><path class="cls-131" d="M169.83,99.7c0-.4.07-.84-.34-1.11.23-.17.47-.33.71-.49C170.58,98.75,170.25,99.23,169.83,99.7Z"/><path class="cls-125" d="M175.46,93.71l.37.37a1.08,1.08,0,0,1-1.12.75A1.09,1.09,0,0,1,175.46,93.71Z"/><path class="cls-30" d="M179.6,69.27A2.9,2.9,0,0,1,180.8,72c-.29,1.66-.59,3.33-.88,5l.06.45c-.49.45-.7.16-.94-.29-.45-.84-.22-1.81-.57-2.65l-.38-1.92c-.5-.65.17-1,.38-1.46Z"/><path class="cls-90" d="M160.43,39.21a4.08,4.08,0,0,1-1.89-.77C159.43,38.05,160,38.46,160.43,39.21Z"/><path class="cls-132" d="M161.56,40.7c-.74-.05-1.17-.31-.77-1.13A1.14,1.14,0,0,1,161.56,40.7Z"/><path class="cls-29" d="M107.77,64.74c-.38-.75-.75-1.49-1.12-2.24L107,61c-.48-1.14.61-1.6,1.08-2.26a4.89,4.89,0,0,1,1.71-1.61,1,1,0,0,1,.71.25,2.48,2.48,0,0,1,.82,1.21,1.35,1.35,0,0,0,.79,1,1.6,1.6,0,0,1,.67,1,.85.85,0,0,1-.12.49c-.15.2-.33.48-.53.48-1.53-.05-2.07,1-2.59,2.15a2.46,2.46,0,0,1-.55.73C108.63,64.77,108.24,65,107.77,64.74Z"/><path class="cls-30" d="M110,57.24c-.91,1.31-2.31,2.23-2.94,3.75l-.7-.37a1.94,1.94,0,0,1-.06-1.87l-.37-.76c.26-.24.47-.52.74-.75.84-1,1.37-2.3,2.58-3a1,1,0,0,1,.45.34A3,3,0,0,1,110,57.24Z"/><path class="cls-133" d="M106.26,58.75c0,.63,0,1.25,0,1.87C105.84,60,105.37,59.4,106.26,58.75Z"/><path class="cls-134" d="M105.14,64.77a2.21,2.21,0,0,1-.76,1.88A2.18,2.18,0,0,1,105.14,64.77Z"/><path class="cls-135" d="M106.63,57.24a.66.66,0,0,1-.74.75c0-.25,0-.5,0-.75C106.13,56.82,106.38,57.21,106.63,57.24Z"/><path class="cls-29" d="M119.43,104.61a12.72,12.72,0,0,0-1.13-3.72.75.75,0,0,1,.54-.62,17.52,17.52,0,0,1,5.15,1.6c.6.68.32,1.64.75,2.38.5.41.28,1,.33,1.49.46,1-.31.89-.89.92-.54-.35-1.34-.23-1.72-.91-.26,0-.54.4-.79,0-.44-.36-1.26.06-1.48-.73Z"/><path class="cls-136" d="M124,106.52c.54,0,1.12,0,1.12-.78.47.4.51,1.37,1.48,1.14-.19.39-.82.47-.74,1.06-.49-.57-.91-1.26-1.82-1.12-.13,0-.17-.12-.14-.19S123.91,106.52,124,106.52Z"/><path class="cls-137" d="M120.19,105l1.48.73c-.53,0-1.08,0-1.13.76C120,106.07,119.79,105.6,120.19,105Z"/><path class="cls-138" d="M124,106.52c0,.1,0,.2,0,.3-.52-.34-1.46-.08-1.53-1.07C122.91,106.11,123.62,106,124,106.52Z"/><path class="cls-29" d="M110.78,52c.55-.7,1.49-1,1.89-1.89.54-.31,1-.77,1.5-1.11h0c1.12.2.17,1.3.76,1.74a1.06,1.06,0,0,1,0,1A19.58,19.58,0,0,1,111.75,55c-.54.3-1,.81-1.75.47-.18-.32-.33-.66-.51-1,0-.35-.16-.74.25-1C110.66,53.38,110.82,52.74,110.78,52Z"/><path class="cls-139" d="M109.74,53.48l-.18,1.13-.19,0c-.05-.12-.11-.23-.16-.35.11-.37-.12-.82.24-1.14Z"/><path class="cls-140" d="M114.92,50.84c-.68-.45,0-1.44-.75-1.87l.37-.75H115l-.09,2.32c.1.06.13.12.1.19S115,50.84,114.92,50.84Z"/><path class="cls-141" d="M114.17,49a1.74,1.74,0,0,1-1.5,1.11A1.76,1.76,0,0,1,114.17,49Z"/><path class="cls-142" d="M164.11,104.61l1.95-.36C165.48,104.74,164.92,105.35,164.11,104.61Z"/><path class="cls-143" d="M157.41,76c.05-.28.05-.58.37-.72a1.31,1.31,0,0,1,1.16.27c.23.51-.31.88-.24,1.36s.31,1.15,0,1.71a.36.36,0,0,1-.46,0c-.38-.74-.19-1.67-.78-2.34-.13-.07-.17-.13-.13-.2S157.37,76,157.41,76Z"/><path class="cls-144" d="M158.92,85.39c0-.75.08-1.65-1.15-1.53-.11-.08-.15-.16-.11-.24s.08-.12.12-.12l.71-.36c.5-.28.84-.08,1.09.38C159.7,84.26,160.11,85.11,158.92,85.39Z"/><path class="cls-145" d="M151.69,84.63c.14-.37-.06-.89.46-1.09,0,.77.56.82,1.13.82.13.08.17.15.13.23s-.09.11-.13.11l-.76.36h-.25A1,1,0,0,1,151.69,84.63Z"/><path class="cls-146" d="M157.41,76v.3l-2.19.43A2.64,2.64,0,0,1,157.41,76Z"/><path class="cls-147" d="M157.78,83.5c0,.12,0,.24,0,.36l-2.22.44C156.1,83.51,157,83.58,157.78,83.5Z"/><path class="cls-148" d="M153.28,84.7v-.34c.64.07,1.26-.66,1.91,0A2.79,2.79,0,0,1,153.28,84.7Z"/><path class="cls-149" d="M158.6,82.77l0-2.22.24-.06a1,1,0,0,1,.49.82,2.19,2.19,0,0,1,0,.51,1.7,1.7,0,0,1-.27,1A.28.28,0,0,1,158.6,82.77Z"/><path class="cls-150" d="M158.19,78.67h.3a1.26,1.26,0,0,1,0,1.89h0C158,80,158.18,79.32,158.19,78.67Z"/><path class="cls-151" d="M158.6,82.77l.38,0c.58-.37.88,0,1.1.45-.11.51-.38.61-.8.28l-.79-.39C158.53,83,158.56,82.89,158.6,82.77Z"/><path class="cls-8" d="M159.28,83.53a.8.8,0,0,0,.8-.38l.15-.21a3.79,3.79,0,0,1,1.64-.66,11.52,11.52,0,0,0,1.73-.63c1.5-.6,1.59.31,1.52,1.41-.09.56.66,1,.19,1.62l.38,1.12c-.52.57.18,1.34-.31,1.92l-.66.67-.58.5c-.57.21-1.3,0-1.73.63l-.5,0c-.54.08-1.13,0-1.52.52-.29.22-.45-.09-.67-.16l-.12.06a3.93,3.93,0,0,1-.3-2.39,4.11,4.11,0,0,0-.38-2.21C159.69,84.9,159.06,84.13,159.28,83.53Z"/><path class="cls-152" d="M152.14,88.12l-.41-3c.19-.25.43-.21.67-.15l.12.12C152.23,86.06,153,87.19,152.14,88.12Z"/><path class="cls-153" d="M159.3,87.6a3.86,3.86,0,0,1,.3,2.39l-.8.29C159.17,89.42,158.52,88.38,159.3,87.6Z"/><path class="cls-154" d="M149.86,92.13a2.45,2.45,0,0,1,0-.27c.52-.22,1-.67,1.59,0A1.82,1.82,0,0,1,149.86,92.13Z"/><path class="cls-64" d="M152.4,84.94l-.67.15-1,0-.39-.34,1.38-.14Z"/><path class="cls-114" d="M113,97.84c0-.43.07-.86-.37-1.14,0-.45,0-.91-.46-1.17a2.54,2.54,0,0,1,.1-1.82l1.12-.39c1-.16,1.48.61,2,1.3s.8.65,1-.15l.71.41a23.82,23.82,0,0,1,.85,2.46c.26.67.56,1.35-.06,2h-1.83a3.49,3.49,0,0,1-1.91-1.12c-.15-.17-.28-.45-.45-.48s-.27.26-.31.47Z"/><path class="cls-114" d="M117.91,99.33a3.1,3.1,0,0,0-.38-1.93,1.85,1.85,0,0,1,.08-1.81c1.27-1.44,2.17.35,3.28.36.46.36,1.2.07,1.56.67.54.09,1,.22,1.19.86.33,1-.15,2,.28,2.92l.38,1.66-.26,0a35.2,35.2,0,0,1-5.42-1.53c-.91.05-.25-.85-.66-1.1Z"/><path class="cls-155" d="M124,102l.26,0c.36.52,1.24,0,1.49.75.07.15,0,.21-.14.19-1.19-.23-1,.56-.91,1.25C124.09,103.64,124.24,102.78,124,102Z"/><path class="cls-156" d="M123.92,100.4a4.73,4.73,0,0,1-.28-2.92h.21C123.87,98.45,123.9,99.43,123.92,100.4Z"/><path class="cls-157" d="M125.65,103a.25.25,0,0,0,.14-.19c.54,0,1.14-.33,1.53.34l0,.17C126.82,103,126.15,103.45,125.65,103Z"/><path class="cls-158" d="M127.34,103.32l0-.17c.46,0,.93,0,1.39,0,.06,0,.12.13.18.2l-.43.22C128.11,103.38,127.64,103.75,127.34,103.32Z"/><path class="cls-159" d="M157.48,73.82a2.84,2.84,0,0,0-2.15.74c-.58.37-1.06.55-1.59,0a4.12,4.12,0,0,0,2.52-4.93c1.11.74.3-1,1-.78.62-.12.88-.69,1.31-1l.66-.09c1.12,0,.71,1,1,1.51,0,.13,0,.2.17.2a.4.4,0,0,1-.15-.3.7.7,0,0,1,.39-.81,1.44,1.44,0,0,1,.51-.09c.42,0,.83.17,1.26.22.73-.25,1.27,1.08,2.08.24a1.55,1.55,0,0,1,1.13-.51,1.68,1.68,0,0,1,1.31.7c.23.1.47.63.64,0-.13-.44-.48-.75-.62-1.17a1.35,1.35,0,0,1-.06-.49c.33-1,1.11-1.49,1.74-.61,1.11,1.55,2.09.92,3.2.2,1-.18,1.34.41,1.56,1.2a2,2,0,0,1,0,.55,6.18,6.18,0,0,1-.4,1.59c-.9,1.71-2.75,1.85-4.24,2.59a1.23,1.23,0,0,0-.86.88c-.34,1.07-1.24,1-2.11,1a15,15,0,0,0-2-.06,1.67,1.67,0,0,1-.76-.18C161.42,71.66,159.4,73.32,157.48,73.82Z"/><path class="cls-30" d="M160.66,66.24c-.28-1.92-1.44-3.48-2.12-5.23-.6-1,.49-.87.82-1.24a4.25,4.25,0,0,1,1.4-1,4,4,0,0,1,1.09-.52,1.15,1.15,0,0,1,.46.19,17.91,17.91,0,0,1,3.54,6.46.92.92,0,0,1-.18.5A7.69,7.69,0,0,1,163,66.64C162.16,66.76,161.31,67.05,160.66,66.24Z"/><path class="cls-160" d="M160.66,66.24a7.85,7.85,0,0,0,2.37,0,2.44,2.44,0,0,1,2.73,2.19l-1.15.43a9.42,9.42,0,0,1-1.23-.72c-.77-.37-.95.07-1,.69l-1.24-.39a8.47,8.47,0,0,1-.69-.89.4.4,0,0,1,0-.42A.65.65,0,0,0,160.66,66.24Z"/><path class="cls-51" d="M159.7,59.88c-.24.53-1.23.28-1.16,1.13l-1.49-.43c.35-.3.84-.51.73-1.11a1.09,1.09,0,0,0,1.5,0A.51.51,0,0,1,159.7,59.88Z"/><path class="cls-161" d="M160.43,67.17l0,0a3,3,0,0,1,.47,1.23.88.88,0,0,0-.46.84c.1.38,0,.47-.39.33a3.54,3.54,0,0,0-.8-1.91Z"/><path class="cls-162" d="M157.37,68.82c-.49.11.15,1.76-1.11.81l-.35-.6a.55.55,0,0,1,.44-.53h1Q157.75,68.66,157.37,68.82Z"/><path class="cls-163" d="M157.37,68.82v-.33c.45-.15.56-.88,1.2-.69C158.56,68.59,158.14,68.9,157.37,68.82Z"/><path class="cls-164" d="M156.35,68.5l-.44.53v0c-.53-.43.28-.82,0-1.24Z"/><path class="cls-8" d="M117.14,64.37a6.12,6.12,0,0,1-2.57-1.86.89.89,0,0,1-.33-.74,7.36,7.36,0,0,1,3-4.31c1,0,1.58-1,2.59-.88A2.79,2.79,0,0,1,121.68,58h0l-3.38,6C118,64.38,117.72,64.81,117.14,64.37Z"/><path class="cls-165" d="M117.14,64.37l1.17-.39v1.16l-1.13-.38Z"/><path class="cls-29" d="M108.87,64.44c.47-2,1.48-3.36,3.71-3.44A1.81,1.81,0,0,1,114,62.12a.79.79,0,0,1-.17.74c-.2.38-.69.53-.76,1A3.3,3.3,0,0,1,110,67c-.72-.05-1-.73-1.49-1.07C108,65.3,108.23,64.83,108.87,64.44Z"/><path class="cls-166" d="M113.8,62.86l0-.72a.3.3,0,0,1,0-.48.57.57,0,0,1,.75.11c0,.24,0,.49,0,.74Z"/><path class="cls-167" d="M117.61,95.59c0,.6,0,1.21-.08,1.81-.67-.75-.18-1.69-.41-2.52l.43-.42Z"/><path class="cls-168" d="M122.45,96.62c-.48-.32-1.19-.1-1.56-.67.54,0,1.17-.17,1.54.45A1.64,1.64,0,0,1,122.45,96.62Z"/><path class="cls-30" d="M135.89,55.3l-.68.05-.32,0c-.57-.48-1.36.06-1.94-.4h0c-.21-.2-.55-.32-.43-.72.49-.26.44-.72.46-1.16A10.9,10.9,0,0,0,135.24,49h.36c.52.49,1.23,0,1.77.36.19.13.46.16.49.46-.21.64-.24,1.36-.82,1.84a7.91,7.91,0,0,1-.51,1.72A8.91,8.91,0,0,1,135.89,55.3Z"/><path class="cls-169" d="M140.53,48.25a.65.65,0,0,1,.31,0c0,.62,0,1.24.07,1.86-.14.48-.29.95-.44,1.43-.52-.39-.23-.94-.26-1.43.1-.26,0-.58.23-.81Z"/><path class="cls-170" d="M140.44,49.29c-.08.27-.15.54-.23.81-.71-.65-1.55-.33-2.35-.31l-.49-.46.87-.06Z"/><path class="cls-171" d="M135.89,55.3l.57-2.18.2,0-.33,2.27Z"/><path class="cls-172" d="M140.5,53.08c-.13.55-.25,1.09-.38,1.64C139.5,54,139.64,53.46,140.5,53.08Z"/><path class="cls-173" d="M136.66,53.1l-.2,0c.23-.48.13-1.09.59-1.49C137.08,52.17,137.26,52.74,136.66,53.1Z"/><path class="cls-174" d="M159.7,59.88l-.42-.42c.06-1.38.36-2.82-1.11-3.75a.79.79,0,0,1,.15-1.2,5.07,5.07,0,0,1,1.78.64,2.74,2.74,0,0,1,1.28,2c-.17.64.24,1.37-.29,2C160.47,59.09,160.19,59.66,159.7,59.88Z"/><path class="cls-175" d="M158.44,54.61c-.33.31-.26.71-.27,1.1-.83-.85.14-2.11-.67-3a.28.28,0,0,0,.29-.13l.35.18c.72.19.9.73.9,1.39A.65.65,0,0,1,158.44,54.61Z"/><path class="cls-176" d="M108.87,64.44a2.63,2.63,0,0,0-.33,1.5l-.75.32c0-.51,0-1,0-1.52Z"/><path class="cls-177" d="M132.53,54.26,133,55a.69.69,0,0,0-.76.73c-.42-.07-.3-.49-.47-.72Z"/><path class="cls-178" d="M133,55c.66.1,1.39-.18,1.94.4C134.25,55.22,133.49,55.64,133,55Z"/><path class="cls-16" d="M157.48,73.82c1.78-2.16,4.51-2,5.57.34a2.11,2.11,0,0,1-.77.77c-1.09.44-2.09,1.3-3.4.74-.39,0-.82,0-1.1-.36C157.73,74.8,158,74.23,157.48,73.82Z"/><path class="cls-179" d="M122.84,45.59c-.15.33-.77.26-.7.71s.55.35.88.44c.49.14,1.31-.27,1.29.75l0,.72c-.32,1.25-1.19-.08-1.68.37a2.14,2.14,0,0,1-1-.17,1.54,1.54,0,0,1-.89-1.32c0-.27-.05-.56.22-.76C121.67,46.27,122,45.31,122.84,45.59Z"/><path class="cls-180" d="M121,46.33l0,.75c-.12.16-.24.16-.37,0,0-.61,0-1.23,0-1.85C121.05,45.47,120.88,46,121,46.33Z"/><path class="cls-30" d="M121.68,58l-1.88-1.13a5.52,5.52,0,0,1,2.47-3.56c.84-.69,1.61-.58,2,.54a1.62,1.62,0,0,1-.68,1.28C122.75,55.91,122.67,57.26,121.68,58Z"/><path class="cls-181" d="M163.48,46.72l.31.4c.12.07.16.15.12.23s-.07.12-.1.12l-1.12.32a4,4,0,0,1,.35-1.33C163.41,46,163.37,46.55,163.48,46.72Z"/><path class="cls-182" d="M136,48.14a2.13,2.13,0,0,1,.35-1.43C137,47.38,136.37,47.72,136,48.14Z"/><path class="cls-8" d="M158.86,54.15l-.72-1.35c.09-.91.94-1.1,1.51-1.56.28.34.53.4.74-.06h0c1.64,0,1.85,1.63,2.78,2.43a8.18,8.18,0,0,0,1.23,1.58,1.33,1.33,0,0,1,0,1.94c-.71.62-1.21,1.66-2.45,1.23h0c-.49-.24-1-.46-.78-1.18a5.18,5.18,0,0,0-1.09-1.83C159.7,54.9,158.69,55.11,158.86,54.15Z"/><path class="cls-183" d="M124.32,53.84A1.47,1.47,0,0,0,122,54c-.87.87-1.32,2-2.19,2.88a1.38,1.38,0,0,0-1.34.74c-.31.39-.64.58-1,0a7.51,7.51,0,0,0,.24-2.31c.28-1.06-.78-1.94-.4-3a3.43,3.43,0,0,1,2.39-2.17c.43-.1,1-.24,1.27,0,1,.94,1.66.11,2.37-.43.59-.16,1.09-.58,1.74-.56a.89.89,0,0,1,.75.18l.38,1.13a1.45,1.45,0,0,1,.14,1.06,1.44,1.44,0,0,1-.81.66c-1.42-.19-.67,1.25-1.25,1.68Z"/><path class="cls-184" d="M126.12,51.5l.1-1c.89,1.24,1.23-.3,1.86-.37,0,1.07-1,1.28-1.56,1.9C126.19,52,126,51.87,126.12,51.5Z"/><path class="cls-185" d="M125.84,49.33l-.79,0a.26.26,0,0,1,0-.36c.55-.14.86-.78,1.51-.71Z"/><path class="cls-5" d="M110,84.3c-.39.33-.78.61-1.11-.07.31-.43,0-.75-.51-1.1C109.57,83.05,109.71,83.77,110,84.3Z"/><path class="cls-186" d="M126.12,51.5l.4.49.41.69-1.12.07c-.33-.17-.61-.38-.36-.81C125.55,51.61,125.86,51.59,126.12,51.5Z"/><path class="cls-187" d="M125.45,51.94l.36.81L125,53.92l-.74-.06a1.54,1.54,0,0,0-.72-1.67C124.25,51.45,124.88,52.08,125.45,51.94Z"/><path class="cls-188" d="M125.06,48.93c0,.12,0,.24,0,.36-.49.27-.72,1.08-1.51.72-.39-.23-1,.12-1.27-.37a1,1,0,0,1,.54-1.42c.51-.66,1,.79,1.55,0Z"/><path class="cls-8" d="M164.54,55.73l-.34-.3a16.35,16.35,0,0,0-1.15-1.58c-1.18-.59-1.41-2.13-2.66-2.66.65-.28,1.35-.53,1.22-1.46.76-.58,1.17.54,1.84.38l1.1,1.11c.7.26.94,1.25,1.87,1.13a1.15,1.15,0,0,1,.76.8c-.27.36.29.7,0,1.06-.2.87-1.42.93-1.5,1.9a.69.69,0,0,1-.43.2C164.89,56.28,164.75,56,164.54,55.73Z"/><path class="cls-8" d="M163.79,74.15c.59-.45,1.19-.09,1.79,0,.94.07,2,.43,2-1.28,0-1,.68-.79,1.18-.16l.16.17c.22.42.27.9.52,1.31.17.63.69,1.15.62,1.87-.36.76.32,1.49.1,2.25-.13.52-.55.63-1,.69-.54,1.52-2,1.19-3.13,1.62a.49.49,0,0,1-.47,0,2.53,2.53,0,0,1-.86-.86,4.26,4.26,0,0,1-.52-1.42c0-.17-.07-.34-.1-.51-.15-.79-.37-1.56-.56-2.33A1.46,1.46,0,0,1,163.79,74.15Z"/><path class="cls-189" d="M165.71,80.61a.67.67,0,0,0,.28,0,4.27,4.27,0,0,0-.73,2.59H165c.08-1.19-.52-1.52-1.59-1.27a.59.59,0,0,1-.13-.46,2.23,2.23,0,0,1,1-1.06,1.24,1.24,0,0,1,.47-.05C165.13,80.38,165.4,80.57,165.71,80.61Z"/><path class="cls-190" d="M169.12,79c.25-.22.68-.23.76-.65a.8.8,0,0,1,.4-.27.73.73,0,0,1,.65.26,2,2,0,0,0-.35,1.5C170.29,79.18,169.61,79.24,169.12,79Z"/><path class="cls-191" d="M165.38,87.72c.11-.64-.36-1.37.31-1.92.24.7-.18,1.8,1.14,1.82-.05.45-.42.41-.72.46Z"/><path class="cls-192" d="M165,83.16h.23c.24.5.82,1,.05,1.51Z"/><path class="cls-193" d="M171.27,82.83c0,.36.09.73.13,1.1-.13.06-.13.8-.38.11a3.82,3.82,0,0,1,0-1.22C171.09,82.64,171.18,82.64,171.27,82.83Z"/><path class="cls-194" d="M171.27,82.83H171c.06-.51-.8-1-.05-1.52A2.34,2.34,0,0,1,171.27,82.83Z"/><path class="cls-8" d="M170.93,78.3l-.66,0a4,4,0,0,1-.46-2.19l-.74-1.91c-.22-.48,0-1.06-.38-1.51l0,0c-.17-.56.12-.8.63-.82a5.7,5.7,0,0,0,3.47-1.74,1.27,1.27,0,0,1,.51,1,.63.63,0,0,1,0,.36c.25,0,.06-.31.25-.36a1.48,1.48,0,0,1,1.58.63c.35.67-.47.84-.75,1.26s-.28.73.22,1c.69.2.62.62.32,1.11s-.46.92-1.05,1A6.89,6.89,0,0,1,170.93,78.3Z"/><path class="cls-195" d="M173.89,76l.84-1.21a.74.74,0,0,1,.82,0c-.38.46-.87.86-.87,1.53A.74.74,0,0,1,173.89,76Z"/><path class="cls-196" d="M175.47,77.92v1.9C175,79.18,174.76,78.55,175.47,77.92Z"/><path class="cls-8" d="M175.55,74.87l-.82,0c.21-.38.26-.68-.33-.67A2.26,2.26,0,0,1,174,72.7l1-.75-1.4-.8c-1-.74-.47-1.75-.48-2.66a.59.59,0,0,0,0-.32,3.5,3.5,0,0,1,1.07-1.68c.54-.3,1.08-.62,1.59,0,.49,1.72,2.21,3,1.92,5,.41.44.05.75-.18,1.09s-1,.61-.95,1.32Z"/><path class="cls-197" d="M178.47,74.54c.91.77-.14,2.55,1.51,2.94a1.11,1.11,0,0,1-1.13.81C178.9,77,178.23,75.83,178.47,74.54Z"/><path class="cls-198" d="M177.25,72.63l.47-1.11.75-.36c-.13.49-.26,1-.38,1.46l-.3.07A.34.34,0,0,1,177.25,72.63Z"/><path class="cls-199" d="M177.25,72.63l.54.06-1.2,1.23C176.15,73.16,176.92,73,177.25,72.63Z"/><path class="cls-200" d="M162.41,89.52c.27-1.07,1.1-.59,1.73-.63Z"/><path class="cls-201" d="M160.39,90.09c.38-.56.75-1.12,1.52-.52C161.52,90.07,160.89,89.89,160.39,90.09Z"/><path class="cls-196" d="M112.3,93.71c0,.61-.06,1.21-.1,1.82C111.91,94.91,111.57,94.28,112.3,93.71Z"/><path class="cls-202" d="M114.17,98.22l1.9,1.12A1.48,1.48,0,0,1,114.17,98.22Z"/><path class="cls-203" d="M118,99.39l.66,1.1-.32.4C117.44,100.57,117.87,99.94,118,99.39Z"/><path class="cls-29" d="M165.2,56.15l.49,0c.56.19,1.24-.38,1.75.49.35.6.6.16.69-.38.25-1.47.77-1.06,1.31-.15a13.5,13.5,0,0,1,.76,1.2c-.25,1.26-.87-.43-1.23.36.58.86,2.23.9,2.41,2.32a.52.52,0,0,1,.45.54,3.67,3.67,0,0,1-2.43,2.18.88.88,0,0,1-.49-.17c-1.1-1.73-2.33-3.38-3.44-5.11A1.75,1.75,0,0,1,165.2,56.15Z"/><path class="cls-204" d="M171.69,60.3l-.31-.35c.34-.31.41-1,1.08-.85,0,.38,0,.77,0,1.16A.59.59,0,0,1,171.69,60.3Z"/><path class="cls-205" d="M167.19,54.21c0-.35-.68-.69,0-1.06.23.4.46.05.69,0A.85.85,0,0,1,167.19,54.21Z"/><path class="cls-206" d="M174,56.83a1.2,1.2,0,0,1,.75,1.17l-1.12-.78Z"/><path class="cls-181" d="M170.2,57.27a1.23,1.23,0,0,1-.76-1.2C169.78,56.41,170.55,56.48,170.2,57.27Z"/><path class="cls-29" d="M167.33,55.68l-.18-.19.66-.55a1.19,1.19,0,0,1,.08.34A.48.48,0,0,1,167.33,55.68Z"/><path class="cls-29" d="M171.69,60.3l.79,0,1.47,2.6c.45.58.64,1.31,1.12,1.86l0,.47c.47.86-.46,1-.76,1.41s-.48,1.3-1.21,1.57c-.49-.34-.29-1.57-1.41-1.07-1.1-1.37-2.32-2.68-2.31-4.61A9.45,9.45,0,0,0,171.69,60.3Z"/><path class="cls-207" d="M174.35,66.6c-.07-.65.87-.74.76-1.41l.71,0c-.37.45,0,.91,0,1.37C175.3,66.14,174.84,66.72,174.35,66.6Z"/><path class="cls-208" d="M175.07,64.72A2.3,2.3,0,0,1,174,62.86,2.29,2.29,0,0,1,175.07,64.72Z"/><path class="cls-209" d="M166.42,52.35c-1.25.65-1.28-.7-1.87-1.13C165.41,51.21,165.72,52.1,166.42,52.35Z"/><path class="cls-210" d="M163.81,47.47c0-.12,0-.23,0-.35a2.1,2.1,0,0,1,1.14,1.09A1.11,1.11,0,0,1,163.81,47.47Z"/><path class="cls-8" d="M119.82,50.33a8.46,8.46,0,0,0-2.29,2c-.43.17-.47.68-.82.91a.83.83,0,0,1-.75-.06,4.05,4.05,0,0,1-.88-1.6c0-.35,0-.74.48-.77l5-3.74a2.29,2.29,0,0,0,.37,0l.75,1.13a1.49,1.49,0,0,1,.18.92C121.4,49.9,120.55,50,119.82,50.33Z"/><path class="cls-211" d="M115.56,50.82l-.29.76c-.24.2-.48.25-.71,0l.36-.72a1.51,1.51,0,0,0,0-.3C115.19,50.48,115.44,50.51,115.56,50.82Z"/><path class="cls-8" d="M114.56,51.56l.71,0a2.07,2.07,0,0,1,.78,1.52.7.7,0,0,1,.19.7c-.35.86-1.27,1.3-1.63,2.15a2.39,2.39,0,0,1-.57.8A2.42,2.42,0,0,0,113.1,58c.89.91.4,1.72-.21,2.51l-.24.1-.71-.74a3.35,3.35,0,0,1-.78-1.15l-.75-1.1a2.18,2.18,0,0,1-.26-1.35c.28-.71,1.09-1,1.39-1.68A20.66,20.66,0,0,0,114.56,51.56Z"/><path class="cls-212" d="M110.42,56.12c0,.5,0,1,0,1.51l-.45-.39c-.2-.89-.39-1.77-.59-2.66l.19,0a.84.84,0,0,1,.49.73C110.23,55.57,110.64,55.69,110.42,56.12Z"/><path class="cls-186" d="M111.16,58.73a1.1,1.1,0,0,1,.78,1.15C111.19,59.84,110.9,59.47,111.16,58.73Z"/><path class="cls-213" d="M113.79,61.72v.42L112.58,61c0-.13,0-.26.07-.38h0C113.47,60.53,113.85,60.9,113.79,61.72Z"/><path class="cls-214" d="M110.42,56.12c-.13-.26-.25-.52-.37-.78.66.09,1-.56,1.49-.74A1.86,1.86,0,0,1,110.42,56.12Z"/><path class="cls-114" d="M164.55,80.55l-1.08,1.23a10.09,10.09,0,0,1-1.9.77c-.33.07-.66.08-1,.15-.64-.15-1.49,0-1.58-1l0-.4c.21-.42,1-.67.28-1.34a1.34,1.34,0,0,1-.26-1.39c.48-1-.27-1.29-.76-1.77-.28-.66.52-.69.64-1.12l3.5-1.16a.39.39,0,0,1,.45,0c.59.6.48,1.54,1,2.15a3.74,3.74,0,0,0,.67,1.2v.44C164,79.06,165.33,79.8,164.55,80.55Z"/><path class="cls-8" d="M158.24,76.79c1,.18,2.33.07,1.11,1.73-.19.26.06,1,.33,1.38.84,1.08-.17,1.09-.7,1.39-.12-.26-.1-.61-.45-.73,0-.63,0-1.26,0-1.89Z"/><path class="cls-8" d="M159,81.69c.31.66,1.05.49,1.54.79.05.37-.26.49-.47.67h0L159,82.8C159,82.43,159,82.06,159,81.69Z"/><path class="cls-215" d="M161.5,82.38a3.17,3.17,0,0,1,2-.6l0,.11c-.3.71-1,.58-1.57.81A.54.54,0,0,1,161.5,82.38Z"/><path class="cls-216" d="M161.5,82.38l.37.32-1.8.45.47-.67Z"/><path class="cls-17" d="M169.42,62.49c.62,1.61,1.89,2.89,2.31,4.61-1.62,1.58-1.92,1.63-3,0-.86-1.26-1.17-.47-1.58.27-1.24-.26-1.43-1.19-1.43-2.24h0a5.15,5.15,0,0,1,3.38-2.64Z"/><path class="cls-217" d="M165.69,65.13c.69.61.59,1.73,1.43,2.24l.06.42a1.27,1.27,0,0,1,.27,1.13c-.14.29-.32.5-.69.4s-.42-.86-1-.85A6,6,0,0,0,163,66.28Z"/><path class="cls-179" d="M162.35,68.87c-.33-.4-1-.77-.59-1.33.25-.32.92-.11,1.37.1.6.3,1.54.19,1.48,1.26L164.47,70C163.73,69.53,163.3,68.62,162.35,68.87Z"/><path class="cls-218" d="M173.11,68.49c.32.86-.2,1.86.48,2.66l-.05.86-.22,0c-.16-.64-.33-1.28-.5-1.93C173,69.58,172.66,69,173.11,68.49Z"/><path class="cls-219" d="M162.69,74.59a.5.5,0,0,0-.31-.08c.1-.34.39-.34.67-.35h.74v1.51l-.24.07C163,75.52,163.33,74.7,162.69,74.59Z"/><path class="cls-220" d="M166.76,69.32l.44-.4c.24-.27.54,0,.81-.1.32.31.43.55-.08.83S167,69.9,166.76,69.32Z"/><path class="cls-63" d="M163.89,70.79c-.11.4-.39.42-.73.36s-.51-.15-.3-.44a1,1,0,0,1,.62-.36C163.71,70.32,164,70.44,163.89,70.79Z"/><path class="cls-221" d="M160,69.62l.39-.33c.5.31.47.77.34,1.25,0,.06-.2.13-.27.1C160,70.47,160,70.06,160,69.62Z"/><path class="cls-48" d="M168,68.82c-.22.5-.53.12-.81.1,0-.38,0-.76,0-1.13A1,1,0,0,1,168,68.82Z"/><path class="cls-222" d="M160.88,68.45c-.5-.28-.94-.58-.47-1.23.67.18,1,.55.7,1.26l-.11,0Z"/><path class="cls-8" d="M169.07,62.49l-3.38,2.64a37.85,37.85,0,0,0-3.76-6.76,8.51,8.51,0,0,0,2.29-1.51c.57-.28,1.09-.33,1.43.36A16.13,16.13,0,0,1,169.07,62.49Z"/><path class="cls-41" d="M161.14,57.18l.78,1.18-.83.73C161.35,58.46,160.15,57.79,161.14,57.18Z"/><path class="cls-29" d="M113.79,61.72a2.15,2.15,0,0,0-1.13-1.11c.38-.86.72-1.73,0-2.59.34-.54.81-1,1.15-1.54a.8.8,0,0,0,.37-.76c.87-.42,1.3-1.41,2.24-1.72a1.34,1.34,0,0,1,.53.08c.49.36,1.21.55,1,1.4.71.92.16,1.55-.51,2.14a12.69,12.69,0,0,0-3,4.15Z"/><path class="cls-42" d="M158.86,54.15c.27.52,1,.56,1.19,1.2a1.61,1.61,0,0,1-1.61-.74Z"/><path class="cls-72" d="M121.69,49c0-.25-.47-.49,0-.75h1.13a2.69,2.69,0,0,0-.39,1.49C121.74,49.89,121.94,49.21,121.69,49Z"/><path class="cls-223" d="M165.65,57.22c-.4-.45-1-.24-1.43-.36a1.69,1.69,0,0,0,.32-1.13l.66.42Z"/><path class="cls-224" d="M163.05,53.85a1.86,1.86,0,0,1,1.15,1.58C163.62,55.05,163.07,54.64,163.05,53.85Z"/><path class="cls-58" d="M121.69,49l.73.75c.39,0,.82-.07,1.12.3-.67.1-.55.72-.76,1.14-.32.66-1.28.59-1.29.24,0-1.4-1.08-.79-1.67-1.06C120.18,49.51,121.12,49.48,121.69,49Z"/><path class="cls-225" d="M118,55.48l-1.19-1.24a.84.84,0,0,1,0-1.16c-.09-.25-.34-.51-.07-.79s.53,0,.8.05C117.25,53.45,119.14,54.24,118,55.48Z"/><path class="cls-226" d="M169.81,76.06a4.87,4.87,0,0,1,.46,2.19l-.39.06C170.32,77.55,168.68,76.84,169.81,76.06Z"/><path class="cls-227" d="M164.55,80.55c.32-.75-.8-1.49,0-2.24l.45,1.5c.13.27.17.53-.13.74h-.32Z"/><path class="cls-228" d="M164.54,77.87c-.59-.12-.59-.67-.79-1.08a1,1,0,0,1,.07-1.14h0C164.42,76.27,164.22,77.16,164.54,77.87Z"/><path class="cls-30" d="M164.87,80.55l.13-.74.71.8C165.4,81,165.13,80.86,164.87,80.55Z"/><path class="cls-229" d="M168.69,72.64a1.24,1.24,0,0,1,.38,1.51C168.58,73.74,168.67,73.18,168.69,72.64Z"/><path class="cls-230" d="M174,72.7l.45,1.46C173.8,73.81,173.51,73.36,174,72.7Z"/><path class="cls-231" d="M116.8,53.08v1.16l-.35-.08a.53.53,0,0,1-.4-.31V53.1Z"/><path class="cls-94" d="M116.05,53.85l.4.31c-.86.37-1.15,1.57-2.28,1.56A6,6,0,0,1,116.05,53.85Z"/><path class="cls-232" d="M113.8,56.48A1.89,1.89,0,0,1,112.65,58,1.78,1.78,0,0,1,113.8,56.48Z"/><path class="cls-8" d="M163.82,75.65l-.07,1.14c-1.08-.38-.75-1.44-1.06-2.2C163.65,74.33,163.2,75.56,163.82,75.65Z"/></svg>