<svg width="153" height="47" viewBox="0 0 153 47" fill="none" xmlns="http://www.w3.org/2000/svg">
<path d="M0.015 0.0266667C8.915 -0.0333333 17.805 0.0266667 26.705 0.0266667C26.745 3.39333 26.745 6.76333 26.705 10.1367C21.8383 10.1367 16.9717 10.1367 12.105 10.1367C12.105 12.2367 12.105 14.3367 12.105 16.4367C16.585 16.4367 21.105 16.4367 25.545 16.4367C25.545 18.2967 25.545 20.1567 25.545 22.0167C26.5767 20.5132 27.8194 19.166 29.235 18.0167C31.6024 16.2638 34.3956 15.1762 37.325 14.8667C40.205 14.6167 43.205 14.6167 45.955 15.6167C49.471 16.829 52.3811 19.3556 54.075 22.6667C54.5307 23.5778 54.938 24.5125 55.295 25.4667C55.8762 23.5155 56.8371 21.6984 58.1224 20.1196C59.4078 18.5408 60.9923 17.2315 62.785 16.2667C66.0935 14.6179 69.9069 14.296 73.445 15.3667C75.1765 15.966 76.7258 16.9988 77.945 18.3667C77.945 12.2467 77.945 6.13 77.945 0.0166664C81.495 0.0166664 85.045 0.0166664 88.585 0.0166664C88.505 8.73667 88.585 17.4667 88.585 26.1967C88.585 32.4267 88.585 38.6667 88.585 44.8967C85.095 45.0067 81.585 44.8967 78.105 44.8967C78.105 43.8967 78.105 42.8967 78.105 41.9667L78.025 42.0967C76.4557 44.2752 74.1438 45.8046 71.525 46.3967C68.1934 46.9538 64.7732 46.2669 61.915 44.4667C59.9151 43.1841 58.2259 41.4722 56.9701 39.4554C55.7144 37.4385 54.9235 35.1673 54.655 32.8067C48.055 32.8067 41.455 32.8067 34.865 32.8067C34.49 32.7739 34.1123 32.8181 33.755 32.9367C33.8257 33.9067 34.1141 34.8483 34.5989 35.6914C35.0837 36.5346 35.7523 37.2576 36.555 37.8067C37.4858 38.4004 38.5489 38.7549 39.6498 38.8386C40.7506 38.9223 41.8551 38.7327 42.865 38.2867C43.6946 37.7601 44.4173 37.0815 44.995 36.2867C48.425 36.2867 51.855 36.2867 55.285 36.2867C53.9721 40.0049 51.2846 43.0789 47.775 44.8767C44.4333 46.3933 40.7252 46.9141 37.095 46.3767C34.9705 46.1032 32.9232 45.4034 31.0759 44.319C29.2286 43.2347 27.6194 41.7883 26.345 40.0667C24.3262 37.3205 23.2716 33.9842 23.345 30.5767C23.3548 29.0985 23.4853 27.6236 23.735 26.1667H12.095C12.095 32.4667 12.095 38.77 12.095 45.0767C8.095 45.1367 4.035 45.0767 0.015 45.0767C-0.005 30.0567 -0.005 15.04 0.015 0.0266667ZM36.535 22.5567C35.3649 23.4515 34.5273 24.7115 34.155 26.1367C37.935 26.1367 41.705 26.2467 45.475 26.1367C45.1947 24.9877 44.623 23.9303 43.815 23.0667C42.8264 22.1931 41.5775 21.6698 40.2615 21.5776C38.9454 21.4854 37.6357 21.8295 36.535 22.5567ZM70.235 23.0267C67.585 23.6667 65.885 26.2667 65.535 28.8467C65.2033 30.2621 65.2515 31.74 65.6747 33.1308C66.0979 34.5216 66.8811 35.7759 67.945 36.7667C69.0323 37.6581 70.4019 38.1328 71.8076 38.1053C73.2134 38.0778 74.5634 37.55 75.615 36.6167C77.535 34.6167 77.895 31.6167 77.545 28.9767C77.3674 27.1022 76.5187 25.355 75.155 24.0567C74.464 23.5282 73.6634 23.1614 72.8119 22.9831C71.9605 22.8049 71.0799 22.8197 70.235 23.0267Z" fill="#C9CBD4"/>
<path d="M88.5769 44.9073C88.5769 38.6773 88.5769 32.4373 88.5769 26.2073C88.5769 17.4773 88.5269 8.74734 88.5769 0.0273438C96.9236 0.0273438 105.257 0.0273438 113.577 0.0273438C113.577 3.36068 113.577 6.71401 113.577 10.0873C108.777 10.1973 103.967 10.0873 99.1669 10.0873C99.0385 12.1937 99.0752 14.3068 99.2769 16.4073C104.067 16.4073 108.847 16.4073 113.627 16.4073C113.527 19.6273 113.627 22.8473 113.567 26.0673C108.807 26.0673 104.047 26.0673 99.2869 26.0673C99.1053 27.7843 99.0485 29.5122 99.1169 31.2373C99.06 32.4796 99.1135 33.7245 99.2769 34.9573C103.997 34.9573 108.727 34.8973 113.447 34.9573C113.612 35.9483 113.659 36.9553 113.587 37.9573C113.677 40.1173 113.357 42.3173 113.827 44.4473C115.537 42.7473 117.027 40.8473 118.707 39.1273C120.117 37.3373 121.707 35.7273 123.217 33.9973C124.271 32.9872 125.254 31.9045 126.157 30.7573C126.044 30.5187 125.9 30.2966 125.727 30.0973L118.557 22.0973C116.977 20.1973 115.147 18.5073 113.687 16.5073C116.827 16.4073 119.967 16.5073 123.107 16.5073C124.387 16.5073 125.677 16.4373 126.957 16.5073C129.247 18.6073 131.037 21.2173 133.417 23.2373C135.077 21.2973 136.827 19.4373 138.417 17.4573C138.827 17.0173 139.237 16.3473 139.937 16.4573C144.017 16.4573 148.097 16.4073 152.167 16.4573C151.643 17.2737 151.033 18.0313 150.347 18.7173C146.837 22.7173 143.247 26.5573 139.807 30.5773C141.057 32.5173 142.897 33.9973 144.327 35.7973C146.327 37.8973 148.227 40.0973 150.187 42.2373C151.018 43.1131 151.784 44.0489 152.477 45.0373C148.377 45.1073 144.277 45.0373 140.187 45.0373C139.707 45.0373 139.127 45.1173 138.777 44.7173C136.777 42.4673 134.777 40.1773 132.777 38.0073C130.977 40.0073 129.087 42.0073 127.367 44.1373C126.997 44.5473 126.637 45.1373 125.997 45.0273" fill="#C9CBD4"/>
</svg>
