<svg width="253" height="139" viewBox="0 0 253 139" fill="none" xmlns="http://www.w3.org/2000/svg">
<path d="M106.439 74.1381V73.8766C106.36 72.3979 106.589 70.919 107.111 69.5332C107.632 68.1475 108.435 66.8852 109.469 65.8259C110.503 64.7666 111.745 63.9335 113.116 63.3791C114.488 62.8247 115.96 62.5612 117.439 62.6052C122.76 62.6052 126.706 65.22 127.215 70.6562H122.045C122.035 70.0704 121.903 69.4931 121.658 68.961C121.413 68.429 121.06 67.9537 120.622 67.5654C120.184 67.1771 119.669 66.8844 119.112 66.7057C118.555 66.527 117.966 66.4663 117.384 66.5275C113.905 66.5275 111.65 69.2799 111.65 73.849V74.1105C111.65 78.6659 113.754 81.3358 117.384 81.3358C117.998 81.3962 118.619 81.3332 119.208 81.1503C119.798 80.9675 120.345 80.6686 120.818 80.2712C121.29 79.8737 121.679 79.3858 121.961 78.836C122.242 78.2861 122.411 77.6855 122.458 77.0694H127.366C126.803 82.5744 122.87 85.3269 117.439 85.3269C110.33 85.4094 106.439 80.9504 106.439 74.1381Z" fill="#C9CBD4"/>
<path d="M128.246 77.0684V76.8069C128.208 75.6813 128.404 74.5602 128.822 73.5145C129.24 72.4689 129.87 71.5214 130.673 70.7322C131.476 69.943 132.433 69.3293 133.485 68.9299C134.537 68.5304 135.661 68.3541 136.784 68.4118C137.897 68.3422 139.013 68.5061 140.059 68.8932C141.104 69.2802 142.058 69.8817 142.858 70.6592C143.658 71.4366 144.287 72.3729 144.705 73.4079C145.122 74.4429 145.319 75.5538 145.282 76.6693V77.0684C145.311 78.1853 145.107 79.2961 144.684 80.3302C144.261 81.3642 143.629 82.2991 142.826 83.0755C142.023 83.8519 141.068 84.4528 140.021 84.8402C138.974 85.2275 137.857 85.3929 136.743 85.3258C135.629 85.402 134.511 85.2425 133.462 84.8578C132.413 84.4732 131.457 83.8719 130.655 83.0931C129.854 82.3143 129.225 81.3753 128.81 80.3374C128.395 79.2994 128.203 78.1856 128.246 77.0684ZM140.731 77.0684V76.8619C140.731 73.7929 139.356 71.8937 136.784 71.8937C134.213 71.8937 132.852 73.6966 132.852 76.7656V77.0684C132.852 80.1374 134.227 82.0366 136.784 82.0366C139.342 82.0366 140.731 80.1374 140.731 77.0684Z" fill="#C9CBD4"/>
<path d="M144.622 68.8115H149.435L153.271 80.3856L157.107 68.8115H161.466L155.581 85.0511H150.562L144.622 68.8115Z" fill="#C9CBD4"/>
<path d="M160.792 77.1647V76.9032C160.741 75.7987 160.918 74.6954 161.312 73.6627C161.707 72.6299 162.31 71.6898 163.085 70.9016C163.86 70.1133 164.789 69.4938 165.814 69.0819C166.839 68.67 167.938 68.4747 169.042 68.5081C173.167 68.5081 176.921 70.9578 176.921 76.7656V77.9904H165.247C165.344 80.7429 166.829 82.243 169.29 82.243C171.339 82.243 172.37 81.3209 172.672 79.9997H176.921C176.412 83.4816 173.594 85.4221 169.194 85.4221C164.381 85.4083 160.792 82.3393 160.792 77.1647ZM172.672 75.2104C172.521 72.7607 171.297 71.5771 169.139 71.5771C168.171 71.577 167.242 71.9581 166.552 72.6379C165.863 73.3177 165.468 74.2418 165.454 75.2104H172.672Z" fill="#C9CBD4"/>
<path d="M178.818 68.8116H183.328V71.4264C183.837 70.4884 184.603 69.7155 185.536 69.1986C186.469 68.6817 187.53 68.4424 188.595 68.5088C191.771 68.5088 194.094 70.3942 194.094 74.7569V85.0512H189.585V75.4175C189.585 73.2155 188.718 72.1971 186.725 72.1971C186.259 72.1613 185.79 72.2275 185.353 72.3911C184.915 72.5547 184.518 72.8118 184.19 73.1444C183.861 73.4771 183.609 73.8774 183.451 74.3175C183.293 74.7576 183.232 75.2269 183.273 75.6927V85.0099H178.75V68.8116H178.818Z" fill="#C9CBD4"/>
<path d="M195.553 80.5362C195.553 76.7515 199.031 75.3615 203.954 75.3615H205.796V74.7009C205.796 72.8017 205.233 71.7283 203.184 71.7283C202.85 71.6923 202.513 71.7242 202.192 71.822C201.871 71.9198 201.573 72.0816 201.317 72.2976C201.06 72.5135 200.849 72.7792 200.697 73.0787C200.546 73.3782 200.456 73.7053 200.434 74.0404H196.185C196.446 70.1869 199.513 68.5354 203.459 68.5354C207.405 68.5354 210.21 70.1181 210.21 74.522V85.0503H205.865V83.1098C205.319 83.8782 204.584 84.4931 203.732 84.8955C202.879 85.298 201.938 85.4745 200.998 85.4081C198 85.4081 195.553 83.9493 195.553 80.5362ZM205.796 79.3664V77.9902H204.05C201.438 77.9902 199.925 78.5544 199.925 80.3022C199.925 81.472 200.654 82.2427 202.29 82.2427C202.713 82.309 203.145 82.2852 203.558 82.1727C203.971 82.0603 204.356 81.8618 204.687 81.5902C205.018 81.3187 205.288 80.9802 205.479 80.597C205.67 80.2137 205.778 79.7944 205.796 79.3664Z" fill="#C9CBD4"/>
<path d="M212.698 68.8113H217.249V71.4262C217.762 70.4882 218.53 69.7157 219.465 69.199C220.4 68.6823 221.463 68.4428 222.529 68.5086C225.692 68.5086 227.947 70.394 227.947 74.7567V85.051H223.45V75.4173C223.45 73.2153 222.57 72.1969 220.577 72.1969C220.113 72.1653 219.648 72.2346 219.214 72.4001C218.779 72.5655 218.386 72.8232 218.06 73.1554C217.735 73.4876 217.485 73.8864 217.329 74.3244C217.172 74.7624 217.112 75.2291 217.153 75.6925V85.0097H212.657V68.8113H212.698Z" fill="#C9CBD4"/>
<path d="M230.78 80.2348V71.9774H228.731V68.8121H230.78V65.3715H235.235V68.8121H238.603V71.9774H235.235V79.822C235.196 80.0707 235.214 80.325 235.289 80.5656C235.363 80.8061 235.491 81.0264 235.664 81.2096C235.836 81.3929 236.048 81.5342 236.284 81.6229C236.519 81.7116 236.772 81.7452 237.022 81.7212C237.601 81.7347 238.176 81.6317 238.713 81.4184V84.9003C237.825 85.1857 236.896 85.3251 235.963 85.3131C232.622 85.3269 230.78 83.6204 230.78 80.2348Z" fill="#C9CBD4"/>
<path d="M101.062 55.9434C101.116 55.8816 101.157 55.8095 101.183 55.7316C101.209 55.6536 101.22 55.5712 101.213 55.4893L100.746 53.4387C100.721 53.3368 100.663 53.2461 100.581 53.1812C100.499 53.1163 100.397 53.081 100.292 53.0808H99.6184C99.6184 53.0808 99.6184 53.0808 99.5221 53.0808L98.7522 50.1082C98.7254 50.0074 98.6667 49.9181 98.5849 49.8535C98.5031 49.789 98.4025 49.7528 98.2984 49.7503H95.1772C95.0712 49.7521 94.9687 49.7878 94.8845 49.8522C94.8004 49.9166 94.7391 50.0063 94.7096 50.1082L93.6922 55.0489L87.4359 57.3885C87.3475 57.4104 87.2693 57.462 87.2143 57.5346C87.1593 57.6072 87.1307 57.6965 87.1334 57.7876V59.6868L80.4371 65.8386C80.421 65.8498 80.4018 65.8558 80.3821 65.8558C80.3625 65.8558 80.3433 65.8498 80.3271 65.8386L79.9146 65.7285L80.4784 64.4486C80.5198 64.3141 80.5198 64.1702 80.4784 64.0357L76.1747 56.3012C76.1747 56.1499 75.9684 56.0948 75.8172 56.0398L73.2597 55.8333L72.8746 54.6222C72.8518 54.5406 72.8059 54.4674 72.7425 54.4112C72.6791 54.3551 72.6008 54.3184 72.5171 54.3057L71.1421 54.058C71.0791 54.0471 71.0145 54.05 70.9528 54.0667C70.891 54.0833 70.8337 54.1132 70.7846 54.1543L68.2271 56.315L67.7184 56.2049L68.7909 54.5121C68.8306 54.4406 68.8515 54.36 68.8515 54.2782C68.8515 54.1963 68.8306 54.1158 68.7909 54.0442C68.7632 53.9717 68.7142 53.9092 68.6504 53.865C68.5866 53.8208 68.511 53.7969 68.4334 53.7965L42.8996 50.9201L23.1409 48.6769C23.0446 48.6769 22.8934 48.6769 22.7834 48.6769C22.6734 48.6769 22.6321 48.8696 22.5771 48.9797L22.4809 49.9981L20.7346 49.5439C20.6764 49.5024 20.6067 49.4801 20.5353 49.4801C20.4638 49.4801 20.3941 49.5024 20.3359 49.5439C20.2772 49.5845 20.2282 49.6377 20.1925 49.6996C20.1568 49.7615 20.1354 49.8305 20.1296 49.9017V52.9295L16.9534 61.9851L16.8021 62.3567H35.4884V62.453C35.4815 62.7851 35.5327 63.1158 35.6396 63.4301H16.4996L16.0459 64.8064L16.9671 68.9351H43.1609L43.4634 70.0086H17.1596V70.2701L18.3421 75.4998H44.9071L45.2097 76.5732H18.8509L19.3046 77.4402L19.6621 78.1559L26.0146 82.0506H47.7121C47.9184 82.4085 48.1796 82.7663 48.4272 83.1241H27.7059L28.3109 83.4819L30.0571 84.5692L30.4146 84.8169L36.4509 87.5694H41.0571C41.0571 87.5694 43.3121 89.4548 43.3121 89.5649C43.3902 90.1688 43.5096 90.7666 43.6696 91.354L46.6396 93.5835C46.6857 93.6201 46.7389 93.6468 46.7957 93.6618C46.8526 93.6768 46.912 93.6799 46.9701 93.6709C47.0282 93.6618 47.0838 93.6408 47.1334 93.6092C47.1831 93.5776 47.2256 93.536 47.2584 93.4872L48.2346 92.2486C48.2346 92.2486 48.2346 92.2486 48.3309 92.2486C48.4272 92.2486 50.1734 92.8541 50.1734 92.9092L51.7546 97.3131C51.7691 97.3917 51.8075 97.4638 51.8647 97.5196L55.6459 100.96C55.7448 101.011 55.8519 101.043 55.9622 101.056H57.9009C58.0249 101.056 58.1438 101.007 58.2315 100.919C58.3191 100.832 58.3684 100.713 58.3684 100.589V96.7351L63.8684 93.4046H69.3684C69.3684 93.4046 69.5334 93.4046 69.5746 93.4046L72.0909 92.1798C72.1667 92.1411 72.23 92.0819 72.2738 92.0089C72.3176 91.9358 72.34 91.852 72.3384 91.7669V90.7485C72.3414 90.7203 72.3539 90.694 72.374 90.674C72.394 90.6539 72.4202 90.6414 72.4484 90.6384H79.9146L81.5509 91.6155L81.8671 93.2532C81.8671 93.2532 81.8671 93.3496 81.8671 93.4046L86.3772 100.286C86.4175 100.357 86.4784 100.415 86.5519 100.452C86.6254 100.489 86.7082 100.503 86.7896 100.492H88.3159C88.414 100.483 88.5082 100.449 88.5898 100.393C88.6715 100.338 88.738 100.263 88.7834 100.176L88.8797 96.8452C88.8797 96.6388 88.5771 95.469 86.4322 86.9638L91.6022 80.3992C91.6022 80.3992 91.6022 80.3028 91.6984 80.3028L93.4996 76.3943C93.5201 76.3465 93.5306 76.295 93.5306 76.2429C93.5306 76.1909 93.5201 76.1394 93.4996 76.0915L92.6747 73.6281L93.6509 66.2514L97.4872 64.1596C97.5577 64.1148 97.6168 64.0541 97.6598 63.9825C97.7027 63.9108 97.7284 63.83 97.7346 63.7467V62.4668C97.7546 62.3808 97.7546 62.2913 97.7346 62.2053L97.0196 61.0768L96.9097 59.7005L101.062 55.9434ZM38.7609 62.9622C38.7609 63.6366 38.3484 64.2008 37.8946 64.2008C37.2209 64.2008 36.7121 63.4301 36.7121 62.5081C36.7121 61.2832 37.4271 60.251 38.3484 60.251C39.2696 60.251 40.3971 61.7924 40.6996 62.4117H38.7609V62.9622ZM38.7609 65.0128C39.0241 64.8394 39.2498 64.6148 39.4246 64.3524C39.5994 64.09 39.7197 63.7951 39.7784 63.4852H41.2496C41.5109 63.9944 41.7171 64.5036 41.9234 65.0128H38.7609ZM54.3259 79.5184C53.9753 79.4941 53.6236 79.5458 53.2946 79.6698C52.8571 79.8154 52.468 80.0785 52.1698 80.4304C51.8715 80.7823 51.6756 81.2095 51.6034 81.6653C51.5819 81.9907 51.5819 82.3171 51.6034 82.6424V83.1516H55.8934C55.7689 83.6571 55.4766 84.1052 55.0645 84.4228C54.6523 84.7403 54.1447 84.9084 53.6246 84.8995H53.2122C52.5273 84.8208 51.8656 84.6033 51.2675 84.2602C50.6694 83.9171 50.1474 83.4556 49.7334 82.9039C47.2034 79.6147 46.1859 75.6924 45.0996 71.5637C44.3618 68.2303 43.2309 64.9964 41.7309 61.93C41.4446 61.2812 41.044 60.6892 40.5484 60.1822H57.8459C59.1384 60.1822 60.3072 61.8199 60.5959 62.4393C61.9894 65.1084 63.1221 67.906 63.9784 70.793C64.8469 73.804 66.0508 76.7077 67.5672 79.4496L54.3259 79.5184ZM55.8109 82.1332H52.6346C52.6098 82.0478 52.6098 81.9571 52.6346 81.8717C52.6738 81.6056 52.7857 81.3555 52.958 81.1491C53.1303 80.9426 53.3562 80.7879 53.6109 80.7019C53.7209 80.7019 53.8721 80.7019 53.9684 80.5918H54.1747C54.5211 80.6152 54.8477 80.7616 55.0959 81.0047C55.4648 81.28 55.7194 81.6818 55.8109 82.1332ZM71.2659 84.8857H56.0584C56.6242 84.2715 56.934 83.4641 56.9247 82.6287C56.9342 81.8823 56.6811 81.1564 56.2096 80.5781H71.7196C71.9203 80.5573 72.1231 80.5837 72.3117 80.6554C72.5004 80.7271 72.6696 80.842 72.8059 80.9909C73.0425 81.205 73.2319 81.4662 73.3622 81.7576C73.4924 82.0491 73.5605 82.3645 73.5621 82.6837C73.5309 83.2754 73.2765 83.8332 72.8503 84.2445C72.4241 84.6558 71.8578 84.8898 71.2659 84.8995V84.8857Z" fill="#C9CBD4"/>
</svg>
