<svg width="255" height="140" viewBox="0 0 255 140" fill="none" xmlns="http://www.w3.org/2000/svg">
<path d="M104.398 67.5729L104.231 69.5273C103.808 70.1682 103.654 70.9499 103.802 71.7035C103.15 73.159 103.358 73.9352 105.187 73.7689C106.569 73.6112 107.964 73.6112 109.345 73.7689C111.161 74.0184 111.313 73.0481 111.188 71.7174C112.879 69.1115 112.089 65.8818 113.447 62.957L120.044 73.2283C121.929 74.3095 123.994 73.4362 125.948 73.755C127.902 74.0738 127.916 73.0481 127.777 71.7174C128.581 71.2461 128.498 70.3313 128.623 69.6659C129.713 63.6778 130.784 57.6712 131.838 51.6461C132.503 47.8065 132.475 47.8065 128.47 47.8065C124.465 47.8065 124.562 47.8065 124.16 51.4382C124.16 52.0758 124.035 52.7135 123.98 53.3511C123.079 55.3471 123.509 57.6897 122.414 59.9075L115.72 48.3194C113.808 47.2382 111.743 48.0838 109.761 47.8065C107.779 47.5293 107.114 48.5135 107.502 50.3709C106.458 56.128 105.423 61.862 104.398 67.5729Z" fill="#C9CBD4"/>
<path d="M76.4996 73.7709C78.8278 73.7709 81.3363 74.2699 83.4289 73.5769C84.9672 73.0779 84.3713 70.5412 84.8148 68.9333C85.1067 67.9386 85.2971 66.9169 85.383 65.8838C85.4523 64.2482 86.1452 63.763 87.7944 63.763C93.7121 63.763 93.7121 63.6798 92.7281 69.5432C92.645 70.0561 92.5064 70.5551 92.3816 71.068C91.8134 73.1749 92.4925 74.0897 94.7792 73.8402C95.9813 73.7087 97.1942 73.7087 98.3963 73.8402C99.9208 73.9789 100.461 73.4244 100.697 71.8719C101.764 65.066 102.984 58.2878 104.162 51.4957L104.328 49.5412C104.716 48.8066 105.09 48.0303 103.732 48.0026C101.528 48.0026 99.311 48.0026 97.0936 48.0026C96.5531 48.0026 96.4284 48.4185 96.4145 48.8759C95.9156 51.4402 95.4028 54.0046 94.9039 56.569L87.1569 56.4996C87.4064 53.963 88.3626 51.5096 88.1824 48.9036C88.5566 48.4878 88.5428 48.0303 87.9607 48.0165C85.5493 48.0165 83.1517 48.0165 80.7403 48.0165C80.5879 48.0165 80.4632 48.5432 80.3107 48.8204L75.8343 72.6897C75.7373 73.2303 75.7373 73.7709 76.4996 73.7709Z" fill="#C9CBD4"/>
<path d="M133.778 73.6593C138.531 73.6593 143.285 73.6593 148.038 73.6593C152.792 73.6593 152.916 73.6593 153.152 68.5583V68.0455C153.152 67.9207 153.069 67.6712 153.013 67.6712C150.242 67.6712 147.47 67.6019 144.809 67.6019C140.652 67.6019 140.652 67.6019 141.192 63.5128C143.964 63.0692 146.819 64.095 149.507 62.9583C150.172 61.8772 149.84 60.6019 150.228 59.4653C150.768 57.9267 150.103 57.497 148.634 57.5801C147.165 57.6633 145.363 57.5801 143.728 57.5801C142.689 57.5801 142.259 57.4554 142.342 56.194C142.536 54.3366 143.271 53.8514 145.114 53.8514C148.426 53.8514 151.752 54.392 155.037 53.5049L155.231 53.0336C155.508 51.7999 155.785 50.5524 156.076 49.3049C156.367 48.0573 155.868 47.8078 154.69 47.8217C148.745 47.8217 142.8 47.8217 136.854 47.8217C136.009 47.8217 135.468 47.9187 135.261 48.9999C134.429 55.4455 133.376 61.7108 132.35 68.0593C131.722 69.7151 131.402 71.4723 131.408 73.2435C132.059 74.1445 133.043 73.6593 133.778 73.6593Z" fill="#C9CBD4"/>
<path d="M54.0485 71.7447C59.592 76.6933 72.4113 74.6556 75.6265 64.9111C76.0561 64.2042 75.9314 63.8022 75.0305 63.8022H68.8911C68.1289 63.8022 67.8656 64.2735 67.7686 64.9111C67.0152 65.9603 66.0757 66.8623 64.9969 67.5725C64.4872 67.8773 63.9182 68.0693 63.3282 68.1357C62.7381 68.2022 62.1407 68.1414 61.576 67.9575C61.0114 67.7737 60.4927 67.471 60.0549 67.0698C59.617 66.6687 59.2701 66.1783 59.0376 65.6319C57.6517 61.4735 60.4235 55.3606 64.3178 53.5863H66.2303C68.3507 54.0992 68.6971 56.0121 69.4455 57.62H76.2224C77.6083 56.7883 76.7767 55.6101 76.7074 54.5566C76.6147 53.1476 76.0939 51.8005 75.2146 50.6956C74.3354 49.5908 73.1397 48.7809 71.7876 48.3745C69.5208 47.5192 67.0855 47.2061 64.6761 47.4601C62.2667 47.7141 59.9502 48.5282 57.9114 49.8373C55.8727 51.1465 54.1684 52.9143 52.9346 54.9997C51.7008 57.0851 50.9717 59.4302 50.8055 61.8477C50.4535 63.2115 50.4535 64.6424 50.8055 66.0061C50.8929 67.1418 51.2286 68.2445 51.789 69.2361C52.3494 70.2278 53.1207 71.0841 54.0485 71.7447Z" fill="#C9CBD4"/>
<path d="M193.162 72.1608C192.857 73.5469 193.62 73.7132 194.742 73.6994C199.219 73.6994 203.695 73.6994 208.171 73.6994C210.098 73.6994 212.079 74.1707 213.964 73.3528C214.61 71.8576 214.927 70.2408 214.893 68.6123V68.0578C211.677 67.0736 208.365 67.9192 205.122 67.6004C204.18 67.5172 203.057 68.1271 202.351 66.9905L202.517 65.0222C202.683 64.5231 202.836 64.0103 203.002 63.5113C205.205 63.5113 207.409 63.5113 209.613 63.5113C210.375 63.5113 211.442 63.8439 211.386 62.4301C212.121 61.0439 211.816 59.4083 212.329 57.6895C210.084 57.6895 208.033 57.6895 205.968 57.6895C205.247 57.6895 203.903 58.1608 204.222 56.6499C204.443 55.6103 203.889 53.8776 206.092 53.9746C208.864 54.0994 211.636 53.8776 214.408 53.9746C216.764 54.1271 217.775 53.2677 217.512 50.939L217.983 47.8618C211.483 47.8618 205.108 47.8618 198.72 47.8618C197.583 47.8618 197.126 48.2776 197.334 49.4004C196.156 54.0162 195.574 58.7429 194.798 63.442L194.673 64.8281C194.16 67.2954 193.689 69.735 193.162 72.1608Z" fill="#C9CBD4"/>
<path d="M156.229 73.7433C158.127 73.7433 160.04 73.7433 161.925 73.7433C163.047 73.7433 163.213 73.0225 163.31 72.274C164.613 64.6364 165.874 57.0265 167.149 49.3611C167.62 48.4879 167.634 47.878 166.387 47.8918H160.206C159.569 47.8918 159.278 48.1829 159.319 48.8205C158.889 50.9275 158.432 52.979 158.058 55.1275C157.074 60.5611 156.104 65.9809 155.286 71.4146C155.217 72.2324 154.316 73.7017 156.229 73.7433Z" fill="#C9CBD4"/>
<path d="M236.401 79.5354C198.022 79.48 159.638 79.48 121.249 79.5354C120.431 79.5354 119.503 79.1889 118.838 80.0206L108.887 88.0325L109.94 80.5473C109.83 78.5651 108.291 79.5216 107.474 79.5216C86.316 79.4476 65.1537 79.4476 43.9869 79.5216C37.598 79.5216 31.2092 79.5216 24.8203 79.5216C24.0581 79.5216 22.7415 78.8562 22.7554 80.575C21.9478 83.6357 21.4144 86.7623 21.1616 89.9176C21.5497 91.179 22.5475 90.5968 23.3374 90.5968C93.7396 90.5968 164.137 90.5968 234.53 90.5968C235.292 90.5968 236.304 91.1097 236.803 89.9869C237.603 86.8929 238.127 83.734 238.369 80.5473C238.605 78.579 237.052 79.5354 236.401 79.5354Z" fill="#C9CBD4"/>
<path d="M167.122 73.7132C171.806 73.5607 176.518 74.2538 181.175 73.2696C187.453 72.7429 192.913 66.1033 193.135 58.7152C193.419 57.7044 193.419 56.6349 193.135 55.6241C192.622 51.3825 190.1 48.9983 185.402 48.3053C180.745 47.335 176.047 48.0419 171.377 47.9033C170.823 47.9033 170.809 48.4162 170.795 48.8459C169.076 56.5389 167.69 64.3152 166.582 72.0775C166.305 72.8261 165.709 73.7548 167.122 73.7132ZM175.923 65.3964C176.532 62.5409 177.003 59.6577 177.516 56.7884C177.78 55.4023 177.613 53.8637 179.886 53.9191C183.198 54.0162 184.945 54.8756 185.346 57.0795C186.386 62.6241 183.295 66.6993 177.502 67.2261C175.853 67.7251 175.59 66.9627 175.923 65.3548V65.3964Z" fill="#C9CBD4"/>
<path d="M25.4032 68.5569C25.8514 69.7964 26.5878 70.9116 27.5517 71.8105C28.5155 72.7095 29.6791 73.3664 30.9466 73.7272C34.7921 74.8151 38.8914 74.5808 42.5879 73.0618C44.1963 72.5499 45.6414 71.6231 46.7776 70.3747C47.9138 69.1263 48.701 67.6005 49.06 65.9509C49.3511 64.7766 49.3511 63.549 49.06 62.3747C48.5056 59.9905 46.6624 58.9371 44.6113 58.2163C42.5602 57.4955 40.3428 56.9688 38.2225 56.3034C37.2524 55.9985 36.1437 55.7212 36.0051 54.4598C35.8665 53.1985 37.0999 53.0737 37.7928 52.5608L40.2597 52.644C41.1321 53.1006 41.8504 53.8046 42.3246 54.6678C44.7222 55.4024 47.1752 54.8618 49.5866 54.9589C50.1687 54.9589 50.1687 54.4876 50.1132 54.044C50.1132 50.0381 48.1037 47.8757 43.3779 46.8777C41.3289 46.5727 39.246 46.5727 37.1969 46.8777C35.5829 46.9886 34.0153 47.4657 32.6131 48.2726C31.2108 49.0796 30.0106 50.1953 29.1034 51.5351C26.1793 55.9014 26.6782 59.6995 32.0276 62.2777C34.3591 63.1749 36.754 63.8976 39.1926 64.44C40.0241 64.6896 40.8972 65.147 40.814 66.1727C40.7606 66.6197 40.5576 67.0355 40.2381 67.3525C39.9186 67.6696 39.5013 67.8693 39.054 67.9193C36.989 68.3905 34.8964 68.6955 33.5105 66.5331C33.3581 66.2559 33.1918 65.743 33.0255 65.7292C30.4616 65.7292 27.87 65.0915 25.3339 66.0064C25.0746 66.8521 25.1088 67.7607 25.4309 68.5846L25.4032 68.5569Z" fill="#C9CBD4"/>
<path d="M242.402 56.0961C242.7 54.918 242.7 53.6842 242.402 52.506C241.987 49.5397 239.991 48.4862 237.289 48.2783C232.785 47.3357 228.239 48.0565 223.721 47.8902C222.695 47.8902 221.517 47.405 220.589 48.3199C220.423 48.44 220.298 48.6081 220.231 48.8015C220.165 48.9949 220.159 49.2042 220.215 49.4011L220.048 51.3555C219.411 54.6823 218.787 58.0229 218.15 61.3496L217.983 63.3179C217.146 66.3845 216.59 69.5208 216.32 72.6882C215.891 73.4229 216.32 73.5892 216.944 73.5892C219.078 73.5892 221.212 73.5892 223.347 73.5892C223.998 73.5892 223.957 73.1872 223.943 72.7714C225.01 72.4803 224.622 71.5239 224.83 70.8585C225.495 68.7516 225.204 66.409 226.423 64.4545H229.971C230.381 64.5555 230.765 64.7418 231.099 65.0011C231.432 65.2604 231.707 65.5871 231.906 65.9597C232.104 66.3324 232.222 66.7427 232.252 67.1641C232.282 67.5854 232.222 68.0082 232.078 68.405C231.814 69.7912 231.731 71.1773 231.565 72.6744C231.482 73.1318 231.565 73.5753 232.105 73.5753C234.295 73.5753 236.499 73.5753 238.688 73.5753C239.27 73.5753 239.243 73.0763 239.27 72.6605C240.003 70.854 240.394 68.9267 240.421 66.9773C240.719 66.5095 240.878 65.966 240.878 65.411C240.878 64.8559 240.719 64.3125 240.421 63.8446C239.806 62.8711 238.946 62.0773 237.926 61.5437C239.755 60.0466 242.139 58.9239 242.402 56.0961ZM231.44 59.1456L226.95 59.0209L227.989 53.7813L230.387 53.6149C230.624 53.7232 230.87 53.8113 231.121 53.8783C232.604 54.1001 234.517 53.7951 234.642 56.0268C234.766 58.2585 232.965 58.5773 231.44 59.1456Z" fill="#C9CBD4"/>
</svg>
