<svg width="265" height="146" viewBox="0 0 265 146" fill="none" xmlns="http://www.w3.org/2000/svg">
<path d="M95.054 51.4167C94.2807 51.7401 93.4341 51.845 92.6057 51.7203C81.5064 51.7203 70.3975 51.7203 59.279 51.7203C58.5877 51.7203 57.8388 51.9805 57.4932 51.7203L76.8785 32.2922L95.054 51.4312V51.4167Z" fill="#C9CBD4"/>
<path d="M94.9256 89.8832L76.5196 108.791L57.3936 89.623C57.5376 89.4062 58.1569 89.623 58.6609 89.623H93.3558C93.905 89.6603 94.4497 89.7474 94.9832 89.8832H94.9256Z" fill="#C9CBD4"/>
<path d="M44.0132 51.5613V89.1455L43.4083 89.6514C42.1554 88.2059 40.9456 86.7604 39.6062 85.416C35.2855 80.983 30.9025 76.5741 26.457 72.1893C25.6505 71.3942 24.7863 70.7437 26.0681 69.5439C31.9442 63.7473 37.7339 57.8205 44.0132 51.5613Z" fill="#C9CBD4"/>
<path d="M95.0546 89.9411C95.0546 81.1522 94.853 72.3778 94.8674 63.6033C94.6706 59.5415 94.7331 55.4712 95.0546 51.4174C100.815 57.1995 106.432 63.0974 112.236 68.7639C113.677 70.2094 113.792 70.9756 112.236 72.45C106.389 78.1455 100.715 84.0144 94.9538 89.7966L95.0546 89.9411Z" fill="#C9CBD4"/>
<path d="M141.674 60.8986C140.497 62.562 139.557 64.3815 138.88 66.305C137.944 68.3287 132.73 69.384 131.059 67.9384C130.75 67.5895 130.529 67.1706 130.417 66.7174C130.304 66.2643 130.302 65.7904 130.411 65.3364C130.757 61.4624 131.146 57.5883 131.535 53.7721C131.837 50.881 133.997 51.2424 135.942 51.2713C138.246 51.2713 137.67 53.0204 137.555 54.3069C137.262 56.4282 137.142 58.5699 137.195 60.7107C138.261 58.3545 139.413 56.0271 140.363 53.6131C140.579 52.8491 141.054 52.1849 141.706 51.736C142.359 51.2871 143.147 51.0817 143.935 51.1557C145.663 51.1557 146.542 51.9652 146.47 53.6998C146.355 55.9549 146.196 58.2099 146.009 61.2022C147.824 58.3111 148.299 55.7669 149.35 53.4252C149.786 52.4604 150.575 51.7006 151.553 51.3025C152.531 50.9044 153.624 50.8984 154.607 51.2857C155.716 51.7483 155.586 52.6012 155.255 53.3673C153.368 57.9063 151.568 62.4887 149.494 66.9121C148.155 69.6586 145.361 68.3576 143.215 68.2564C141.299 68.1697 141.616 66.3194 141.587 64.9606C141.559 63.6018 141.616 62.4743 141.674 60.8986Z" fill="#C9CBD4"/>
<path d="M231.27 89.6956C230.302 89.8373 229.315 89.7631 228.379 89.4782C227.443 89.1934 226.581 88.705 225.855 88.0477C225.178 87.3394 224.515 87.5707 223.925 88.1633C222.326 89.7534 220.224 89.8112 218.164 89.8835C214.736 89.9992 212.59 88.5392 212.173 86.1251C211.568 82.5257 214.002 78.1023 217.242 77.1772C219.408 76.6212 221.674 76.5915 223.853 77.0905C224.459 77.1616 225.026 77.4238 225.474 77.8395C225.922 78.2551 226.227 78.8027 226.344 79.4033C226.421 79.6743 226.407 79.9633 226.302 80.2249C226.198 80.4865 226.01 80.706 225.768 80.8489C225.231 81.1231 224.639 81.2733 224.035 81.2883C223.432 81.3033 222.834 81.1828 222.283 80.9356C221.419 80.6031 221.131 78.9408 219.82 79.7069C219.294 80.0944 218.864 80.5988 218.565 81.1805C218.265 81.7623 218.103 82.4057 218.092 83.0606C217.879 83.9604 217.773 84.8823 217.775 85.8071C217.775 86.8479 218.51 87.4406 219.46 86.66C223.118 83.7689 226.805 85.7926 230.463 86.5299C231.212 86.6889 232.048 87.7586 232.595 86.7612C233.142 85.7637 231.889 85.4891 231.155 85.1711C229.095 84.2604 226.834 83.4942 227.367 80.5164C227.799 78.2469 230.075 76.8592 233.214 76.8447C234.957 76.8447 236.772 76.5556 238.356 77.5675C238.99 77.9722 239.652 78.4637 239.364 79.3455C239.076 80.2273 238.385 80.0827 237.737 80.1261C236.622 80.2311 235.502 79.9942 234.525 79.4467C234.122 79.201 233.56 79.1576 233.344 79.7069C233.128 80.2562 233.589 80.5453 234.006 80.7477C234.424 80.9501 235.029 81.2103 235.533 81.4126C237.362 82.1499 239.004 83.1039 238.586 85.4457C238.437 86.4707 237.96 87.4194 237.228 88.1493C236.496 88.8792 235.547 89.3508 234.525 89.4932C233.447 89.6441 232.358 89.7118 231.27 89.6956Z" fill="#C9CBD4"/>
<path d="M228.144 68.4157C225.782 68.7192 225.091 67.7218 225.797 65.5246C226.272 64.079 226.575 62.4745 226.906 60.9277C227.021 60.3784 227.064 59.7135 226.344 59.5689C225.624 59.4244 225.322 59.9881 225.178 60.523C224.659 62.301 224.155 64.0935 223.737 65.9149C223.276 68.141 221.836 68.6325 219.834 68.459C218.394 68.3289 217.602 67.6929 218.005 66.1172L219.95 58.2679C220.014 57.908 220.153 57.5657 220.357 57.2633C220.562 56.9609 220.828 56.7052 221.138 56.5129C221.448 56.3206 221.794 56.196 222.156 56.1472C222.517 56.0984 222.884 56.1265 223.233 56.2297C225.515 56.4105 227.807 56.4105 230.089 56.2297C232.652 56.0563 233.574 57.3572 233.056 59.9592C232.638 61.9541 232.062 63.92 231.615 65.9149C231.589 66.324 231.472 66.7222 231.274 67.0807C231.075 67.4393 230.8 67.7492 230.468 67.9884C230.137 68.2275 229.756 68.3898 229.354 68.4637C228.952 68.5376 228.539 68.5212 228.144 68.4157Z" fill="#C9CBD4"/>
<path d="M134.977 89.6235C129.029 89.5368 127.776 90.8089 130.153 83.1764C131.045 80.3576 131.593 77.3942 132.342 74.5031C132.525 73.919 132.835 73.3828 133.249 72.9327C133.663 72.4826 134.17 72.1297 134.736 71.8991C135.301 71.6686 135.91 71.5661 136.52 71.5989C137.129 71.6317 137.723 71.7991 138.261 72.0891C139.327 72.6962 139.096 73.6069 138.866 74.5176C138.131 77.293 137.426 80.0829 136.662 82.8439C136.115 84.7954 136.547 85.8651 138.837 85.735C139.888 85.735 141.516 85.258 141.429 87.1805C141.429 88.9296 140.191 89.5223 138.549 89.5223L134.977 89.6235Z" fill="#C9CBD4"/>
<path d="M173.589 69.0683C172.106 69.1437 170.625 68.8663 169.269 68.2588C168.491 67.8685 167.829 67.3047 167.944 66.3362C168.059 65.3677 169.024 65.1942 169.874 65.1653C170.893 65.0185 171.929 65.2836 172.754 65.9026C173.402 66.4374 174.194 67.059 174.828 65.9026C175.462 64.7461 174.295 64.7172 173.647 64.457L171.66 63.4885C170.995 63.2695 170.419 62.8394 170.019 62.2632C169.619 61.6869 169.416 60.9957 169.442 60.2938C169.448 59.495 169.697 58.7172 170.155 58.0638C170.613 57.4105 171.258 56.9127 172.005 56.6366C174.387 55.5512 177.092 55.4219 179.566 56.2752C180.661 56.6511 181.899 57.1426 181.655 58.458C181.41 59.7735 179.912 59.4121 178.875 59.4843C178.601 59.4843 178.328 59.3687 178.054 59.3687C177.132 59.3687 176.182 57.4028 175.563 58.7905C174.943 60.1782 176.859 60.236 177.752 60.5685C179.667 61.3057 181.064 62.3754 180.848 64.6016C180.603 67.2469 178.601 68.2733 176.355 68.8515C175.442 69.0124 174.516 69.085 173.589 69.0683Z" fill="#C9CBD4"/>
<path d="M186.408 89.6221C184.933 89.7806 183.443 89.5462 182.087 88.9427C181.281 88.4367 180.489 87.8296 180.805 86.731C181.122 85.6324 182.058 85.8203 182.894 85.748C184.105 85.6982 185.288 86.1233 186.192 86.9333C186.294 87.0269 186.415 87.0971 186.547 87.1388C186.679 87.1805 186.818 87.1929 186.955 87.175C187.092 87.1571 187.224 87.1094 187.341 87.0352C187.458 86.961 187.557 86.8621 187.632 86.7454C188.006 86.0949 187.416 85.7191 186.955 85.4444C186.398 85.1119 185.809 84.8359 185.198 84.6205C183.614 84.0567 182.318 83.1749 182.318 81.3246C182.312 80.473 182.569 79.6404 183.054 78.9414C183.539 78.2425 184.227 77.7115 185.025 77.4217C187.55 76.4539 190.334 76.4079 192.889 77.2916C193.767 77.5518 194.732 78.1589 194.401 79.2864C194.07 80.4139 193.062 80.0526 192.241 80.0959C191.23 80.0985 190.237 79.8343 189.36 79.3298C189.278 79.2759 189.185 79.2408 189.087 79.2267C188.99 79.2127 188.891 79.2202 188.796 79.2486C188.702 79.277 188.615 79.3256 188.542 79.3912C188.468 79.4567 188.41 79.5376 188.37 79.6281C188.331 79.7186 188.312 79.8167 188.314 79.9154C188.317 80.0141 188.34 80.1111 188.384 80.1996C188.427 80.2882 188.49 80.3662 188.566 80.4282C188.643 80.4901 188.732 80.5346 188.827 80.5585C189.395 80.873 189.987 81.139 190.599 81.3535C192.313 81.8884 193.609 82.7991 193.753 84.7506C193.897 86.7021 192.615 87.9886 191.074 88.9571C189.533 89.9256 187.963 89.6221 186.408 89.6221Z" fill="#C9CBD4"/>
<path d="M186.364 68.9645C183.325 68.9645 182.043 67.3889 182.562 64.3966C182.951 62.2572 183.8 60.2479 183.354 57.8772C182.907 55.5065 187.919 52.3119 190.037 53.1937C190.901 53.5695 191.606 57.5303 190.944 58.2097C188.856 60.5804 187.372 62.9511 189.619 66.1457C190.584 67.519 188.913 68.9501 186.364 68.9645Z" fill="#C9CBD4"/>
<path d="M199.513 89.6227C196.345 89.6227 194.833 88.3506 195.625 85.4306C196.417 82.5106 195.409 78.9835 197.482 76.1357C198.779 74.3577 200.565 74.271 202.379 74.0542C202.564 74.003 202.759 74.0023 202.945 74.052C203.13 74.1017 203.299 74.2001 203.434 74.337C203.569 74.4739 203.665 74.6444 203.713 74.8309C203.76 75.0175 203.757 75.2134 203.704 75.3985C203.503 76.6272 205.692 77.5668 203.848 79.0702C201.313 81.1084 200.968 83.8116 202.523 86.6738C203.387 88.3217 202.034 89.6227 199.513 89.6227Z" fill="#C9CBD4"/>
<path d="M212.259 56.2159C214.088 56.1292 215.557 57.0399 217.17 56.4328C217.323 56.3617 217.492 56.3338 217.659 56.3524C217.826 56.3709 217.985 56.435 218.119 56.5377C218.252 56.6405 218.355 56.778 218.416 56.9353C218.478 57.0926 218.495 57.2638 218.466 57.4302C218.351 58.471 218.466 60.0033 217.026 60.0755C213.67 60.2345 213.166 62.6775 212.532 65.1494C212.144 66.5949 211.956 68.2573 209.796 68.4452C206.714 68.7054 206.109 68.1272 206.844 65.0916C207.333 63.1256 207.981 61.1741 208.399 59.1793C208.903 56.8664 210.156 55.7967 212.259 56.2159Z" fill="#C9CBD4"/>
<path d="M209.466 76.8582C211.208 76.7715 212.346 77.3497 211.698 79.6192C210.935 82.2934 210.258 84.9966 209.509 87.6564C209.073 88.5502 208.306 89.237 207.372 89.5694C206.438 89.9019 205.411 89.8534 204.511 89.4344C203.561 88.8707 203.835 87.9889 204.022 87.2083C204.67 84.5051 205.318 81.802 206.067 79.1277C206.585 77.2051 207.19 76.8582 209.466 76.8582Z" fill="#C9CBD4"/>
<path d="M176.11 89.6225C173.82 89.7382 172.941 88.813 173.56 86.5869C174.261 84.1005 174.924 81.5997 175.548 79.0845C176.167 76.6126 178.054 76.6126 179.869 76.9595C182.072 77.3787 181.136 79.0556 180.877 80.2987C180.373 82.6405 179.725 84.9534 179.163 87.2952C179.125 87.6534 179.014 88.0001 178.837 88.3138C178.661 88.6276 178.422 88.9018 178.136 89.1198C177.85 89.3377 177.523 89.4947 177.175 89.5811C176.826 89.6676 176.464 89.6817 176.11 89.6225Z" fill="#C9CBD4"/>
<path d="M178.818 75.6003C178.371 75.6003 176.801 75.9906 176.931 74.0391C177.061 72.0877 178.486 71.7118 180.114 71.8419C181.108 71.9286 182.663 71.3793 182.649 73.114C182.649 75.0655 181.324 75.8172 178.818 75.6003Z" fill="#C9CBD4"/>
<path d="M211.453 71.9013C211.828 71.9013 213.253 71.5399 213.167 73.3468C213.066 75.4284 211.583 75.8187 209.869 75.732C208.818 75.732 207.435 75.9055 207.521 74.2865C207.608 72.0603 209.077 71.6989 211.453 71.9013Z" fill="#C9CBD4"/>
<path d="M171.184 76.8721C169.838 77.1258 168.476 77.29 167.108 77.3636C161.592 76.901 159.447 78.4622 158.366 84.0131C157.603 87.9016 159.49 89.9543 163.364 89.2026C164.891 88.9135 164.991 89.4917 164.732 90.6481C164.707 91.0223 164.587 91.3838 164.383 91.6978C164.178 92.0117 163.897 92.2676 163.566 92.4406C162.586 92.802 162.356 91.9202 161.952 91.3131C160.872 89.7808 159.331 90.2434 157.891 90.4747C157.724 90.4936 157.563 90.5469 157.417 90.6313C157.272 90.7156 157.145 90.8291 157.045 90.9647C156.945 91.1003 156.874 91.2551 156.836 91.4195C156.798 91.5839 156.795 91.7543 156.825 91.9202C156.873 92.6329 157.162 93.308 157.644 93.8337C158.125 94.3594 158.772 94.7043 159.475 94.8113L161.952 95.3172C167.613 95.2305 169.686 93.6115 170.968 88.6533C171.732 85.7622 172.408 82.6976 173.287 79.7487C173.863 77.6238 173.129 76.7709 171.184 76.8721ZM167.195 81.5123C166.82 82.8422 166.446 84.1865 165.971 85.4875C165.755 86.0802 165.308 86.7018 164.53 86.3693C163.753 86.0368 164.026 85.4731 164.026 84.9238C164.487 83.6228 164.919 82.3073 165.467 81.0208C165.668 80.4715 166.1 80.0234 166.734 80.1968C167.368 80.3703 167.353 80.9485 167.195 81.5123Z" fill="#C9CBD4"/>
<path d="M157.502 81.1368C157.2 78.0144 155.5 76.8001 151.295 76.8001C144.756 76.352 143.071 80.6597 142.841 85.3722C142.668 88.9138 146.038 90.3883 151.482 89.5498H151.756C153.55 89.0566 155.113 87.9406 156.165 86.4002C157.217 84.8598 157.691 82.9948 157.502 81.1368ZM150.661 85.9649C150.583 86.2744 150.391 86.5429 150.124 86.7169C149.857 86.891 149.535 86.958 149.221 86.9045C148.443 86.6877 148.371 85.9793 148.53 85.2999C148.904 83.7677 149.264 82.2354 149.739 80.732C149.927 80.1393 150.301 79.4455 151.18 79.619C152.058 79.7924 152.073 80.6742 152.101 81.8162C151.612 82.9582 151.223 84.476 150.661 85.9649Z" fill="#C9CBD4"/>
<path d="M203.589 56.4776C202.13 55.8721 200.547 55.6295 198.975 55.7704C197.402 55.9114 195.887 56.4317 194.558 57.2871C192.384 58.5881 190.872 63.3295 191.678 66.0905C192.485 68.8515 194.976 68.9816 197.338 68.9816C198.815 69.0696 200.293 68.8175 201.659 68.2443C202.329 68.0569 202.946 67.7149 203.461 67.2456C203.976 66.7763 204.375 66.1926 204.626 65.5412C204.649 65.4496 204.652 65.3542 204.636 65.2612C204.619 65.1682 204.583 65.0797 204.53 65.0018C204.477 64.9238 204.408 64.8581 204.328 64.809C204.247 64.76 204.157 64.7287 204.064 64.7172C202.622 64.2906 201.072 64.4462 199.743 65.1509C199.599 65.2646 199.464 65.3903 199.34 65.5267C198.764 66.1483 198.173 66.7988 197.223 66.2206C196.992 66.0674 196.814 65.8462 196.713 65.5873C196.613 65.3285 196.595 65.0447 196.661 64.775C196.7 64.3054 196.909 63.8663 197.249 63.5412C197.589 63.2161 198.035 63.0276 198.505 63.0115C199.786 62.9103 201.083 63.0115 202.379 62.8669C203.675 62.7224 205.547 63.1994 205.807 61.0311C206.047 60.1312 205.954 59.1746 205.547 58.3377C205.139 57.5008 204.444 56.8402 203.589 56.4776ZM199.542 60.5396C198.966 60.5396 198.404 60.5396 198.418 59.7445C198.429 59.4734 198.542 59.2164 198.735 59.0259C198.927 58.8353 199.185 58.7253 199.455 58.7182C199.586 58.6859 199.723 58.6833 199.855 58.7106C199.987 58.738 200.112 58.7946 200.219 58.8763C200.327 58.958 200.415 59.0627 200.477 59.1829C200.539 59.3031 200.574 59.4357 200.579 59.5711C200.636 60.2794 200.103 60.4529 199.542 60.5396Z" fill="#C9CBD4"/>
<path d="M165.178 56.4475C162.747 55.4805 160.032 55.5221 157.631 56.5631C156.011 57.39 154.709 58.7316 153.927 60.3788C153.146 62.026 152.929 63.8863 153.311 65.6701C154.045 68.5612 156.407 69.0382 159.302 69.0237C160.864 69.1073 162.419 68.7731 163.81 68.0552C164.991 67.4336 166.892 66.6097 166.229 65.2364C165.567 63.8632 163.594 64.5426 162.182 64.8895C161.851 64.9762 161.578 65.3231 161.304 65.54C160.67 66.0459 160.094 66.8554 159.144 66.2483C158.871 66.0665 158.669 65.7972 158.569 65.4845C158.47 65.1719 158.479 64.8346 158.596 64.5281C158.692 64.0681 158.947 63.657 159.316 63.3684C159.685 63.0798 160.145 62.9323 160.613 62.9525C161.808 62.9525 163.018 62.9525 164.213 62.9525C165.653 62.9525 167.324 63.1548 167.569 60.9865C167.814 58.8182 167.31 57.257 165.178 56.4475ZM162.298 59.6711C162.197 60.3071 161.678 60.5239 161.088 60.5384C160.497 60.5529 160.094 60.4228 160.08 59.859C160.065 59.2952 160.584 58.7459 161.289 58.6447C161.995 58.5435 162.37 58.9627 162.269 59.6711H162.298Z" fill="#C9CBD4"/>
</svg>
