<svg width="277" height="39" viewBox="0 0 277 39" fill="none" xmlns="http://www.w3.org/2000/svg">
<path d="M49.4526 38.128L32.9956 28.596L49.4526 19.064V38.128Z" fill="#F7F7F7"/>
<path d="M16.457 38.128L0 28.596L16.457 19.064V38.128Z" fill="#EAEAEA"/>
<path d="M32.9956 28.596L49.4526 19.064V0L16.457 19.064L32.9956 28.596Z" fill="#C9CBD4"/>
<path d="M65.9911 28.596L49.4526 19.064L65.9911 9.53198V28.596Z" fill="#EAEAEA"/>
<path d="M49.4526 38.128L65.9911 28.596L49.4526 19.064V38.128Z" fill="#C9CBD4"/>
<path d="M16.457 0L0 9.53201V28.596L16.457 19.064V0Z" fill="#C9CBD4"/>
<path d="M16.457 19.064L32.9956 9.53201L16.457 0V19.064Z" fill="#D7D8DB"/>
<path d="M16.457 38.128L32.9956 28.596L16.457 19.064V38.128Z" fill="#F7F7F7"/>
<path d="M49.4526 19.064L65.9911 9.53201L49.4526 0V19.064Z" fill="#D7D8DB"/>
<path d="M172.228 21.5898C177.85 20.938 181.842 17.1902 181.842 11.6504C181.842 8.31001 179.316 2.52563 170.762 2.52563H157.238V35.6842H162.615C162.615 35.6842 162.615 7.16948 162.615 6.7622C163.429 6.7622 169.458 6.7622 169.458 6.7622C174.265 6.7622 176.465 9.04325 176.465 12.3022C176.465 15.4795 174.021 17.8422 168.807 17.8422H163.022L177.279 35.7658H183.878L172.228 21.5898Z" fill="#C9CBD4"/>
<path d="M129.13 2.52563V35.6842H150.476V31.3662H134.507V20.3676H148.194V16.0498H134.507V6.84364H150.15V2.52563H129.13Z" fill="#C9CBD4"/>
<path d="M213.289 28.6775C212.311 29.3293 209.867 31.6105 204.327 31.6105C197.158 31.6105 191.944 26.3149 191.944 19.0641C191.944 12.465 196.506 6.51765 204.327 6.51765C209.297 6.51765 212.067 8.47295 213.289 9.4506L215.815 5.29559C214.837 4.72532 211.09 1.8739 204.572 1.8739C194.388 1.8739 186.16 8.63593 186.16 18.9827C186.16 29.085 193.736 36.1729 204.572 36.1729C210.601 36.1729 214.837 33.403 215.815 32.7512L213.289 28.6775Z" fill="#C9CBD4"/>
<path d="M264.697 21.5898C270.319 20.938 274.311 17.1902 274.311 11.6504C274.311 8.31001 271.785 2.52563 263.231 2.52563H249.707V35.6842H255.084C255.084 35.6842 255.084 7.16948 255.084 6.7622C255.898 6.7622 261.927 6.7622 261.927 6.7622C266.734 6.7622 268.934 9.04325 268.934 12.3022C268.934 15.4795 266.489 17.8422 261.275 17.8422H255.491L269.748 35.7658H276.347L264.697 21.5898Z" fill="#C9CBD4"/>
<path d="M221.6 2.52563V35.6842H242.945V31.3662H226.977V20.3676H240.664V16.0498H226.977V6.84364H242.619V2.52563H221.6Z" fill="#C9CBD4"/>
<path d="M103.142 28.3517L92.7134 2.52563H85.1367V35.6842H90.2693V9.77659H90.3507L100.698 35.6842H105.26L116.095 9.61362H116.177V35.6842H121.391V2.52563H113.896L103.223 28.3517H103.142Z" fill="#C9CBD4"/>
</svg>
