<svg width="163" height="112" viewBox="0 0 163 112" fill="none" xmlns="http://www.w3.org/2000/svg">
<path d="M144.832 40.3785C144.832 40.3785 153.018 47.2633 155.064 49.0134C157.104 50.7633 161.318 55.1255 162.254 55.9523C163.209 56.806 162.565 57.8904 162.26 58.446C161.573 59.6792 156.955 69.4236 147.177 80.5975C138.713 90.2876 114.271 111.199 82.9171 111.057C56.7625 110.942 40.9111 100.967 34.8649 97.2602C23.6536 90.3825 19.7539 84.6157 19.7539 84.6157L144.832 40.3785Z" fill="#E3E4E4"/>
<path fill-rule="evenodd" clip-rule="evenodd" d="M0.243164 78.8781C0.243164 78.8822 5.69318 19.9241 58.5803 4.14869C61.2085 3.36484 103.41 -12.0595 153.409 22.0726C153.487 22.126 140.014 86.2222 85.3591 100.479C81.7058 101.432 44.7619 113.654 0.243164 78.8781Z" fill="#C9CBD4"/>
<path fill-rule="evenodd" clip-rule="evenodd" d="M92.3346 39.0033L85.1596 39.0047L85.1455 67.5183H92.3347C92.3347 67.5183 92.3347 48.9755 92.3347 48.9533C92.3347 43.5071 101.132 43.4529 101.132 48.9533C101.132 50.1871 101.132 67.5183 101.132 67.5183H108.326C108.326 67.5183 108.326 49.9923 108.326 48.9533C108.326 43.2367 117.062 43.7775 117.062 48.9533C117.062 49.9274 117.062 67.5183 117.062 67.5183H124.252C124.252 67.5183 124.252 50.3318 124.252 47.9471C124.252 35.8592 110.224 36.6705 106.033 40.7113C105.994 40.7492 100.069 34.84 92.3347 40.834C92.3256 40.8411 92.3346 39.0033 92.3346 39.0033Z" fill="white" stroke="white" stroke-width="0.502304" stroke-miterlimit="3.8637"/>
<path fill-rule="evenodd" clip-rule="evenodd" d="M73.9295 61.2391V53.8027L68.3095 53.7959C68.3095 53.7959 62.6514 53.3786 62.6514 57.4777C62.6514 61.4243 68.2896 61.2462 68.2896 61.2462L73.9295 61.2391ZM81.098 67.5278L73.9416 67.5318C73.9416 67.5318 73.948 65.5673 73.9416 65.5815C72.8754 67.9887 69.4052 67.5187 69.3057 67.5187H66.6165C56.6101 67.5187 55.4595 61.1068 55.4595 57.8377C55.4595 52.0987 57.7877 47.5699 66.3176 47.5699L73.9694 47.5703C73.9694 45.9329 72.4311 44.2926 69.3059 44.3009C69.3059 44.3009 60.6704 44.2925 60.6761 44.3009L60.6769 37.9449C60.6769 37.9449 71.4314 37.9408 71.432 37.9443C80.3229 37.9535 81.1128 45.896 81.1081 48.8541L81.098 67.5278Z" fill="white" stroke="white" stroke-width="0.502304" stroke-miterlimit="3.8637"/>
<path fill-rule="evenodd" clip-rule="evenodd" d="M35.93 47.5639C35.93 47.5291 42.4951 47.5639 42.4951 47.5639C46.2621 47.2651 49.275 45.8475 49.275 41.652C49.275 40.3756 48.6574 36.3687 42.4999 35.8706L35.9304 35.8594C35.93 35.8914 35.93 47.6383 35.93 47.5639ZM28.8354 67.5183V29.8954L40.8269 29.9123C51.0504 29.9123 54.5369 34.912 55.2023 36.5205C56.1238 38.7483 59.7549 48.9 47.9182 52.9977C45.0093 54.0048 41.8883 53.7913 35.93 53.6916L35.9336 67.5278L28.8354 67.5183Z" fill="white" stroke="white" stroke-width="0.502304" stroke-miterlimit="3.8637"/>
</svg>
