<svg width="229" height="100" viewBox="0 0 229 100" fill="none" xmlns="http://www.w3.org/2000/svg">
<path d="M0 35.2345C0 27.5932 0 20.1047 0 12.3664C0.58116 12.3664 1.15512 12.3664 1.7291 12.3664C8.91242 12.3664 16.0961 12.3439 23.2794 12.3915C24.3277 12.3984 24.9098 12.077 25.5001 11.1949C34.6866 -2.52455 54.4951 -2.57128 63.6715 11.1077C64.3366 12.0992 65.0275 12.4033 66.1807 12.3938C73.0916 12.3383 80.0031 12.3661 86.9146 12.3661C87.5023 12.3661 88.0903 12.3661 88.7731 12.3661C88.7731 20.0371 88.7731 27.5736 88.7731 35.2342C88.1116 35.2342 87.5193 35.2342 86.9273 35.2342C79.907 35.2342 72.8871 35.2489 65.8667 35.2162C64.9586 35.212 64.4268 35.472 63.8975 36.2606C54.4428 50.3545 34.7896 50.3538 25.3544 36.2616C24.8298 35.4779 24.2957 35.2113 23.3836 35.2156C16.2003 35.2495 9.01696 35.2345 1.83332 35.2345C1.24726 35.2345 0.660869 35.2345 0 35.2345ZM86.1489 26.3283C86.1469 24.885 86.1446 23.4418 86.1427 21.9982C86.1427 19.6843 86.1427 17.3701 86.1427 14.9913C79.3452 14.9913 72.6737 14.9913 66.0726 14.9913C66.5685 17.3407 67.0588 19.6644 67.5495 21.9877C67.5361 23.4316 67.523 24.8759 67.5096 26.3198C67.0323 28.3906 66.5551 30.4614 66.0912 32.4744C72.8044 32.4744 79.4909 32.4744 86.1489 32.4744C86.1489 30.333 86.1489 28.3305 86.1489 26.3283ZM2.50105 26.328C2.50105 28.3743 2.50105 30.4206 2.50105 32.5391C9.47758 32.5391 16.3512 32.5391 23.1523 32.5391C22.6819 30.45 22.219 28.3952 21.7564 26.34C21.7339 24.8951 21.711 23.4503 21.6885 22.005C22.1772 19.6843 22.6656 17.3636 23.1461 15.0808C16.3323 15.0808 9.44948 15.0808 2.4981 15.0808C2.4981 17.4502 2.4981 19.7222 2.4981 21.9939C2.49908 23.4388 2.50007 24.8834 2.50105 26.328ZM44.7297 4.56174C44.617 4.53692 44.5043 4.51242 44.3913 4.48759C43.1512 8.24177 41.8471 11.9764 40.7067 15.7606C40.3166 17.0542 39.7139 17.407 38.4137 17.3695C34.9888 17.2711 31.559 17.3362 28.1312 17.3362C27.6382 17.3362 27.1453 17.3362 26.652 17.3362C29.7045 20.0646 32.7612 22.5026 35.96 24.737C37.3746 25.7252 37.6362 26.588 37.01 28.1975C35.5994 31.824 34.4243 35.5422 33.0265 39.5917C37.1413 36.6529 40.9239 33.9516 44.6807 31.2686C48.4813 33.9693 52.1616 36.5847 56.2108 39.462C54.6885 35.1061 53.3553 31.2102 51.9532 27.3387C51.6252 26.4335 51.7219 25.9092 52.5491 25.31C55.5437 23.1406 58.4711 20.8783 61.419 18.6451C61.8496 18.3191 62.2544 17.9591 63.008 17.3365C58.4815 17.3365 54.4673 17.2796 50.4564 17.3691C49.1562 17.3982 48.5531 17.0683 48.182 15.7488C47.1259 11.993 45.893 8.28718 44.7297 4.56174Z" fill="#C9CBD4"/>
<path d="M94.3581 0.904907C97.6814 0.904907 101.035 0.904907 104.637 0.904907C104.637 1.48182 104.637 2.0535 104.637 2.62519C104.637 10.9545 104.558 19.2851 104.689 27.6125C104.724 29.8558 105.112 32.1853 105.838 34.3048C106.907 37.4275 109.344 39.0403 112.724 39.0638C116.285 39.0887 118.926 37.6598 119.97 34.3688C120.793 31.7743 121.173 28.9489 121.223 26.2162C121.378 17.837 121.28 9.45276 121.28 0.944107C124.682 0.944107 128.026 0.944107 131.484 0.944107C131.524 1.18454 131.617 1.48607 131.617 1.78792C131.605 10.7696 131.696 19.7536 131.522 28.7323C131.414 34.327 129.902 39.531 125.442 43.3547C121.197 46.9956 116.047 47.7538 110.714 47.3624C100.557 46.617 94.7883 40.7831 94.3607 30.1766C93.9726 20.5569 94.2333 10.9111 94.213 1.27667C94.213 1.18128 94.2852 1.08589 94.3581 0.904907Z" fill="#C9CBD4"/>
<path d="M203.049 46.6894C199.436 46.6894 196.016 46.7233 192.599 46.6413C192.22 46.6322 191.657 46.0242 191.516 45.5862C190.52 42.4824 189.589 39.3571 188.691 36.2233C188.438 35.3373 188.119 34.8698 187.052 34.8937C183.516 34.9721 179.978 34.9554 176.441 34.9022C175.496 34.8878 175.125 35.2171 174.89 36.1145C173.968 39.6249 172.961 43.1129 171.987 46.6028C168.345 46.6028 164.831 46.6028 161.17 46.6028C162.733 41.5011 164.261 36.5215 165.782 31.539C168.747 21.8207 171.729 12.1072 174.644 2.37355C174.998 1.19032 175.477 0.746692 176.757 0.783606C180.237 0.883897 183.723 0.880305 187.203 0.785241C188.454 0.75094 188.977 1.14982 189.341 2.33598C193.546 16.0509 197.805 29.7492 202.05 43.4517C202.355 44.4337 202.657 45.4166 203.049 46.6894ZM186.677 26.9979C184.96 20.8998 183.288 14.9595 181.594 8.94401C180.018 14.9627 178.456 20.9311 176.868 26.9979C180.148 26.9979 183.341 26.9979 186.677 26.9979Z" fill="#C9CBD4"/>
<path d="M132.163 44.5226C132.868 41.6687 133.553 38.8917 134.196 36.2887C137.131 37.0815 139.911 38.0681 142.775 38.5271C144.819 38.8544 147.01 38.6806 149.074 38.35C151.128 38.0211 152.665 36.716 152.994 34.5017C153.327 32.2653 152.141 30.7061 150.295 29.7159C148.579 28.7953 146.708 28.1668 144.962 27.2978C142.491 26.0689 139.844 25.0382 137.674 23.3931C130.875 18.2387 131.182 8.45573 138.121 3.45396C141.421 1.07444 145.209 0.179656 149.18 0.0244841C153.517 -0.144735 157.724 0.555341 161.872 2.36971C161.097 5.17391 160.339 7.91899 159.684 10.2907C156.437 9.71539 153.382 8.97057 150.286 8.71054C148.697 8.57693 146.884 9.00291 145.438 9.7154C142.705 11.0623 142.442 14.4097 144.98 16.0885C147.083 17.4795 149.567 18.2829 151.825 19.4553C154.416 20.8009 157.259 21.8959 159.444 23.7482C166.445 29.6842 164.747 40.642 156.35 45.0332C150.131 48.2866 138.509 48.0837 132.163 44.5226Z" fill="#C9CBD4"/>
<path d="M216.518 46.6166C212.934 46.6166 209.579 46.6166 206.047 46.6166C206.047 34.3263 206.047 22.0595 206.047 9.61472C201.883 9.61472 197.891 9.61472 193.805 9.61472C193.805 6.63313 193.805 3.83025 193.805 0.921509C205.52 0.921509 217.195 0.921509 229 0.921509C229 3.74074 229 6.57858 229 9.58304C224.856 9.58304 220.747 9.58304 216.518 9.58304C216.518 21.9707 216.518 34.1946 216.518 46.6166Z" fill="#C9CBD4"/>
<path d="M221.428 64.1419C220.849 65.7322 220.368 67.0526 219.859 68.4498C218.888 68.1669 217.983 67.7364 217.052 67.6717C215.777 67.5828 214.395 67.5064 213.217 67.8997C211.151 68.5896 210.814 70.8806 212.476 72.304C213.291 73.0024 214.283 73.5012 215.216 74.055C218.17 75.8069 220.322 78.0437 219.684 81.8194C219.056 85.5423 216.585 87.5621 213.104 88.4657C209.684 89.3536 206.32 89.1285 203.042 87.7202C202.656 87.5543 202.078 87.6274 201.658 87.781C198.083 89.089 194.444 89.4996 190.788 88.303C187.837 87.337 185.846 85.2045 185.188 82.1984C183.866 76.1682 185.658 70.9897 190.15 66.819C194.234 63.0276 200.518 61.9029 205.72 63.9554C205.225 65.4542 204.727 66.966 204.288 68.2924C202.515 68.1604 200.884 67.7997 199.308 67.9644C193.762 68.5433 189.571 75.5096 191.466 80.7956C192.279 83.0611 194.508 84.3884 197.238 84.0673C198.726 83.8922 200.186 83.4773 201.809 83.1395C201.891 84.263 201.973 85.3832 202.056 86.5033C202.141 86.5341 202.227 86.5651 202.313 86.5961C202.771 85.4005 203.23 84.2052 203.736 82.8844C204.164 83.0592 204.532 83.2477 204.922 83.3617C206.222 83.7416 207.509 84.2414 208.839 84.4263C211.165 84.7497 212.938 83.7945 213.42 82.1889C213.878 80.663 213.062 79.2893 210.973 78.0525C210.085 77.5269 209.148 77.0623 208.331 76.4413C204.319 73.3902 204.298 68.0353 208.411 65.0837C212.446 62.1874 216.82 62.4177 221.428 64.1419Z" fill="#C9CBD4"/>
<path d="M126.813 84.6909C126.017 85.4262 125.3 86.2791 124.412 86.8783C118.889 90.6044 112.235 87.302 111.643 80.578C110.704 69.908 119.92 61.4555 130.719 63.0817C136.844 64.0043 136.808 63.9971 135.625 70.054C134.552 75.5491 133.572 81.0627 132.545 86.5669C132.445 87.1007 132.315 87.6296 132.179 88.1553C130.217 95.7113 126.428 99.8938 116.127 99.0023C114.282 98.8425 112.48 98.1937 110.511 97.7367C111.083 95.9331 111.536 94.5023 111.947 93.2073C114.152 93.581 116.251 94.1488 118.373 94.2514C122.387 94.4455 124.804 92.6693 126.086 88.8321C126.513 87.5552 126.709 86.2011 127.01 84.8819C127.065 84.8013 127.12 84.7202 127.174 84.6395C127.054 84.6565 126.933 84.6739 126.813 84.6909ZM117.923 78.6476C117.925 81.0477 118.828 82.8144 120.436 83.3616C122.569 84.0878 124.443 83.3364 125.648 81.6707C126.859 79.9945 127.843 78.0596 128.491 76.0946C129.198 73.9484 129.368 71.6296 129.845 69.4017C130.053 68.4324 129.77 68.0277 128.802 67.849C126.184 67.3658 123.84 67.8254 121.832 69.646C119.172 72.0572 118.086 75.1522 117.923 78.6476Z" fill="#C9CBD4"/>
<path d="M87.0376 78.4069C87.0981 71.2429 91.4034 65.181 97.6753 63.43C105.975 61.1123 112.202 66.1882 111.592 74.7746C111.065 82.2006 105.936 87.9554 98.9954 88.9086C91.9541 89.8759 86.9779 85.5053 87.0376 78.4069ZM93.2527 77.6072C93.2213 81.3045 94.415 83.4181 96.5299 84.1188C98.7523 84.8549 101.09 83.8912 102.82 81.4685C104.582 79.0018 105.399 76.2214 105.388 73.2026C105.378 70.5255 104.245 68.5641 102.37 67.8836C100.287 67.1274 97.9601 67.8533 96.2637 69.8744C94.2249 72.3039 93.371 75.1797 93.2527 77.6072Z" fill="#C9CBD4"/>
<path d="M73.3633 53.9956C75.4321 53.9956 77.272 53.9956 79.4091 53.9956C77.5663 63.7195 75.7431 73.3389 73.8866 83.134C78.4177 83.134 82.7955 83.134 87.3873 83.134C87.0504 84.9898 86.7473 86.6608 86.4337 88.3886C79.8867 88.3886 73.4378 88.3886 66.833 88.3886C69.0168 76.8869 71.1808 65.4904 73.3633 53.9956Z" fill="#C9CBD4"/>
<path d="M162.699 64.1791C162.137 65.7295 161.659 67.047 161.146 68.4629C160.282 68.2009 159.488 67.8177 158.665 67.7432C157.388 67.6279 156.014 67.4632 154.831 67.8173C154.009 68.063 153.015 69.0695 152.873 69.8734C152.732 70.6676 153.377 71.8172 154.019 72.478C154.789 73.2696 155.93 73.6943 156.894 74.3029C159.466 75.9248 161.386 77.9349 161.034 81.2964C160.671 84.7641 158.706 86.9861 155.522 88.1008C151.446 89.5274 147.442 89.2983 143.448 87.2377C143.977 85.7421 144.46 84.3734 144.953 82.9798C146.45 83.4436 147.851 84.0558 149.312 84.2753C150.499 84.4537 151.851 84.4217 152.963 84.0215C155.06 83.2672 155.471 80.775 153.83 79.2484C153.048 78.5209 152.062 77.9992 151.129 77.4514C148.393 75.8445 146.294 73.8178 146.699 70.3174C147.116 66.7076 149.38 64.592 152.696 63.5444C156.027 62.4908 159.317 62.7136 162.699 64.1791Z" fill="#C9CBD4"/>
<path d="M174.077 83.8768C173.994 84.7164 173.951 85.3664 173.863 86.0106C173.475 88.8465 173.47 88.8501 170.62 89.0014C170.077 89.0301 169.531 89.0354 168.988 89.0066C165.371 88.8149 163.304 86.6434 163.701 83.0389C164.063 79.7522 164.79 76.505 165.37 73.2428C165.662 71.5996 165.986 69.9616 166.329 68.1384C165.138 68.1384 164.125 68.1384 162.997 68.1384C163.303 66.5308 163.576 65.0994 163.839 63.7169C164.026 63.6404 164.124 63.5685 164.226 63.5636C167.285 63.4088 167.379 63.4222 167.779 60.372C167.999 58.6896 168.605 57.7543 170.388 57.5704C171.662 57.4391 172.905 57.002 174.39 56.6462C173.978 58.9764 173.596 61.1367 173.181 63.4803C175.043 63.4803 176.756 63.4803 178.741 63.4803C178.417 65.1369 178.133 66.5867 177.828 68.143C175.96 68.143 174.179 68.143 172.151 68.143C171.387 72.6528 170.556 77.0728 169.927 81.5215C169.69 83.1944 170.511 83.8311 172.269 83.8748C172.803 83.8879 173.336 83.8768 174.077 83.8768Z" fill="#C9CBD4"/>
<path d="M139.414 63.6215C141.527 63.6215 143.467 63.6215 145.48 63.6215C143.891 71.9377 142.321 80.154 140.744 88.4049C138.721 88.4049 136.833 88.4049 134.739 88.4049C136.304 80.1102 137.851 71.9096 139.414 63.6215Z" fill="#C9CBD4"/>
<path d="M181.573 88.3911C179.527 88.3911 177.641 88.3911 175.564 88.3911C177.132 80.0863 178.679 71.8893 180.241 63.6182C182.228 63.6182 184.165 63.6182 186.301 63.6182C184.716 71.922 183.145 80.1546 181.573 88.3911Z" fill="#C9CBD4"/>
<path d="M58.323 66.8095C60.6342 66.2437 62.9452 65.6775 65.4779 65.0575C65.4452 65.6899 65.474 66.1019 65.3959 66.4926C64.0386 73.3068 62.657 80.1164 61.3144 86.9335C61.1403 87.8168 60.974 88.447 59.8345 88.4137C56.7363 88.3235 53.6348 88.333 50.5347 88.3032C50.8519 88.1246 51.1694 87.9452 51.4869 87.7659C52.516 87.7655 53.5463 87.7335 54.5737 87.774C55.5743 87.8136 56.0451 87.463 56.0866 86.3843C56.132 85.2096 56.3701 84.0404 56.5511 82.8732C57.2509 78.3621 57.9967 73.8579 58.635 69.3379C58.75 68.5265 58.438 67.6539 58.323 66.8095Z" fill="#C9CBD4"/>
<path d="M29.8909 73.0214C32.6265 72.3896 35.3617 71.7581 38.0973 71.126C38.0366 72.6571 38.0895 74.2029 37.8938 75.7168C37.3577 79.8669 36.7171 84.0036 36.118 88.1456C33.6225 88.2165 31.1273 88.287 28.6318 88.3586C29.2401 84.5322 29.9101 80.7133 30.422 76.8732C30.5922 75.5969 31.4298 74.1089 29.8909 73.0214Z" fill="#C9CBD4"/>
<path d="M36.1182 88.1455C36.7173 84.0036 37.3579 79.8669 37.894 75.7167C38.0897 74.2029 38.0367 72.6571 38.0975 71.1259C40.1657 70.6859 42.2336 70.2455 44.3018 69.8052C44.1956 71.7714 44.2227 73.756 43.9555 75.7004C43.3835 79.8633 42.6596 84.0049 41.9977 88.1553C40.038 88.1524 38.0782 88.1488 36.1182 88.1455Z" fill="#C9CBD4"/>
<path d="M41.9976 88.1557C42.6594 84.0053 43.3833 79.8633 43.9553 75.7008C44.2226 73.7567 44.1951 71.7718 44.3016 69.8056C46.0301 69.456 47.7588 69.1065 49.4876 68.7576C50.4859 69.6063 50.1923 70.6712 50.0306 71.7447C49.1979 77.2698 48.3903 82.7988 47.574 88.3265C45.7148 88.2694 43.8564 88.2125 41.9976 88.1557Z" fill="#C9CBD4"/>
<path d="M29.8905 73.0214C31.4295 74.1085 30.5919 75.5969 30.4217 76.8732C29.9098 80.713 29.2398 84.5318 28.6315 88.3586C26.2281 88.2792 23.8248 88.2005 21.4214 88.1211C21.9699 85.4472 22.6196 82.7893 23.0316 80.0949C23.3197 78.2103 23.2821 76.276 23.3899 74.364C25.5568 73.9165 27.7237 73.4689 29.8905 73.0214Z" fill="#C9CBD4"/>
<path d="M58.3229 66.8096C58.4379 67.654 58.7499 68.5263 58.6352 69.3384C57.9969 73.858 57.2511 78.3625 56.5514 82.8736C56.3704 84.0408 56.1322 85.21 56.0868 86.3848C56.045 87.4634 55.5743 87.814 54.574 87.7745C53.5466 87.7339 52.5162 87.766 51.4872 87.7663C51.4963 87.2769 51.4486 86.779 51.5231 86.3001C52.2526 81.6107 53.0565 76.9323 53.7145 72.2331C53.9183 70.7767 53.7423 69.2675 53.7403 67.7821C55.2678 67.458 56.7954 67.1336 58.3229 66.8096Z" fill="#C9CBD4"/>
<path d="M23.3898 74.3639C23.282 76.2759 23.3192 78.2102 23.0314 80.0948C22.6198 82.7892 21.9697 85.4471 21.4212 88.121C19.3534 88.12 17.2858 88.1187 15.2183 88.117C15.5038 86.99 15.9206 85.8783 16.0493 84.734C16.3874 81.7269 16.6004 78.7061 16.8631 75.6905C19.0388 75.2482 21.2144 74.8062 23.3898 74.3639Z" fill="#C9CBD4"/>
<path d="M16.8633 75.6907C16.6006 78.7062 16.3876 81.727 16.0495 84.7341C15.9208 85.8784 15.5039 86.9901 15.2184 88.1172C13.7954 88.1139 12.3724 88.1096 10.9494 88.107C10.3036 88.1057 9.65772 88.1077 9.01221 88.1077C9.45322 84.4068 9.89424 80.7061 10.3349 77.0055C12.5113 76.5671 14.6873 76.1287 16.8633 75.6907Z" fill="#C9CBD4"/>
<path d="M53.7401 67.7821C53.7421 69.2672 53.9185 70.7768 53.7143 72.2331C53.056 76.9324 52.2524 81.6107 51.5229 86.3002C51.4485 86.7791 51.4962 87.2773 51.487 87.7663C51.1695 87.9456 50.8519 88.125 50.5344 88.3037C49.5475 88.3112 48.5606 88.3194 47.5737 88.3272C48.3901 82.7992 49.1977 77.2701 50.0304 71.7447C50.1921 70.6712 50.4857 69.6063 49.4874 68.7576C50.3659 68.5505 51.2446 68.3437 52.1234 68.1369C52.4543 68.0503 52.7849 67.9637 53.1155 67.8772C53.3236 67.8452 53.532 67.8138 53.7401 67.7821Z" fill="#C9CBD4"/>
<path d="M188.044 56.3535C188.049 58.4097 186.515 59.9542 184.436 59.9856C182.552 60.014 181.234 58.7314 181.212 56.8498C181.188 54.7274 182.815 53.075 184.897 53.107C186.745 53.1351 188.039 54.4702 188.044 56.3535Z" fill="#C9CBD4"/>
<path d="M147.214 56.3081C147.235 58.3874 145.745 59.928 143.657 59.9858C141.768 60.0381 140.436 58.7778 140.392 56.8961C140.343 54.7707 141.948 53.0975 144.027 53.107C145.885 53.1155 147.195 54.4313 147.214 56.3081Z" fill="#C9CBD4"/>
<path d="M226.085 86.7009C226.461 85.8019 226.781 85.0351 227.101 84.2684C227.311 84.2913 227.521 84.3142 227.731 84.3371C227.814 85.5484 227.897 86.7597 227.98 87.971C227.822 88.0043 227.664 88.0377 227.506 88.0706C227.379 87.4833 227.253 86.8956 227.087 86.1286C226.724 86.8495 226.425 87.4434 226.019 88.2483C225.65 87.5623 225.384 87.0668 225.023 86.3948C224.86 87.0462 224.733 87.5565 224.605 88.0667C224.445 88.0498 224.286 88.0328 224.127 88.0158C224.206 86.7979 224.286 85.58 224.365 84.3622C224.545 84.3269 224.725 84.2916 224.905 84.2563C225.278 85.0289 225.651 85.8015 226.085 86.7009Z" fill="#C9CBD4"/>
<path d="M53.1157 67.8768C52.7851 67.9634 52.4545 68.05 52.1235 68.1365C52.4541 68.05 52.7851 67.9634 53.1157 67.8768Z" fill="#C9CBD4"/>
<path d="M2.49854 21.9942C2.49854 19.7225 2.49854 17.4504 2.49854 15.0811C9.44991 15.0811 16.333 15.0811 23.1465 15.0811C22.666 17.3636 22.1773 19.6846 21.6889 22.0053C15.2922 22.0014 8.89554 21.9978 2.49854 21.9942Z" fill="#C9CBD4"/>
<path d="M67.5497 21.9877C67.0593 19.6643 66.5687 17.3407 66.0728 14.9912C72.6739 14.9912 79.3454 14.9912 86.1429 14.9912C86.1429 17.3701 86.1429 19.6843 86.1429 21.9981C79.9451 21.9949 73.7474 21.9913 67.5497 21.9877Z" fill="#C9CBD4"/>
<path d="M21.7563 26.34C22.2193 28.3948 22.6818 30.4499 23.1522 32.539C16.3511 32.539 9.47751 32.539 2.50098 32.539C2.50098 30.4202 2.50098 28.3742 2.50098 26.3279C8.91922 26.3318 15.3378 26.336 21.7563 26.34Z" fill="#C9CBD4"/>
<path d="M86.1485 26.3284C86.1485 28.3309 86.1485 30.3331 86.1485 32.4748C79.4908 32.4748 72.8044 32.4748 66.0908 32.4748C66.5547 30.4618 67.032 28.391 67.5092 26.3202C73.7223 26.3228 79.9354 26.3254 86.1485 26.3284Z" fill="#C9CBD4"/>
<path d="M21.7568 26.3401C15.3383 26.3361 8.91971 26.3319 2.50147 26.328C2.50049 24.8834 2.49952 23.4388 2.49854 21.9943C8.89521 21.9979 15.2922 22.0018 21.6889 22.0054C21.7114 23.4503 21.734 24.8952 21.7568 26.3401Z" fill="#C9CBD4"/>
<path d="M86.149 26.3282C79.9359 26.3255 73.7229 26.3226 67.5098 26.32C67.5232 24.8761 67.5362 23.4318 67.5496 21.9879C73.7474 21.9915 79.9451 21.9951 86.1428 21.9984C86.1451 23.4413 86.1471 24.8849 86.149 26.3282Z" fill="#C9CBD4"/>
<path d="M126.813 84.6908C126.933 84.6739 127.053 84.6565 127.174 84.6395C127.119 84.7202 127.064 84.8009 127.009 84.8819C126.943 84.8192 126.877 84.7559 126.813 84.6908Z" fill="#C9CBD4"/>
</svg>
