<svg width="189" height="76" viewBox="0 0 189 76" fill="none" xmlns="http://www.w3.org/2000/svg">
<path d="M83.8525 47.9193C82.1451 49.8213 80.4501 51.7091 78.718 53.6389C76.9154 52.0328 75.1351 50.4464 73.3394 48.8459C72.33 49.4117 71.3478 50.014 70.3224 50.5286C61.7045 54.8552 50.988 53.6074 43.7192 47.3022C39.0757 43.2746 36.5857 38.0739 36.047 31.9565C35.4738 25.4444 37.1497 19.5791 41.3471 14.5365C45.2821 9.80904 50.4006 7.16267 56.4883 6.44239C62.715 5.70544 68.5341 6.88223 73.6884 10.5713C79.2078 14.5217 82.2817 19.9713 83.0767 26.6836C83.7976 32.7651 82.3694 38.3303 78.8199 43.337C78.7927 43.3753 78.7816 43.4259 78.7297 43.5513C80.4106 44.9844 82.1118 46.4355 83.8525 47.9193ZM72.7031 38.3173C72.9255 37.8972 73.1176 37.5859 73.2634 37.2536C75.4459 32.2883 75.5311 27.2871 73.2653 22.3539C68.6261 12.254 55.0008 10.4453 47.9427 18.9793C45.1394 22.3687 44.109 26.3543 44.3462 30.7081C44.7984 39.0055 51.2537 45.9302 60.1879 45.6213C62.7447 45.533 65.1372 44.9029 67.4222 43.5872C64.7931 41.346 62.2122 39.1463 59.6208 36.9379C61.361 34.9568 63.0511 33.032 64.7579 31.0886C67.3993 33.4916 70.0074 35.8643 72.7031 38.3173Z" fill="#C9CBD4"/>
<path d="M145.218 32.2352C141.35 32.2006 137.546 31.7009 133.803 30.7168C133.283 30.5803 133.059 30.3845 133.003 29.802C131.653 15.6356 141.25 2.82198 155.304 0.444952C165.384 -1.25998 173.878 1.96767 180.724 9.56081C181.147 10.0297 180.915 10.3521 180.723 10.7333C176.043 19.9758 168.787 26.3137 159.079 29.8545C154.609 31.4847 149.969 32.1994 145.218 32.2352Z" fill="#C9CBD4"/>
<path d="M14.8206 14.4459C10.0023 14.4459 5.29148 14.4459 0.53125 14.4459C0.53125 11.97 0.53125 9.53922 0.53125 7.06335C12.7061 7.06335 24.8958 7.06335 37.1343 7.06335C37.1343 9.48918 37.1343 11.9187 37.1343 14.4175C32.3932 14.4175 27.6657 14.4175 22.8913 14.4175C22.8913 27.05 22.8913 39.6141 22.8913 52.2226C20.1874 52.2226 17.5318 52.2226 14.8206 52.2226C14.8206 39.669 14.8206 27.1038 14.8206 14.4459Z" fill="#C9CBD4"/>
<path d="M98.2092 45.0012C102.266 45.0012 106.217 45.0012 110.168 45.0012C114.09 45.0012 118.012 45.0012 121.96 45.0012C121.96 47.4499 121.96 49.8356 121.96 52.2441C111.403 52.2441 100.883 52.2441 90.3115 52.2441C90.3115 37.1851 90.3115 22.1322 90.3115 7.04846C92.9363 7.04846 95.5443 7.04846 98.2092 7.04846C98.2092 19.6872 98.2092 32.2994 98.2092 45.0012Z" fill="#C9CBD4"/>
<path d="M144.233 49.1511C165.541 46.7135 178.655 35.0174 183.804 14.316C188.298 21.4094 189.483 35.2688 179.909 45.5936C169.882 56.4057 154.057 56.6089 144.233 49.1511Z" fill="#C9CBD4"/>
<path d="M128.918 35.692C131.428 36.3004 133.884 37.0707 136.399 37.4772C149.965 39.672 162.038 36.516 172.148 26.9937C178.284 21.2142 181.942 14.0195 183.485 5.74251C183.52 5.55658 183.572 5.37314 183.769 5.21191C183.702 5.72031 183.648 6.23054 183.565 6.73584C183.477 7.27141 183.382 7.80697 183.255 8.3339C179.638 23.2947 170.595 33.3421 155.924 38.0782C147.561 40.7783 139.101 40.4775 130.703 37.985C130.484 37.9201 130.29 37.7484 130.109 37.5964C130 37.505 129.936 37.358 129.859 37.2313C129.538 36.7094 129.219 36.1849 128.918 35.692Z" fill="#C9CBD4"/>
<path d="M59.5661 74.3632C57.073 75.8951 54.203 75.1292 52.8743 73.3378C51.4942 71.4772 51.6394 68.7462 53.2294 67.0703C54.8244 65.3894 57.6888 65.1151 59.6137 66.4587C61.7282 67.9344 62.1383 70.3838 60.7447 73.2562C61.0573 73.5286 61.3724 73.8035 61.7319 74.1167C61.389 74.5145 61.0616 74.895 60.6984 75.317C60.3105 74.9902 59.959 74.6937 59.5661 74.3632ZM59.429 72.0992C60.2425 70.4845 59.8472 68.6492 58.5401 67.7145C57.325 66.846 55.6602 66.9801 54.6163 68.0308C53.4877 69.1668 53.353 71.0577 54.3062 72.3809C55.2087 73.6343 56.7863 73.987 58.3078 73.2334C57.7914 72.7867 57.2916 72.3549 56.7561 71.8923C57.1137 71.4833 57.4498 71.0991 57.813 70.684C58.3492 71.1535 58.8644 71.605 59.429 72.0992Z" fill="#C9CBD4"/>
<path d="M134.7 70.4838C134.67 73.2055 132.572 75.2082 129.779 75.1804C127.012 75.1532 125.005 73.0961 125.033 70.3164C125.06 67.6156 127.189 65.5833 129.962 65.6093C132.715 65.6352 134.729 67.7077 134.7 70.4838ZM126.792 70.3466C126.782 72.2208 128.083 73.6231 129.849 73.6397C131.631 73.6564 132.968 72.269 132.963 70.409C132.958 68.5793 131.589 67.1289 129.86 67.1215C128.155 67.1147 126.802 68.5373 126.792 70.3466Z" fill="#C9CBD4"/>
<path d="M16.2498 65.61C19.016 65.6137 21.0767 67.6664 21.0711 70.4135C21.0662 73.1284 18.9696 75.1805 16.2022 75.1805C13.4335 75.1811 11.3487 73.1105 11.3753 70.3869C11.4018 67.6615 13.499 65.6057 16.2498 65.61ZM19.3125 70.4376C19.318 68.5844 17.9955 67.1568 16.2411 67.1222C14.5306 67.0888 13.1123 68.5701 13.1123 70.39C13.1123 72.2104 14.4923 73.6411 16.2467 73.6398C17.9973 73.6386 19.3069 72.2716 19.3125 70.4376Z" fill="#C9CBD4"/>
<path d="M144.546 66.9096C144.222 67.3006 143.896 67.6935 143.537 68.1265C142.571 67.384 141.54 66.9498 140.317 67.2265C138.879 67.552 137.847 69.0395 137.963 70.6407C138.086 72.3326 139.214 73.5378 140.774 73.6373C140.969 73.6497 141.167 73.649 141.363 73.6379C143.094 73.5434 143.461 73.0807 143.188 71.2732C142.832 71.2732 142.467 71.2732 142.102 71.2732C141.735 71.2732 141.368 71.2732 140.961 71.2732C140.961 70.7889 140.961 70.3559 140.961 69.8766C142.259 69.8766 143.555 69.8766 144.904 69.8766C144.904 71.0824 144.911 72.2641 144.896 73.4452C144.894 73.5965 144.825 73.7979 144.714 73.89C142.306 75.9056 137.821 75.7437 136.525 72.2159C135.728 70.0489 136.484 67.6107 138.336 66.3876C140.184 65.167 142.928 65.3838 144.546 66.9096Z" fill="#C9CBD4"/>
<path d="M81.9517 74.9804C81.9332 74.9927 81.9159 75.0149 81.8967 75.0162C80.3228 75.1255 80.2783 75.1422 79.7353 73.6794C79.4789 72.9876 79.1423 72.7324 78.4022 72.7917C77.4707 72.8665 76.5281 72.8306 75.5922 72.8004C75.1876 72.7874 74.9331 72.8937 74.8169 73.2927C74.7694 73.457 74.6866 73.6108 74.6205 73.7696C74.046 75.1403 74.046 75.1403 72.3911 74.9766C72.9378 73.7257 73.4758 72.4971 74.012 71.2678C74.7576 69.5567 75.489 67.8388 76.2649 66.1412C76.3539 65.9467 76.6985 65.7409 76.9086 65.7558C77.3237 65.786 77.8735 65.4364 78.144 66.0572C79.4203 68.9853 80.6934 71.9146 81.9653 74.8451C81.9807 74.8821 81.9573 74.9353 81.9517 74.9804ZM77.1816 67.7251C76.6504 68.9878 76.1784 70.1083 75.6954 71.2573C76.7801 71.2573 77.6999 71.2573 78.7037 71.2573C78.1941 70.0737 77.719 68.9711 77.1816 67.7251Z" fill="#C9CBD4"/>
<path d="M69.6445 65.7916C70.2585 65.7916 70.7688 65.7916 71.2265 65.7916C71.2265 67.9178 71.3327 70.0156 71.1937 72.0967C71.0776 73.8288 69.8045 74.9272 68.0748 75.1193C66.5323 75.2904 65.085 75.1026 64.1189 73.7152C63.8069 73.2673 63.5296 72.6885 63.5123 72.1604C63.4437 70.0483 63.4838 67.9332 63.4838 65.7872C63.949 65.7872 64.4605 65.7872 65.0652 65.7872C65.0652 67.0134 65.0603 68.2396 65.0671 69.4658C65.0708 70.1812 65.0449 70.902 65.1184 71.6112C65.2568 72.9356 66.0759 73.6232 67.4083 73.6145C68.6901 73.6065 69.5247 72.9152 69.5889 71.6001C69.676 69.8259 69.6321 68.0456 69.6439 66.2684C69.6457 66.1245 69.6445 65.9806 69.6445 65.7916Z" fill="#C9CBD4"/>
<path d="M38.6793 75.0321C38.1437 75.0321 37.6779 75.0753 37.2276 75.0104C37.0497 74.9851 36.8014 74.743 36.7631 74.562C36.4388 73.035 35.5171 72.4889 34.0247 72.8076C33.9777 72.8175 33.9246 72.8169 33.877 72.8076C32.3228 72.5136 31.2288 72.9479 30.886 74.646C30.8551 74.798 30.6092 74.995 30.4443 75.0148C30.015 75.0667 29.5752 75.0321 29.0371 75.0321C29.3855 74.2216 29.6888 73.5063 29.9989 72.7941C30.9403 70.6314 31.9089 68.4792 32.8108 66.2999C33.0326 65.7637 33.3532 65.6963 33.8283 65.7254C34.2804 65.7526 34.6665 65.6685 34.9216 66.2844C36.0496 69.0086 37.2628 71.697 38.4433 74.3995C38.5193 74.575 38.5773 74.7572 38.6793 75.0321ZM32.3203 71.288C33.3853 71.288 34.3354 71.288 35.3868 71.288C34.8716 70.1032 34.3867 68.987 33.8406 67.7318C33.2957 69.0074 32.825 70.1088 32.3203 71.288Z" fill="#C9CBD4"/>
<path d="M157.438 66.8121C157.108 67.2723 156.837 67.6497 156.607 67.9709C155.893 67.6886 155.254 67.3483 154.573 67.1975C154.126 67.0981 153.58 67.179 153.151 67.3557C152.881 67.4669 152.6 67.8993 152.591 68.1952C152.582 68.4904 152.837 68.9092 153.1 69.0711C153.529 69.3349 154.057 69.4405 154.548 69.5993C155.063 69.7661 155.6 69.876 156.097 70.0823C157.262 70.5654 157.733 71.3351 157.683 72.5582C157.637 73.6701 156.985 74.593 155.875 74.9223C153.902 75.5066 152.139 75.0235 150.484 73.6862C150.826 73.2822 151.149 72.8998 151.349 72.6638C152.337 73.0215 153.212 73.3754 154.112 73.6442C154.42 73.7362 154.857 73.7232 155.116 73.5651C155.476 73.3452 155.854 72.9887 155.991 72.607C156.178 72.0856 155.756 71.7193 155.285 71.5575C154.449 71.2696 153.582 71.0701 152.748 70.7767C151.914 70.4832 151.184 70.0459 150.966 69.0773C150.604 67.4625 151.454 66.106 153.079 65.757C154.668 65.4154 156.088 65.7934 157.438 66.8121Z" fill="#C9CBD4"/>
<path d="M188.083 66.8237C187.776 67.2537 187.505 67.633 187.253 67.9857C186.615 67.7201 186.015 67.452 185.4 67.224C185.176 67.1407 184.917 67.1277 184.673 67.1264C183.875 67.1233 183.261 67.5162 183.204 68.0932C183.128 68.8437 183.66 69.1266 184.253 69.3126C184.981 69.5411 185.733 69.6993 186.45 69.9575C187.865 70.4671 188.429 71.285 188.349 72.6008C188.274 73.8412 187.428 74.8141 186.07 75.0593C184.248 75.388 182.607 74.95 181.157 73.6707C181.488 73.2778 181.8 72.9072 182.008 72.6601C182.977 73.0134 183.847 73.3674 184.743 73.6386C185.051 73.7319 185.436 73.6707 185.762 73.5885C186.273 73.4606 186.737 73.1265 186.653 72.5742C186.597 72.2085 186.275 71.7415 185.947 71.5889C185.241 71.2609 184.449 71.1225 183.701 70.8792C182.036 70.3368 181.39 69.4843 181.542 68.0697C181.684 66.7564 182.673 65.8311 184.227 65.6655C185.628 65.5154 186.91 65.87 188.083 66.8237Z" fill="#C9CBD4"/>
<path d="M179.057 72.5008C179.407 72.8468 179.754 73.1896 180.1 73.5306C178.366 75.5827 175.095 75.773 173.138 73.9482C171.208 72.1469 171.161 68.8068 173.04 66.9549C174.922 65.0992 178.261 65.1529 180.047 67.1013C179.718 67.4836 179.385 67.8703 179.022 68.291C178.149 67.5639 177.217 66.9172 176.073 67.21C175.396 67.3829 174.659 67.7369 174.194 68.2373C173.035 69.4814 173.158 71.5545 174.318 72.7529C175.534 74.01 177.18 73.9173 179.057 72.5008Z" fill="#C9CBD4"/>
<path d="M108.851 74.9915C108.284 74.9915 107.775 74.9915 107.159 74.9915C107.159 74.0118 107.192 73.032 107.143 72.0566C107.124 71.6637 107.003 71.2307 106.796 70.9002C105.734 69.2132 104.629 67.554 103.456 65.7582C104.129 65.7582 104.703 65.7268 105.27 65.7786C105.432 65.7935 105.606 66.0288 105.716 66.2005C106.373 67.2142 107.011 68.2397 107.659 69.2589C107.76 69.4183 107.88 69.5659 108.023 69.7624C108.748 68.6338 109.467 67.5774 110.115 66.4797C110.438 65.9337 110.797 65.6372 111.455 65.749C111.758 65.8002 112.077 65.7576 112.515 65.7576C111.616 67.1222 110.842 68.4355 109.929 69.6438C109.099 70.7421 108.668 71.8843 108.84 73.2636C108.91 73.8171 108.851 74.3873 108.851 74.9915Z" fill="#C9CBD4"/>
<path d="M7.75471 75.0105C7.13328 75.0105 6.64341 75.0105 6.06583 75.0105C6.06583 72.4778 6.06583 69.9507 6.06583 67.355C5.05399 67.355 4.12801 67.355 3.16064 67.355C3.16064 66.8021 3.16064 66.3178 3.16064 65.7939C5.61674 65.7939 8.0753 65.7939 10.5913 65.7939C10.5913 66.2572 10.5913 66.7348 10.5913 67.2815C9.6814 67.2815 8.7542 67.2815 7.75471 67.2815C7.75471 69.8784 7.75471 72.4104 7.75471 75.0105Z" fill="#C9CBD4"/>
<path d="M98.1886 67.3222C97.144 67.3222 96.2347 67.3222 95.2778 67.3222C95.2778 66.8033 95.2778 66.3246 95.2778 65.8014C97.7345 65.8014 100.214 65.8014 102.732 65.8014C102.732 66.2875 102.732 66.7657 102.732 67.2944C101.776 67.2944 100.843 67.2944 99.8527 67.2944C99.8527 69.8784 99.8527 72.4129 99.8527 74.9895C99.2875 74.9895 98.7797 74.9895 98.1886 74.9895C98.1886 72.4611 98.1886 69.9352 98.1886 67.3222Z" fill="#C9CBD4"/>
<path d="M161.63 67.3241C160.623 67.3241 159.692 67.3241 158.728 67.3241C158.728 66.7848 158.728 66.3048 158.728 65.7909C161.202 65.7909 163.663 65.7909 166.179 65.7909C166.179 66.2567 166.179 66.7354 166.179 67.292C165.254 67.292 164.304 67.292 163.294 67.292C163.294 69.8994 163.294 72.4321 163.294 74.9982C162.724 74.9982 162.216 74.9982 161.63 74.9982C161.63 72.4414 161.63 69.9124 161.63 67.3241Z" fill="#C9CBD4"/>
<path d="M26.4619 75.0075C25.8572 75.0075 25.3697 75.0075 24.7983 75.0075C24.7983 72.4674 24.7983 69.9421 24.7983 67.3322C23.7686 67.3322 22.8198 67.3322 21.853 67.3322C21.853 66.7812 21.853 66.3167 21.853 65.8046C24.3307 65.8046 26.8097 65.8046 29.3319 65.8046C29.3319 66.2808 29.3319 66.7596 29.3319 67.2914C28.3874 67.2914 27.4552 67.2914 26.4625 67.2914C26.4619 69.8748 26.4619 72.4075 26.4619 75.0075Z" fill="#C9CBD4"/>
<path d="M83.6323 65.7717C84.1623 65.7717 84.6534 65.7717 85.2038 65.7717C85.2038 68.3236 85.2038 70.8594 85.2038 73.4551C86.8334 73.4551 88.4062 73.4551 90.0259 73.4551C90.0259 73.9937 90.0259 74.4731 90.0259 74.9969C87.9101 74.9969 85.7987 74.9969 83.6323 74.9969C83.6323 71.9429 83.6323 68.8944 83.6323 65.7717Z" fill="#C9CBD4"/>
<path d="M117.837 65.7773C118.382 65.7773 118.895 65.7773 119.459 65.7773C119.459 68.3304 119.459 70.8637 119.459 73.4557C121.079 73.4557 122.65 73.4557 124.271 73.4557C124.271 73.9894 124.271 74.4657 124.271 74.9914C122.148 74.9914 120.018 74.9914 117.836 74.9914C117.837 71.9398 117.837 68.8975 117.837 65.7773Z" fill="#C9CBD4"/>
<path d="M46.7201 73.4805C46.7201 74.0414 46.7201 74.5034 46.7201 74.9896C44.5586 74.9896 42.4237 74.9896 40.2642 74.9896C40.2642 71.9151 40.2642 68.8864 40.2642 65.807C40.7763 65.807 41.2815 65.807 41.8622 65.807C41.8622 68.3335 41.8622 70.8823 41.8622 73.4805C43.5091 73.4805 45.0818 73.4805 46.7201 73.4805Z" fill="#C9CBD4"/>
<path d="M147.097 65.7822C147.643 65.7822 148.155 65.7822 148.705 65.7822C148.705 68.8579 148.705 71.9064 148.705 74.9963C148.17 74.9963 147.661 74.9963 147.097 74.9963C147.097 71.9453 147.097 68.8974 147.097 65.7822Z" fill="#C9CBD4"/>
<path d="M93.4362 74.992C92.879 74.992 92.3719 74.992 91.8486 74.992C91.8486 71.9089 91.8486 68.8641 91.8486 65.7891C92.383 65.7891 92.8889 65.7891 93.4362 65.7891C93.4362 68.8437 93.4362 71.8861 93.4362 74.992Z" fill="#C9CBD4"/>
<path d="M169.627 74.9919C169.075 74.9919 168.567 74.9919 168.038 74.9919C168.038 71.9094 168.038 68.8646 168.038 65.7896C168.574 65.7896 169.08 65.7896 169.627 65.7896C169.627 68.8424 169.627 71.8872 169.627 74.9919Z" fill="#C9CBD4"/>
<path d="M183.761 3.84677C183.869 2.83308 183.977 1.81936 184.085 0.805664C184.13 0.808753 184.174 0.812491 184.218 0.81558C184.15 1.83298 184.081 2.85037 184.012 3.86777C183.928 3.86036 183.844 3.85357 183.761 3.84677Z" fill="#C9CBD4"/>
</svg>
