<svg width="187" height="114" viewBox="0 0 187 114" fill="none" xmlns="http://www.w3.org/2000/svg">
<path d="M52.3074 0.412899C47.4884 0.71722 43.1093 2.19582 39.1602 4.8454C34.715 7.82576 31.2653 12.1293 29.3139 17.1307C28.9931 17.9477 28.4507 19.6116 28.4903 19.6513C28.497 19.6612 28.6723 19.5057 28.8806 19.3073C29.4264 18.7846 30.2201 18.0635 30.6931 17.66C36.2827 12.8669 43.1424 9.77077 51.1828 8.41787C57.4868 7.35936 64.4656 7.40898 71.1764 8.56672C71.7949 8.67257 73.0253 8.91073 73.227 8.96697C73.3296 8.99343 72.9194 8.54356 72.248 7.8853C68.4478 4.17722 63.6652 1.70626 58.5088 0.786684C57.7382 0.651062 56.8154 0.528673 55.9886 0.4559C55.2742 0.396358 53.0052 0.366589 52.3074 0.412899Z" fill="#C9CBD4"/>
<path d="M80.3551 1.06787C82.161 2.15945 83.3318 2.99303 84.84 4.25001C90.7934 9.225 94.5904 15.404 95.7712 22.0396C96.092 23.8456 96.2011 25.2812 96.1714 27.2296C96.1515 28.5163 96.1284 28.8901 95.9994 29.9982C95.3908 35.1419 93.2641 40.0309 89.7251 44.4105C88.0615 46.4713 85.9083 48.5684 83.7717 50.2157C82.7232 51.0262 81.5987 51.8035 80.7024 52.3394L80.2559 52.6073H80.9207C81.7244 52.6073 82.667 52.561 83.7122 52.475C89.2455 52.0119 93.8991 50.3977 97.5704 47.6687C102.151 44.2649 105.23 39.1345 106.55 32.6941C107.301 29.0389 107.37 25.5393 106.762 21.9337C105.614 15.0964 102.472 9.57232 97.6994 6.00978C94.2431 3.42636 89.95 1.8386 84.8532 1.25311C83.56 1.10426 81.9493 1.00502 80.8512 1.00502C80.2625 1.00502 80.2559 1.00833 80.3551 1.06787Z" fill="#C9CBD4"/>
<path d="M105.809 3.26764C105.816 3.27426 106.027 3.39996 106.279 3.54881C107.585 4.32615 109.173 5.50043 110.645 6.78387C111.342 7.38921 112.927 8.95713 113.499 9.60546C115.728 12.1293 117.329 14.6367 118.496 17.445C120.497 22.248 120.891 27.6696 119.614 32.757C118.301 37.99 115.192 42.8393 110.549 46.908C109.206 48.0822 107.479 49.3558 106.186 50.1232L105.792 50.358H106.186C106.742 50.358 108.018 50.3018 108.782 50.2423C116.72 49.6237 122.707 46.3952 126.385 40.7488C128.478 37.5402 129.818 33.5476 130.245 29.254C130.423 27.4678 130.423 26.0156 130.245 24.2261C129.795 19.6712 128.29 15.4504 125.958 12.179C123.55 8.80166 120.365 6.41671 116.251 4.91164C114.064 4.11445 111.471 3.58189 108.716 3.37019C107.747 3.29741 105.763 3.22464 105.809 3.26764Z" fill="#C9CBD4"/>
<path d="M130.731 5.60622C133.016 6.96244 135.57 9.11914 137.511 11.3255C140.885 15.1626 142.909 19.5521 143.441 24.1764C143.554 25.1522 143.587 25.7344 143.587 26.8062C143.584 29.2639 143.236 31.4471 142.485 33.7195C141.47 36.7991 139.899 39.5049 137.557 42.2207C137.018 42.8492 135.394 44.4766 134.763 45.0224C133.314 46.2794 131.869 47.3445 130.579 48.102L130.331 48.2476L131.174 48.2244C136.32 48.0987 140.557 46.9244 143.941 44.685C145.962 43.3487 147.605 41.708 148.968 39.6736C151.052 36.5643 152.342 32.6048 152.659 28.3443C152.725 27.438 152.709 25.5359 152.626 24.6726C152.014 18.3612 149.415 13.1448 145.231 9.83033C142.274 7.49169 138.457 6.04617 134.002 5.57314C132.937 5.46068 131.468 5.37467 130.582 5.37136H130.334L130.731 5.60622Z" fill="#C9CBD4"/>
<path d="M70.3329 10.1215C60.5131 10.2902 52.3569 12.5627 45.7089 16.9853C41.7498 19.6183 38.4126 22.9658 35.6575 27.0709C33.9641 29.5914 32.6642 32.0425 31.1825 35.5224C30.9278 36.1211 30.5772 36.9415 30.4086 37.3384L30.0977 38.0628L30.4383 38.7277C32.8362 43.3785 36.5505 47.1958 41.1479 49.7395C41.5514 49.9644 42.6462 50.5234 42.6792 50.5234C42.6859 50.5234 42.6825 49.9843 42.6726 49.3227C42.6032 44.0235 43.4366 38.9758 45.1367 34.4705C45.6262 33.1639 46.0562 32.1881 46.7044 30.908C49.7572 24.8645 54.5563 19.7275 60.9067 15.7084C64.0884 13.694 67.8259 11.9243 71.3417 10.7698C72.0826 10.5251 72.9888 10.2571 73.2038 10.2174C73.4882 10.1645 73.3328 10.1347 72.7573 10.1347C72.4232 10.1347 71.8775 10.1281 71.5401 10.1215C71.2028 10.1182 70.6604 10.1149 70.3329 10.1215Z" fill="#C9CBD4"/>
<path d="M74.5665 12.1161C70.5116 13.7436 67.0619 15.7581 64.1645 18.186C62.6762 19.4331 61.1812 20.9514 60.0104 22.4068C56.6632 26.5648 54.5068 31.6026 53.6336 37.3086C53.3194 39.3628 53.2036 40.977 53.2036 43.2793C53.2036 45.2011 53.2665 46.3423 53.4682 48.1583C53.6336 49.6766 53.9313 51.4728 54.2256 52.7595L54.2785 52.9944L54.6159 52.9812C56.5905 52.9117 58.4492 52.657 60.2287 52.2104C70.0187 49.7626 77.5697 41.8867 79.6071 31.9995C80.133 29.4459 80.2719 26.6243 80.004 23.9979C79.617 20.174 78.423 16.5619 76.4584 13.2441C76.121 12.6751 75.5191 11.7556 75.486 11.7556C75.4728 11.7556 75.0593 11.9177 74.5665 12.1161Z" fill="#C9CBD4"/>
<path d="M64.5949 65.2631C64.4758 65.2698 63.3149 65.2896 62.0151 65.3095C59.6205 65.3425 58.873 65.369 57.6492 65.4583C51.5404 65.9115 47.2043 67.4165 44.6509 69.9735C41.9587 72.6694 40.5166 77.264 40.2156 84.098C40.1726 85.0606 40.1958 90.3696 40.252 92.8307C40.3545 97.3492 40.8837 101.084 41.9223 104.64C42.1472 105.414 42.5507 106.601 42.7491 107.091C44.2606 110.799 47.8856 113.022 53.6208 113.773C54.0375 113.826 54.5435 113.842 57.0109 113.885C58.6084 113.912 60.3481 113.951 60.874 113.968C62.1242 114.011 66.3115 114.011 67.178 113.968C68.5176 113.902 69.7049 113.789 70.9949 113.601C72.9297 113.323 74.3354 112.893 75.8271 112.119C79.0617 110.442 80.9536 108.361 81.6118 105.761C81.7805 105.106 82.055 103.29 82.1873 101.977C82.3593 100.283 82.4221 98.9435 82.4221 96.9886V95.4769H76.052H69.6818L69.7049 95.7482C69.9133 98.6028 69.361 100.631 68.1174 101.587C67.4724 102.083 66.0965 102.549 64.628 102.771C62.9379 103.025 60.712 103.045 58.9788 102.82C56.8092 102.536 55.4167 101.878 54.6891 100.786C54.0309 99.797 53.634 98.325 53.4256 96.1021C53.3462 95.2355 53.3231 87.6771 53.3959 86.3142C53.4223 85.7949 53.4554 85.1333 53.4653 84.8422C53.4885 84.2237 53.5645 82.9237 53.6141 82.2621C53.7894 79.9963 54.1367 78.9708 55.0496 78.0182C56.1973 76.824 57.7485 76.4503 61.8166 76.4006C64.5585 76.3643 66.0502 76.576 67.1979 77.1647C67.9057 77.5253 68.3753 78.0049 68.7292 78.7227C69.2154 79.7052 69.4437 80.9225 69.49 82.7815C69.49 82.798 72.4005 82.8079 75.956 82.8079H82.4221V81.6237C82.4221 80.0624 82.3428 78.0314 82.2369 77.0027C82.1344 75.9706 81.9392 74.7831 81.7573 74.0587C81.2777 72.1368 80.1631 70.1621 78.7839 68.7827C77.6726 67.6679 76.4455 66.9468 74.8646 66.4705C72.9893 65.9049 71.1073 65.5575 68.9112 65.3723C68.296 65.3227 65.091 65.24 64.5949 65.2631Z" fill="#C9CBD4"/>
<path d="M156.509 65.4119C152.612 65.5707 148.878 66.2786 145.478 67.5091C145.062 67.6613 144.536 67.8597 144.314 67.9524C141.85 68.9679 140.001 70.6945 138.731 73.1589C137.898 74.7764 137.319 76.6917 137.014 78.8385C136.77 80.5519 136.604 82.3514 136.492 84.4618C136.432 85.5964 136.432 95.457 136.492 96.8C136.551 98.1463 136.591 98.8211 136.651 99.4463C136.886 101.973 137.643 104.696 138.632 106.578C139.796 108.794 141.407 110.389 143.484 111.388C145.015 112.119 147.407 112.876 149.48 113.286C151.104 113.607 152.282 113.746 154.293 113.852C157.613 114.027 160.395 114.037 162.958 113.885C170.923 113.405 175.857 111.401 177.872 107.825C178.1 107.422 178.285 106.988 178.603 106.145C179.889 102.688 180.693 98.1199 181 92.5164C181.172 89.321 181.192 85.6295 181.05 83.3206C180.653 77.0291 179.271 72.7421 176.813 70.1884C175.467 68.7925 173.337 67.6083 170.764 66.8277C168.386 66.1066 165.588 65.6633 162.198 65.4748C160.63 65.3888 157.871 65.3557 156.509 65.4119ZM160.891 76.4237C162.995 76.5163 164.483 76.8802 165.538 77.5649C165.899 77.7998 166.441 78.3588 166.646 78.7061C167.341 79.897 167.741 81.5112 167.923 83.8498C167.976 84.5809 168.002 88.7355 167.953 89.407C167.933 89.7146 167.9 91.0642 167.883 92.4006C167.867 93.737 167.847 94.8848 167.837 94.9476C167.83 95.0105 167.807 95.2553 167.787 95.4934C167.569 98.1695 166.917 100.148 165.935 101.13C164.807 102.258 162.624 102.87 159.188 103.019C155.781 103.168 153.37 102.781 151.961 101.861C151.65 101.656 151.194 101.226 151.018 100.968C150.39 100.045 149.93 98.0967 149.705 95.3942C149.652 94.7889 149.646 94.2497 149.646 91.1436C149.646 87.5778 149.659 87.0022 149.781 85.1895C150.01 81.7394 150.469 79.4769 151.137 78.4713C151.964 77.2275 154.468 76.5428 158.642 76.427C159.932 76.3907 160.068 76.3907 160.891 76.4237Z" fill="#C9CBD4"/>
<path d="M0 89.6221V113.637H17.5957H35.1914V108.344V103.052H24.0452H12.8991V98.4044V93.7569H23.1192H33.3392V89.2913V84.8257H23.1192H12.8991V80.509V76.1923H23.8303H34.7614V70.8997V65.6072H17.3807H0V89.6221Z" fill="#C9CBD4"/>
<path d="M87.6807 89.6221V113.637H94.1302H100.58V104.21V94.7823H108.931H117.282V104.21V113.637H123.732H130.182V89.6221V65.6072H123.732H117.282V74.6707V83.7341H108.931H100.58V74.6707V65.6072H94.1302H87.6807V89.6221Z" fill="#C9CBD4"/>
<path d="M184.332 107.885C183.482 108.014 182.774 108.596 182.48 109.409C182.4 109.628 182.39 109.694 182.394 110.114C182.394 110.531 182.404 110.604 182.483 110.848C182.698 111.497 183.24 112.039 183.889 112.267C184.924 112.628 186.062 112.254 186.64 111.368C187.07 110.709 187.12 109.833 186.763 109.105C186.571 108.708 186.177 108.315 185.78 108.119C185.337 107.901 184.792 107.815 184.332 107.885ZM185.063 108.361C186.161 108.592 186.743 109.876 186.237 110.951C186.111 111.222 185.777 111.576 185.522 111.712C184.871 112.059 184.064 111.96 183.531 111.467C183.141 111.103 182.959 110.686 182.956 110.147C182.956 109.605 183.121 109.185 183.485 108.817C183.902 108.401 184.474 108.235 185.063 108.361Z" fill="#C9CBD4"/>
<path d="M184.176 108.993C184.123 108.999 184.014 109.016 183.938 109.026L183.796 109.042V110.167V111.288H184.06H184.325V110.839V110.389L184.573 110.402C184.897 110.418 184.99 110.498 185.073 110.839C185.102 110.968 185.149 111.123 185.172 111.179L185.215 111.288H185.496H185.78L185.744 111.199C185.724 111.15 185.688 111.007 185.665 110.885C185.582 110.504 185.499 110.346 185.307 110.23L185.215 110.17L185.364 110.098C185.641 109.965 185.747 109.684 185.635 109.39C185.519 109.089 185.324 109.003 184.705 108.989C184.471 108.983 184.232 108.986 184.176 108.993ZM184.97 109.433C185.036 109.469 185.079 109.529 185.099 109.611C185.162 109.863 185.006 109.992 184.603 110.022L184.358 110.041V109.707V109.373L184.451 109.36C184.6 109.334 184.864 109.37 184.97 109.433Z" fill="#C9CBD4"/>
</svg>
