<svg width="253" height="40" viewBox="0 0 253 40" fill="none" xmlns="http://www.w3.org/2000/svg">
<path d="M57.4162 17.3863C57.4162 16.8532 57.4162 16.3201 57.4162 15.787C57.4164 14.9225 57.4164 14.0579 57.4165 13.1934C57.4165 13.0596 57.4165 12.9258 57.4165 12.7919C57.4098 12.1941 57.4032 11.5965 57.3966 10.9987C57.3778 10.9713 57.3471 10.9459 57.3418 10.9161C56.7492 7.5595 54.4823 7.82916 52.5865 9.34732C42.882 17.1186 33.1785 24.891 23.4756 32.6642C20.6478 34.9297 17.8293 37.2069 14.9871 39.4542C14.6985 39.6824 14.2758 39.8573 13.914 39.8595C9.36805 39.8866 4.82196 39.8772 0 39.8772C1.51645 38.6658 2.84432 37.6016 4.17577 36.5419C17.3083 26.087 30.4412 15.6325 43.5749 5.17902C45.5255 3.62647 47.4776 2.0761 49.4356 0.533038C49.6085 0.396734 49.8305 0.32298 50.0299 0.220285C50.2754 0.284547 50.5206 0.404046 50.7663 0.404668C54.6449 0.416493 58.5235 0.417425 62.4019 0.40311C62.6751 0.402021 62.948 0.261679 63.2209 0.186059C63.6092 0.185592 63.9974 0.185281 64.3856 0.184814C64.8799 0.30727 65.3741 0.42957 66.0002 0.584701C66.0002 0.925615 66.0002 1.31398 66.0002 1.70251C66.0002 13.2674 65.9985 24.8324 66.0074 36.3973C66.0077 36.779 66.1168 37.1605 66.1751 37.5422C65.7432 39.1702 64.7869 39.8852 62.9586 39.8906C59.2328 39.9017 55.507 39.8939 51.7813 39.8939C48.2251 39.8939 44.6691 39.8939 40.8837 39.8939C42.3258 38.7275 43.62 37.6716 44.9241 36.6281C47.1306 34.8622 49.3353 33.0938 51.563 31.355C51.8499 31.131 52.2616 30.9937 52.6285 30.9609C53.3215 30.8988 54.0298 30.884 54.7214 30.9537C56.0299 31.0855 56.893 30.5514 57.3893 29.3623C57.3983 29.0309 57.4075 28.6994 57.4165 28.368C57.4167 27.9015 57.4167 27.4351 57.4169 26.9686C57.4169 26.5033 57.417 26.0381 57.417 25.5729C57.417 23.3092 57.417 21.0456 57.417 18.7821C57.4162 18.3167 57.4162 17.8515 57.4162 17.3863Z" fill="#C9CBD4"/>
<path d="M147.264 10.7944C147.264 9.19832 147.264 7.60204 147.264 6.00592C147.264 5.67201 147.264 5.3381 147.264 5.00419C147.264 4.80564 147.264 4.6071 147.264 4.40871C147.264 3.87501 147.264 3.34147 147.264 2.80777C147.265 2.20919 147.267 1.6106 147.268 1.01186C147.467 0.359911 147.89 0.192955 148.572 0.196222C154.945 0.22703 161.318 0.217847 167.69 0.206488C168.069 0.205866 168.448 0.0882413 168.827 0.0250687C172.745 -0.161026 174.889 1.55973 175.313 5.42072C175.474 6.89345 175.363 8.40601 175.272 9.89398C175.15 11.8844 174.05 13.1337 172.13 13.666C172.003 13.7011 171.884 13.7631 171.764 13.8185C171.737 13.8309 171.721 13.8686 171.656 13.951C171.749 14.0159 171.83 14.1108 171.928 14.1354C174.111 14.6816 175.037 15.7269 175.23 17.9287C175.285 18.5569 175.272 19.1916 175.276 19.8234C175.283 20.8188 175.278 21.8143 175.278 22.8749C172.974 22.8749 170.727 22.8749 168.32 22.8749C168.32 21.9746 168.38 21.0513 168.302 20.1396C168.238 19.3941 168.154 18.5843 167.807 17.9521C167.564 17.5102 166.867 17.0667 166.365 17.0578C162.35 16.9861 158.334 17.0177 154.219 17.0177C154.219 18.9586 154.219 20.8714 154.219 22.9397C152.546 22.9397 150.966 22.9564 149.388 22.9321C148.683 22.9212 147.979 22.8282 147.275 22.7725C147.271 21.6417 147.268 20.5112 147.264 19.3805C147.264 17.1853 147.264 14.9901 147.264 12.7949C147.264 12.1279 147.264 11.4612 147.264 10.7944ZM166.565 11.3342C167.12 11.0088 167.884 10.8151 168.188 10.332C168.896 9.20484 168.836 7.88212 168.29 6.70191C167.827 5.69737 166.773 5.62315 165.785 5.62129C162.26 5.61444 158.734 5.61723 155.208 5.6163C154.887 5.61614 154.565 5.6163 154.207 5.6163C154.207 6.12293 154.217 6.51675 154.205 6.90994C154.162 8.36307 154.112 9.81587 154.065 11.2688C154.247 11.3767 154.429 11.5776 154.612 11.5785C158.536 11.5972 162.459 11.5947 166.383 11.5835C166.444 11.5833 166.504 11.4209 166.565 11.3342Z" fill="#C9CBD4"/>
<path d="M135.88 0.0274658C136.084 0.0305778 136.288 0.0335374 136.492 0.0366493C136.553 0.0389833 136.614 0.0411532 136.676 0.0434871C140.09 0.322006 141.727 1.74464 142.136 5.09776C142.331 6.69668 142.24 8.34477 142.139 9.96205C142.019 11.9027 140.908 13.1241 139.045 13.6665C138.868 13.718 138.702 13.8084 138.536 13.8789C138.565 13.9667 138.568 14.0193 138.588 14.0267C141.563 15.1585 142.11 15.93 142.173 19.1731C142.197 20.3949 142.177 21.6175 142.177 22.8891C139.824 22.8891 137.583 22.8891 135.297 22.8891C135.24 21.6342 135.237 20.4112 135.118 19.1994C134.973 17.7046 134.291 17.019 132.803 17.0013C128.924 16.9551 125.045 16.9857 121.075 16.9857C121.075 18.9671 121.075 20.8808 121.075 22.9397C119.209 22.9397 117.431 22.9519 115.654 22.9319C115.149 22.9261 114.645 22.8262 114.141 22.7696C114.165 22.7489 114.213 22.7162 114.21 22.7095C114.186 22.6621 114.151 22.6199 114.12 22.576C114.121 22.4428 114.122 22.3098 114.123 22.1766C114.122 21.5777 114.122 20.9788 114.121 20.3799C114.121 20.114 114.121 19.8481 114.121 19.5822C114.187 19.3723 114.311 19.1628 114.312 18.9526C114.325 16.4435 114.325 13.9343 114.312 11.4251C114.311 11.2149 114.187 11.0053 114.121 10.7956C114.121 10.3966 114.121 9.99768 114.121 9.59873C114.121 8.93277 114.121 8.26682 114.121 7.60102C114.121 7.06872 114.121 6.53642 114.122 6.00412C114.122 5.60486 114.122 5.20559 114.122 4.80633C114.121 4.27403 114.121 3.74157 114.121 3.20927C114.122 2.34446 114.123 1.47965 114.125 0.61484C114.122 0.481805 114.119 0.348778 114.115 0.215742C120.991 0.215431 127.866 0.218069 134.741 0.206711C135.121 0.205777 135.501 0.0897048 135.88 0.0274658ZM133.544 11.3324C134.08 10.9825 134.811 10.754 135.119 10.2616C136.531 8.00977 135.199 5.63364 132.577 5.62213C129.057 5.60672 125.536 5.6145 122.015 5.61684C121.726 5.61699 121.437 5.65231 121.077 5.67596C121.077 7.42955 121.063 9.11778 121.095 10.8051C121.099 10.996 121.356 11.1822 121.496 11.3707C121.736 11.4454 121.975 11.5841 122.215 11.5852C125.723 11.5992 129.231 11.6006 132.738 11.5835C133.007 11.5821 133.275 11.4198 133.544 11.3324Z" fill="#C9CBD4"/>
<path d="M252.469 17.7799C252.469 19.4634 252.469 21.1468 252.469 22.8923C252.092 22.9093 251.77 22.9362 251.448 22.9364C243.551 22.9389 235.655 22.9401 227.758 22.9314C227.489 22.9311 227.221 22.8254 226.952 22.769C227.013 22.3891 227.128 22.0095 227.129 21.6295C227.14 14.8525 227.154 8.07542 227.116 1.29853C227.111 0.406335 227.367 0.190672 228.236 0.194562C235.744 0.228327 243.252 0.216816 250.76 0.205769C251.138 0.205146 251.516 0.0836279 251.894 0.0184326C251.962 1.11259 252.069 2.20628 252.085 3.30122C252.095 3.92688 251.957 4.55472 251.886 5.18162C251.638 5.1228 251.391 5.01311 251.143 5.01264C245.68 5.00284 240.218 5.00206 234.755 5.01357C234.479 5.01419 234.202 5.13992 233.926 5.20745C233.926 6.42951 233.926 7.65157 233.926 8.99578C234.324 8.99578 234.678 8.99578 235.033 8.99578C240.019 8.995 245.005 8.98986 249.991 9.00278C250.353 9.00371 250.714 9.13659 251.075 9.20817C251.016 10.2521 250.89 11.2977 250.918 12.3391C250.94 13.1549 250.708 13.416 249.865 13.4096C244.921 13.372 239.977 13.3861 235.033 13.4021C234.666 13.4034 234.299 13.5554 233.932 13.6374C233.932 14.9412 233.933 16.2447 233.933 17.5485C233.998 17.5581 234.063 17.5678 234.128 17.5773C239.916 17.5774 245.705 17.5778 251.494 17.5779C251.819 17.6454 252.144 17.7127 252.469 17.7799Z" fill="#C9CBD4"/>
<path d="M98.5408 0.026123C98.7168 0.199614 98.9466 0.343391 99.0611 0.550647C103.07 7.80553 107.068 15.0663 111.065 22.3273C111.157 22.4927 111.227 22.6696 111.353 22.9396C108.833 22.9396 106.422 22.9554 104.013 22.9147C103.777 22.9106 103.468 22.6049 103.326 22.3615C102.639 21.1896 101.997 19.9908 101.339 18.8018C101.033 18.7289 100.726 18.5937 100.42 18.5926C96.2395 18.5786 92.0594 18.5783 87.8793 18.5931C87.576 18.5942 87.2734 18.7392 86.9704 18.8173C86.3611 20.0322 85.7675 21.2554 85.1277 22.4539C85.0128 22.669 84.7088 22.9182 84.4889 22.9214C82.0766 22.9547 79.6636 22.9422 77.0928 22.9422C78.0998 21.0809 79.0401 19.3404 79.983 17.6012C83.0515 11.9413 86.1205 6.28161 89.1933 0.623935C89.3016 0.424614 89.452 0.248318 89.5827 0.0612901C89.7679 0.11217 89.9529 0.206464 90.1384 0.207087C92.7258 0.216734 95.3132 0.218133 97.9007 0.205529C98.1146 0.204907 98.3276 0.0888288 98.5408 0.026123ZM94.1358 5.16846C92.5512 8.22611 91.0822 11.0605 89.5824 13.9543C92.6773 13.9543 95.6736 13.9543 98.8034 13.9543C97.2556 11.0409 95.7579 8.22191 94.1358 5.16846Z" fill="#C9CBD4"/>
<path d="M223.981 0.231595C221.792 4.33517 219.609 8.442 217.413 12.5414C215.687 15.763 213.929 18.9682 212.222 22.1996C211.936 22.7408 211.633 22.9656 211.004 22.9554C208.609 22.9165 206.213 22.9622 203.818 22.9154C203.48 22.9087 202.991 22.6494 202.836 22.3638C198.884 15.0932 194.967 7.80358 191.047 0.51618C191 0.429667 190.98 0.328995 190.947 0.235014C192.638 0.228168 194.328 0.235946 196.018 0.207938C196.801 0.195024 197.582 0.112718 198.364 0.0618378C199.979 3.07218 201.601 6.07879 203.207 9.0938C204.504 11.5278 205.781 13.9722 207.07 16.41C207.173 16.6046 207.305 16.7837 207.494 17.0803C208.399 15.3723 209.254 13.7673 210.102 12.1584C212.084 8.39657 214.061 4.63189 216.046 0.871564C216.197 0.58682 216.397 0.328534 216.574 0.0581055C216.924 0.110231 217.273 0.204205 217.624 0.207473C219.743 0.227078 221.862 0.225838 223.981 0.231595Z" fill="#C9CBD4"/>
<path d="M187.195 22.8945C185.202 22.8934 183.21 22.8924 181.217 22.8914C181.148 22.2691 181.02 21.647 181.019 21.0245C181.004 14.708 181.005 8.39154 181.018 2.07506C181.02 1.52114 181.144 0.967367 181.211 0.413596V0.412969C183.088 0.413747 184.965 0.39025 186.84 0.451555C187.036 0.457935 187.381 0.966896 187.38 1.24121C187.341 8.45907 187.265 15.6768 187.195 22.8945Z" fill="#C9CBD4"/>
<path d="M33.8463 30.9803C37.2453 30.9807 40.6445 30.9811 44.0435 30.9814C44.2011 31.0589 44.3587 31.1363 44.5162 31.2137C43.3615 32.1981 42.2277 33.2083 41.0475 34.1611C38.8576 35.9291 36.645 37.6695 34.4285 39.4044C34.1844 39.5955 33.8547 39.7887 33.5634 39.7907C29.8581 39.8167 26.1527 39.8079 22.2441 39.8079C25.0156 37.5985 27.6188 35.5085 30.2398 33.4416C31.2974 32.6076 32.3947 31.8238 33.4739 31.0174C33.5981 31.0049 33.7222 30.9926 33.8463 30.9803Z" fill="#EAEAEA"/>
<path d="M252.727 32.2557C252.362 32.2557 252.068 32.2557 251.774 32.2546C251.102 30.4349 251.042 30.3865 248.982 30.3758C247.353 30.3674 245.724 30.3549 244.096 30.3924C242.544 30.4282 241.767 31.4483 242.224 32.9301C242.344 33.3186 242.831 33.7991 243.212 33.8626C244.283 34.0412 245.387 34.0334 246.478 34.0827C248.001 34.1517 249.539 34.0972 251.044 34.297C252.515 34.4923 253.003 35.2872 253 36.9255C252.997 38.7046 252.481 39.6581 251.024 39.7579C248.483 39.9317 245.915 39.9998 243.377 39.8305C241.482 39.704 241.019 38.8916 241.018 36.7768C241.361 36.7768 241.705 36.7768 242.048 36.7768C242.339 38.7083 242.593 38.9344 244.519 38.9371C246.347 38.9396 248.176 38.9617 250.003 38.9186C251.258 38.889 251.792 38.3407 251.861 37.1757C251.944 35.7702 251.475 35.2393 250.031 35.1908C247.843 35.1172 245.647 35.1579 243.466 34.9917C241.618 34.8509 241.012 34.068 241.003 32.2769C240.994 30.5057 241.624 29.5933 243.407 29.49C245.816 29.3506 248.25 29.3643 250.655 29.5486C252.225 29.6686 252.734 30.5291 252.727 32.2557Z" fill="#C9CBD4"/>
<path d="M159.102 36.7631C159.451 36.7631 159.744 36.7631 160.031 36.7631C160.367 38.7489 160.596 38.9384 162.637 38.9387C164.366 38.939 166.096 38.9443 167.826 38.9319C169.911 38.9169 170.091 37.5419 169.663 36.0731C169.542 35.6579 168.646 35.2629 168.079 35.2224C166.457 35.1067 164.82 35.223 163.193 35.1575C162.274 35.1205 161.329 35.0161 160.458 34.743C159.233 34.3589 158.877 33.4671 159.02 31.7154C159.117 30.5276 159.714 29.7493 160.866 29.559C161.843 29.3978 162.847 29.3429 163.838 29.3478C165.429 29.3558 167.031 29.359 168.608 29.5372C170.157 29.7121 170.72 30.5242 170.707 32.2177C170.398 32.239 170.083 32.2608 169.779 32.2816C169.189 30.542 168.988 30.3891 167.15 30.378C165.454 30.3678 163.757 30.351 162.061 30.3931C160.667 30.4278 160.118 31.0361 160.124 32.3695C160.128 33.2588 160.481 33.8852 161.424 33.9305C163.181 34.0148 164.941 34.0083 166.697 34.0959C167.65 34.1435 168.629 34.1916 169.538 34.4469C170.738 34.7836 171.08 35.5364 171.044 37.1402C171.014 38.5105 170.48 39.3366 169.381 39.6837C169.065 39.7834 168.736 39.9129 168.414 39.912C166.025 39.9051 163.626 39.9876 161.248 39.8031C159.43 39.6616 158.879 38.7187 159.102 36.7631Z" fill="#C9CBD4"/>
<path d="M106.539 39.9332C104.14 39.9318 101.74 39.9306 99.3401 39.9292C99.2809 39.9167 99.2217 39.9043 99.1624 39.8918C97.4567 39.6563 96.6401 39.0096 96.5057 37.3324C96.361 35.5263 96.3696 33.689 96.523 31.8831C96.6602 30.2666 97.7026 29.3966 99.344 29.3585C101.867 29.2999 104.393 29.2985 106.915 29.3573C108.603 29.3966 109.637 30.3088 109.76 31.9727C109.889 33.7157 109.895 35.4822 109.772 37.2254C109.648 38.969 108.887 39.6166 107.11 39.8901C106.92 39.9046 106.73 39.9189 106.539 39.9332ZM103.094 38.9313C104.189 38.9313 105.285 38.9576 106.38 38.9248C107.793 38.8825 108.52 38.1594 108.553 36.75C108.586 35.3568 108.584 33.9619 108.558 32.5685C108.531 31.1482 107.82 30.4071 106.406 30.3847C104.216 30.3498 102.025 30.3489 99.8347 30.3847C98.472 30.4069 97.748 31.1412 97.7144 32.4937C97.6789 33.9199 97.6775 35.3483 97.7146 36.7743C97.751 38.1769 98.4865 38.8861 99.908 38.9254C100.969 38.955 102.032 38.9313 103.094 38.9313Z" fill="#C9CBD4"/>
<path d="M127.895 34.7685C130.034 34.7668 132.179 34.6287 134.279 34.8709C134.652 38.2632 133.978 39.5209 131.687 39.9284C131.624 39.9296 131.561 39.9309 131.497 39.932C129.231 39.9331 126.965 39.9342 124.698 39.9352C124.442 39.9189 124.185 39.9027 123.928 39.8864C122.211 39.6072 121.369 38.7136 121.299 36.9328C121.238 35.4049 121.23 33.8699 121.3 32.3427C121.388 30.4385 122.437 29.4004 124.346 29.3524C126.607 29.2956 128.872 29.2826 131.132 29.3594C133.21 29.4301 134.097 30.3478 134.242 32.3779C133.886 32.3779 133.533 32.3779 133.179 32.3779C132.764 30.6296 132.468 30.3904 130.597 30.3778C128.701 30.3651 126.803 30.4111 124.908 30.3565C123.772 30.3238 122.987 30.7472 122.504 31.7608C122.478 31.7793 122.428 31.8045 122.431 31.8151C122.444 31.8645 122.473 31.91 122.496 31.957C122.493 32.0944 122.49 32.2318 122.487 32.3692C122.487 32.5632 122.487 32.7572 122.487 32.9512C122.491 34.4193 122.495 35.8872 122.499 37.3553C122.474 37.3746 122.424 37.4037 122.427 37.4114C122.447 37.4609 122.479 37.5056 122.507 37.5518C123.011 38.6074 123.861 38.9802 125.007 38.9522C126.925 38.9052 128.847 38.8818 130.764 38.9562C132.445 39.0214 133.61 38.2619 132.883 35.7366C132.754 35.7378 132.625 35.7389 132.496 35.7402C131.029 35.7413 129.561 35.7422 128.094 35.7433C127.965 35.681 127.836 35.6188 127.707 35.5564C127.707 35.3555 127.706 35.1545 127.706 34.9536C127.769 34.892 127.832 34.8302 127.895 34.7685Z" fill="#C9CBD4"/>
<path d="M227.342 39.9263C224.942 39.928 222.542 39.9295 220.143 39.9312C220.084 39.9168 220.024 39.9023 219.965 39.8877C218.184 39.6029 217.402 38.8646 217.307 37.0966C217.217 35.4419 217.219 33.7735 217.323 32.1199C217.434 30.348 218.462 29.3953 220.234 29.3539C222.492 29.3013 224.753 29.3007 227.012 29.352C228.934 29.3957 229.732 30.4309 229.591 32.6043C229.283 32.6043 228.971 32.6043 228.584 32.6043C228.561 32.3199 228.537 32.0344 228.513 31.749C228.438 30.877 227.93 30.4074 227.089 30.3961C224.83 30.3657 222.569 30.353 220.311 30.3956C219.179 30.4169 218.509 31.184 218.469 32.456C218.423 33.8835 218.416 35.3151 218.472 36.7418C218.533 38.295 219.24 38.9231 220.82 38.9342C222.581 38.9466 224.342 38.9382 226.104 38.9377C228.353 38.9373 228.533 38.7779 228.774 36.5352C229.087 36.5352 229.404 36.5352 229.715 36.5352C230.081 38.6189 229.448 39.5671 227.516 39.8855C227.459 39.8992 227.4 39.9127 227.342 39.9263Z" fill="#C9CBD4"/>
<path d="M181.211 0.413581C181.144 0.967352 181.02 1.52112 181.019 2.07505C181.005 8.39152 181.004 14.708 181.019 21.0245C181.02 21.6469 181.148 22.2691 181.217 22.8913C180.36 23.0679 180.687 22.3945 180.686 22.072C180.665 18.2172 180.674 14.3623 180.674 10.5073C180.674 7.02273 180.674 3.53797 180.674 0C183.007 0 185.285 0 187.63 0C187.642 0.190607 187.666 0.38059 187.666 0.570575C187.668 7.71545 187.673 14.8602 187.649 22.005C187.647 22.3072 188.022 22.9534 187.195 22.8944C187.265 15.6767 187.34 8.45906 187.38 1.24105C187.381 0.966729 187.036 0.457923 186.84 0.451388C184.965 0.390083 183.088 0.41358 181.211 0.412802C181.183 0.397554 181.156 0.382456 181.128 0.367208C181.156 0.382767 181.184 0.398177 181.211 0.413581Z" fill="#C9CBD4"/>
<path d="M193.277 30.4078C191.591 30.4078 189.904 30.4078 188.121 30.4078C188.121 33.5323 188.121 36.6008 188.121 39.734C187.681 39.734 187.337 39.734 186.884 39.734C186.884 36.6287 186.884 33.5561 186.884 30.4129C185.092 30.4129 183.407 30.4129 181.708 30.4129C181.454 29.8011 181.529 29.5072 182.222 29.5097C185.742 29.5226 189.263 29.5041 192.783 29.538C193.036 29.5405 193.286 29.8738 193.538 30.0533C193.451 30.1716 193.364 30.2897 193.277 30.4078Z" fill="#C9CBD4"/>
<path d="M77.7617 29.7591C77.7617 32.7725 77.7617 35.7858 77.7617 38.8702C80.5285 38.8702 83.1735 38.8702 85.9114 38.8702C85.9433 39.1975 85.9691 39.4631 86.0003 39.7827C82.839 39.7827 79.7638 39.7827 76.6191 39.7827C76.6191 36.3824 76.6191 32.9826 76.6191 29.5045C76.937 29.5188 77.2555 29.5333 77.5739 29.5478C77.6366 29.6181 77.6991 29.6886 77.7617 29.7591Z" fill="#C9CBD4"/>
<path d="M205.516 39.8071C205.119 39.8071 204.796 39.8071 204.404 39.8071C204.404 36.3755 204.404 32.981 204.404 29.5284C204.751 29.5284 205.101 29.5284 205.516 29.5284C205.516 32.929 205.516 36.3251 205.516 39.8071Z" fill="#C9CBD4"/>
<path d="M147.258 29.7616C147.257 33.0254 147.256 36.289 147.255 39.5528C147.19 39.6232 147.125 39.6936 147.06 39.764C146.799 39.7649 146.538 39.7659 146.277 39.7666C146.212 39.6954 146.147 39.6241 146.083 39.553C146.082 36.2887 146.082 33.0244 146.082 29.7602C146.147 29.6881 146.212 29.6162 146.277 29.5442C146.538 29.5448 146.798 29.5453 147.059 29.5459C147.125 29.6178 147.192 29.6897 147.258 29.7616Z" fill="#C9CBD4"/>
<path d="M251.893 0.0184326C251.515 0.0836279 251.137 0.205146 250.76 0.205769C243.252 0.216972 235.744 0.228483 228.236 0.194562C227.367 0.190672 227.11 0.406335 227.115 1.29853C227.153 8.07527 227.139 14.8525 227.128 21.6295C227.127 22.0095 227.013 22.3891 226.951 22.769C226.938 16.1593 226.925 9.5497 226.912 2.94023C226.911 1.98595 226.912 1.03168 226.912 0.0185846C235.302 0.018429 243.597 0.0184326 251.893 0.0184326Z" fill="#C9CBD4"/>
<path d="M66.1743 37.5423C66.1159 37.1606 66.0069 36.7791 66.0066 36.3974C65.9975 24.8325 65.9992 13.2675 65.9994 1.7026C65.9994 1.31407 65.9994 0.925696 65.9994 0.584782C65.3733 0.429651 64.8789 0.307351 64.3848 0.184896C64.9715 0.157355 65.5583 0.129817 66.1925 0.100098C66.214 0.457349 66.2429 0.714708 66.2429 0.972066C66.2452 12.8653 66.2455 24.7586 66.2421 36.6516C66.2421 36.9485 66.1979 37.2454 66.1743 37.5423Z" fill="#C9CBD4"/>
<path d="M168.827 0.0249544C168.448 0.088127 168.069 0.205596 167.69 0.206374C161.317 0.217577 154.944 0.226916 148.572 0.196108C147.889 0.19284 147.466 0.359797 147.268 1.01175C147.268 0.714715 147.268 0.417834 147.268 0.120332C147.319 0.0826774 147.372 0.0128174 147.424 0.0128174C154.558 0.0135954 161.692 0.0193529 168.827 0.0249544Z" fill="#C9CBD4"/>
<path d="M135.88 0.0275869C135.5 0.0899815 135.121 0.206057 134.741 0.20668C127.866 0.217883 120.991 0.215235 114.115 0.215702C114.273 0.141015 114.431 0.000976562 114.589 0.000976562C121.686 0.00206574 128.783 0.0156059 135.88 0.0275869Z" fill="#C9CBD4"/>
<path d="M233.932 13.6375C234.298 13.5555 234.665 13.4033 235.032 13.4022C239.976 13.3862 244.921 13.372 249.864 13.4097C250.707 13.4161 250.939 13.155 250.918 12.3392C250.89 11.2976 251.015 10.252 251.075 9.20825C251.075 10.6584 251.075 12.1087 251.075 13.6376C245.321 13.6375 239.626 13.6375 233.932 13.6375Z" fill="#C9CBD4"/>
<path d="M63.2204 0.18595C62.9473 0.26157 62.6745 0.402068 62.4013 0.403002C58.5229 0.417317 54.6443 0.416229 50.7657 0.404559C50.5201 0.403781 50.2748 0.284283 50.0293 0.220177C51.1501 0.191236 52.271 0.136932 53.3918 0.138332C56.668 0.142222 59.9441 0.168367 63.2204 0.18595Z" fill="#C9CBD4"/>
<path d="M233.925 5.20747C234.202 5.13994 234.478 5.01421 234.754 5.01359C240.217 5.00207 245.68 5.00285 251.142 5.01266C251.39 5.01312 251.637 5.12282 251.885 5.18163C245.898 5.19019 239.912 5.19875 233.925 5.20747Z" fill="#C9CBD4"/>
<path d="M86.9707 18.8175C87.2737 18.7394 87.5763 18.5944 87.8795 18.5933C92.0597 18.5784 96.2398 18.5787 100.42 18.5928C100.727 18.5939 101.033 18.7291 101.339 18.802C96.5497 18.8071 91.7601 18.8124 86.9707 18.8175Z" fill="#C9CBD4"/>
<path d="M98.5408 0.026123C98.3274 0.0886732 98.1144 0.204753 97.9009 0.205843C95.3135 0.218446 92.7261 0.217047 90.1386 0.2074C89.9533 0.206778 89.7683 0.112328 89.583 0.0616035C92.5689 0.0497781 95.5548 0.0379485 98.5408 0.026123Z" fill="#C9CBD4"/>
<path d="M114.12 10.7954C114.187 11.0053 114.31 11.2147 114.311 11.425C114.325 13.9341 114.325 16.4433 114.311 18.9525C114.31 19.1627 114.187 19.3723 114.12 19.582C114.12 16.6532 114.12 13.7244 114.12 10.7954Z" fill="#C9CBD4"/>
<path d="M198.364 0.0619346C197.582 0.112815 196.801 0.195121 196.018 0.208035C194.328 0.235887 192.638 0.228265 190.947 0.235111C190.986 0.155445 191.024 0.00607011 191.062 0.00622571C193.496 0.0169619 195.93 0.0399954 198.364 0.0619346Z" fill="#C9CBD4"/>
<path d="M223.981 0.231612C221.862 0.22601 219.743 0.227256 217.624 0.207651C217.274 0.204383 216.924 0.110399 216.574 0.058274C219.01 0.0385132 221.446 0.0181249 223.882 0.00256515C223.937 0.00225396 224.006 0.0453577 224.042 0.0895474C224.057 0.107908 224.004 0.182599 223.981 0.231612Z" fill="#C9CBD4"/>
<path d="M147.264 19.3802C147.267 20.511 147.271 21.6415 147.274 22.7723C147.271 21.6415 147.267 20.5108 147.264 19.3802Z" fill="#C9CBD4"/>
<path d="M57.4168 13.1931C57.4167 14.0576 57.4167 14.9223 57.4165 15.7868C57.4167 14.9223 57.4168 14.0578 57.4168 13.1931Z" fill="#C9CBD4"/>
<path d="M114.125 0.614624C114.123 1.47943 114.122 2.34425 114.121 3.20906C114.122 2.34425 114.123 1.47943 114.125 0.614624Z" fill="#C9CBD4"/>
<path d="M57.3965 10.9983C57.4032 11.5961 57.4097 12.1937 57.4164 12.7916C57.4097 12.1937 57.403 11.5961 57.3965 10.9983Z" fill="#C9CBD4"/>
<path d="M114.121 20.3798C114.121 20.9787 114.122 21.5776 114.123 22.1765C114.122 21.5776 114.121 20.9787 114.121 20.3798Z" fill="#C9CBD4"/>
<path d="M57.4154 28.3678C57.4064 28.6992 57.3974 29.0306 57.3882 29.3621C57.3974 29.0306 57.4064 28.6992 57.4154 28.3678Z" fill="#C9CBD4"/>
<path d="M252.469 17.7799C252.144 17.7127 251.819 17.6453 251.493 17.5781C251.819 17.6455 252.144 17.7127 252.469 17.7799Z" fill="#C9CBD4"/>
<path d="M123.928 39.8865C124.185 39.9028 124.442 39.919 124.698 39.9353C124.442 39.919 124.185 39.9027 123.928 39.8865Z" fill="#C9CBD4"/>
<path d="M44.5166 31.2138C44.359 31.1363 44.2014 31.0589 44.0439 30.9814C44.2384 30.9916 44.4329 31.0015 44.6274 31.0116C44.6234 31.0599 44.6254 31.1078 44.6337 31.1554C44.6077 31.2012 44.5686 31.2206 44.5166 31.2138Z" fill="#C9CBD4"/>
<path d="M122.487 32.9514C122.487 32.7573 122.487 32.5633 122.487 32.3693C122.487 32.5633 122.487 32.7573 122.487 32.9514Z" fill="#C9CBD4"/>
<path d="M106.539 39.9333C106.729 39.919 106.919 39.9047 107.109 39.8904C106.919 39.9047 106.729 39.919 106.539 39.9333Z" fill="#C9CBD4"/>
<path d="M33.8465 30.9803C33.7225 30.9926 33.5983 31.0049 33.4741 31.0172C33.5983 31.0049 33.7225 30.9926 33.8465 30.9803Z" fill="#C9CBD4"/>
<path d="M44.6337 31.1556C44.6255 31.108 44.6235 31.0599 44.6275 31.0118C44.7199 31.0224 44.8125 31.0332 45.0375 31.059C44.8162 31.1119 44.7249 31.1337 44.6337 31.1556Z" fill="#C9CBD4"/>
<path d="M127.707 35.5565C127.836 35.6188 127.965 35.681 128.094 35.7434C127.965 35.6812 127.836 35.6188 127.707 35.5565Z" fill="#C9CBD4"/>
<path d="M132.497 35.7403C132.626 35.739 132.754 35.7379 132.883 35.7367C132.755 35.7379 132.626 35.739 132.497 35.7403Z" fill="#C9CBD4"/>
<path d="M146.277 29.5439C146.212 29.616 146.147 29.6879 146.082 29.76C146.147 29.6881 146.212 29.616 146.277 29.5439Z" fill="#C9CBD4"/>
<path d="M127.895 34.7683C127.832 34.8301 127.769 34.8919 127.706 34.9537C127.769 34.8919 127.832 34.8301 127.895 34.7683Z" fill="#C9CBD4"/>
<path d="M147.258 29.7616C147.192 29.6897 147.125 29.6178 147.059 29.5459C147.125 29.6178 147.192 29.6897 147.258 29.7616Z" fill="#C9CBD4"/>
<path d="M77.7619 29.7592C77.6994 29.6887 77.6368 29.6182 77.5742 29.5479C77.6368 29.6182 77.6994 29.6887 77.7619 29.7592Z" fill="#C9CBD4"/>
<path d="M136.675 0.0436022C136.614 0.0412672 136.553 0.0390965 136.492 0.0367616C136.554 0.0138795 136.615 0.0160503 136.675 0.0436022Z" fill="#C9CBD4"/>
<path d="M122.507 37.5519C122.479 37.5057 122.447 37.4609 122.427 37.4115C122.424 37.4038 122.474 37.3746 122.499 37.3553C122.501 37.4209 122.504 37.4864 122.507 37.5519Z" fill="#C9CBD4"/>
<path d="M146.082 39.5531C146.147 39.6244 146.211 39.6957 146.276 39.7668C146.212 39.6955 146.147 39.6242 146.082 39.5531Z" fill="#C9CBD4"/>
<path d="M147.061 39.7641C147.126 39.6937 147.191 39.6232 147.256 39.5529C147.191 39.6232 147.125 39.6936 147.061 39.7641Z" fill="#C9CBD4"/>
<path d="M114.12 22.5759C114.151 22.6198 114.185 22.662 114.209 22.7095C114.213 22.7163 114.165 22.749 114.14 22.7696C114.133 22.705 114.127 22.6405 114.12 22.5759Z" fill="#C9CBD4"/>
<path d="M99.1626 39.892C99.2217 39.9044 99.2811 39.9169 99.3404 39.9293L99.2449 39.9421L99.1626 39.892Z" fill="#C9CBD4"/>
<path d="M234.127 17.5776C234.062 17.5679 233.998 17.5583 233.933 17.5488C234 17.5416 234.065 17.5513 234.127 17.5776Z" fill="#C9CBD4"/>
<path d="M122.495 31.9571C122.472 31.9103 122.444 31.8647 122.43 31.8152C122.427 31.8046 122.478 31.7794 122.504 31.7609C122.525 31.8273 122.522 31.8927 122.495 31.9571Z" fill="#C9CBD4"/>
<path d="M131.497 39.9319C131.56 39.9307 131.623 39.9294 131.686 39.9283L131.592 39.9491L131.497 39.9319Z" fill="#C9CBD4"/>
<path d="M219.965 39.8877C220.024 39.9022 220.084 39.9167 220.143 39.9313L220.047 39.9406L219.965 39.8877Z" fill="#C9CBD4"/>
<path d="M227.342 39.9264C227.4 39.9128 227.459 39.8993 227.517 39.8857L227.436 39.9352L227.342 39.9264Z" fill="#C9CBD4"/>
<path d="M154.064 11.2689C158.099 11.2901 162.134 11.3112 166.168 11.3324C166.3 11.333 166.433 11.3338 166.565 11.3344C166.504 11.4209 166.443 11.5834 166.383 11.5835C162.459 11.5949 158.535 11.5974 154.612 11.5786C154.429 11.5778 154.247 11.3767 154.064 11.2689Z" fill="#C9CBD4"/>
<path d="M121.496 11.3708C125.511 11.3582 129.527 11.3456 133.543 11.3326C133.275 11.4199 133.007 11.5822 132.738 11.5835C129.23 11.6006 125.722 11.5992 122.214 11.5852C121.975 11.5844 121.735 11.4454 121.496 11.3708Z" fill="#C9CBD4"/>
<path d="M181.212 0.413358C181.184 0.398009 181.156 0.382659 181.128 0.36731C181.156 0.382504 181.184 0.397539 181.212 0.412734V0.413358Z" fill="#C9CBD4"/>
</svg>
