<svg width="155" height="87" viewBox="0 0 155 87" fill="none" xmlns="http://www.w3.org/2000/svg">
<path d="M86.5379 51.8604C93.8465 52.3918 95.0391 54.1683 93.8771 61.1681C93.662 63.3744 92.8625 65.4848 91.5601 67.285C90.2576 69.0851 88.4985 70.5108 86.4615 71.4171C82.5625 73.2695 78.9082 75.5927 74.046 78.3258C79.1988 78.3258 83.22 78.4776 87.333 78.3258C89.7335 78.2043 90.024 79.0546 89.5959 81.1044C88.5256 86.3428 88.5868 86.358 83.1588 86.3428C72.196 86.3428 61.2178 86.3428 50.2549 86.3428C48.7259 86.3428 45.6679 87.3905 45.6679 85.4925C45.515 82.9264 45.3468 79.6619 48.573 77.9006C55.9275 73.8617 63.1902 69.6558 70.4682 65.4954C71.4866 64.9787 72.4282 64.3247 73.2663 63.5519C74.2601 62.5346 75.1469 61.1073 73.5415 60.0141C73.2518 59.8011 72.9135 59.6626 72.5568 59.6108C72.2001 59.559 71.836 59.5956 71.497 59.7173C71.158 59.8391 70.8546 60.0422 70.6137 60.3085C70.3729 60.5749 70.2021 60.8962 70.1165 61.244C69.5814 64.4174 67.4561 64.0074 65.3002 63.9923C60.9579 63.9923 56.6308 63.9923 52.2885 63.9923C50.3925 63.9923 50.0256 63.5975 50.4078 61.6236C51.7839 54.472 54.2762 52.2856 62.0893 51.9515C70.2345 52.362 78.3961 52.3316 86.5379 51.8604V51.8604Z" fill="#C9CBD4"/>
<path d="M134.027 51.8581C127.911 53.255 121.688 52.1769 115.511 52.4351C113.813 52.4351 111.948 53.0728 110.358 51.8429L134.027 51.8581Z" fill="#C9CBD4"/>
<path d="M141.828 55.9297C140.666 52.1337 137.241 52.1641 134.03 51.8604C126.147 52.3007 118.245 52.3007 110.362 51.8604C103.94 52.0123 100.255 54.0924 99.0317 58.268C97.5027 63.3697 98.0073 64.4933 103.42 68.3652C97.304 69.2155 95.5303 73.3758 94.7811 78.5079C94.0319 83.6401 95.1787 85.5229 100.347 86.3731C105.27 87.1931 110.255 86.7679 115.224 86.7679C120.193 86.7679 125.407 87.1779 130.514 86.0695C136.63 84.7333 137.516 79.996 138.403 74.8942C139.091 70.9464 136.737 69.3369 133.403 68.0615C134.81 67.439 135.88 67.0442 136.905 66.5431C140.406 64.6755 142.944 59.6041 141.828 55.9297ZM119.306 75.3953C118.786 77.187 119.077 79.7075 116.248 79.9504C114.505 80.0719 114.046 79.0546 114.23 77.3236C114.734 75.6838 114.49 73.2847 117.288 73.0721C119.016 72.9203 119.75 73.8769 119.306 75.3953ZM122.486 60.2115C121.997 62.0487 121.844 64.3567 119.199 64.4933C117.67 64.5844 117.013 63.3545 117.395 61.9121C117.9 59.9382 117.823 57.3569 120.866 57.3569C122.609 57.3873 122.655 58.7842 122.486 60.1963V60.2115Z" fill="#C9CBD4"/>
<path d="M86.5461 51.8581C80.9347 53.2702 75.2163 52.2529 69.559 52.4199C67.0973 52.4199 64.498 53.1487 62.1128 51.8429L86.5461 51.8581Z" fill="#C9CBD4"/>
<path d="M39.0705 51.8429C35.9055 53.1942 32.5723 52.4654 29.3461 52.4047C24.7591 52.3288 20.004 53.2853 15.417 51.8581L39.0705 51.8429Z" fill="#C9CBD4"/>
<path d="M47.4574 56.1551C46.2801 51.9947 42.5188 52.0099 39.0479 51.8429C31.1697 52.2832 23.2727 52.2832 15.3944 51.8429C8.98795 52.1466 5.67003 54.1508 4.56916 58.3871C3.11661 63.9596 3.45299 64.7036 9.15614 68.3325C2.50502 69.0917 0.976029 73.7683 0.165663 79.0826C-0.476514 83.3189 0.670227 85.6116 4.98199 86.0975C15.2469 87.3402 25.6282 87.2994 35.8829 85.976C41.4485 85.2168 42.8551 80.8439 43.6808 76.061C44.3688 72.1284 43.375 69.3043 38.8339 68.0744C40.3629 67.4215 41.2497 67.0267 42.1671 66.556C45.8825 64.7491 48.5277 59.9814 47.4574 56.1551ZM24.7366 75.2867C24.2932 77.3668 24.5225 79.8418 21.3728 79.8418C19.8438 79.8418 19.4616 78.7941 19.7368 77.5339C20.1649 75.56 19.8897 72.9787 23.0853 72.9787C24.706 73.0395 24.8436 74.1023 24.7366 75.2867ZM28.0851 59.617C27.5346 61.8946 27.5652 64.2784 24.813 64.4758C23.07 64.5973 22.7642 63.3067 22.9935 61.8794C23.3299 59.8751 23.3911 57.5672 26.0515 57.3242C27.7793 57.2635 28.238 58.4934 28.0851 59.617V59.617Z" fill="#C9CBD4"/>
<path d="M53.561 32.5317C52.8576 36.9654 50.2278 38.1497 46.3594 37.5272C45.1974 37.345 43.5919 37.8309 43.806 35.7811C43.9742 34.1716 43.9742 32.4103 46.4359 32.5165C48.8975 32.6228 51.1605 32.5317 53.561 32.5317Z" fill="#C9CBD4"/>
<path d="M151.57 39.8183C137.167 39.6968 122.748 39.7271 108.345 39.8183C106.419 39.8183 104.538 40.3041 105.287 36.9637C105.853 34.4432 104.095 32.6667 101.342 32.4086C99.7972 32.3147 98.2736 32.8062 97.079 33.784C95.8844 34.7618 95.1076 36.1531 94.9054 37.6773C94.5996 39.1957 94.1867 39.8486 92.566 39.8486C83.2697 39.8486 73.9887 39.8486 64.4784 39.8486C65.1512 36.5689 65.4111 33.6233 61.558 32.5908C60.8122 32.4005 60.0353 32.363 59.2744 32.4805C58.5136 32.5981 57.7848 32.8683 57.1324 33.2745C56.4801 33.6808 55.9179 34.2147 55.4801 34.8438C55.0423 35.4728 54.738 36.1838 54.5858 36.9333C54.2342 39.879 52.8122 39.9701 50.5799 39.9701C35.5346 39.8942 20.4893 40.0612 5.44398 39.8486C1.22395 39.8486 1.83555 42.7335 1.57563 44.8896C1.20867 47.9264 3.85382 46.5295 5.06173 46.5295C38.985 46.6206 72.9083 46.6206 106.832 46.5295C121.632 46.5295 136.433 46.408 151.172 46.5295C155.759 46.5295 154.75 43.0828 154.98 41.0026C155.255 38.4973 152.701 39.8334 151.57 39.8183ZM61.9861 37.2218C61.9727 37.6029 61.8821 37.9773 61.7198 38.3229C61.5575 38.6684 61.3268 38.978 61.0414 39.233C60.756 39.4881 60.4218 39.6835 60.0587 39.8075C59.6957 39.9315 59.3112 39.9816 58.9282 39.9549C57.6285 39.9549 56.9252 39.0287 56.8029 37.7229C57.2921 36.1286 58.1637 34.9594 59.9985 35.0202C60.286 34.996 60.5753 35.0385 60.8436 35.1442C61.1119 35.25 61.3517 35.416 61.5444 35.6294C61.7371 35.8428 61.8772 36.0977 61.9539 36.374C62.0305 36.6504 62.0416 36.9406 61.9861 37.2218V37.2218ZM99.5382 39.9701C99.2478 39.9997 98.9543 39.9639 98.6798 39.8653C98.4052 39.7667 98.1565 39.6079 97.9523 39.4007C97.748 39.1935 97.5935 38.9433 97.5001 38.6685C97.4067 38.3938 97.3769 38.1017 97.4129 37.814C97.4613 37.0663 97.7862 36.3628 98.3253 35.8387C98.8644 35.3145 99.5795 35.0068 100.333 34.9746C101.74 35.1265 102.642 35.7642 102.55 37.1459C102.54 37.5268 102.455 37.902 102.299 38.2501C102.143 38.5982 101.92 38.9124 101.641 39.1746C101.363 39.4369 101.035 39.6422 100.677 39.7787C100.319 39.9151 99.937 39.9802 99.5535 39.9701H99.5382Z" fill="#C9CBD4"/>
<path d="M58.936 24.2119C59.2571 22.5416 58.5079 21.9039 56.8566 21.9495C54.7007 21.9495 52.5295 21.9495 50.3583 21.9495C48.4777 21.9495 46.0466 22.7542 46.5817 19.1557C46.8111 17.6373 45.1445 18.1232 44.2577 18.108C41.322 18.108 38.3863 18.108 35.4506 18.108C34.3956 18.108 33.1877 18.108 33.2489 16.6655C33.3101 15.2231 34.518 15.3445 35.573 15.3445H45.5267C50.3736 15.3445 55.2205 15.4356 60.0674 15.3445C61.4741 15.3445 64.1498 16.5137 64.0581 14.1298C64.0581 12.0496 61.3518 13.067 59.8534 12.991C56.9177 12.8392 53.982 12.991 51.0464 12.991C49.2727 12.991 47.7132 13.1429 48.126 10.4857C48.4165 8.55737 46.597 9.14954 45.6796 9.13435C40.7104 9.13435 35.7259 9.13435 30.7566 9.13435C29.6711 9.13435 28.0503 9.49876 27.9586 7.9652C27.8668 6.15833 29.5946 6.44682 30.8178 6.44682C39.1202 6.44682 47.4074 6.44682 55.7098 6.44682C56.826 6.44682 58.7678 7.19083 58.8595 5.44469C58.8595 3.31896 56.7495 4.39701 55.5416 4.13889C55.0523 4.04779 54.4407 4.30591 54.0126 4.13889C52.6059 3.45562 49.7926 5.91539 49.7162 2.39275C49.6397 -1.12988 52.3154 0.282207 53.9362 0.267024C65.8012 0.175921 77.6661 0.267024 89.5311 0.267024C90.2956 0.267024 91.0601 0.267024 91.8246 0.267024C93.2313 0.175921 93.6135 0.844007 93.3536 2.11944C91.6106 11.2297 89.8981 20.2337 88.155 29.2832C83.8891 30.0576 79.5621 29.5565 75.2656 29.6021C66.5045 29.6932 57.7434 29.6021 48.9822 29.6021C47.6673 29.6021 46.1077 30.1183 45.2209 28.524C43.5084 26.5046 41.1997 27.9015 39.1967 27.5371C38.2946 27.3701 37.3313 27.3549 37.102 26.3072C36.8726 25.2595 37.3619 24.8951 38.2946 24.7888C45.175 24.7281 52.1167 25.2444 58.936 24.2119Z" fill="#C9CBD4"/>
<path d="M45.2882 28.1727C46.7844 28.8876 48.4618 29.1414 50.1045 28.9016H88.2223C87.4884 30.3136 86.1887 29.5848 85.1643 29.6C72.8101 29.6 60.4558 29.6 48.1015 29.6C47.1994 29.5848 44.9671 31.0121 45.2882 28.1727Z" fill="#C9CBD4"/>
<path d="M58.9365 24.2109C58.4166 25.1371 57.5145 25.1523 56.6277 25.0915C50.5117 24.7271 44.3958 25.8811 38.2798 24.4842L58.9365 24.2109Z" fill="#C9CBD4"/>
<path d="M110.925 8.34262C108.754 1.13033 102.729 6.08024 98.6928 4.83517C96.3687 4.12153 95.1149 5.47289 94.7174 8.06932C93.6777 15.069 92.1792 22.008 91.1548 29.0078C90.7726 31.5738 89.794 32.3634 87.2559 32.3026C80.513 32.1508 73.7702 32.3026 67.1191 32.3026C66.4922 37.0552 68.8009 37.9358 72.8069 37.6321C77.3906 37.3892 81.9841 37.3892 86.5678 37.6321C89.8552 37.7232 92.4392 37.6321 94.2128 33.8362C95.6348 30.7994 99.075 29.4025 102.699 29.9795C103.971 30.119 105.163 30.6654 106.095 31.5364C107.027 32.4073 107.649 33.5555 107.867 34.808C108.157 36.3263 107.989 37.8447 110.359 37.5107C110.753 37.4744 111.133 37.3465 111.469 37.1373C111.804 36.9281 112.085 36.6434 112.289 36.3064C112.493 35.9693 112.614 35.5893 112.643 35.1971C112.671 34.8049 112.607 34.4115 112.454 34.0488C111.185 29.7518 112.652 25.7432 113.585 21.7955C114.732 16.8152 112.301 12.7915 110.925 8.34262ZM103.28 17.8173C94.6409 17.8173 94.6868 17.8173 97.1638 9.37512C97.5001 8.19079 97.8212 7.59862 99.075 7.6138C101.476 7.6138 103.891 7.6138 106.292 7.6138C106.73 7.54544 107.178 7.6456 107.545 7.89386C107.911 8.14213 108.168 8.51982 108.264 8.94998C108.356 9.31439 108.539 9.64843 108.662 9.99766C111.643 17.8173 111.643 17.8173 103.402 17.8173H103.28Z" fill="#C9CBD4"/>
</svg>
