<svg width="226" height="39" viewBox="0 0 226 39" fill="none" xmlns="http://www.w3.org/2000/svg">
<path d="M218.433 23.6871C220.422 25.2006 225.091 29.7411 224.999 34.0394C224.999 35.5529 223.468 38.1863 219.427 37.9896C215.387 37.7928 211.683 35.6134 206.525 29.9984C201.367 24.3833 187.638 8.59769 185.755 6.52422C183.276 3.66373 182.082 1 171.46 1H6.25115M7.16949 15.1511C3.0982 11.7003 1.39928 8.14365 3.0982 6.17612C4.49101 4.78371 10.1541 5.47991 14.6233 9.71767C19.0925 13.9554 19.5823 17.7089 18.5875 18.7986C17.5926 19.8883 12.2356 19.0861 9.05208 16.6192C8.39685 16.1656 7.7683 15.6754 7.16949 15.1511V15.1511ZM7.56744 15.4386C5.57771 13.7587 0.909502 9.3847 1.00134 4.98046C1.00134 3.60319 2.5319 0.939459 6.57257 1.0454C10.6132 1.15135 14.3172 3.51238 19.4905 9.0366C24.6638 14.5608 38.347 30.3919 40.2296 32.5562C42.7091 35.3258 43.9029 37.9896 54.6321 37.9896H219.825L7.56744 15.4386ZM218.938 23.8839C222.902 27.4254 224.601 30.8762 223.009 32.8589C221.478 34.2361 215.861 33.5399 211.392 29.4081C206.923 25.2763 206.525 21.311 207.413 20.2364C208.3 19.1618 213.764 19.9337 216.948 22.4915C217.643 22.9101 218.307 23.3753 218.938 23.8839V23.8839Z" stroke="#C9CBD4" stroke-width="0.883335" stroke-miterlimit="2.61"/>
<path d="M210.476 33.5395H221.312M4.87598 5.5249H15.5899H4.87598ZM17.7633 19.1463H28.5996H17.7633ZM197.466 19.8273H208.685H197.466Z" stroke="#C9CBD4" stroke-width="0.950255" stroke-miterlimit="2.61"/>
<path d="M212.647 35.4161H224.508M2.68457 9.38417H14.1025H2.68457ZM4.91919 12.8349H17.1637H4.91919ZM8.82211 16.2857H25.9185H8.82211ZM19.0769 17.4662H26.9133H19.0769ZM17.73 13.4252H23.1022H17.73ZM14.6535 9.67173H19.6279H14.6535ZM12.4648 7.79501H17.9289H12.4648ZM1.04688 5.32803H4.53655H1.04688ZM1.24585 4.0567H13.873H1.24585ZM2.04174 2.54321H11.9138H2.04174ZM13.6128 3.43617H182.479H13.6128ZM184.959 6.19072H16.5974H184.959ZM18.7861 7.96149H42.1118H18.7861ZM20.3625 9.97443H42.1118H20.3625ZM21.9543 11.8511H42.1118H21.9543ZM24.0053 13.8187H42.1118H24.0053ZM25.2756 15.6954H42.1118H25.2756ZM27.4184 17.8597H42.1118H27.4184ZM29.5 19.9332H42.1118H29.5ZM32.4846 23.5807H42.1118H32.4846ZM35.163 26.4411H42.1118H35.163ZM37.5201 29.2108H42.1118H37.5201ZM39.3109 31.3751H42.0812H39.3109ZM41.3924 33.6453H210.366H41.3924ZM43.7036 35.7188H212.876H43.7036ZM218.998 24.1709H207.779H218.998ZM221.983 27.1979H209.463H221.983ZM182.969 9.47498H188.234H182.969ZM190.423 12.0479H182.969H190.423ZM193.499 15.3927H182.969H193.499ZM195.428 17.5721H182.908H195.428ZM196.683 19.0856H182.908H196.683ZM206.953 22.2337H200.02H206.953ZM207.382 23.7471H200.923H207.382ZM208.162 24.9277H202.116H208.162ZM200.219 23.1569H182.969H200.219ZM202.453 25.4271H182.969H202.453ZM203.632 26.8044H182.969H203.632ZM182.969 28.6811H205.331H182.969ZM206.417 30.1946H182.969H206.417ZM208.3 31.8746H182.969H208.3ZM208.897 32.1621H215.555H208.897ZM207.672 30.8757H213.228H207.672ZM206.586 29.6951H211.545H206.586ZM205.285 28.4087H210.458H205.285Z" stroke="#C9CBD4" stroke-width="0.629042" stroke-miterlimit="2.61"/>
<path fill-rule="evenodd" clip-rule="evenodd" d="M93.3796 31.1788C93.7277 31.191 94.0747 31.1339 94.4 31.011C94.7253 30.8881 95.0224 30.7019 95.2736 30.4634C95.5249 30.2248 95.7251 29.9389 95.8625 29.6224C95.9999 29.3059 96.0716 28.9654 96.0734 28.621C96.0573 27.9279 95.7655 27.2689 95.2612 26.7872C94.7568 26.3055 94.0807 26.0399 93.3796 26.0481C92.6961 26.0599 92.0444 26.3358 91.5639 26.8166C91.0834 27.2974 90.8122 27.945 90.8083 28.621C90.8042 28.9568 90.8678 29.2899 90.9954 29.6011C91.123 29.9122 91.312 30.1951 91.5514 30.4333C91.7908 30.6714 92.0757 30.86 92.3896 30.988C92.7035 31.116 93.0401 31.1809 93.3796 31.1788Z" fill="#C9CBD4"/>
<path fill-rule="evenodd" clip-rule="evenodd" d="M64.8784 31.1786C65.2197 31.187 65.5591 31.1265 65.8759 31.0007C66.1927 30.875 66.4803 30.6866 66.721 30.4472C66.9616 30.2078 67.1504 29.9223 67.2757 29.6083C67.401 29.2943 67.4602 28.9583 67.4497 28.6208C67.4538 28.2844 67.3902 27.9505 67.2628 27.6385C67.1354 27.3265 66.9467 27.0426 66.7075 26.8033C66.4683 26.564 66.1835 26.374 65.8695 26.2443C65.5555 26.1146 65.2186 26.0479 64.8784 26.0479C64.1908 26.0558 63.5335 26.3294 63.0473 26.8102C62.5611 27.291 62.2844 27.9409 62.2764 28.6208C62.2744 28.9573 62.3399 29.2908 62.4692 29.602C62.5984 29.9133 62.7889 30.196 63.0295 30.4339C63.2701 30.6719 63.5561 30.8602 63.8708 30.988C64.1855 31.1158 64.5228 31.1806 64.8631 31.1786H64.8784Z" fill="#C9CBD4"/>
<path fill-rule="evenodd" clip-rule="evenodd" d="M178.218 8.38446H163.907V12.6374H168.683V31.0716H173.443V12.6374H178.218V8.38446Z" fill="#C9CBD4"/>
<path fill-rule="evenodd" clip-rule="evenodd" d="M156.358 30.9808L150.206 18.5551V31.0716H145.828V8.38446H150.206L156.159 19.3421V18.8426V8.38446H160.537V31.0716H156.358V30.9808Z" fill="#C9CBD4"/>
<path fill-rule="evenodd" clip-rule="evenodd" d="M133.625 26.8338C134.436 26.8338 135.215 26.5149 135.789 25.9473C136.363 25.3796 136.686 24.6097 136.686 23.8069V8.38446H141.048V22.0058C141.048 25.5474 141.446 27.2273 139.762 29.0133C138.983 29.8517 138.037 30.5213 136.983 30.9798C135.93 31.4382 134.791 31.6756 133.64 31.677C131.323 31.627 129.12 30.6688 127.518 29.0133C125.834 27.2273 126.232 25.5474 126.232 22.0058V8.38446H130.609V23.7766C130.609 24.5794 130.932 25.3493 131.506 25.917C132.08 26.4847 132.859 26.8036 133.67 26.8036L133.625 26.8338Z" fill="#C9CBD4"/>
<path fill-rule="evenodd" clip-rule="evenodd" d="M116.024 8.38446V17.9648H109.366V8.38446H104.698V31.0716H109.366V21.8999H116.024V31.0716H120.601V8.38446H116.024Z" fill="#C9CBD4"/>
<path fill-rule="evenodd" clip-rule="evenodd" d="M60.3026 24.9571V8.38446H55.7109V24.2306C55.7109 26.1074 53.614 26.8944 52.3283 26.8944C50.7418 26.5237 49.2306 25.8891 47.8591 25.0177L46.0684 28.4684C47.9519 30.096 50.3226 31.0688 52.8181 31.2381C53.926 31.302 55.0338 31.1128 56.0557 30.6849C57.0777 30.2571 57.9862 29.6022 58.7108 28.7711C59.6123 27.7132 60.1486 26.3981 60.2413 25.0177L60.3026 24.9571Z" fill="#C9CBD4"/>
<path fill-rule="evenodd" clip-rule="evenodd" d="M78.0878 31.0716H73.4961V8.36933H82.4346C83.9787 8.32698 85.482 8.86342 86.643 9.8711C87.804 10.8788 88.5368 12.2832 88.6946 13.8027C88.6946 15.3162 88.9854 17.7529 86.0161 19.4178C87.0821 19.8402 87.9891 20.5798 88.6116 21.5342C89.234 22.4886 89.5411 23.6107 89.4904 24.7452C89.4528 25.6434 89.2308 26.5246 88.838 27.3353C88.4452 28.146 87.8897 28.8692 87.2054 29.4609C86.521 30.0527 85.7221 30.5006 84.8573 30.7775C83.9924 31.0544 83.0796 31.1545 82.1744 31.0716H78.0878ZM81.654 27.0306C81.9876 27.0366 82.3192 26.9776 82.6298 26.8568C82.9404 26.7361 83.2239 26.5561 83.4641 26.327C83.7043 26.0979 83.8965 25.8242 84.0298 25.5217C84.163 25.2191 84.2346 24.8936 84.2406 24.5636C84.2288 23.8889 83.9525 23.2451 83.47 22.7679C82.9874 22.2907 82.3363 22.0175 81.654 22.0058H78.0878V27.0306H81.654ZM81.2713 17.8589C81.5904 17.8713 81.9087 17.8191 82.2066 17.7055C82.5045 17.5918 82.7758 17.4191 83.0037 17.198C83.2316 16.9768 83.4114 16.7119 83.532 16.4196C83.6526 16.1272 83.7114 15.8135 83.7049 15.4978C83.701 14.874 83.4508 14.2764 83.0076 13.8325C82.5644 13.3886 81.9633 13.1335 81.3326 13.1217H78.0878V17.8589H81.2713Z" fill="#C9CBD4"/>
</svg>
