<svg width="196" height="61" viewBox="0 0 196 61" fill="none" xmlns="http://www.w3.org/2000/svg">
<path d="M174.849 33.7862C174.179 40.7775 175.656 41.2231 190.235 38.7339C191.621 45.4179 191.529 45.587 185.314 47.1542C184.705 47.3079 184.096 47.523 183.471 47.6152C169.853 49.6281 163.089 43.2207 166.456 29.9909C166.974 28.0088 167.309 25.9652 167.888 23.9984C170.69 14.6868 177.195 10.4152 186.716 11.5523C188.828 11.7171 190.835 12.5477 192.453 13.9264C194.072 15.3051 195.219 17.1623 195.734 19.235C196.22 21.2544 196.037 23.379 195.211 25.283C194.386 27.187 192.964 28.7653 191.164 29.7758C188.217 31.2277 185.1 32.2964 181.887 32.9565C179.563 33.4017 177.212 33.679 174.849 33.7862ZM176.19 27.978C178.922 27.5624 181.627 26.9878 184.294 26.2571C186.579 25.5042 188.163 23.3684 186.898 21.1865C186.152 19.9111 183.578 19.066 181.872 19.1429C178.551 19.3119 176.601 22.4618 176.19 27.978Z" fill="#C9CBD4"/>
<path d="M29.249 46.8475C31.2903 35.984 33.2249 25.474 35.2509 14.9947C36.1801 10.1392 40.0036 13.3352 42.4257 11.9216L43.0655 15.3327C51.7027 9.93941 55.252 9.97014 60.2484 14.6874C64.2852 13.5196 67.865 11.8601 71.4753 11.6143C77.2486 11.1687 80.7218 15.2098 79.823 20.9411C78.5586 28.9466 76.9592 36.9059 75.3445 44.8499C75.1769 45.3488 74.8951 45.8008 74.5219 46.1693C74.1487 46.5377 73.6947 46.8122 73.1966 46.9704C70.932 47.1638 68.6569 47.1997 66.3874 47.0779C67.9107 39.3183 69.175 32.1426 70.5003 24.9516C70.9421 22.5545 71.9018 19.8809 68.3677 19.0051C66.7409 18.7282 65.0699 19.0592 63.6678 19.9361C62.2656 20.813 61.2286 22.1755 60.7511 23.7684C59.5477 29.6995 58.3595 35.6306 57.3084 41.5771C56.1812 48.0306 56.7905 47.0011 50.6363 47.124C49.8747 47.124 49.113 47.0318 47.803 46.9396C49.0216 40.3632 50.2098 33.9711 51.398 27.5944C51.5233 27.2298 51.6151 26.8543 51.6722 26.4727C51.5656 23.9221 54.0486 20.6338 50.1489 19.0819C47.4069 17.991 42.4409 22.0167 41.7707 25.5047C40.4149 32.5575 39.1049 39.6256 37.7339 46.8782L29.249 46.8475Z" fill="#C9CBD4"/>
<path d="M134.028 61L135.094 53.3172C137.897 53.3172 140.547 53.3172 143.213 53.3172C149.078 53.3172 151.028 51.166 150.83 45.2349C148.471 46.0132 146.05 46.5838 143.594 46.9405C137.912 47.3093 133.342 43.8674 133.723 38.1668C134.084 31.6642 135.478 25.2624 137.851 19.2057C140.898 12.1529 148.651 9.81732 156.969 11.9224C165.621 14.1197 165.636 14.1197 164.022 22.8319C162.407 31.5442 160.762 40.026 159.208 48.6307C158.02 55.1764 153.937 58.941 147.92 60.9231L134.028 61ZM141.949 34.8785C142.467 36.0463 142.848 38.5355 143.944 38.9043C144.874 39.1651 145.848 39.2233 146.801 39.0749C147.754 38.9265 148.666 38.575 149.474 38.0438C151.261 36.5313 152.604 34.5547 153.358 32.3278C154.146 29.6246 154.706 26.8593 155.034 24.0612C155.918 19.3286 154.668 17.7306 150.038 19.1288C147.547 20.149 145.525 22.0732 144.371 24.5222C142.969 27.4877 142.802 30.991 141.949 34.9246V34.8785Z" fill="#C9CBD4"/>
<path d="M90.5242 33.8354C89.5188 40.8421 91.9256 41.5182 105.666 38.7063C107.433 45.083 107.189 45.5439 101.096 47.1112C100.857 47.202 100.613 47.2789 100.365 47.3417C86.9901 49.9846 78.4596 44.4683 82.0851 30.1477C82.6756 27.2565 83.4542 24.4077 84.4157 21.6198C85.8351 17.842 88.6041 14.7365 92.1785 12.9139C95.7529 11.0913 99.8739 10.6834 103.731 11.7705C107.86 12.8614 110.845 15.4275 111.515 19.8527C111.891 21.7734 111.65 23.7647 110.828 25.5383C110.007 27.3118 108.647 28.7755 106.946 29.7174C104.007 31.1805 100.902 32.2745 97.699 32.9749C95.3295 33.4257 92.9324 33.7132 90.5242 33.8354ZM91.7124 28.1962C94.8009 27.6256 97.8301 26.7666 100.761 25.6302C101.858 25.0924 102.68 22.5571 102.406 21.1435C102.208 20.1754 99.9688 19.0691 98.5825 19.0076C94.6372 18.7925 92.1389 21.9886 91.7124 28.1962Z" fill="#C9CBD4"/>
<path d="M117.58 12.5376H124.389L125.014 16.1331C128.365 13.1983 131.412 10.3096 136.21 11.9998C135.372 15.3034 136.21 19.0372 130.68 19.3906C126.933 19.6365 123.932 22.5559 123.277 27.0734C122.5 32.4052 120.992 37.6449 120.444 42.9767C120.063 46.7259 118.311 47.4327 115.219 47.0793C113.985 46.941 112.72 46.941 111.06 46.8642C113.254 35.2939 115.402 24.0156 117.58 12.5376Z" fill="#C9CBD4"/>
<path d="M26.0858 39.5357C25.9183 40.8879 25.7203 41.7637 25.705 42.6088C25.6289 45.9278 24.1817 47.4336 20.7238 47.1263C16.9155 46.8036 13.1072 47.1263 9.25325 46.8805C2.48974 46.3888 -0.998647 41.6869 0.250469 34.9414C1.56052 27.8733 2.8858 20.8051 4.34818 13.7677C6.14569 5.08617 10.4414 0.968202 19.0938 0.199925C23.6638 -0.19958 28.2337 0.123098 33.3673 0.123098L32.301 7.59076H22.7955C14.8438 7.59076 12.1323 10.5717 12.8483 19.2071H27.8377L26.3143 26.7362C21.9577 26.7362 17.7686 26.7362 13.5795 26.7362C11.4773 26.7362 10.5328 27.2126 9.99967 29.5635C8.06506 38.875 8.47636 39.5357 17.8752 39.5357H26.0858Z" fill="#C9CBD4"/>
</svg>
