<svg width="95" height="113" viewBox="0 0 95 113" fill="none" xmlns="http://www.w3.org/2000/svg">
<path d="M47.454 112.924C47.454 112.924 20.9613 101.389 12.7637 94.911C4.09113 87.6999 0 77.8457 0 66.5554V10.3482C20.9613 -0.94208 47.5 0.0204226 47.5 0.0204226C47.5 0.0204226 74.0081 -0.94208 95 10.3482V66.3262C95 77.6165 90.9089 87.4555 82.2363 94.6666C74.0387 101.389 47.5306 113 47.5306 113L47.454 112.924ZM3.84597 66.5554C3.84597 77.1276 7.70726 85.7749 15.1694 91.7791C21.9113 97.3097 41.9226 106.201 47.454 108.585C53.0008 106.186 73.2419 97.0499 79.7387 91.7791C87.2161 85.7749 91.0621 76.8985 91.0621 66.5554V11.3107C63.1137 8.66768 29.8637 10.1038 3.84597 34.1358V66.5554Z" fill="#C9CBD4"/>
<path d="M74.2184 58.6271C77.8345 60.7966 79.2749 62.2327 79.52 64.8757C79.52 67.7632 77.5894 69.4591 74.4482 69.4591C71.4951 69.2759 68.694 68.0897 66.5112 66.098V73.7369C69.305 75.3725 72.4664 76.2814 75.7047 76.3799C83.9023 76.3799 87.7483 70.6202 87.7483 65.3341C87.9934 60.5216 86.5531 56.6868 79.566 52.5924C76.5015 50.6826 74.0192 49.5368 74.0192 46.5882C74.0192 43.6396 76.67 42.509 78.8305 42.509C81.6552 42.6641 84.3209 43.8623 86.3079 45.8701V38.6895C83.6737 36.7111 80.4006 35.7701 77.1144 36.0465C71.5829 36.2909 65.791 40.1409 65.791 46.8632C66.0362 51.4465 67.4765 54.7924 74.2337 58.6271H74.2184ZM45.7797 75.9369C47.0351 76.2899 48.3372 76.4496 49.641 76.4105C59.0337 76.4105 64.3354 68.0077 64.3354 55.984C64.3354 43.9604 58.7886 36.2909 48.9208 36.2909C44.9469 36.1524 41.0167 37.1546 37.5974 39.1784V93.4606H45.7797V75.9369ZM45.7797 43.2576C46.7037 42.8755 47.6798 42.6334 48.6757 42.5395C53.487 42.5395 55.4176 46.3743 55.4176 55.7549C55.4176 64.9216 53.012 69.1994 48.1853 69.1994C47.2782 69.2287 46.375 69.0674 45.5345 68.7257V43.1965L45.7797 43.2576ZM20.4821 76.4105C24.9033 76.5665 29.2697 75.3956 33.016 73.0494V36.7798H24.5733V68.2369C23.4342 68.973 22.0781 69.3015 20.7273 69.1688C16.866 69.1688 16.391 65.5632 16.391 63.4091V36.7798H7.94824V62.9507C7.94824 71.8424 12.2999 76.4105 20.4821 76.4105Z" fill="#C9CBD4"/>
</svg>
