<svg width="104" height="120" viewBox="0 0 104 120" fill="none" xmlns="http://www.w3.org/2000/svg">
<path d="M0.016321 115.249C32.9845 115.249 65.9425 115.249 98.8904 115.249C99.5901 115.249 99.8183 115.401 99.7727 116.132C99.7727 117.411 99.7727 118.706 99.7727 120H0.655203C0.122804 120 -0.0140993 119.893 0.00111212 119.345C0.0467463 117.975 0.016321 116.619 0.016321 115.249Z" fill="#C9CBD4"/>
<path d="M51.1788 95.1636V110.392C51.1788 111.61 51.0875 111.671 49.8858 111.671H44.6075C43.6035 111.671 43.4666 111.564 43.4666 110.59C43.4666 104.133 43.4666 97.6813 43.4666 91.2348C43.4666 87.3669 43.4666 83.5091 43.4666 79.6615C43.4666 79.2047 43.3297 79.0981 42.9038 79.0981C40.972 79.0981 39.0401 79.0981 37.1235 79.0981C36.5759 79.0981 36.439 78.9458 36.439 78.4128C36.439 76.3723 36.439 74.3165 36.439 72.3216C36.439 71.7886 36.6063 71.6973 37.0779 71.6973H57.6893C58.1761 71.6973 58.3282 71.8191 58.3282 72.3216C58.3282 74.352 58.3282 76.3824 58.3282 78.4128C58.3282 78.8544 58.1913 78.9763 57.7653 78.9763C55.8031 78.9763 53.856 78.9763 51.909 78.9763C51.2853 78.9763 51.1636 79.159 51.1636 79.7224C51.1636 84.8847 51.1636 90.0623 51.1636 95.2246L51.1788 95.1636Z" fill="#C9CBD4"/>
<path d="M7.61066 85.8277V86.8175C7.61066 94.8477 7.61066 102.883 7.61066 110.923C7.61066 111.502 7.48897 111.685 6.88051 111.67C4.84219 111.67 2.78865 111.67 0.795958 111.67C0.354828 111.67 0.1875 111.67 0.1875 111.091C0.1875 98.1471 0.1875 85.1983 0.1875 72.2443C0.1875 71.7722 0.324402 71.6504 0.780744 71.6504H6.28727C6.66826 71.6729 7.03648 71.7961 7.35444 72.0075C7.67241 72.2188 7.92877 72.5107 8.09743 72.8534C10.1256 75.899 12.1538 78.9852 14.182 82.112C17.4372 87.1068 20.6975 92.1067 23.9629 97.1116C24.115 97.3705 24.3128 97.6142 24.4953 97.873C24.7235 97.5989 24.617 97.3248 24.617 97.0812C24.617 88.8885 24.617 80.706 24.617 72.5336C24.617 71.9397 24.7083 71.7113 25.3776 71.7265C27.4311 71.7265 29.4694 71.7265 31.4621 71.7265C31.9489 71.7265 32.0554 71.8636 32.0554 72.3204C32.0554 82.1679 32.0554 92.0103 32.0554 101.848C32.0554 104.893 32.0554 107.939 32.0554 110.984C32.0554 111.7 31.8728 111.837 31.1883 111.822C29.5455 111.822 27.9027 111.822 26.2598 111.822C25.758 111.815 25.2679 111.668 24.8437 111.4C24.4196 111.131 24.0779 110.75 23.8564 110.299C21.8485 107.253 19.8558 104.117 17.7719 101.025L8.82757 87.32C8.52349 86.7476 8.11003 86.2405 7.61066 85.8277Z" fill="#C9CBD4"/>
<path d="M90.2679 91.524H99.562C100.034 91.524 100.201 91.6459 100.262 92.1332C100.502 94.2695 100.268 96.4325 99.5772 98.468C97.2955 106.082 92.291 111.062 84.3658 112.447C80.8659 113.168 77.2422 113.013 73.8164 111.996C70.3907 110.979 67.2688 109.13 64.7279 106.615C61.6391 103.598 59.6381 99.6398 59.0389 95.3615C58.308 91.7441 58.5494 87.9973 59.7386 84.5039C60.8949 81.0636 62.9536 77.9976 65.6992 75.6268C68.4448 73.2559 71.7764 71.6673 75.3455 71.0271C81.2841 69.6746 87.5159 70.7079 92.7017 73.9052C94.2601 74.867 95.6651 76.0579 96.8696 77.4381C97.1738 77.7731 97.189 77.9559 96.8696 78.2909C95.4245 79.8137 93.9947 81.2147 92.6104 82.707C92.2149 83.1334 91.9715 83.1639 91.5456 82.707C89.4204 80.568 86.7548 79.047 83.8334 78.3061C80.5751 77.3677 77.0858 77.6605 74.0289 79.1288C70.972 80.5971 68.5606 83.1387 67.253 86.2704C66.2135 88.525 65.8429 91.0311 66.1854 93.4905C66.5279 95.9499 67.569 98.2591 69.1849 100.143C71.1878 102.609 73.9367 104.356 77.0176 105.122C80.0984 105.889 83.3446 105.632 86.2673 104.392C88.5473 103.321 90.3744 101.476 91.4239 99.1837C91.7129 98.6051 91.5304 98.5289 90.9676 98.5289C87.6515 98.5289 84.3354 98.5289 81.0345 98.5289C80.3652 98.5289 80.2588 98.331 80.274 97.7371C80.274 95.8792 80.274 94.0062 80.274 92.1484C80.274 91.6306 80.3804 91.4631 80.9281 91.4784C84.0768 91.5393 87.1647 91.524 90.2679 91.524Z" fill="#C9CBD4"/>
<path d="M0.0234375 63.4578H8.49619C8.17675 64.8587 7.90294 66.1988 7.56829 67.5236C7.40097 68.148 6.88377 68.3155 6.29053 68.3155H0.0234375V63.4578Z" fill="#C9CBD4"/>
<path d="M88.0455 63.4308C91.7267 63.4308 95.3927 63.4308 99.0586 63.4308C99.6062 63.4308 99.7887 63.5526 99.7735 64.1313C99.7735 65.3495 99.7735 66.5678 99.7735 67.7708C99.7735 68.2886 99.6062 68.3647 99.1651 68.3647H92.7307H82.5238C81.7632 68.3647 81.0027 68.3647 80.2421 68.3647C79.8225 68.384 79.4065 68.2787 79.0465 68.0619C78.6865 67.8452 78.3986 67.5266 78.219 67.1465C77.6409 66.05 77.0933 64.9384 76.4849 63.8724C76.1807 63.3242 76.4849 63.3547 76.85 63.3547L88.0455 63.4308Z" fill="#C9CBD4"/>
<path d="M103.239 33.2794C103.015 32.3195 102.613 31.4104 102.053 30.5993C102.053 30.8734 101.916 31.0256 101.886 31.1779C101.288 33.9446 100.385 36.6362 99.1932 39.2031C98.9452 39.8758 98.5502 40.4845 98.0371 40.9848C97.8698 41.1218 97.7785 41.5025 97.5199 41.3502C97.2613 41.1979 97.3526 40.9238 97.3222 40.6954C97.0788 39.1726 96.8506 37.6498 96.592 35.9747C95.2686 36.8123 94.0365 37.4975 92.8348 38.3808C92.4089 38.6701 92.2568 38.594 92.0742 38.1523C91.4049 36.4468 90.7204 34.7565 90.0359 33.0662C89.9368 32.8168 89.9368 32.5389 90.0359 32.2896C90.7593 30.2823 90.8338 28.0981 90.2489 26.0461C90.1424 25.4979 90.0511 25.4065 89.5796 25.772C88.6821 26.442 87.739 27.0663 86.6438 27.8125C86.6438 26.5791 86.6438 25.5435 86.6438 24.508C86.6438 23.168 85.7767 22.635 84.5142 23.0766C83.9127 23.3042 83.3237 23.5634 82.7496 23.8532C82.5105 23.9733 82.2439 24.028 81.9768 24.012C81.7097 23.996 81.4516 23.9097 81.2285 23.7619L78.5057 22.102C75.5521 19.9955 72.7326 17.7069 70.0633 15.2494C67.9706 13.4467 65.4464 12.2183 62.7375 11.6845C60.0286 11.1507 57.2277 11.3296 54.6086 12.2038C52.8808 12.8173 51.2513 13.6791 49.7713 14.7621C47.4762 16.2976 44.8854 17.3351 42.1656 17.8077C38.8643 18.2377 35.5083 17.883 32.3695 16.7722C30.2624 16.0219 28.0607 15.5708 25.8286 15.4321C22.6357 15.4168 19.4926 16.2244 16.7017 17.7773C15.6978 18.3102 14.7091 18.8584 13.6595 19.3001C13.1824 19.5957 12.617 19.7148 12.0614 19.637C11.5058 19.5591 10.9948 19.2891 10.6172 18.8737C8.96628 17.2207 7.97161 15.0235 7.8183 12.6911C7.72703 8.54908 8.0921 4.45274 10.4347 0.82847C9.92411 0.512363 9.37085 0.271329 8.79182 0.112754C8.1806 -0.0673281 7.52604 -0.0308432 6.93856 0.216055C6.35109 0.462953 5.86666 0.905151 5.56701 1.46805C4.98667 2.56177 4.57632 3.73769 4.3501 4.95526C3.87873 7.5055 3.67985 10.0987 3.75685 12.6911C3.82401 15.989 5.07702 19.1519 7.2859 21.5995C8.19858 22.5893 9.18732 23.5334 10.1304 24.508C10.4452 24.7878 10.6546 25.1672 10.7238 25.5829C10.793 25.9985 10.7178 26.4254 10.5107 26.7922C10.2314 27.3667 9.92161 27.9259 9.58281 28.4673C8.30761 30.346 7.50355 32.5047 7.23876 34.7606C6.97396 37.0164 7.25624 39.3029 8.06167 41.4264C8.92872 43.8933 9.91747 46.3146 10.8606 48.751C11.2439 49.73 11.2439 50.8177 10.8606 51.7966C10.263 53.2913 10.1356 54.933 10.4955 56.5021C11.4833 59.7015 11.5623 63.1129 10.7237 66.3546C10.2825 67.7556 10.9214 68.4409 12.4426 68.4713L23.1362 68.5475C23.4453 68.6036 23.7643 68.5527 24.0407 68.4033C24.3172 68.2538 24.5346 68.0147 24.6573 67.7252C24.8398 67.2379 25.0224 67.4663 25.2506 67.7252C25.8247 68.2325 26.5689 68.5044 27.3345 68.4866C28.232 68.4866 29.1447 68.4866 30.0421 68.4866C32.7194 68.4866 35.3814 68.4866 38.0433 68.4866C38.4388 68.4866 38.6518 68.4866 38.6822 67.9536C38.7715 67.0628 38.6697 66.1632 38.3838 65.315C38.0978 64.4668 37.6343 63.6894 37.0242 63.0349C35.6399 61.6035 34.2861 60.1721 32.7954 58.8624C31.1644 57.5777 29.9531 55.8352 29.3163 53.8578C28.6796 51.8803 28.6463 49.7577 29.2207 47.7612C29.4337 46.9389 29.4337 46.9237 30.2095 47.3196C32.4151 48.4465 34.6208 49.5581 36.796 50.7307C40.0691 52.7275 43.6008 54.2647 47.2919 55.2991C48.4784 55.558 48.5088 55.6036 48.5088 56.8219C48.5088 59.6543 48.5088 62.4867 48.5088 65.3191C48.5088 65.6846 48.5088 65.8978 48.9956 65.9282C50.4022 66.0957 51.8238 65.7789 53.0266 65.0298L56.4796 62.7608L61.2559 59.7152C61.2559 60.0198 61.3776 60.2177 61.4081 60.4309C61.7275 62.5933 62.0317 64.7709 62.3816 66.9333C62.5641 68.1668 62.9748 68.5322 64.2069 68.5475H74.0791C75.3113 68.5475 75.7372 67.8013 75.2048 66.6896C74.6525 65.6857 73.8959 64.809 72.9839 64.1161C71.9457 63.2353 71.2156 62.0455 70.9 60.7203C70.3151 58.1225 69.9639 55.4775 69.8504 52.8169C69.7286 52.2313 69.6978 51.6303 69.7591 51.0352C69.9708 50.1162 70.3854 49.2562 70.9724 48.5184C71.5593 47.7806 72.3038 47.1837 73.1512 46.7714C73.6085 46.5283 74.1317 46.4385 74.6437 46.5153C75.1558 46.5921 75.6297 46.8313 75.9958 47.1978C76.39 47.5408 76.7242 47.9474 76.9845 48.4008C77.9598 50.1578 79.3646 51.6383 81.0673 52.7036C82.7699 53.769 84.7148 54.3843 86.7198 54.492C89.5755 54.4819 92.3552 55.413 94.6297 57.1417C94.7884 57.2737 94.9722 57.3721 95.1701 57.4307C95.3679 57.4894 95.5756 57.5072 95.7805 57.4829C95.9854 57.4587 96.1832 57.393 96.362 57.2899C96.5407 57.1867 96.6966 57.0482 96.8202 56.8828C97.551 56.1028 98.1797 55.2329 98.6912 54.294C98.973 53.7169 99.2021 53.1155 99.3757 52.4971C99.9042 50.5452 100.698 48.6751 101.733 46.9389C102.901 44.8849 103.636 42.6137 103.895 40.2648C104.154 37.9159 103.931 35.5388 103.239 33.2794ZM101.855 40.3147C101.782 42.049 101.258 43.7341 100.334 45.2029C98.9226 47.41 97.894 49.8402 97.2917 52.3905C96.9976 53.2943 96.594 54.1585 96.09 54.9641C96.09 55.1468 95.9075 55.2686 95.6793 55.0859C93.2607 53.1672 90.3553 52.8017 87.45 52.421C85.5988 52.3154 83.795 51.795 82.1716 50.8982C80.5444 49.7987 79.2458 48.2776 78.4144 46.4973C78.177 45.8803 77.7602 45.3487 77.2179 44.9714C76.6755 44.594 76.0325 44.3882 75.3721 44.3806C74.277 44.3698 73.1926 44.5959 72.1928 45.0433C71.1931 45.4908 70.3017 46.1491 69.5795 46.9733C68.8573 47.7974 68.3215 48.768 68.0086 49.8186C67.6956 50.8692 67.613 51.9751 67.7664 53.0606C68.0098 55.2382 68.2075 57.4158 68.4813 59.5934C68.744 62.0778 69.8627 64.3931 71.6453 66.1414C71.7189 66.2431 71.785 66.35 71.8431 66.4612H65.4999C64.9219 66.4612 64.5416 66.1719 64.5568 65.6085C64.6633 61.573 63.0357 57.9944 61.621 54.3702C61.4841 54.0047 61.3472 53.6545 61.1799 53.2585C60.8558 53.7395 60.6237 54.2765 60.4954 54.8423C60.3495 55.7892 60.0024 56.6937 59.4776 57.495C58.9528 58.2962 58.2624 58.9754 57.4531 59.4868C55.3235 60.8878 53.1178 62.1212 50.9274 63.4309L50.5928 63.5679V60.1721C50.5928 58.8472 50.5928 57.5376 50.5928 56.228C50.5928 55.893 50.5928 55.7864 51.0187 55.8473C51.6676 55.9751 52.3402 55.897 52.9428 55.6241C53.5453 55.3511 54.0479 54.8969 54.3804 54.3245L55.6429 52.4971C55.0394 52.4329 54.4292 52.4899 53.848 52.6646C51.4619 53.2499 48.9797 53.3277 46.5617 52.8931C44.5654 52.284 42.65 51.4352 40.8575 50.3652C37.8152 48.8424 34.6512 47.1673 31.5329 45.5836C31.0264 45.318 30.4903 45.1136 29.9357 44.9745C29.6696 44.8629 29.3821 44.8118 29.0939 44.8251C28.8057 44.8383 28.5241 44.9154 28.2694 45.051C28.0146 45.1865 27.7932 45.377 27.621 45.6087C27.4488 45.8404 27.3301 46.1075 27.2737 46.3907C26.5444 48.4801 26.3684 50.7231 26.763 52.9008C27.1575 55.0786 28.1091 57.1169 29.525 58.8168C30.9092 60.4918 32.6737 61.7862 34.0884 63.3852C34.9482 64.2796 35.7082 65.2651 36.3549 66.3242H27.4714C27.1976 66.3242 26.8478 66.4308 26.9999 65.913C27.6996 63.5222 26.5739 61.8471 24.8703 60.37C23.9728 59.5934 23.0905 58.8472 22.2691 57.9183C21.4511 57.019 20.857 55.9389 20.535 54.7661C20.2916 53.959 19.9722 53.2433 19.6528 52.2535C18.9928 52.858 18.4808 53.6064 18.1563 54.4409C17.8318 55.2754 17.7037 56.1735 17.7818 57.0655C18.0554 58.619 18.7028 60.0825 19.668 61.3294L22.4821 65.8978C22.4821 66.0196 22.5886 66.1567 22.6646 66.3546H13.4161C13.0662 66.3546 12.8837 66.3546 12.975 65.8826C13.5466 63.1004 13.4685 60.2237 12.7468 57.4767C12.4806 56.0186 12.5116 54.5216 12.8381 53.0758C13.3159 49.7497 12.7076 46.358 11.104 43.406C10.1062 41.4799 9.48171 39.3821 9.26337 37.2234C9.12116 35.0284 9.60099 32.8378 10.6476 30.9038C11.1648 29.8988 11.7428 28.9089 12.26 27.8582C12.6971 27.1507 12.8865 26.3177 12.7983 25.4905C12.7102 24.6634 12.3496 23.8891 11.7733 23.2898C11.1952 22.635 10.6628 21.9497 9.97831 21.1274C11.3277 21.7055 12.8404 21.7758 14.2375 21.3254C14.9771 21.063 15.6861 20.7209 16.3519 20.3051C19.0161 18.5729 22.1055 17.6087 25.281 17.5184C27.4465 17.5011 29.5967 17.8831 31.6241 18.6453C34.892 19.9011 38.421 20.3221 41.8921 19.8701C45.3633 19.4182 48.6672 18.1075 51.5054 16.0565C54.0403 14.2553 57.1011 13.3483 60.2069 13.4778C63.3127 13.6074 66.2875 14.7662 68.6639 16.7722C71.3107 18.9194 73.851 21.1731 76.5586 23.2441C78.0798 24.4014 79.753 25.2847 81.3654 26.2897C81.6227 26.422 81.9105 26.4832 82.1992 26.4672C82.4879 26.4511 82.7672 26.3583 83.0082 26.1984L84.5294 25.4674C84.5178 26.1533 84.4414 26.8365 84.3012 27.508C84.1682 28.0664 84.1749 28.6491 84.3209 29.2043C84.4668 29.7595 84.7475 30.2701 85.1378 30.6906C85.2054 30.7809 85.2914 30.8557 85.3901 30.91C85.4889 30.9644 85.5981 30.9969 85.7104 31.0056C85.8227 31.0142 85.9356 30.9988 86.0415 30.9602C86.1474 30.9216 86.2438 30.8609 86.3243 30.782C86.7959 30.4317 87.3131 30.1272 87.8455 29.8074C87.9608 29.7135 88.098 29.6503 88.2442 29.6237C88.3905 29.5971 88.5411 29.6079 88.6821 29.6551L87.7694 31.2693C87.648 31.4715 87.5752 31.6992 87.5567 31.9344C87.5382 32.1696 87.5746 32.4058 87.6629 32.6246C88.4843 34.6651 89.1841 36.7057 90.0815 38.7158C90.979 40.7259 92.2568 41.198 94.2495 40.0863C94.5385 39.9188 94.934 39.4924 95.1621 39.7361C95.3903 39.9797 95.1621 40.6041 94.9796 40.9848C94.3559 41.8832 93.7018 42.7512 93.0325 43.6192C92.7892 43.939 92.7739 44.137 93.0325 44.4263C93.351 44.7532 93.7337 45.0105 94.1564 45.1819C94.5792 45.3533 95.0328 45.4352 95.4888 45.4223C95.9447 45.4094 96.393 45.3021 96.8054 45.1071C97.2179 44.9121 97.5854 44.6336 97.885 44.2892C99.1627 42.9796 100.212 41.4721 101.384 40.0711C101.49 39.934 101.566 39.6599 101.794 39.7513C102.022 39.8427 101.855 40.1472 101.855 40.3147Z" fill="#C9CBD4"/>
</svg>
