<svg width="260" height="65" viewBox="0 0 260 65" fill="none" xmlns="http://www.w3.org/2000/svg">
<path d="M180.183 51.9093L182.942 60.1527L185.885 51.9093H187.409L182.531 65.0009H181.143L182.668 61.1774H182.119L178.811 51.9093H180.183Z" fill="#C9CBD4"/>
<path d="M165.546 61.1758L165.439 60.2276C164.703 60.9411 163.732 61.36 162.71 61.4052C162.348 61.4443 161.983 61.4059 161.638 61.2925C161.292 61.179 160.975 60.9932 160.707 60.7473C160.439 60.5013 160.226 60.201 160.082 59.8662C159.938 59.5314 159.868 59.1697 159.874 58.8053C159.874 56.71 161.048 55.6547 164.448 55.6547H165.378V54.2936C165.378 53.2383 164.631 52.7642 163.579 52.7642C162.586 52.7921 161.611 53.043 160.728 53.4983L160.286 52.5654C161.383 51.9794 162.611 51.6846 163.853 51.7089C165.652 51.7089 166.735 52.5348 166.735 54.3089V61.1911L165.546 61.1758ZM165.393 56.7253C164.994 56.6668 164.592 56.6311 164.189 56.6182C162.039 56.6182 161.292 57.3524 161.292 58.6523C161.284 58.888 161.327 59.1226 161.417 59.3403C161.507 59.5581 161.643 59.7539 161.814 59.9147C161.986 60.0756 162.19 60.1976 162.413 60.2727C162.636 60.3477 162.872 60.3741 163.106 60.3499C163.949 60.3498 164.763 60.0396 165.393 59.4782V56.7253Z" fill="#C9CBD4"/>
<path d="M71.2346 61.1758L71.1279 60.2276C70.3857 60.9409 69.4104 61.3595 68.3835 61.4052C68.023 61.4445 67.6582 61.4061 67.3136 61.2926C66.9691 61.179 66.6527 60.9929 66.3856 60.7467C66.1186 60.5006 65.907 60.2 65.7651 59.8652C65.6233 59.5304 65.5543 59.169 65.563 58.8053C65.563 56.71 66.7369 55.6547 70.1369 55.6547H71.0669V54.2936C71.0669 53.2383 70.3198 52.7642 69.2678 52.7642C68.2793 52.7902 67.3096 53.0412 66.432 53.4983L65.9746 52.5654C67.0716 51.9794 68.2997 51.6846 69.5423 51.7089C71.3413 51.7089 72.4238 52.5348 72.4238 54.3089V61.1911L71.2346 61.1758ZM71.0669 56.7253C70.6728 56.6669 70.2758 56.6311 69.8777 56.6182C67.728 56.6182 66.9809 57.3523 66.9809 58.6523C66.9731 58.888 67.0157 59.1225 67.1059 59.3403C67.196 59.558 67.3316 59.7539 67.5034 59.9147C67.6753 60.0756 67.8795 60.1976 68.1023 60.2727C68.3251 60.3477 68.5614 60.3741 68.7952 60.3499C69.6387 60.3526 70.4533 60.0421 71.0821 59.4782L71.0669 56.7253Z" fill="#C9CBD4"/>
<path d="M153.263 61.39C152.632 61.381 152.004 61.3093 151.387 61.1759V64.9994H150.031V51.9078H151.387V52.7184C152.146 52.0617 153.114 51.6983 154.117 51.6937C154.695 51.6942 155.266 51.8173 155.794 52.0549C156.321 52.2925 156.793 52.6394 157.177 53.0726C157.561 53.5059 157.85 54.0158 158.024 54.5689C158.198 55.122 158.254 55.7057 158.187 56.2819C158.212 56.9452 158.103 57.6066 157.866 58.2264C157.629 58.8463 157.27 59.4118 156.81 59.8889C156.35 60.366 155.799 60.745 155.189 61.0029C154.58 61.2609 153.924 61.3926 153.263 61.39ZM153.812 52.7643C152.945 52.8069 152.106 53.0872 151.387 53.5749V60.0289C151.998 60.2062 152.628 60.3089 153.263 60.3348C153.76 60.3059 154.247 60.1773 154.695 59.9567C155.142 59.7361 155.541 59.4278 155.868 59.0501C156.195 58.6724 156.443 58.2328 156.598 57.7574C156.753 57.282 156.811 56.7803 156.769 56.2819C156.816 55.8542 156.775 55.4216 156.649 55.0102C156.524 54.5988 156.317 54.2172 156.041 53.8884C155.764 53.5596 155.424 53.2904 155.041 53.0972C154.658 52.904 154.24 52.7907 153.812 52.7643Z" fill="#C9CBD4"/>
<path d="M175.744 61.1736V54.7043C175.744 53.4043 175.196 52.762 174.22 52.762C173.039 52.9107 171.921 53.3815 170.988 54.1232V61.1736H169.631V51.9056H170.85V53.2055C171.838 52.3228 173.085 51.786 174.403 51.6761C175.927 51.6761 177.071 52.5326 177.071 54.7349V61.2042L175.744 61.1736Z" fill="#C9CBD4"/>
<path d="M145.953 61.1746V54.7053C145.953 53.4054 145.404 52.763 144.428 52.763C143.262 52.9106 142.163 53.388 141.257 54.1395C141.257 54.323 141.257 54.5065 141.257 54.7053V61.1746H139.885V54.7053C139.885 53.4054 139.321 52.763 138.284 52.763C137.159 52.9146 136.1 53.387 135.235 54.1242V61.1746H133.878V51.9066H135.204V53.2065C136.15 52.3156 137.371 51.776 138.665 51.6772C139.197 51.637 139.728 51.7741 140.175 52.0672C140.621 52.3603 140.959 52.793 141.135 53.2983C142.124 52.3481 143.413 51.7746 144.779 51.6772C146.304 51.6772 147.447 52.5336 147.447 54.7359V61.2052L145.953 61.1746Z" fill="#C9CBD4"/>
<path d="M126.902 61.3908C126.284 61.3796 125.675 61.2429 125.111 60.9889C124.547 60.7348 124.04 60.3687 123.621 59.9128C123.202 59.4568 122.88 58.9203 122.673 58.3358C122.467 57.7513 122.381 57.1309 122.42 56.512C122.369 55.8904 122.447 55.2648 122.649 54.6749C122.851 54.085 123.173 53.5435 123.594 53.0846C124.015 52.6258 124.527 52.2595 125.096 52.009C125.666 51.7585 126.281 51.6292 126.902 51.6292C127.524 51.6292 128.139 51.7585 128.709 52.009C129.278 52.2595 129.79 52.6258 130.211 53.0846C130.632 53.5435 130.954 54.085 131.156 54.6749C131.358 55.2648 131.436 55.8904 131.385 56.512C131.424 57.1309 131.338 57.7513 131.131 58.3358C130.925 58.9203 130.602 59.4568 130.184 59.9128C129.765 60.3687 129.258 60.7348 128.694 60.9889C128.13 61.2429 127.521 61.3796 126.902 61.3908ZM126.902 52.765C126.454 52.8127 126.019 52.9487 125.623 53.1652C125.226 53.3817 124.877 53.6745 124.593 54.0268C124.31 54.3792 124.099 54.7841 123.972 55.2184C123.845 55.6527 123.805 56.1079 123.853 56.5579C123.739 57.0219 123.732 57.506 123.832 57.9733C123.931 58.4407 124.136 58.8791 124.43 59.2554C124.724 59.6317 125.099 59.936 125.527 60.1452C125.956 60.3545 126.426 60.4633 126.902 60.4633C127.379 60.4633 127.849 60.3545 128.278 60.1452C128.706 59.936 129.081 59.6317 129.375 59.2554C129.669 58.8791 129.873 58.4407 129.973 57.9733C130.073 57.506 130.066 57.0219 129.952 56.5579C130.005 56.1072 129.967 55.6505 129.842 55.2145C129.716 54.7785 129.506 54.372 129.222 54.0187C128.938 53.6655 128.586 53.3727 128.188 53.1574C127.79 52.9421 127.353 52.8087 126.902 52.765Z" fill="#C9CBD4"/>
<path d="M94.6127 55.8089H92.219V61.177H90.7859V48.6208H94.6127C95.1035 48.5566 95.6023 48.6021 96.0734 48.7542C96.5445 48.9062 96.9763 49.1609 97.3377 49.5001C97.6991 49.8392 97.9812 50.2544 98.1638 50.7158C98.3464 51.1772 98.4249 51.6735 98.3938 52.1689C98.4227 52.6678 98.3434 53.167 98.1615 53.6321C97.9795 54.0972 97.6991 54.5173 97.3397 54.8633C96.9803 55.2092 96.5504 55.4729 96.0797 55.6362C95.6089 55.7994 95.1084 55.8584 94.6127 55.8089ZM94.6127 49.6913H92.219V54.8148H94.6889C95.0165 54.8149 95.3404 54.7454 95.6393 54.6108C95.9381 54.4762 96.2051 54.2796 96.4226 54.0339C96.6402 53.7882 96.8033 53.4991 96.9013 53.1855C96.9993 52.8719 97.0299 52.5411 96.9911 52.2148C97.0354 51.8924 97.0093 51.5642 96.9147 51.2528C96.8201 50.9415 96.6592 50.6545 96.4432 50.4116C96.2272 50.1687 95.9612 49.9758 95.6636 49.8462C95.3659 49.7165 95.0438 49.6533 94.7194 49.6607L94.6127 49.6913Z" fill="#C9CBD4"/>
<path d="M87.9366 57.7474C87.9366 60.2861 86.1375 61.3873 83.4999 61.3873C80.8623 61.3873 79.0632 60.3167 79.0632 57.7474V48.571H80.4964V57.9156C80.4964 59.5979 82.021 60.2708 83.5456 60.2708C85.0703 60.2708 86.5949 59.5826 86.5949 57.9156V48.6322H88.028L87.9366 57.7474Z" fill="#C9CBD4"/>
<path d="M103.413 61.3889C102.219 61.4007 101.047 61.0603 100.044 60.4101C100.253 60.0658 100.482 59.7339 100.73 59.416C101.548 59.9707 102.503 60.2882 103.489 60.3336C103.788 60.3613 104.089 60.3261 104.373 60.2302C104.657 60.1344 104.918 59.9799 105.139 59.7768C105.36 59.5738 105.537 59.3265 105.657 59.051C105.777 58.7756 105.838 58.4779 105.837 58.1772C105.837 55.3784 100.028 55.1184 100.028 51.6008C100.052 51.1423 100.17 50.6937 100.374 50.2827C100.578 49.8718 100.864 49.5072 101.214 49.2118C101.564 48.9163 101.971 48.6963 102.41 48.5653C102.849 48.4343 103.309 48.3951 103.764 48.4503C104.794 48.4636 105.801 48.7598 106.676 49.3067L106.127 50.2855C105.383 49.8312 104.541 49.5637 103.672 49.5055C103.405 49.469 103.134 49.4891 102.875 49.5646C102.617 49.6401 102.377 49.7693 102.171 49.9438C101.966 50.1183 101.799 50.3342 101.682 50.5775C101.565 50.8208 101.5 51.0861 101.492 51.3561C101.492 54.2314 107.286 54.4149 107.286 58.116C107.255 58.5896 107.13 59.0522 106.917 59.4758C106.704 59.8995 106.407 60.2756 106.045 60.5814C105.684 60.8871 105.264 61.1163 104.812 61.2551C104.359 61.3939 103.883 61.4394 103.413 61.3889Z" fill="#C9CBD4"/>
<path d="M121.69 60.9469C120.771 61.2501 119.807 61.3949 118.839 61.3751C117.125 61.3751 115.48 60.6919 114.268 59.4758C113.056 58.2597 112.375 56.6103 112.375 54.8905C112.375 53.1707 113.056 51.5213 114.268 50.3052C115.48 49.0891 117.125 48.4059 118.839 48.4059C119.82 48.3869 120.794 48.5637 121.705 48.9259L121.263 49.9965C120.484 49.64 119.635 49.4624 118.778 49.4765C115.729 49.4765 114.037 51.9235 114.037 54.8599C113.978 55.5512 114.062 56.2473 114.285 56.9041C114.508 57.561 114.864 58.1643 115.331 58.676C115.798 59.1877 116.366 59.5966 116.999 59.8769C117.631 60.1572 118.315 60.3029 119.007 60.3046C119.825 60.3244 120.639 60.1788 121.401 59.8763L121.69 60.9469Z" fill="#C9CBD4"/>
<path d="M187.372 31.0609H174.81V36.1079H187.372V31.0609Z" fill="#C9CBD4"/>
<path d="M18.5583 26.2593C18.6681 27.6166 18.2552 28.9646 17.4044 30.0257C16.5535 31.0869 15.3296 31.7805 13.9844 31.9639V36.8273C15.5809 36.8796 17.1712 36.604 18.6578 36.0175C20.1443 35.431 21.4957 34.546 22.629 33.4168C24.4082 31.4641 25.3787 28.9045 25.3428 26.2593H18.5583Z" fill="#C9CBD4"/>
<path d="M121.071 21.7025C121.129 24.3677 120.414 26.9924 119.013 29.2577C118.359 30.1023 117.528 30.792 116.579 31.2779C115.629 31.7637 114.584 32.0338 113.519 32.0688C112.454 32.1039 111.394 31.9031 110.414 31.4806C109.435 31.0582 108.56 30.4246 107.853 29.6247C106.293 27.286 105.503 24.5151 105.596 21.7025H98.8271C98.8271 24.5472 99.376 29.3495 102.547 32.6988C103.957 34.0747 105.629 35.1519 107.462 35.8666C109.295 36.5813 111.254 36.9187 113.22 36.8587C115.22 36.929 117.213 36.5804 119.071 35.8352C120.93 35.09 122.613 33.9645 124.014 32.5306C126.41 29.4272 127.737 25.6274 127.795 21.7025H121.071Z" fill="#C9CBD4"/>
<path d="M55.1737 21.7025C55.244 24.3671 54.5337 26.9939 53.1307 29.2577C52.5337 30.1998 51.6909 30.9601 50.6939 31.4562C49.6968 31.9522 48.5834 32.1651 47.4744 32.0718C46.4277 32.1647 45.3746 31.9889 44.4144 31.5608C43.4541 31.1327 42.6183 30.4664 41.9857 29.6247C40.433 27.2825 39.6445 24.5141 39.7293 21.7025H32.9294C32.9294 24.5472 33.4783 29.3494 36.6495 32.6988C38.0582 34.0774 39.7291 35.1575 41.5626 35.8748C43.3961 36.5921 45.3547 36.9319 47.3219 36.874C49.3317 36.9481 51.3349 36.6016 53.2039 35.8564C55.0728 35.1112 56.7666 33.9838 58.1773 32.5459C60.5684 29.4398 61.8947 25.6417 61.9583 21.7178L55.1737 21.7025Z" fill="#C9CBD4"/>
<path d="M186.046 17.8921H174.81V22.8626H186.046V17.8921Z" fill="#C9CBD4"/>
<path d="M149.396 12.4048H142.855V36.1103H149.396V12.4048Z" fill="#C9CBD4"/>
<path d="M79.241 17.5547L73.9505 5.82434H66.3579L76.1765 24.1923L79.241 17.5547Z" fill="#C9CBD4"/>
<path d="M86.5846 5.82434L76.583 27.4805V36.1062H83.0017V25.0487L93.2319 5.82434H86.5846Z" fill="#C9CBD4"/>
<path d="M186.915 5.68909H174.81V10.6596H186.915V5.68909Z" fill="#C9CBD4"/>
<path d="M173.038 5.68909H166.589V36.1086H173.038V5.68909Z" fill="#C9CBD4"/>
<path d="M158.408 5.68909H133.831V10.6443H158.408V5.68909Z" fill="#C9CBD4"/>
<path d="M12.2885 31.9798C6.79984 31.2456 6.78459 23.3081 6.78459 21.5799C6.78459 15.9212 8.43119 11.2719 12.2885 10.4154V5.62842C4.66536 6.34723 0 12.5565 0 21.5493C0 28.7069 3.04925 36.0173 12.2885 36.8432V31.9798Z" fill="#C9CBD4"/>
<path d="M14.0469 10.3079C18.0414 10.5679 18.4226 14.6055 18.6208 15.6149H25.2376C25.2376 9.60443 20.6638 5.59743 14.1231 5.53625V10.3079H14.0469Z" fill="#C9CBD4"/>
<path d="M105.627 19.9568C105.544 17.238 106.317 14.5619 107.838 12.3099C108.508 11.4799 109.361 10.8162 110.329 10.3706C111.296 9.92494 112.354 9.70932 113.418 9.74051C115.01 9.71825 116.562 10.241 117.817 11.2225C119.073 12.204 119.957 13.5856 120.325 15.1392C120.815 16.7037 121.072 18.3323 121.087 19.9721H127.872C127.835 16.0704 126.48 12.2964 124.03 9.2664C122.635 7.87201 120.965 6.78567 119.127 6.07716C117.289 5.36864 115.324 5.05362 113.357 5.15234C103.066 5.15234 99.2392 12.4475 98.8428 20.0486L105.627 19.9568Z" fill="#C9CBD4"/>
<path d="M39.7293 19.9571C39.6455 17.2383 40.4192 14.5623 41.94 12.3102C42.6104 11.4802 43.4627 10.8165 44.4305 10.3709C45.3983 9.92526 46.4556 9.70964 47.5201 9.74083C49.1118 9.71857 50.6635 10.2413 51.9191 11.2228C53.1747 12.2043 54.0592 13.5859 54.4267 15.1396C54.911 16.705 55.1627 18.3334 55.1737 19.9724H61.9583C61.9214 16.0707 60.567 12.2968 58.1163 9.26672C56.7223 7.87156 55.0525 6.7847 53.2143 6.07614C51.3762 5.36757 49.4106 5.05299 47.4439 5.15267C37.1527 5.15267 33.3411 12.4478 32.9294 20.0489L39.7293 19.9571Z" fill="#C9CBD4"/>
<path d="M259.003 29.0889L230.004 0V14.8809H197.209L204.269 21.962H234.868V14.8809L248.986 29.0431H221.329L228.388 36.1241H251.989L259.003 29.0889Z" fill="#C9CBD4"/>
</svg>
