<svg width="212" height="66" viewBox="0 0 212 66" fill="none" xmlns="http://www.w3.org/2000/svg">
<path d="M57.5283 64.4504C57.4421 64.9292 57.1741 65.3561 56.7806 65.6416C56.387 65.927 55.8983 66.049 55.4169 65.982C43.5134 65.982 31.5945 65.982 19.6757 65.982C19.2167 65.982 18.7883 65.982 18.5894 65.4153C18.7843 65.1735 19.0445 64.9927 19.3391 64.8946C24.6176 64.3891 29.9115 64.8946 35.1901 64.6189C33.8589 60.6521 31.1967 57.4205 29.3607 53.7601C28.6806 52.8493 28.2294 51.7882 28.0449 50.6663C28.102 50.5488 28.1686 50.4361 28.2438 50.3293L48.7307 50.4212C51.24 53.0555 52.4946 56.5475 54.4377 59.4728C55.4934 61.0963 56.4726 62.8269 57.5283 64.4504Z" fill="#C9CBD4"/>
<path d="M17.2722 32.0104L26.6207 47.8315C27.1256 48.6739 27.6917 49.4703 28.2425 50.2974L28.1048 50.4811C27.6286 50.902 27.0108 51.1264 26.3759 51.1091C21.0055 51.1091 15.6657 51.4154 10.2801 51.0019C7.05171 45.5189 3.82337 40.0512 0.610328 34.5529C0.227823 33.9096 -0.445384 33.2204 0.426727 32.4393C0.849438 32.1115 1.35059 31.9002 1.88024 31.8267C7.00752 31.4743 12.1548 31.5357 17.2722 32.0104Z" fill="#C9CBD4"/>
<path d="M10.2847 51.002C10.6825 50.3741 11.3098 50.3588 11.9524 50.3588L28.1094 50.4813L36.3256 64.9546C32.0721 65.5519 27.8187 65.0618 23.5652 65.2303C22.0329 65.1063 20.4911 65.1731 18.9752 65.4294H18.5162L10.2847 51.002Z" fill="#C9CBD4"/>
<path d="M19.0435 65.4322C20.8948 64.452 22.8838 65.0493 24.7963 65.0033C28.6367 64.8808 32.4464 65.0033 36.3174 65.0033C36.3174 66.0142 35.5677 65.5088 35.2005 65.5088C29.8148 65.4934 24.4291 65.4475 19.0435 65.4322Z" fill="#C9CBD4"/>
<path d="M57.5216 64.4477C57.1391 64.2639 56.573 64.1721 56.3894 63.8657C53.5591 59.5331 51.004 55.0265 48.7393 50.3726C53.6812 50.3726 58.6079 50.3726 63.5345 50.2195C65.2329 50.2195 65.6919 50.8168 64.7892 52.3024L57.5216 64.4477Z" fill="#C9CBD4"/>
<path d="M176.391 30.9711C177.508 33.6054 176.605 36.3469 176.881 39.0424C177.018 40.4055 177.049 41.738 178.717 42.274C179.168 42.4893 179.668 42.5835 180.167 42.5475C180.666 42.5116 181.147 42.3467 181.563 42.0689C181.98 41.7911 182.317 41.4099 182.542 40.9627C182.767 40.5154 182.872 40.0174 182.848 39.5172C183.001 37.2811 182.848 35.0297 182.955 32.7783C182.955 32.1657 182.45 31.2467 183.46 30.9404C184.913 31.6143 186.596 30.6188 188.05 31.5684C188.708 35.1063 188.141 38.6748 188.264 42.2893C188.132 43.4106 187.633 44.4564 186.844 45.263C186.055 46.0695 185.02 46.5912 183.903 46.7462C181.202 47.4738 178.357 47.4738 175.657 46.7462C174.495 46.5623 173.438 45.9658 172.679 45.0658C171.921 44.1659 171.511 43.0226 171.525 41.8452C171.877 38.4298 171.051 34.9531 171.954 31.5531C173.215 31.2346 174.528 31.1824 175.81 31.3999C176.575 34.0648 175.917 36.791 176.161 39.4866C176.161 39.8388 176.743 39.4866 176.406 39.4866C176.131 36.9694 176.054 34.4345 176.177 31.9053C176.148 31.7432 176.152 31.5769 176.189 31.4164C176.226 31.2558 176.294 31.1044 176.391 30.9711Z" fill="#C9CBD4"/>
<path d="M142.28 30.448C146.182 31.321 146.289 31.5507 144.728 34.3229C144.223 35.2112 143.81 35.4103 142.846 35.0887C142.042 34.7612 141.147 34.7358 140.326 35.0173C139.505 35.2988 138.813 35.8681 138.379 36.6202C137.964 37.2126 137.741 37.9185 137.741 38.6419C137.741 39.3653 137.964 40.0711 138.379 40.6636C138.817 41.4039 139.504 41.9643 140.316 42.2448C141.129 42.5254 142.015 42.5077 142.816 42.1951C145.187 41.5212 144.866 43.7267 145.463 44.7222C146.304 46.1312 144.82 46.2538 143.933 46.5754C142.799 46.993 141.593 47.1824 140.386 47.1327C139.179 47.083 137.993 46.7952 136.897 46.2858C135.801 45.7763 134.816 45.0554 133.999 44.1642C133.182 43.273 132.549 42.2291 132.136 41.0924C132.136 39.4791 132.136 37.871 132.136 36.268C132.595 34.7222 133.498 33.3459 134.734 32.3108C135.969 31.2758 137.482 30.6279 139.083 30.448C140.13 30.7317 141.233 30.7317 142.28 30.448Z" fill="#C9CBD4"/>
<path d="M90.4839 27.1265C90.8758 25.0646 92.0517 23.2354 93.7641 22.0241C95.4765 20.8128 97.5916 20.314 99.664 20.6327C101.007 20.7687 102.33 21.0512 103.611 21.475C106.962 22.5318 107.329 24.1246 104.897 26.7283C104.626 27.0283 104.254 27.2166 103.852 27.2562C103.45 27.2959 103.048 27.1841 102.724 26.9427C101.431 26.2503 99.9557 25.9773 98.5012 26.1616C97.5067 26.2995 96.5581 26.6517 96.3286 27.8463C96.0991 29.041 96.8182 29.6383 97.8586 30.0977C99.8018 31.0167 101.775 31.905 103.673 32.9005C105.065 33.5677 106.189 34.6896 106.859 36.0816C107.529 37.4735 107.706 39.0525 107.36 40.5583C107.181 42.0559 106.53 43.4574 105.501 44.5591C104.472 45.6608 103.118 46.4054 101.638 46.6846C99.7276 47.2343 97.7267 47.3955 95.7533 47.1588C93.7798 46.9221 91.8737 46.2921 90.1473 45.3062C88.7703 44.5557 87.6381 43.6827 89.1222 42.0899C90.132 41.0178 89.979 37.8322 92.9167 40.007C94.2869 41.0634 95.9611 41.6489 97.6903 41.6764C99.0061 41.6764 100.276 41.4773 100.75 39.9764C100.926 39.3667 100.866 38.7133 100.583 38.1458C100.299 37.5783 99.8129 37.1383 99.2203 36.9132C97.6903 36.0402 96.2521 35.351 94.7221 34.6312C92.7025 33.5591 90.8664 32.2726 90.4533 29.7608C90.7468 28.9089 90.7576 27.985 90.4839 27.1265Z" fill="#C9CBD4"/>
<path d="M154.947 31.903C156.813 31.3823 158.42 30.0958 160.562 30.3715C163.178 30.6318 165.244 31.5048 166.085 34.2157C165.902 38.1671 166.59 42.1645 165.733 46.1007C165.337 46.3216 164.884 46.4177 164.433 46.3763C161.541 46.4529 161.526 46.4529 161.541 43.4357C161.449 41.7318 161.449 40.0242 161.541 38.3203C161.541 38.3203 161.388 38.3203 161.541 38.3203C161.647 41.0598 161.555 43.8033 161.266 46.5295C160.409 43.8493 161.005 41.0924 160.914 38.3816C160.914 36.4365 160.378 34.9509 158.19 34.8436C156.002 34.7364 155.13 36.1914 155.13 38.2744C155.008 41.0159 155.482 43.7727 154.839 46.4989C154.227 43.7421 154.839 40.9546 154.579 38.6726C154.473 40.3096 154.473 41.9518 154.579 43.5889C154.778 45.7944 154.059 46.7899 151.779 46.407C151.091 46.2845 150.249 46.6367 149.745 45.9781C149.668 37.6005 149.622 29.2228 149.745 20.8298C151.22 20.3048 152.819 20.2354 154.335 20.6307C154.901 23.602 154.335 26.6038 154.61 29.5904C154.549 30.2949 154.029 31.2445 154.947 31.903Z" fill="#C9CBD4"/>
<path d="M165.593 46.0703C165.593 43.0071 165.593 39.8215 165.593 36.6971C165.593 35.8394 165.287 34.8898 166.082 34.1853C166.951 38.2232 166.951 42.3999 166.082 46.4378C165.98 46.412 165.885 46.3661 165.801 46.3031C165.717 46.24 165.646 46.1608 165.593 46.0703Z" fill="#C9CBD4"/>
<path d="M165.591 46.0713L166.111 46.5154C164.504 46.7682 162.868 46.7682 161.261 46.5154V37.6323H161.796V42.3955C161.796 46.0713 161.796 46.0713 165.591 46.0713Z" fill="#C9CBD4"/>
<path d="M204.027 45.336L199.162 41.1854C198.167 42.717 199.682 44.7693 198.274 46.2702C193.455 46.2702 193.684 46.9441 193.684 41.89C193.684 35.7637 193.684 29.6681 193.684 23.603C193.545 22.6265 193.656 21.6306 194.006 20.7084C195.485 20.1947 197.085 20.1413 198.596 20.5552C199.085 24.6445 198.672 28.7644 198.825 32.8078C198.825 33.7726 198.55 34.7835 199.101 35.7024C201.625 34.7528 202.589 31.8888 205.068 30.8933C206.44 31.138 207.838 31.2152 209.229 31.123C209.857 31.123 210.759 30.9392 210.545 32.1492C208.893 33.8799 207.317 35.7024 205.527 37.2953C204.318 38.3827 204.532 38.98 205.618 39.9602C207.516 41.6908 209.26 43.59 211.065 45.4126C208.709 47.1739 206.414 46.3009 204.027 45.336Z" fill="#C9CBD4"/>
<path d="M204.028 45.3325C206.384 45.6388 208.725 46.8641 211.097 45.455C211.448 45.7307 212.397 45.8839 211.816 46.4506C211.005 47.2929 205.099 46.3127 204.028 45.3325Z" fill="#C9CBD4"/>
<path d="M18.4717 0.614064C19.1449 -0.274245 20.1241 0.0626991 20.9809 0.0626991C32.1042 0.0626991 43.2427 0.0626991 54.3659 0.0626991C55.2032 -0.00519769 56.0405 0.191871 56.7598 0.626073C57.4791 1.06028 58.0439 1.70968 58.3746 2.48258C60.9297 7.07728 63.8674 11.4882 66.0247 16.2667C65.7789 16.5199 65.4795 16.7147 65.1485 16.8366C64.8174 16.9586 64.4633 17.0045 64.1122 16.9712C58.8097 17.2318 53.4965 17.1807 48.2 16.818C47.2527 16.3483 46.1902 16.1622 45.1399 16.282H27.6824C28.1261 14.7504 29.4878 15.0567 30.5435 15.0414C34.7664 14.9495 38.9892 15.0414 43.2121 15.0414C45.6142 15.0414 45.8284 14.6738 44.7421 12.5909C43.0285 9.52778 41.1772 6.55655 39.4636 3.49341C39.111 2.81559 38.5647 2.25832 37.8942 1.89277C37.2238 1.52722 36.4598 1.36997 35.6997 1.44111C31.1096 1.44111 26.5196 1.44111 21.9295 1.44111C21.3272 1.54035 20.7111 1.51832 20.1174 1.37631C19.5236 1.2343 18.9641 0.975163 18.4717 0.614064Z" fill="#C9CBD4"/>
<path d="M48.207 16.8185C48.9873 15.9149 50.0431 16.2978 50.9917 16.2824C56.0254 16.2824 61.0592 16.2824 66.093 16.2824C69.153 21.4591 72.213 26.6256 75.2731 31.7819C75.778 32.6243 76.0993 33.3135 75.2731 34.2018C70.277 34.5336 65.2671 34.6052 60.2636 34.4162C59.4554 34.3607 58.6754 34.0969 57.9992 33.6504L48.207 16.8185Z" fill="#C9CBD4"/>
<path d="M57.9985 33.6483H73.2987C74.0025 33.6483 74.8287 33.5258 75.2572 34.215L66.7349 48.8568L57.9985 33.6483Z" fill="#C9CBD4"/>
<path d="M116.971 31.4265C116.971 35.7303 116.971 40.0493 117.155 44.3377C117.246 46.344 116.527 46.8801 114.722 46.6197C113.827 46.5378 112.928 46.502 112.029 46.5125C111.992 46.4443 111.969 46.3694 111.961 46.2921C111.953 46.2149 111.961 46.1368 111.984 46.0626C112.007 45.9884 112.044 45.9195 112.094 45.86C112.144 45.8005 112.205 45.7515 112.274 45.7161C115.563 44.6899 115.472 44.6899 115.609 41.1214C115.732 37.9357 115.013 34.6888 116.145 31.5491C116.185 31.4798 116.241 31.4205 116.307 31.3756C116.374 31.3307 116.449 31.3012 116.528 31.2895C116.608 31.2777 116.689 31.2839 116.765 31.3077C116.842 31.3314 116.912 31.372 116.971 31.4265Z" fill="#C9CBD4"/>
<path d="M188.234 42.2225C187.163 38.6693 188.066 35.0241 187.76 31.4249C187.806 31.3197 187.878 31.2279 187.969 31.1583C188.06 31.0886 188.167 31.0433 188.28 31.0267C188.869 34.7366 188.854 38.5176 188.234 42.2225Z" fill="#C9CBD4"/>
<path d="M172.076 31.4316C172.076 34.0352 172.076 36.6236 172.076 39.2273C172.076 40.0849 172.382 41.0498 171.51 41.7084C170.911 38.1599 170.911 34.5359 171.51 30.9874C171.634 31.0066 171.752 31.0576 171.851 31.1354C171.95 31.2132 172.028 31.3152 172.076 31.4316Z" fill="#C9CBD4"/>
<path d="M112.041 46.0707C112.041 46.2238 112.041 46.3923 112.041 46.5608C111.077 46.3463 111.505 45.5652 111.505 45.0292C111.505 40.8531 111.505 36.672 111.505 32.4857C111.505 31.9649 111.092 31.1838 112.056 30.9541C112.288 31.2057 112.474 31.496 112.607 31.8118C112.96 35.8861 113.032 39.9801 112.821 44.0643C112.825 44.8081 112.546 45.5255 112.041 46.0707Z" fill="#C9CBD4"/>
<path d="M113.073 27.0658C112.672 26.9878 112.293 26.8228 111.962 26.5825C111.632 26.3422 111.358 26.0324 111.159 25.6749C110.961 25.3173 110.844 24.9206 110.815 24.5127C110.786 24.1048 110.846 23.6955 110.992 23.3135C111.164 22.5864 111.58 21.94 112.169 21.4814C112.758 21.0229 113.487 20.7797 114.233 20.7922C114.98 20.8047 115.699 21.0722 116.273 21.5502C116.847 22.0283 117.24 22.6882 117.388 23.4207C117.532 23.8034 117.588 24.2135 117.552 24.6208C117.516 25.0281 117.389 25.4221 117.18 25.7736C116.972 26.1251 116.687 26.4251 116.347 26.6515C116.006 26.8778 115.62 27.0247 115.215 27.0811C114.512 26.907 113.778 26.9018 113.073 27.0658Z" fill="#C9CBD4"/>
<path d="M127.695 20.2325C128.414 23.4029 127.94 26.6345 128.001 29.8201C128.093 34.4148 127.879 39.0096 128.001 43.6042C128.123 46.0701 127.404 47.0656 124.941 46.6674C124.23 46.581 123.515 46.5401 122.799 46.5449C122.799 45.9169 123.181 45.7178 123.64 45.5187C125.828 45.3196 126.348 43.9871 126.318 41.9808C126.318 36.2221 126.318 30.4634 126.318 24.7047C126.234 23.5335 126.327 22.3562 126.593 21.2127C126.668 20.9634 126.811 20.7398 127.006 20.5668C127.2 20.3937 127.439 20.2781 127.695 20.2325Z" fill="#C9CBD4"/>
<path d="M194.261 20.6151C194.261 27.6757 194.261 34.7362 194.261 41.7967C194.261 46.5292 193.588 45.9932 198.576 46.0238C198.714 46.131 198.775 46.2382 198.729 46.3455C198.683 46.4527 198.637 46.5139 198.591 46.5139C193.389 46.8049 193.389 46.8049 193.389 41.7814C193.389 35.4407 193.389 29.0847 193.389 22.744C193.389 21.9016 192.976 20.9674 193.711 20.2169C193.831 20.2214 193.948 20.2616 194.046 20.3325C194.144 20.4034 194.219 20.5017 194.261 20.6151Z" fill="#C9CBD4"/>
<path d="M198.59 46.5131C198.59 46.3446 198.59 46.1761 198.59 46.023C198.865 44.4914 198.009 42.6688 199.171 41.1832C198.758 43.0058 199.753 44.8437 198.59 46.5131Z" fill="#C9CBD4"/>
<path d="M199.131 35.7471C198.075 34.4759 198.641 32.9903 198.611 31.5966C198.611 27.9208 198.611 24.2298 198.611 20.5387C199.651 21.8558 199.039 23.4027 199.085 24.8271C199.208 28.4722 199.131 32.102 199.131 35.7471Z" fill="#C9CBD4"/>
<path d="M149.913 20.6144V46.069C150.096 46.1813 150.158 46.2885 150.096 46.3907C150.096 46.4979 149.959 46.5591 149.897 46.5591C149.087 46.4213 149.362 45.7627 149.362 45.3032C149.362 37.3391 149.362 29.3852 149.362 21.4414C149.362 20.982 149.087 20.3234 149.897 20.1855C150.096 20.2928 150.158 20.4 150.096 20.4919C150.035 20.5838 149.974 20.6144 149.913 20.6144Z" fill="#C9CBD4"/>
<path d="M149.896 46.5128C149.896 46.3443 149.896 46.1759 149.896 46.0227C150.436 45.9844 150.978 45.9844 151.518 46.0227C153.614 46.3137 154.455 45.5173 154.257 43.3425C154.063 41.3635 154.229 39.3657 154.746 37.4459V46.375C153.145 46.6641 151.51 46.7106 149.896 46.5128Z" fill="#C9CBD4"/>
<path d="M132.144 36.3159C132.492 37.0725 132.672 37.8954 132.672 38.7281C132.672 39.5609 132.492 40.3838 132.144 41.1404C131.57 39.5835 131.57 37.8728 132.144 36.3159Z" fill="#C9CBD4"/>
<path d="M210.585 32.1964C209.055 30.4045 206.714 32.3189 205.108 30.9405C206.791 30.9405 208.474 30.7874 210.157 30.8333C211.289 30.8639 211.825 31.3081 210.585 32.1964Z" fill="#C9CBD4"/>
<path d="M172.081 31.4292L171.561 31.0004C173.162 30.7399 174.795 30.7399 176.396 31.0004V31.4139C176.258 31.7049 176.105 31.7202 175.906 31.4139L172.081 31.4292Z" fill="#C9CBD4"/>
<path d="M175.804 31.4269C175.967 31.4427 176.131 31.4427 176.293 31.4269V39.9424H175.804V31.4269Z" fill="#C9CBD4"/>
<path d="M188.278 31.0292L187.758 31.4274C186.335 31.1977 184.79 31.9175 183.458 30.9373C185.059 30.7076 186.687 30.7386 188.278 31.0292Z" fill="#C9CBD4"/>
<path d="M112.044 31.4291V30.939C113.682 31.0309 115.426 30.1886 116.971 31.4291H116.359C115.749 31.924 114.987 32.1941 114.202 32.1941C113.416 32.1941 112.655 31.924 112.044 31.4291Z" fill="#C9CBD4"/>
<path d="M112.044 31.4269H116.359C116.359 34.9035 116.359 38.3649 116.359 41.8262C116.359 46.5128 117.017 46.0074 112.044 46.0227V31.4269Z" fill="#C9CBD4"/>
<path d="M142.293 30.448C141.829 30.7742 141.276 30.9493 140.71 30.9493C140.143 30.9493 139.59 30.7742 139.126 30.448H142.293Z" fill="#C9CBD4"/>
<path d="M90.4708 27.1246C90.7883 27.4898 90.9632 27.9576 90.9632 28.4418C90.9632 28.9259 90.7883 29.3937 90.4708 29.7589C90.2337 28.8969 90.2337 27.9867 90.4708 27.1246Z" fill="#C9CBD4"/>
<path d="M113.078 27.0655C113.201 26.8977 113.363 26.7613 113.549 26.6673C113.735 26.5733 113.94 26.5243 114.149 26.5243C114.357 26.5243 114.563 26.5733 114.749 26.6673C114.935 26.7613 115.096 26.8977 115.22 27.0655C114.908 27.2921 114.533 27.4142 114.149 27.4142C113.764 27.4142 113.389 27.2921 113.078 27.0655Z" fill="#C9CBD4"/>
<path d="M154.958 31.9022C153.703 31.1823 154.285 29.9724 154.254 28.9769C154.254 26.1894 154.254 23.402 154.254 20.6145C154.294 20.5714 154.343 20.537 154.397 20.5135C154.451 20.4899 154.509 20.4778 154.568 20.4778C154.627 20.4778 154.685 20.4899 154.739 20.5135C154.793 20.537 154.842 20.5714 154.882 20.6145C154.882 24.3669 154.927 28.1345 154.958 31.9022Z" fill="#C9CBD4"/>
<path d="M123.388 46.069L122.868 46.5438C122.042 46.4213 122.302 45.7627 122.302 45.3032C122.302 37.3391 122.302 29.375 122.302 21.4108C122.302 20.9513 122.026 20.2928 122.868 20.1855C123.114 20.2794 123.337 20.425 123.522 20.6126C123.706 20.8003 123.849 21.0255 123.939 21.273C124.566 28.9308 124.153 36.4967 124.169 44.1086C124.167 44.8377 123.888 45.5388 123.388 46.069Z" fill="#C9CBD4"/>
<path d="M123.389 20.6169L122.869 20.1421C124.472 19.943 126.095 19.974 127.689 20.234L127.169 20.6169C126.642 21.0678 125.972 21.3155 125.279 21.3155C124.586 21.3155 123.916 21.0678 123.389 20.6169Z" fill="#C9CBD4"/>
<path d="M123.393 20.6151H127.172C127.172 27.8543 127.172 35.0935 127.172 42.3327C127.172 46.0238 127.172 46.0238 123.378 46.0238L123.393 20.6151Z" fill="#C9CBD4"/>
<path d="M194.263 20.6186L193.743 20.2204C195.396 20.1132 197.079 19.5619 198.655 20.5574L194.263 20.6186Z" fill="#C9CBD4"/>
<path d="M154.854 20.6023H149.912C149.912 20.4338 149.912 20.2806 149.912 20.1275C151.564 20.25 153.293 19.4536 154.854 20.6023Z" fill="#C9CBD4"/>
<path d="M17.2684 32.0103C15.0345 33.0212 12.6783 32.4239 10.368 32.4851C7.06314 32.577 3.72769 32.4851 0.422852 32.4851L8.94506 17.4604L17.2684 32.0103Z" fill="#C9CBD4"/>
<path d="M18.4831 0.61236C24.6032 0.61236 30.7232 0.61236 36.8433 0.61236C37.367 0.523182 37.9054 0.602667 38.3811 0.839366C38.8568 1.07607 39.2451 1.45777 39.4902 1.92951C41.6629 5.94221 43.8661 9.9396 46.2682 13.8145C47.4922 15.7749 46.6507 15.8208 45.0442 15.8055C40.1889 15.8055 35.3388 15.8055 30.4937 15.8055C29.5451 15.8055 28.5047 15.4686 27.6785 16.2956C22.3693 16.2956 17.0602 16.2956 11.7663 16.2956C11.1696 16.2956 9.70076 16.9389 10.3281 15.1929C14.7957 14.8866 19.2634 15.101 23.7463 15.0703C25.5824 15.0703 25.9496 14.5649 25.001 12.8802C22.8283 8.99003 20.1355 5.37553 18.5137 1.16373C18.4869 0.981234 18.4767 0.796696 18.4831 0.61236Z" fill="#C9CBD4"/>
<path d="M18.4703 1.13391C21.3161 4.38083 23.0603 8.36291 25.2177 12.0234C27.375 15.6838 27.3444 15.7144 22.9991 15.7297C19.5872 15.7297 16.1752 15.7297 12.7633 15.7297C11.9065 15.7297 10.9426 16.0207 10.2847 15.1324C13.0081 10.4867 15.7366 5.82051 18.4703 1.13391Z" fill="#C9CBD4"/>
</svg>
