<svg width="221" height="74" viewBox="0 0 221 74" fill="none" xmlns="http://www.w3.org/2000/svg">
<path d="M29.2038 1.47543C24.3911 3.98487 19.0324 5.26005 13.6072 5.18684C11.7784 5.18029 9.95209 5.05326 8.14 4.80658L1.76164 3.92435L1.83757 10.3737C1.80331 14.6472 1.50407 18.9144 0.941566 23.1507C0.607461 26.1928 0.273357 29.2349 0.0911186 32.4748C0.0911186 33.2354 0.0151866 33.9959 0 34.6804V37.5552C0 38.8025 0.106305 39.9889 0.227798 41.1449C1.29086 51.5186 6.30243 58.9262 16.3863 65.1474C18.6643 66.5468 20.9423 67.7636 23.2506 68.9348L25.726 70.2278C26.7739 70.7906 27.8674 71.399 28.7634 72.0226L31.8007 74L34.838 72.0074C35.734 71.4294 36.7211 70.8818 37.8753 70.2278L40.3659 68.9196C42.6135 67.7484 44.9219 66.5468 47.1999 65.1474C57.3141 58.9262 62.2953 51.4578 63.3584 41.1449C63.6346 38.248 63.6854 35.334 63.5102 32.4292C63.328 29.2502 62.9787 26.132 62.6446 23.1202C62.0901 18.878 61.7909 14.6063 61.7486 10.3281V3.87872L55.3854 4.76094C53.5733 5.0071 51.747 5.13413 49.9182 5.14121C44.4926 5.21823 39.1329 3.94284 34.3216 1.4298L31.664 0L29.2038 1.47543ZM30.8895 4.51757L31.8462 4.00041L32.803 4.51757C38.1438 7.30847 44.0921 8.72995 50.1157 8.65488C52.097 8.65283 54.0758 8.51562 56.0384 8.24419L58.3468 7.93998V10.3281C58.3753 14.7488 58.6796 19.1634 59.258 23.5461C59.5769 26.5883 59.9262 29.6304 60.0933 32.6726C60.2705 35.3891 60.2298 38.1155 59.9718 40.8255C59.015 50.1192 54.6868 56.5077 45.4686 62.1205C43.3121 63.4438 41.0493 64.6302 38.8472 65.771L36.3263 67.0943C35.0354 67.7788 33.9724 68.372 32.97 69.0261L31.8614 69.7562L30.768 69.0413C29.7049 68.3416 28.5204 67.6876 27.4118 67.0943L24.8908 65.8319C22.6887 64.6911 20.3348 63.5046 18.2543 62.1813C9.0512 56.5077 4.72302 50.1192 3.76627 40.8863C3.50007 38.1566 3.45437 35.4097 3.62959 32.6726C3.79664 29.6304 4.13074 26.5883 4.46485 23.5461C5.03569 19.1627 5.33998 14.7485 5.37604 10.3281V8.00082L7.6844 8.30503C9.65215 8.57645 11.636 8.71366 13.6224 8.71572C19.6549 8.80053 25.6141 7.38415 30.9654 4.59363" fill="#C9CBD4"/>
<path d="M7.37833 10.2933C7.46945 17.8987 6.04191 25.215 5.63187 32.7899C5.46384 35.3897 5.49939 37.9988 5.73818 40.593C5.88064 42.0102 6.13454 43.414 6.49751 44.7912C16.5668 33.1689 27.8203 22.6316 40.075 13.3507C41.4874 12.3011 42.8086 11.3429 44.0843 10.4454C44.0843 10.4454 44.0843 10.3542 44.0843 10.3085C39.7855 9.73816 35.624 8.39861 31.7983 6.35376C24.2628 10.2205 15.6987 11.5996 7.33277 10.2933" fill="#C9CBD4"/>
<path d="M10.2368 52.6575C12.0316 54.9604 14.1611 56.9806 16.5544 58.6505C22.6325 50.1225 29.4362 42.1375 36.8892 34.7849C27.4876 39.9292 18.5674 45.9109 10.2368 52.6575Z" fill="#C9CBD4"/>
<path d="M171.528 18.7885L164.421 46.913H174.353L177.223 35.6115H188.507L190.025 29.7554H178.742L180.033 24.6294H197.695L191.954 46.913H201.886L207.52 24.6294H218.485L220.004 18.7885H171.528ZM158.559 18.7885L151.451 46.913H161.383L168.506 18.7885H158.559ZM146.744 18.7885L138.421 39.4141L137.009 18.7885H129.583L119.059 38.3646L119.302 18.7885H111.04L110.919 46.913H122.627L130.691 29.9531L131.026 46.9586H142.385L156.554 18.8341L146.744 18.7885ZM90.2041 18.7885C85.1014 18.7885 82.3374 20.9332 81.5477 24.4773L80.3784 29.6185C79.5886 33.1626 82.0033 35.8092 86.453 35.8092H97.2962L95.9598 41.0721H78.4952L76.9766 46.913H96.2787C98.2101 47.0355 100.125 46.4885 101.701 45.3639C103.277 44.2394 104.419 42.6058 104.935 40.7375L106.241 34.9422C106.493 34.1075 106.471 33.2139 106.179 32.3926C105.886 31.5713 105.339 30.8655 104.616 30.379C103.235 29.5812 101.652 29.2009 100.06 29.2838H89.4295L90.6141 24.7206H107.243L108.762 18.8797L90.2041 18.7885Z" fill="#C9CBD4"/>
<path d="M20.1387 38.1025C20.1387 38.1025 38.8637 26.9987 48.3401 24.5954L49.7221 29.767C49.7221 29.767 31.8627 49.1911 24.7858 63.5043L31.8475 67.4135L38.4537 63.7629L44.1486 60.6143C44.1486 60.6143 55.9182 55.1689 57.8166 41.7074C57.8166 41.7074 58.5455 31.2881 57.4369 25.5993C57.4369 25.5993 55.9182 11.8184 56.2979 10.2974C53.9401 10.6418 51.5573 10.7843 49.1754 10.7233C49.1754 10.7233 27.0334 29.5237 20.1387 38.1025Z" fill="#C9CBD4"/>
</svg>
