<?xml version="1.0" encoding="utf-8"?>
<!-- Generator: Adobe Illustrator 26.0.2, SVG Export Plug-In . SVG Version: 6.00 Build 0)  -->
<svg version="1.1" id="Слой_1" xmlns="http://www.w3.org/2000/svg" xmlns:xlink="http://www.w3.org/1999/xlink" x="0px" y="0px"
	 viewBox="0 0 566.9 566.9" style="enable-background:new 0 0 566.9 566.9;" xml:space="preserve">
<style type="text/css">
	.st0{fill:none;stroke:#C22A38;stroke-width:4;stroke-linecap:round;stroke-miterlimit:10;}
	.st1{fill:none;stroke:#C22A38;stroke-width:2;stroke-linecap:round;stroke-miterlimit:10;}
</style>
<path class="st0" d="M380.7,97.7H159.8c-13.8,0-24.9,11.2-24.9,24.9v339.9c0,13.8,11.2,24.9,24.9,24.9h220.8
	c13.8,0,24.9-11.2,24.9-24.9V122.6C405.6,108.8,394.4,97.7,380.7,97.7z"/>
<rect x="158.3" y="125.7" class="st1" width="223.9" height="107.1"/>
<rect x="158.3" y="274.5" class="st1" width="60" height="41.8"/>
<rect x="237" y="274.5" class="st1" width="60" height="41.8"/>
<rect x="315.7" y="274.5" class="st1" width="60" height="41.8"/>
<rect x="158.3" y="344.1" class="st1" width="60" height="41.8"/>
<rect x="237" y="344.1" class="st1" width="60" height="41.8"/>
<rect x="315.7" y="344.1" class="st1" width="60" height="41.8"/>
<rect x="158.3" y="413.7" class="st1" width="60" height="41.8"/>
<rect x="237" y="413.7" class="st1" width="60" height="41.8"/>
<rect x="315.7" y="413.7" class="st1" width="60" height="41.8"/>
</svg>
