<?xml version="1.0" encoding="utf-8"?>
<!-- Generator: Adobe Illustrator 26.0.2, SVG Export Plug-In . SVG Version: 6.00 Build 0)  -->
<svg version="1.1" id="Слой_1" xmlns="http://www.w3.org/2000/svg" xmlns:xlink="http://www.w3.org/1999/xlink" x="0px" y="0px"
	 viewBox="0 0 566.9 566.9" style="enable-background:new 0 0 566.9 566.9;" xml:space="preserve">
<style type="text/css">
	.st0{fill:#C22C38;stroke:#C22A38;stroke-miterlimit:10;}
	.st1{fill:none;stroke:#C22A38;stroke-width:4;stroke-miterlimit:10;}
</style>
<g>
	<path class="st0" d="M167.1,242.3"/>
	<path class="st1" d="M167.1,242.5c0,0,0.1-4,0.3-6.4c0.2-2.4,0.4-4.2,1-8.5c0.6-4.3,1.6-8.1,1.6-8.1l1.4-5.4l1.6-5
		c0,0,0.4-3.4,6.9-16c0,0,2.9-5.3,3.7-6.5c0,0,3.7-6.3,7.5-10.8c0,0,5.2-6.5,8.6-9.9c0,0,11.9-14.2,36.6-25.7c0,0,24-11.8,51.7-10.4
		c0,0,21.9-0.6,48.1,12.6c0,0,16.9,7.5,33.9,25.8c0,0,14.4,12.9,21.8,34.4c7.4,21.6,8.3,39.7,8.3,39.7s-12.4,0.5-21.9,14.2
		c0,0-4.9,5-4.9,18.3l0.2,72.3c0,0-0.7,13.7,13,23.5c0,0,11.3,7.8,24.5,5.2c0,0,9.2-0.5,17.2-10.3c0,0,4.5-5.2,6.4-11.7
		c0,0,11.3,1,20.6-5.1c0,0,13.4-6.7,19-26.9c0,0,6.4-19.5-3.5-36.8c0,0-10.9-20.5-35.7-20.8c0,0-4.5-19-26.5-21.9
		c0,0,3.7-16.2-7.7-40.2c-11.4-24-26.9-40.6-26.9-40.6s-24.3-29.5-61.2-38.2c0,0-43.9-14.7-96.3,17.3c0,0-21.7,10.1-42.3,44.4
		c0,0-14.9,20.7-15.9,57.5c0,0-24.6,1.5-26.4,22c0,0-21.4-3.2-35.1,22.9c0,0-17.8,31.8,8.4,55.2c0,0,7.6,8.6,29,10.5
		c0,0,5.6,13.1,19.2,17.4c0,0-0.8,17.7,17.9,34.8c0,0,9.7,8.1,17.8,12.3c0,0,15.1,9,37.8,14.2c0,0,12,3.5,31.2,5.1
		c0,0,4.7,8.4,18.8,9.8c0,0,11.2,1.1,19.3-3.1c0,0,9.7-3.9,9.3-13.1c-0.3-9.3-12.1-13.2-12.1-13.2s-5.8-2.5-16.7-1.5
		c0,0-12.4,0.8-17.5,7.5c0,0-16.4-0.9-38.4-7.5c0,0-19.3-4.3-37.4-18.3c0,0-13.7-10.1-16.4-25.9c0,0,17.9-1.5,24.7-18.8
		c0,0,1.9-3,2.2-8.9l0.3-21.5c0,0,0-3.8-4.2-4.2c0,0-3.9,0.1-4.6,3.3c0,0-0.3-1.1-0.1,8.2l0.2,10.6c0,0,0.3,5.6-4,12.8
		c-4.3,7.2-10.1,8.2-10.1,8.2s-5,1.5-7.7,1.4c0,0-10.3,0.7-17.4-7c0,0-8-5.6-5.9-31.8l-0.1-53.5c0,0-1-14,12.4-18
		c0,0,7.8-3.7,19.9,0.8c0,0,7.4,2.3,11.8,13.1c0,0,0.7,3.6,0.8,5.6l0.2,22.5c0,0-0.9,5.1,4.2,5.8c0,0,4.7,0.5,4.7-5.6l0-22.8
		c0,0,0.2-10.5-7.7-19.1C186.3,252.9,179.9,244.2,167.1,242.5z"/>
	<path class="st1" d="M400.9,250.1c0,0-13.7,1.5-19.4,16.1c0,0-1.7-2-1.6,23.9l0.1,53.5c0,0,0,8.7,5.5,15.4c0,0,6.6,9.9,20.6,9.6
		c0,0,14.3,0.8,21.3-14.8c0,0,1-2.3,1.8-5.4l0.3-8.6l0.2-68.3c0,0-0.4-2.9-0.8-3.7c0,0-1.1-3.6-2.5-5.8c0,0-2.4-4.7-8.7-8.7
		C417.4,253.3,409.3,248.2,400.9,250.1z"/>
</g>
</svg>
