<?xml version="1.0" encoding="utf-8"?>
<!-- Generator: Adobe Illustrator 26.0.2, SVG Export Plug-In . SVG Version: 6.00 Build 0)  -->
<svg version="1.1" id="Слой_1" xmlns="http://www.w3.org/2000/svg" xmlns:xlink="http://www.w3.org/1999/xlink" x="0px" y="0px"
	 viewBox="0 0 566.9 566.9" style="enable-background:new 0 0 566.9 566.9;" xml:space="preserve">
<style type="text/css">
	.st0{fill:#FFFFFF;stroke:#C22C38;stroke-width:3;stroke-miterlimit:10;}
	.st1{fill:none;stroke:#C22C38;stroke-width:3;stroke-miterlimit:10;}
</style>
<g>
	<path class="st0" d="M203.3,387.1"/>
	<path class="st0" d="M156.7,310.1"/>
	<path class="st1" d="M15.4,290.3h54.7l0.2-33.4l17.2-2.8c0,0,4.5-39,59.9-40.1v102h31c0,0-11.8,4.3-14.3,25.8H85.7
		c0,0-4.1-31.1-33.3-31.4c0,0-27.1-3.1-31.1,31.4H12v-51.5H15.4L15.4,290.3z"/>
	<rect x="79.7" y="264.8" class="st1" width="26.5" height="26.1"/>
	<circle class="st1" cx="53.1" cy="341.7" r="24.7"/>
	<circle class="st1" cx="196.6" cy="341.7" r="24.7"/>
	<circle class="st1" cx="253.3" cy="341.7" r="24.7"/>
	<circle class="st1" cx="440.2" cy="341.7" r="24.7"/>
	<circle class="st1" cx="498.6" cy="341.7" r="24.7"/>
	<polygon class="st1" points="154.3,307.3 154.3,264.6 157.2,264.6 157.2,261.7 160.1,261.7 160.1,212 168.4,212 168.4,261.7 
		171.5,261.5 171.5,265 175.4,265 175.4,309.3 154.3,309.3 	"/>
	<path class="st1" d="M188.1,212v96.7h82.4c0,0,14.9,0.3,21.1,20.8h118.5c0,0,7.1-20.8,30.2-20.5c23,0.3,29.2,20.5,29.2,20.5
		s4.3-20.2,28.3-20.2c24,0,30.2,20.2,30.2,20.2H555V212L188.1,212L188.1,212z"/>
	<path class="st1" d="M210.9,314.2h28.4c-5.5,4.3-10.3,9.6-14.2,15.6C221.2,323.8,216.4,318.5,210.9,314.2L210.9,314.2z"/>
</g>
</svg>
