<?xml version="1.0" encoding="utf-8"?>
<!-- Generator: Adobe Illustrator 26.0.2, SVG Export Plug-In . SVG Version: 6.00 Build 0)  -->
<svg version="1.1" id="Слой_1" xmlns="http://www.w3.org/2000/svg" xmlns:xlink="http://www.w3.org/1999/xlink" x="0px" y="0px"
	 viewBox="0 0 566.9 566.9" style="enable-background:new 0 0 566.9 566.9;" xml:space="preserve">
<style type="text/css">
	.st0{fill:none;stroke:#C22C38;stroke-width:4;stroke-miterlimit:10;}
</style>
<g>
	<path class="st0" d="M195.3,294.3c0,0,7.8-84,91.2-66.2l0.4-108.7h-34.6l-17.8,51.5l-27.4,12l-50.4-22.1l-23.5,24.5l22.1,48
		l-11.5,27.8l-51.9,20.2v32.2l50.4,19.8l12,26.9l-21.1,49.9l22.6,23.5l49.9-22.1l28.8,13l18.7,47.5h31.2l0.8-105.5
		c0,0-78.9,17.3-89.4-61.6"/>
	<g>
		<path class="st0" d="M397.2,247.9v-11.3c0,0,8.6-4.7,16.6-21.5c0,0,3-5.8,4.2-14.8c0,0,2.4-18.2-6.7-34l-0.3-0.6l0,0
			c0,0-11.3-23.6-42.3-27.1c0,0-4.2,0.2-3.8,4.2l20,55L350,210.5l-19.7-54.3c0,0-2.9-4.1-5.6-1c-2.8,3.1-15.5,16.5-15.7,39.9
			c0,0-0.1,40.2,36.2,50.3V373c0,0-29.7,13.8-29.2,48.6c0,0-2.4,33.5,34.2,50.9c0,0,19.7,8.6,39.2,0.9c0,0,1.9-0.5,6.3-2.7
			c0,0,5.8-2.7,11.9-8.2c0,0,6.9-5.5,12.8-17c0,0,8.5-13.5,4.1-36.3c0,0-3.4-22.7-27.9-36.3c0-36.2-0.1-72.3-0.1-108.5"/>
		<polygon class="st0" points="385.1,397.1 356.4,397.1 342,422 356.4,446.8 385.1,446.8 399.5,422 		"/>
	</g>
</g>
</svg>
