<?xml version="1.0" encoding="utf-8"?>
<!-- Generator: Adobe Illustrator 26.0.2, SVG Export Plug-In . SVG Version: 6.00 Build 0)  -->
<svg version="1.1" id="Слой_1" xmlns="http://www.w3.org/2000/svg" xmlns:xlink="http://www.w3.org/1999/xlink" x="0px" y="0px"
	 viewBox="0 0 566.9 566.9" style="enable-background:new 0 0 566.9 566.9;" xml:space="preserve">
<style type="text/css">
	.st0{fill:none;stroke:#C22A38;stroke-width:3;stroke-linecap:round;stroke-miterlimit:10;}
</style>
<g id="Layer_2_1_">
	<polygon class="st0" points="268.8,392.9 268.7,393.2 268.6,393.3 	"/>
	<polygon class="st0" points="440,272.7 439.4,273.5 439.4,273.5 	"/>
	<polygon class="st0" points="440,272.7 439.4,273.5 439.4,273.5 	"/>
	<polygon class="st0" points="485,189.4 484.6,190.3 483.9,190.7 483.4,190.7 483.3,190.9 482.9,191.6 481.3,193 480.3,193.5 
		479.2,195.4 478.4,194.6 477.4,194.5 476.7,195.7 476.3,195.7 475.9,196.7 475.5,197.2 475.1,197.5 474,197.3 473.6,197.3 
		473.6,198 472.7,199 472.9,200 472.6,201.2 472.3,201.6 471.8,201.9 471,201.9 470.8,202.2 470.8,202.8 470.1,203.5 468.7,203.7 
		468.5,204.1 468.5,205 468.3,205.3 468.1,205.1 467.8,204.2 467.5,204.1 465.5,205.8 465.9,206.9 466.3,207.1 466.2,207.5 
		465.4,208.3 465,210.2 464.4,211.5 464.2,212.7 464.1,213.7 463.9,214.1 463.8,214.3 463.8,215.7 464.1,216.9 465.1,217.7 
		465.3,218.2 465.2,218.5 464.7,218.8 464.2,219.6 463.9,220.8 464,221.4 465,221.4 466,221.9 467.6,223.5 468.1,224.5 468.9,225.4 
		470.7,225.5 471.8,225 472.4,223.9 472.1,223.6 471.3,222.9 470.4,222.5 470.4,222 471.5,222 472.7,223.8 473.4,225.5 473.3,226.4 
		472.6,225.8 471.8,226.5 470.4,227 469.2,228.1 468.8,228.1 468.5,228 468.5,227.5 468.3,226.6 468.1,226.6 467.4,227.9 466.4,229 
		466.1,229.4 466.1,229.4 465.3,229.4 464.9,229.9 464.5,229.9 464.5,230.7 464.1,230.8 463.8,230.4 463.8,228.6 463.6,228.4 
		463,229 463,229.9 463.2,230.4 463.2,231 462.4,231.8 460.9,232.7 460.5,232.7 459.6,232.8 457.3,233.8 456.7,233.7 456.4,234 
		456.4,234.4 456.2,234.4 454.8,234.6 452.9,235.5 452.7,235.2 451.6,236.5 448.9,238.8 447.9,239.3 447.2,239.8 446.9,240.8 
		447,241.6 447.5,241.9 448.3,240.8 449.1,240.4 451.2,239.4 453.9,238 455.9,236.9 456.5,236.4 456.9,235.7 457.6,235 457.8,235.3 
		457.1,236.5 456.4,237.2 456.1,237.9 456.3,238.1 457.2,237.7 457.5,237.1 458,236.6 459,236.2 459.7,236 460.5,235.1 460.7,235.3 
		460.6,235.6 460.2,236.5 459.7,236.8 459,237.3 458.6,237.8 458,238 457.2,238.7 456.2,239.3 452.5,241.8 451.6,242.6 450.8,243 
		449.7,243.6 448.3,244 447.9,244.4 446.5,244.4 445.8,244.3 444.7,245.2 444.6,245.6 444.7,245.8 445.1,245.9 445.5,245.6 
		446.7,245.3 447.3,246.1 447.6,248.8 447.8,252.2 447.8,252.9 447.3,254.1 446.9,255.2 445.7,256.9 445.2,258 444.4,259.5 
		444.3,260.6 443.8,261.8 443.3,262.4 442.9,262 442.9,261.2 442.9,259.9 442.4,259.8 441.1,259.7 440.5,259.5 438.7,258.5 
		438.1,257.9 437.5,257.1 437.1,256.2 436.7,256.4 436.7,256.5 436.7,257.1 437.1,257.8 437.9,258.9 438.4,259.7 439.5,261.6 
		439.8,262.2 440.3,262.8 441.8,263.8 442.7,264.7 443.2,266.2 443.4,267.2 443.5,267.5 442.9,270.8 442.7,271.5 442.6,271.9 
		442.5,272.3 441.3,273.1 441.3,273.6 441.3,274.8 441.1,275.7 440.7,276.7 439.7,279 439.2,280.4 439,282 438.6,280.9 438.6,279.4 
		438.4,277.9 438.6,276.3 438.9,275.7 439.6,274.9 439.6,274.5 439.6,273.6 439.3,273.5 439.4,273.5 439.4,273.5 440,272.7 
		439.4,273.5 439.2,273.4 438.3,273.4 437.9,272.8 437.9,272.4 437.3,271.3 437.5,270.6 437.1,270.5 436.5,270.5 436.1,270.8 
		435.5,270.8 434.4,270 433.9,268.9 434,268.4 433.7,267.9 434,267.1 433.7,266.7 432.9,266.4 432.7,265.9 433.7,265.3 433.8,264.9 
		433.4,263.1 432.8,262.8 432.4,262 432.8,261.1 433.3,260.4 433.7,259.7 434.4,258.5 434.1,258 433.2,258 432.8,259.4 432.6,259.7 
		431.2,260.7 431,261.3 430.7,261.7 430.6,262.1 430.6,262.6 431,262.9 431.1,263.5 430.7,265.2 430.9,266.3 431.1,267 431.6,268.7 
		432.3,269.8 433.1,270.1 432.8,270.5 432.6,270.5 432.5,270.8 432.6,271 433.3,271.1 434,272.3 434.4,272.7 434.3,273.1 434,273.1 
		433.2,272.7 431.5,272.2 430.3,272.1 429.3,272.3 429.3,272.7 429.7,272.7 430.3,273.3 430.6,273.4 431.2,273.1 431.5,273.1 
		433.3,274.1 434.6,274.5 435.3,275.2 435.2,275.7 434.8,276.1 435,277.4 434.8,277.6 434.4,277.8 434.4,278 435.8,278.6 
		436.3,279.7 436.2,280 436,280.4 434.8,280.1 434.7,280.6 435.1,281.1 435.3,281 435.3,281.4 434.7,281.7 434.4,281.7 434.3,281.9 
		434.7,282.2 435.7,282.3 436.6,282.6 436.8,283.1 435.8,284.1 435.3,284.1 434.1,283.7 434.1,284.2 434.9,284.6 435.7,285.1 
		436.6,284.9 437.5,284.2 439.5,284.2 439.6,284.4 440.5,287.2 439.8,287.8 439.6,287.8 439.7,288.2 440,288.6 440.2,288.9 
		440.8,289.3 441.2,289.4 441.5,289.9 441.8,290.2 442.2,291.2 442.1,291.5 442.2,291.6 441.8,291.6 441.8,291.2 441.1,291.4 
		440.7,291.4 440.3,291.2 440,291.3 440.2,291.7 440.1,292 438.2,292.8 437.8,293.2 437.1,294 435.9,294.1 435.7,295 435.7,295.1 
		435.9,295.2 436.3,295.1 437.6,294.5 438.8,294.2 439.6,293.7 440.8,293.8 440.9,294 440.8,294.7 440.9,295 441.3,295.2 441.8,295 
		441.9,294.7 442.6,293.8 443.2,293.8 443.6,294.8 443.8,296.3 444,296.8 444,297.2 442.9,298 442.7,298.6 442.6,299 441.8,299.6 
		441.2,299.9 440.5,300.2 439.2,300.1 438.7,300.1 438.5,300.1 438.4,300.1 438.1,299.6 438.1,299.2 437.9,299 437.6,298.9 
		437.4,299.1 437.6,300.3 437.4,300.7 437.2,300.5 437.6,301.1 438.1,301.2 438.7,301.9 438.3,302.6 438.5,303 437.1,304.9 
		436.6,305 435.7,304.7 435,304.7 434.9,305 435.5,305.3 437.2,305.2 438.2,305 439.7,304.3 439.9,303.7 440.3,303.8 440.9,304.3 
		440.3,305.6 439.1,307 437.7,307.2 437.1,307.5 435.4,307.8 434.1,310.1 433.4,310.2 433.4,310.4 433.5,310.5 432,311.6 
		431.1,312.7 430.1,314.7 429.7,317.1 429.3,317.8 428.5,318.1 425.1,318.7 424.8,319 424.4,319.3 423.5,319.8 422.8,320.8 
		421.8,322.1 421.1,323.7 420.7,324.9 420.7,326.9 420.3,327.2 420.1,327.7 419.4,327.8 419,328.3 418.4,328.9 417.9,329.8 
		417.5,330.5 416.1,331.4 415.3,332.7 414.6,333.3 413.6,334 413,334.7 412.5,335.1 411.8,335.5 411.3,335.6 411,335.9 411.1,336.2 
		410.9,336.4 410.5,337.2 409.9,337.9 409.2,337.9 409.1,338 409,338.2 409.2,338.4 409.5,338.5 409.6,338.7 409.5,339 409.2,339.3 
		408.4,340 408.2,340.5 408.2,340.9 408.8,341.1 408.7,341.6 408.3,341.7 407.6,342.5 406.9,343.9 406.3,345.4 406.1,346.8 
		404.8,350.4 404.7,351.2 404.7,352.4 405,353.3 405.3,354.9 405.6,355.7 405.8,358 406.2,358.2 406.7,358.7 406.7,359.2 
		408.1,362.3 408.6,364.6 410.8,368.4 412.4,370.6 412.6,371 413.6,371.6 415,373 417.5,376.4 417.5,376.7 416.9,377.7 416.9,378.3 
		417.5,379.7 417.6,380.3 417.6,380.6 419.4,383.2 421,386.7 423.4,389.9 423.9,390.9 424.6,393.6 424.8,396.8 424.6,398.6 
		425.4,402 424.7,401.9 424,403.6 423.9,404.6 424.4,406.4 424.3,406.8 423.5,408.2 420,409.6 419.1,409.7 418.4,410.1 417.3,409.8 
		416.9,409.4 417,409 417.3,408.9 417.6,408.9 417.9,409 418.4,408.9 418.3,408.3 417.6,408 417.3,408 416.2,407.2 413.8,404.3 
		412.9,403.8 410.8,403.3 410.4,403 408.8,398.8 407.8,398.4 407,397.8 406.3,396.2 406.2,395.5 405.7,394.3 405,394.3 404.9,395 
		404.7,395.1 402.5,393.7 401.2,390.7 400.3,389.9 399.7,389.2 399.7,388.5 400.2,388.2 400.8,386.5 401.2,385.9 401.6,385.2 
		401.7,384.5 401.3,384.2 401.1,384.4 400.9,385.1 400.5,385.1 399.8,383.7 398.9,383.9 398.9,384.1 399.3,385.6 399.7,386 
		399.3,386.8 397.8,385.8 397.4,385.1 397.4,382.9 398,380.3 398.2,377.7 397.6,375.5 397.8,374.9 397.4,374.6 395.9,372.3 
		393.9,372.4 393.2,371.7 392.9,371 390.4,369.2 389.4,367.9 388.4,367 388.3,366.5 384.2,364.4 381.6,364.7 381.1,365.8 
		381.4,366.2 381.4,366.6 379.6,366.6 377.1,368.7 376,368.8 375.9,369.2 372.7,370.1 372.2,369.9 372.2,369.4 372.3,369.1 
		372.5,369.4 372.8,369.8 372.9,369.4 373,368.8 372.9,368.2 370.7,366.5 370.5,366.1 370.9,365.9 370.8,365.8 370.6,365.6 
		369.5,365.3 369.1,364.8 368.7,365.1 368.8,365.7 368.3,365.6 366.5,364.7 364.8,364 363,363.9 362.7,363.7 363.4,363.1 
		363.4,362.8 362.9,362.8 358.8,364.1 357.8,364.2 357.1,364.5 356.9,364.3 357.8,363.6 357.8,363.3 357.5,363.2 357.2,363.4 
		356.8,363.4 356.2,363.2 356.1,363.6 355.6,364.8 355.2,365.1 353.8,365.6 353.6,365.4 353.6,364.7 353.4,364.8 352.3,365.9 
		351.7,366 350.8,365.9 349.8,364.6 349.4,363.4 349.5,362.8 348.6,361.3 348,362.8 347.8,365 347.5,365.6 346.2,365.1 345.7,365.5 
		345.3,365.8 345,365.9 344,365.7 343.8,365.3 342.5,365.8 341.5,365.5 337.6,366.6 335.9,368.1 334.8,368 332.5,367.5 330.4,366.5 
		329.9,366.5 329.3,366.8 327.8,368.2 327.7,368.9 328.3,369.7 329.1,369.9 330.9,369.8 331.8,369.1 332.5,368.8 333.5,368.8 
		334,368.7 334.1,369.1 333.8,369.5 333.2,370.1 333.3,370.7 334,371 334.5,371.2 334.9,370.8 335.6,369.5 337.4,368.8 338,368.5 
		338.4,368.5 338.8,369.1 338.5,369.8 338.8,370.2 338.7,370.7 337.9,371.2 336.6,373 335.3,373.9 335.2,374.9 335.7,375.6 
		337.4,376.6 340.5,377.8 340.9,378.4 340.6,379.1 339.9,379.3 337.6,380.3 337.4,378.4 336,377.7 333.3,376.7 333,375.9 
		332.6,375.5 331.8,375.9 331.5,377.7 331.7,378 331.8,378.4 330.4,379.3 329.9,379.2 329.1,378.2 328.7,378.1 327.8,378.4 
		327.5,378 327.1,378.1 325.9,379.3 324.5,379.4 324,379.1 322.6,378.8 320.5,376.1 319.3,375.9 318,375.4 317.6,374.6 317.2,374.6 
		317.2,374.4 317,374.2 317.2,373.8 316.6,373.6 316.3,373.8 315.4,373.6 315.1,373.5 315,372.8 314.4,372.8 312.7,374.3 
		313.5,375.2 313.2,375.5 310.6,375.6 306,374.8 303.3,373.8 297.4,374.6 297.4,374.9 297.4,374.9 295.2,375.2 291.5,376.7 
		291.2,376.3 289.4,376.5 289.3,376.1 289.5,374.9 289.2,374.9 287.5,375.5 287.3,376.6 288.4,378.1 288.3,378.4 285.9,380.5 
		285.7,381.7 280.5,385.1 277.3,386 276.9,386.3 276.6,386.3 276.3,385.8 276.5,385.6 276.4,385.4 275.8,385.6 275.5,386 
		273.5,386.5 273.5,387 274.7,387.6 274.8,387.9 274.7,388.3 274.5,388.4 272.3,388.9 271.9,388.9 271.8,388.7 271.4,388.8 
		271.2,389.1 271.2,390.2 271.1,390.5 270.7,390.7 270.3,390.7 269.8,390.4 269.5,390.8 269.1,390.8 268.7,390.6 268.4,391.2 
		269.2,391.8 268.8,392.9 268.6,393.3 267.3,394.2 266.4,393.6 265.8,394.4 266,395.6 266.6,395.9 265.9,398.5 264.6,399.3 
		264.4,399.5 264.4,399.7 264.6,399.8 264.8,399.9 265.1,400.1 265.2,401.1 264.3,403.9 264.9,405.8 266.2,410.6 267,411.6 
		266.9,411.9 267.8,412.3 267.8,412.8 267.4,413.2 266.6,412.9 265.6,414.1 264.6,413.7 262.5,412.2 261.7,412.1 257.9,411.8 
		255,410 253.1,409.4 251.5,408.4 250.1,408.2 249.9,407.1 247.8,403.1 247.2,402.3 246.9,399.9 246.3,399.1 246.4,396.9 
		246.2,396.4 245.4,395.5 244.9,395.1 242.9,393 242.6,392.2 239.8,388.9 239.4,387.6 236.7,381.3 236.6,380.7 235.8,379.3 
		234,377.8 233,376.4 232.2,375.9 231.8,375.9 231.7,375.4 231.4,375.3 231,374.2 229.2,373.2 228.4,373.5 226.9,373.1 226.3,372.8 
		224,372.5 223.3,372 222.4,371.6 222,372.1 221.8,372.8 221.5,372.9 220.1,372.5 219.4,372.8 218.6,374.1 216.8,378.1 216.1,378.6 
		215.3,379.7 214.5,380.1 213.4,380 209.3,377.4 203.3,373.1 201.8,370.7 201.6,369.8 201.7,366.5 200.8,365.1 200.5,364.6 
		200.6,363.7 200.4,363 200,362.4 196,359.2 191.3,353.6 189.7,352.5 189.1,351.1 188.7,350.1 187.1,349 173.1,347.3 172.5,351.7 
		165.1,350.9 147.8,348.1 118.1,330.9 118.7,328.6 99,326.7 98.9,326.3 98.6,325.4 98.9,324.9 99,324.8 98.8,324.4 98.6,324.4 
		98.3,323.6 98.4,323.3 98.3,320 96.6,316.4 95.7,315.4 94.7,313.9 92.9,312.2 91.6,312.2 91,311.5 91.4,310.5 91,309.9 91.1,309.4 
		90.4,308.6 88.4,308.3 87.2,307.9 85.8,306.6 84.9,304.3 83.6,303.4 82.3,303.1 78.7,301.4 77.5,301.4 76,300.3 75,299.5 75,298.7 
		75.5,298 75.9,296.2 76.1,295 76.4,294.6 76,293.3 75.1,292.8 75,291.7 75.2,291.4 75.5,291.4 75.5,290.3 74.6,289.6 72.1,285.1 
		72,284 71.5,283 71.3,282.1 69.5,279.5 69.7,277 70.2,276.5 70.7,276.3 71.6,275.3 71.7,273.7 71.2,273.1 69.9,272.5 68.6,271.4 
		68.1,270.1 68.2,266.8 68.5,266.3 68.3,265.4 68.7,265.2 69,263.6 69.2,263.5 69.5,264.1 69.5,265.4 69.7,265.8 70.9,266.7 
		71.2,266.4 71.3,265.4 70.7,263.6 70.5,262.4 70.7,261 70.4,260.9 69.5,261.8 69.5,262.4 69.2,262.8 68.1,262.4 66.9,260.8 
		65.8,260.3 66.4,259.2 66.4,255.5 64.8,253.8 64.1,252.4 62.9,249.3 63.6,248.2 63.4,247.3 63.2,246.5 63.9,244.3 64.5,243.1 
		64.8,242.6 64.5,240.4 63.6,238.3 63.5,237.7 63.3,237.1 62.8,236.7 62.5,235.7 62.3,234.4 62.5,234.1 62.5,233 63.5,231.3 
		66.4,228.1 66.4,227.5 66.6,226.2 67.3,225.7 68,224.4 68.2,221.7 67.6,220.4 68.2,219.1 68.6,218.5 68.2,218 67.6,215.9 
		68.1,214.9 68.1,214 68.8,212.4 68.5,209.2 69,208.5 69.5,208.2 69.9,207.6 70.4,206.6 70.8,206.2 70.9,204.7 71.3,204.6 
		73.2,202.3 74.1,200.2 75.8,197.1 77.6,191.4 79,189 80.2,185.5 81.6,181.1 82.2,179.6 82.4,178.3 82.4,177.9 83.1,177.6 84,177.9 
		84.4,177.7 84.2,177.5 83,176.7 82.6,176.7 82.3,176.6 82.3,176.2 82.7,175 82.9,174.4 82.9,173.7 83.1,173.6 83.3,173.7 
		83.4,174.3 83.3,174.7 83.2,175 83.3,175.3 84.2,174.4 84.2,174.1 84.2,173.7 84.5,173.2 84.2,172.5 83.7,172.4 83.6,170.8 
		83.9,170.7 84.4,170.8 84.5,170.6 85.6,170.4 84.9,169.7 84.9,169.6 84.6,169.3 84,169.8 84,168.1 84.2,166.8 84,165.8 84,164.9 
		84.2,162.9 84.3,162 83.5,159.2 83.5,157.3 83.9,156.2 84.1,154.8 89.1,158.3 91.8,159.8 93.8,160.4 95,161.1 96.1,161.1 
		96.5,161.3 96.9,162 97,164.4 96.9,165 96.1,165.6 95.7,166.7 95.7,167.6 95.8,168.1 95.7,168.6 95.5,168.9 95.5,169.3 96,169.7 
		97,169.2 97.6,167 98,166.5 98.4,165.5 99.7,164.1 99.8,163.6 99.3,161.6 98.2,158.8 98.1,158.3 98.5,158.2 99,158.3 99.6,157 
		99.5,155.6 98.7,155.6 98.6,154.6 98.5,152.8 109.3,155.7 119.4,158.5 136.1,162.6 142.6,163.9 150.1,165.2 170.4,168.6 
		191.1,172.1 223.6,175.5 237.3,176.4 247,177.1 269.9,177.8 283.7,177.7 283.8,175.4 284,174 285,174 286.4,174.6 286.6,176.8 
		287,178.4 286.9,179.7 288.4,180.8 289,180.7 290.1,180.8 290.5,181.4 291.7,181.2 293,181.4 293.3,181.9 293.3,182.3 295.3,182.2 
		295.9,181.4 298.9,181.3 300.8,181.8 301.3,181.8 301,182.4 301.6,183 301.9,182.8 302.2,183.2 302.6,184.5 303.3,184.9 
		304.1,183.9 304.5,183.7 305.3,183.9 305.8,184.9 307.3,185.3 307.8,185.9 308.5,186.5 309.6,186.5 310.6,186.2 313.2,184.4 
		313.6,184.6 314.4,185.5 318.3,185.4 319,185.6 319.5,185.9 320.5,186.6 321.4,186.2 323.1,186.2 322.1,187.1 319.8,188.5 
		318.5,188.8 317.6,189.2 316.5,190.2 314.5,191.1 313.6,191.8 310.2,195.5 305.5,199.9 306.2,200.3 307.1,200.5 308.3,200.4 
		310.2,199.2 313.8,197.4 314.5,197.3 314.7,197.7 314.7,198.6 314.4,199 314.4,199.5 314,200.9 315.4,200.3 316.1,200.3 
		316.9,201.1 317.7,200.9 319.2,200.5 319.9,200 321.4,199.1 321.7,198.4 322.3,198.3 325.1,197.2 327,196.2 329.2,193.9 330,193.8 
		331.8,191.7 333.1,191 335.2,190.6 335.8,190.8 335.9,191 334.7,191.8 334.4,191.9 333.9,192.9 332.4,194.5 331.7,195.2 
		331.3,195.7 331,197.2 331.3,198.1 331.5,197.6 332.8,196.5 333.7,196.6 334.2,196.4 337,197.6 339.3,200 341.1,199.8 341.9,200 
		342.5,200.3 343.1,200.3 343.3,200.2 344,200.5 344,200.8 344.4,200.5 344.7,199.8 346.7,198.4 353.1,196.8 354.8,195.8 
		355.6,195.6 355.9,196 355.4,196.8 355.4,197.4 356.2,199 356.7,199.1 357,198.9 358,199 358.5,198.7 360.5,198.5 361.4,199 
		362.2,200.6 362.9,201.2 364.4,202 366.1,201.6 366.5,201.6 366.9,202 367,202.5 366.4,203.2 365.3,203.3 364.7,203.2 364.6,202.8 
		364.2,202.8 363.2,203.4 362.5,203.2 361.9,203.1 360.1,203.5 359,203.2 358.6,203.5 358.9,204.4 358.6,204.7 358.2,204.6 
		357.1,203.7 354.5,203.3 353.9,203.5 353.3,203.2 351.5,204.5 351.1,204.5 350.4,204.9 350.1,205.2 349.7,205.4 348.7,205.1 
		347.6,205.4 347.5,206.3 347.2,206.7 345,208.8 344.6,208.6 344.4,208.3 345.4,207 345.4,206.3 344,206.4 343.6,207.6 343.1,208.1 
		342.6,207.5 342.5,206.4 342.2,206.6 342,208 341.2,209.4 340.7,210.9 340.3,211.8 339.2,213.4 339.2,214.4 339,214.9 338.9,215 
		337.4,216.6 336.4,218.5 336.1,219.8 335.9,220.5 336.3,220.7 337.4,220.1 338.5,217.9 339.9,216.9 340.5,216.6 340.7,216 
		341.2,215.5 341.5,214.9 341.4,214.2 341.5,213.6 341.8,213.4 342.1,212.7 342.5,212.4 342.8,212.3 343.1,212.7 342.9,214 
		341.9,216.6 341.4,217.2 341.2,218.2 341.2,218.7 340.3,220.8 340.3,222.6 340.2,223.9 339.2,224.8 338.9,225.5 339.3,226.9 
		339.4,229.4 338.9,229.9 338.1,232.5 338.6,236.3 339.7,238.8 339.4,239.3 339.6,239.7 339.5,240.2 339.6,241.3 339.6,243.1 
		340.3,244.6 341.1,245.3 341.4,245.9 341.8,248.1 342.1,248.8 342.5,249.1 343.6,249.8 345,249.6 345.7,249.3 346.9,248.8 
		347.3,248.4 347.7,248 348.8,247 350.1,244.1 350.7,242.6 351.1,241.1 351.3,238.9 351.7,238.6 351.7,238.3 351.2,237.8 
		351.2,235.7 350.1,233.2 348.7,230.2 348.1,229 348.5,227.6 347.8,225.4 347.6,224.5 348.2,223.8 348.8,222.4 349,221.4 
		349.1,219.5 349.2,217.9 350,217 350.1,216.4 350.5,215.7 351.4,214.9 352,214.9 352.3,214.3 352.4,213.4 352.9,212.6 353.3,212.3 
		353.4,212.6 353.2,213.1 353.6,214.2 353.2,215.2 353.4,216.1 354.3,215.6 354.9,214.4 354.8,213.4 354.6,212.2 355.2,211.2 
		355.7,210.5 356.2,210.2 356.8,209.8 357.1,209.7 357,209.2 356.7,209.2 356.5,208.8 356.5,207.6 357.3,206.2 358.1,205.9 
		358.7,205.3 359.8,206 361.2,206.5 362.7,206.8 363.3,207.6 365.3,207.9 367.9,209 368.8,209.4 369.8,211.3 369.7,211.5 
		368.8,211.8 368.6,212.5 368.9,213 369.7,214 370.1,214.6 370.5,215.9 370.5,218.5 369.9,219.7 369.3,220.1 369.1,220.8 369,221.4 
		368.7,222.1 367.4,222.9 367,223.6 366.7,225.2 367.1,226.1 367.4,226.4 368.4,226.8 368.6,226.9 368.9,226.9 371.5,223 372.5,222 
		373.4,221.4 375.7,222.1 377.9,228 378.2,230.4 378.7,231.6 378.5,233.3 378.7,234.6 378.6,235.4 378.4,235.7 377.9,236 377.6,236 
		377.3,235.2 376.6,235.9 376.6,236.6 376.4,236.8 376.4,238.2 375.1,239.3 374.7,240.5 374.8,242.1 374.3,242.7 373.1,245.1 
		372.9,245.6 372.9,246 374,245.8 374.5,245.9 377,246.7 378,246.9 378.4,247 378,247.6 378.5,247.8 378.9,247.5 380.4,248 
		381.1,248.1 382.9,246.6 383.6,246.4 384.9,246.4 385.6,246.5 386.2,246.1 388.4,243.7 389,243.1 390.8,242.1 394.5,240.2 
		395.2,239.7 396.7,238.5 397.1,237.5 397.4,237.5 397.6,237.8 397.9,237.6 399.7,236 400.9,235 404,231.9 404.5,230.4 405.1,230 
		405.3,229.4 405.2,228.6 404.9,228.4 403.4,226.7 403.4,225.8 403.8,224.6 404.8,223.9 407.1,223 409.2,222.6 411.2,222.4 
		412.4,222.6 413.6,223.1 417.5,222 419.1,221.4 421.4,219.1 422.9,218.4 423.1,217 422.5,216.1 422.3,215.3 422.7,214.7 
		422.7,214.2 422.2,214 421.6,214 421.3,213.9 421,212.9 421.2,212.4 424.1,209.5 424.5,208.3 424.2,207.8 424.6,207.2 427,204.1 
		429.3,201.6 430,201.2 430.4,201.1 430.6,201.4 440.1,199 453.1,195.7 453.5,193.9 453,193.2 453.1,193 453.7,193 453.9,192.3 
		454.4,192.5 455,192.4 455.3,192 456.1,191.3 456.7,191.6 457.1,191.7 457.3,191.1 457.2,190.2 458,190.2 458,190.1 457.6,188.9 
		457.7,188.3 459,186.6 459,185.6 459.4,184.5 458.6,181 458.9,180.2 459.3,179.8 459.6,179.1 459.5,178.2 459,177.5 459.2,176.3 
		461.8,167.6 463,167.1 463.4,167.1 463.8,167.6 463.6,168.7 464.2,169.5 464.7,169.3 466.3,168.1 467.5,167.5 467.9,167.5 
		468.1,166.9 468.3,166.4 469.1,166.4 469.9,166.5 473,168.5 476.5,179.6 476.6,180 477.1,181.5 477.4,181.8 478.1,181.8 
		479.2,182.2 479.4,181.9 479.9,181.9 480.1,182.2 480.3,182.7 480,183.1 480.6,185.6 481.4,185.8 482,185.7 482.3,185.4 
		482.8,185.3 483.5,185.7 484.2,186.9 484.2,187.5 483.9,187.7 483.7,188.4 484.1,188.6 484.2,188.5 484.8,188.8 	"/>
	<polygon class="st0" points="273.1,389.2 268.5,394.8 267.8,394.5 268.6,393.3 268.8,392.9 269.2,392.3 	"/>
</g>
</svg>
