<svg id="Layer_1" data-name="Layer 1" xmlns="http://www.w3.org/2000/svg" viewBox="0 0 566.93 566.93"><defs><style>.cls-1{fill:none;stroke-width:3px;}.cls-1,.cls-2{stroke:#c32b38;stroke-miterlimit:10;}.cls-2{fill:#fff;stroke-width:5px;}</style></defs><path class="cls-1" d="M117.92,270.89v52.28a25.65,25.65,0,0,1-25.66,25.65h0a25.65,25.65,0,0,1-25.65-25.65V245.82a79.13,79.13,0,0,1,79.13-79.13h95a79.14,79.14,0,0,1,79.14,79.13v71.57"/><path class="cls-1" d="M470.45,317.39V265.12a25.66,25.66,0,0,1,25.66-25.66h0a25.66,25.66,0,0,1,25.66,25.66v77.34a79.14,79.14,0,0,1-79.14,79.14h-95a79.14,79.14,0,0,1-79.14-79.14V270.89"/><circle class="cls-2" cx="193.23" cy="160.55" r="51.12"/><circle class="cls-2" cx="395.15" cy="427.74" r="51.12"/></svg>