<?xml version="1.0" encoding="utf-8"?>
<!-- Generator: Adobe Illustrator 26.0.2, SVG Export Plug-In . SVG Version: 6.00 Build 0)  -->
<svg version="1.1" id="Слой_1" xmlns="http://www.w3.org/2000/svg" xmlns:xlink="http://www.w3.org/1999/xlink" x="0px" y="0px"
	 viewBox="0 0 566.9 566.9" style="enable-background:new 0 0 566.9 566.9;" xml:space="preserve">
<style type="text/css">
	.st0{fill:#FFFFFF;stroke:#C22C38;stroke-width:3;stroke-miterlimit:10;}
	.st1{fill:none;stroke:#C22C38;stroke-width:3;stroke-miterlimit:10;}
	.st2{fill:#C22C38;stroke:#C22C38;stroke-width:0.25;stroke-miterlimit:10;}
</style>
<g>
	<path class="st0" d="M196.4,386.7"/>
	<path class="st0" d="M149.7,309.7"/>
	<path class="st1" d="M8.5,289.9h54.7l0.2-33.4l17.2-2.8c0,0,4.5-39,59.9-40.1v102h31c0,0-11.8,4.3-14.3,25.8H78.7
		c0,0-4.1-31.1-33.3-31.4c0,0-27.1-3.1-31.1,31.4H5v-51.5H8.5L8.5,289.9z"/>
	<rect x="72.7" y="264.4" class="st1" width="26.5" height="26.1"/>
	<circle class="st1" cx="46.2" cy="341.3" r="24.7"/>
	<circle class="st1" cx="189.6" cy="341.3" r="24.7"/>
	<circle class="st1" cx="246.4" cy="341.3" r="24.7"/>
	<circle class="st1" cx="433.3" cy="341.3" r="24.7"/>
	<circle class="st1" cx="491.6" cy="341.3" r="24.7"/>
	<polygon class="st1" points="147.3,306.9 147.3,264.2 150.3,264.2 150.3,261.3 153.2,261.3 153.2,211.6 161.5,211.6 161.5,261.3 
		164.6,261.1 164.6,264.6 168.5,264.6 168.5,308.9 147.3,308.9 	"/>
	<path class="st1" d="M181.1,211.6v96.7h82.4c0,0,14.9,0.3,21.1,20.8h118.5c0,0,7.1-20.8,30.2-20.5c23,0.3,29.2,20.5,29.2,20.5
		s4.3-20.2,28.3-20.2c24,0,30.2,20.2,30.2,20.2H548V211.6L181.1,211.6L181.1,211.6z"/>
	<path class="st1" d="M203.9,313.8h28.4c-5.5,4.3-10.3,9.6-14.2,15.6C214.3,323.4,209.4,318.1,203.9,313.8L203.9,313.8z"/>
</g>
<g>
	<path class="st2" d="M414.2,295.2l-9.1-5.4l5.5-3.3c0.7-0.4,0.9-1.3,0.5-2.1c-0.4-0.7-1.3-1-2-0.6l-7,4.1l-6.9-4.1l14.1-8.3
		c0.7-0.4,0.9-1.3,0.5-2.1c-0.4-0.7-1.3-1-2-0.6l-15.6,9.2l-10.8-6.4l12.9-5.9l-13-5.8l10.8-6.4l15.6,9.2c0.2,0.2,0.5,0.2,0.7,0.2
		c0.5,0,1-0.3,1.3-0.8c0.4-0.7,0.2-1.6-0.5-2.1l-14.1-8.3l6.9-4.1l7,4.1c0.2,0.2,0.5,0.2,0.7,0.2c0.5,0,1-0.3,1.3-0.8
		c0.4-0.7,0.1-1.6-0.5-2.1l-5.5-3.2l9.1-5.4c0.7-0.4,0.9-1.3,0.5-2.1c-0.4-0.7-1.3-1-2-0.6l-9.1,5.4l0-6.5c0-0.8-0.7-1.5-1.5-1.5
		c-0.8,0-1.5,0.7-1.5,1.5l0,8.2l-6.9,4.1l0-16.7c0-0.8-0.7-1.5-1.5-1.5c-0.8,0-1.5,0.7-1.5,1.5l0,18.4l-10.8,6.4l1.5-14.4l-11.4,8.6
		l0-12.8l15.6-9.2c0.7-0.4,0.9-1.3,0.5-2.1c-0.4-0.7-1.3-1-2-0.6l-14.1,8.3l0-8.1l7-4.1c0.7-0.4,0.9-1.3,0.5-2.1
		c-0.4-0.7-1.3-1-2-0.6l-5.5,3.3l0-10.7c0-0.8-0.7-1.5-1.5-1.5c-0.8,0-1.5,0.7-1.5,1.5l0,10.7l-5.5-3.2c-0.7-0.4-1.6-0.2-2,0.6
		c-0.4,0.7-0.1,1.6,0.5,2.1l7,4.1l0,8.2l-14.1-8.3c-0.7-0.4-1.6-0.2-2,0.6c-0.4,0.7-0.1,1.6,0.5,2.1l15.6,9.2l0,12.8l-11.4-8.5
		l1.5,14.4l-10.8-6.4l0-18.4c0-0.8-0.7-1.5-1.5-1.5c-0.8,0-1.5,0.7-1.5,1.5l0,16.7l-6.9-4.1l0-8.3c0-0.8-0.7-1.5-1.5-1.5
		c-0.8,0-1.5,0.7-1.5,1.5l0,6.5l-9.1-5.4c-0.7-0.4-1.6-0.2-2,0.6c-0.4,0.7-0.1,1.6,0.5,2.1l9.1,5.4l-5.5,3.3
		c-0.7,0.4-0.9,1.3-0.5,2.1c0.3,0.5,0.8,0.8,1.3,0.8c0.2,0,0.5-0.1,0.7-0.2l7-4.1l6.9,4.1l-14.1,8.3c-0.7,0.4-0.9,1.3-0.5,2.1
		c0.3,0.5,0.8,0.8,1.3,0.8c0.2,0,0.5-0.1,0.7-0.2l15.6-9.2l10.8,6.4l-12.9,5.9l13,5.8l-10.8,6.4l-15.6-9.2c-0.7-0.4-1.6-0.2-2,0.6
		c-0.4,0.8-0.1,1.6,0.5,2.1l14.1,8.3l-6.9,4.1l-7-4.1c-0.7-0.4-1.6-0.2-2,0.6c-0.4,0.7-0.1,1.6,0.5,2.1l5.5,3.2l-9,5.4
		c-0.7,0.4-0.9,1.3-0.5,2.1c0.3,0.5,0.8,0.8,1.3,0.8c0.2,0,0.5-0.1,0.7-0.2l9.1-5.4l0,6.5c0,0.8,0.7,1.5,1.5,1.5l0,0
		c0.8,0,1.5-0.7,1.5-1.5l0-8.3l6.9-4.1l0,16.7c0,0.8,0.7,1.5,1.5,1.5s1.5-0.7,1.5-1.5l0-18.4l10.8-6.4l-1.5,14.4l11.4-8.6l0,12.8
		l-15.6,9.2c-0.7,0.4-0.9,1.3-0.5,2.1c0.4,0.7,1.3,1,2,0.6l14.1-8.3l0,8.2l-7,4.1c-0.7,0.4-0.9,1.3-0.5,2.1c0.4,0.7,1.3,1,2,0.6
		l5.5-3.3l0,10.7c0,0.8,0.7,1.5,1.5,1.5c0.8,0,1.5-0.7,1.5-1.5l0-10.7l5.5,3.2c0.2,0.2,0.5,0.2,0.7,0.2c0.5,0,1-0.3,1.3-0.8
		c0.4-0.7,0.2-1.6-0.5-2.1l-7-4.1l0-8.2l14.1,8.3c0.2,0.2,0.5,0.2,0.7,0.2c0.5,0,1-0.3,1.3-0.8c0.4-0.7,0.2-1.6-0.5-2.1l-15.6-9.2
		l0-12.7l11.4,8.5l-1.5-14.4l10.8,6.4l0,18.4c0,0.8,0.7,1.5,1.5,1.5c0.8,0,1.5-0.7,1.5-1.5l0-16.7l6.9,4.1l0,8.2
		c0,0.8,0.7,1.5,1.5,1.5c0.8,0,1.5-0.7,1.5-1.5l0-6.5l9.1,5.4c0.2,0.1,0.5,0.2,0.7,0.2c0.5,0,1-0.3,1.3-0.8
		C415.2,296.5,414.9,295.6,414.2,295.2z M377.8,286.3l-7.8-5.8l-1.5-1.1l-1.5,1.1l-7.7,5.8l1-9.8l0.2-1.9l-1.7-0.8L350,270l8.8-4
		l1.7-0.8l-0.2-1.9l-1.1-9.8l7.8,5.8l1.5,1.1l1.5-1.1l7.7-5.8l-1,9.8l-0.2,1.9l1.7,0.8l8.8,3.9l-8.7,4l-1.7,0.8l0.2,1.9L377.8,286.3
		z"/>
</g>
</svg>
