<?xml version="1.0" encoding="utf-8"?>
<!-- Generator: Adobe Illustrator 26.0.2, SVG Export Plug-In . SVG Version: 6.00 Build 0)  -->
<svg version="1.1" id="Слой_1" xmlns="http://www.w3.org/2000/svg" xmlns:xlink="http://www.w3.org/1999/xlink" x="0px" y="0px"
	 viewBox="0 0 566.9 566.9" style="enable-background:new 0 0 566.9 566.9;" xml:space="preserve">
<style type="text/css">
	.st0{fill:none;stroke:#C22C38;stroke-width:4;stroke-miterlimit:10;}
	.st1{fill:#C22C38;}
</style>
<ellipse class="st0" cx="300.4" cy="299" rx="69.8" ry="67.1"/>
<g>
	<path class="st1" d="M300.7,186.9c47.4,0,90.6,13.7,128.6,40.7c37,26.3,57.6,57.5,65.4,71c-18.3,30.1-40.9,54.8-67.2,73.3
		c-36.4,25.6-79,38.6-126.8,38.6c-108.1,0-178.5-65.1-194.4-111.8c5.2-17.2,25.7-45,60.5-69.1c18.4-12.8,38.5-22.9,59.6-30.1
		C250.5,191,275.5,186.9,300.7,186.9 M300.7,182.9c-109.3,0-187.7,76.9-198.4,115.3c-0.1,0.3-0.1,0.6,0,0.9
		c16.2,49.1,89.1,115.3,198.4,115.3c109.1,0,169-66.5,198.2-115c0.3-0.5,0.3-1,0.1-1.5C474.8,255,409.7,182.9,300.7,182.9
		L300.7,182.9z"/>
</g>
<polyline class="st0" points="116.1,222 116.1,124.2 218.1,124 "/>
<polyline class="st0" points="381.1,124 482.9,124 483.1,222 "/>
<polyline class="st0" points="481.8,375.6 481.4,473.4 379.8,473.6 "/>
<polyline class="st0" points="218.7,472.9 116.9,473.9 115.4,376.2 "/>
<path class="st0" d="M271.8,275.8"/>
<path class="st0" d="M337.8,299c0,19.8-16.7,35.9-37.4,35.9c-20.8,0-37.7-16.4-37.4-36.4c0.3-19,16.1-34.7,35.9-35.4
	c4.1-0.2,8,0.3,11.8,1.3c1.8,0.5,2.6,2.5,1.6,4c-1.5,2.3-2.4,5.1-2.2,8c0.3,6.9,6.1,12.5,13.3,13c3.3,0.2,6.3-0.6,8.8-2.2
	c1.6-1,3.7-0.2,4.2,1.5C337.2,292,337.8,295.5,337.8,299z"/>
</svg>
